<?xml version="1.0" encoding="utf-8"?>
<svg xmlns="http://www.w3.org/2000/svg" xmlns:xlink="http://www.w3.org/1999/xlink" width="500" height="300" viewBox="0 0 2000 1200">
<defs>
  <clipPath id="clip580">
    <rect x="0" y="0" width="2000" height="1200"/>
  </clipPath>
</defs>
<path clip-path="url(#clip580)" d="M0 1200 L2000 1200 L2000 0 L0 0  Z" fill="#ffffff" fill-rule="evenodd" fill-opacity="1"/>
<defs>
  <clipPath id="clip581">
    <rect x="400" y="0" width="1401" height="1200"/>
  </clipPath>
</defs>
<path clip-path="url(#clip580)" d="M114.473 1086.13 L1952.76 1086.13 L1952.76 47.2441 L114.473 47.2441  Z" fill="#ffffff" fill-rule="evenodd" fill-opacity="1"/>
<defs>
  <clipPath id="clip582">
    <rect x="114" y="47" width="1839" height="1040"/>
  </clipPath>
</defs>
<polyline clip-path="url(#clip580)" style="stroke:#000000; stroke-linecap:round; stroke-linejoin:round; stroke-width:4; stroke-opacity:1; fill:none" points="114.473,1086.13 1952.76,1086.13 "/>
<polyline clip-path="url(#clip580)" style="stroke:#000000; stroke-linecap:round; stroke-linejoin:round; stroke-width:4; stroke-opacity:1; fill:none" points="137.107,1086.13 137.107,1067.23 "/>
<polyline clip-path="url(#clip580)" style="stroke:#000000; stroke-linecap:round; stroke-linejoin:round; stroke-width:4; stroke-opacity:1; fill:none" points="578.012,1086.13 578.012,1067.23 "/>
<polyline clip-path="url(#clip580)" style="stroke:#000000; stroke-linecap:round; stroke-linejoin:round; stroke-width:4; stroke-opacity:1; fill:none" points="1018.92,1086.13 1018.92,1067.23 "/>
<polyline clip-path="url(#clip580)" style="stroke:#000000; stroke-linecap:round; stroke-linejoin:round; stroke-width:4; stroke-opacity:1; fill:none" points="1459.82,1086.13 1459.82,1067.23 "/>
<polyline clip-path="url(#clip580)" style="stroke:#000000; stroke-linecap:round; stroke-linejoin:round; stroke-width:4; stroke-opacity:1; fill:none" points="1900.73,1086.13 1900.73,1067.23 "/>
<path clip-path="url(#clip580)" d="M137.107 1116.78 Q132.593 1116.78 130.307 1121.23 Q128.05 1125.66 128.05 1134.57 Q128.05 1143.45 130.307 1147.91 Q132.593 1152.34 137.107 1152.34 Q141.649 1152.34 143.906 1147.91 Q146.192 1143.45 146.192 1134.57 Q146.192 1125.66 143.906 1121.23 Q141.649 1116.78 137.107 1116.78 M137.107 1112.15 Q144.369 1112.15 148.189 1117.9 Q152.037 1123.63 152.037 1134.57 Q152.037 1145.48 148.189 1151.24 Q144.369 1156.97 137.107 1156.97 Q129.844 1156.97 125.996 1151.24 Q122.176 1145.48 122.176 1134.57 Q122.176 1123.63 125.996 1117.9 Q129.844 1112.15 137.107 1112.15 Z" fill="#000000" fill-rule="nonzero" fill-opacity="1" /><path clip-path="url(#clip580)" d="M565.859 1112.93 L588.805 1112.93 L588.805 1117.85 L571.212 1117.85 L571.212 1128.44 Q572.486 1128 573.759 1127.8 Q575.032 1127.57 576.305 1127.57 Q583.539 1127.57 587.763 1131.53 Q591.988 1135.5 591.988 1142.27 Q591.988 1149.24 587.648 1153.12 Q583.307 1156.97 575.408 1156.97 Q572.688 1156.97 569.853 1156.5 Q567.046 1156.04 564.037 1155.12 L564.037 1149.24 Q566.641 1150.66 569.419 1151.35 Q572.196 1152.05 575.292 1152.05 Q580.298 1152.05 583.221 1149.41 Q586.143 1146.78 586.143 1142.27 Q586.143 1137.75 583.221 1135.12 Q580.298 1132.49 575.292 1132.49 Q572.949 1132.49 570.605 1133.01 Q568.29 1133.53 565.859 1134.63 L565.859 1112.93 Z" fill="#000000" fill-rule="nonzero" fill-opacity="1" /><path clip-path="url(#clip580)" d="M987.277 1151.21 L996.826 1151.21 L996.826 1118.25 L986.438 1120.34 L986.438 1115.01 L996.768 1112.93 L1002.61 1112.93 L1002.61 1151.21 L1012.16 1151.21 L1012.16 1156.13 L987.277 1156.13 L987.277 1151.21 Z" fill="#000000" fill-rule="nonzero" fill-opacity="1" /><path clip-path="url(#clip580)" d="M1036.47 1116.78 Q1031.95 1116.78 1029.67 1121.23 Q1027.41 1125.66 1027.41 1134.57 Q1027.41 1143.45 1029.67 1147.91 Q1031.95 1152.34 1036.47 1152.34 Q1041.01 1152.34 1043.27 1147.91 Q1045.55 1143.45 1045.55 1134.57 Q1045.55 1125.66 1043.27 1121.23 Q1041.01 1116.78 1036.47 1116.78 M1036.47 1112.15 Q1043.73 1112.15 1047.55 1117.9 Q1051.4 1123.63 1051.4 1134.57 Q1051.4 1145.48 1047.55 1151.24 Q1043.73 1156.97 1036.47 1156.97 Q1029.2 1156.97 1025.36 1151.24 Q1021.54 1145.48 1021.54 1134.57 Q1021.54 1123.63 1025.36 1117.9 Q1029.2 1112.15 1036.47 1112.15 Z" fill="#000000" fill-rule="nonzero" fill-opacity="1" /><path clip-path="url(#clip580)" d="M1428.81 1151.21 L1438.35 1151.21 L1438.35 1118.25 L1427.97 1120.34 L1427.97 1115.01 L1438.3 1112.93 L1444.14 1112.93 L1444.14 1151.21 L1453.69 1151.21 L1453.69 1156.13 L1428.81 1156.13 L1428.81 1151.21 Z" fill="#000000" fill-rule="nonzero" fill-opacity="1" /><path clip-path="url(#clip580)" d="M1465.55 1112.93 L1488.5 1112.93 L1488.5 1117.85 L1470.91 1117.85 L1470.91 1128.44 Q1472.18 1128 1473.45 1127.8 Q1474.72 1127.57 1476 1127.57 Q1483.23 1127.57 1487.46 1131.53 Q1491.68 1135.5 1491.68 1142.27 Q1491.68 1149.24 1487.34 1153.12 Q1483 1156.97 1475.1 1156.97 Q1472.38 1156.97 1469.55 1156.5 Q1466.74 1156.04 1463.73 1155.12 L1463.73 1149.24 Q1466.33 1150.66 1469.11 1151.35 Q1471.89 1152.05 1474.99 1152.05 Q1479.99 1152.05 1482.91 1149.41 Q1485.84 1146.78 1485.84 1142.27 Q1485.84 1137.75 1482.91 1135.12 Q1479.99 1132.49 1474.99 1132.49 Q1472.64 1132.49 1470.3 1133.01 Q1467.98 1133.53 1465.55 1134.63 L1465.55 1112.93 Z" fill="#000000" fill-rule="nonzero" fill-opacity="1" /><path clip-path="url(#clip580)" d="M1874.2 1151.21 L1894.59 1151.21 L1894.59 1156.13 L1867.16 1156.13 L1867.16 1151.21 Q1870.49 1147.77 1876.22 1141.98 Q1881.98 1136.16 1883.45 1134.48 Q1886.26 1131.33 1887.36 1129.16 Q1888.49 1126.96 1888.49 1124.85 Q1888.49 1121.41 1886.06 1119.24 Q1883.66 1117.07 1879.78 1117.07 Q1877.03 1117.07 1873.96 1118.02 Q1870.93 1118.98 1867.45 1120.91 L1867.45 1115.01 Q1870.98 1113.59 1874.05 1112.87 Q1877.12 1112.15 1879.66 1112.15 Q1886.38 1112.15 1890.37 1115.5 Q1894.36 1118.86 1894.36 1124.47 Q1894.36 1127.13 1893.35 1129.54 Q1892.37 1131.91 1889.73 1135.15 Q1889.01 1135.99 1885.13 1140.01 Q1881.26 1144 1874.2 1151.21 Z" fill="#000000" fill-rule="nonzero" fill-opacity="1" /><path clip-path="url(#clip580)" d="M1919.36 1116.78 Q1914.85 1116.78 1912.56 1121.23 Q1910.31 1125.66 1910.31 1134.57 Q1910.31 1143.45 1912.56 1147.91 Q1914.85 1152.34 1919.36 1152.34 Q1923.91 1152.34 1926.16 1147.91 Q1928.45 1143.45 1928.45 1134.57 Q1928.45 1125.66 1926.16 1121.23 Q1923.91 1116.78 1919.36 1116.78 M1919.36 1112.15 Q1926.63 1112.15 1930.45 1117.9 Q1934.29 1123.63 1934.29 1134.57 Q1934.29 1145.48 1930.45 1151.24 Q1926.63 1156.97 1919.36 1156.97 Q1912.1 1156.97 1908.25 1151.24 Q1904.43 1145.48 1904.43 1134.57 Q1904.43 1123.63 1908.25 1117.9 Q1912.1 1112.15 1919.36 1112.15 Z" fill="#000000" fill-rule="nonzero" fill-opacity="1" /><polyline clip-path="url(#clip580)" style="stroke:#000000; stroke-linecap:round; stroke-linejoin:round; stroke-width:4; stroke-opacity:1; fill:none" points="114.473,1086.13 114.473,47.2441 "/>
<polyline clip-path="url(#clip580)" style="stroke:#000000; stroke-linecap:round; stroke-linejoin:round; stroke-width:4; stroke-opacity:1; fill:none" points="114.473,1060.09 133.371,1060.09 "/>
<polyline clip-path="url(#clip580)" style="stroke:#000000; stroke-linecap:round; stroke-linejoin:round; stroke-width:4; stroke-opacity:1; fill:none" points="114.473,875.813 133.371,875.813 "/>
<polyline clip-path="url(#clip580)" style="stroke:#000000; stroke-linecap:round; stroke-linejoin:round; stroke-width:4; stroke-opacity:1; fill:none" points="114.473,691.532 133.371,691.532 "/>
<polyline clip-path="url(#clip580)" style="stroke:#000000; stroke-linecap:round; stroke-linejoin:round; stroke-width:4; stroke-opacity:1; fill:none" points="114.473,507.252 133.371,507.252 "/>
<polyline clip-path="url(#clip580)" style="stroke:#000000; stroke-linecap:round; stroke-linejoin:round; stroke-width:4; stroke-opacity:1; fill:none" points="114.473,322.971 133.371,322.971 "/>
<polyline clip-path="url(#clip580)" style="stroke:#000000; stroke-linecap:round; stroke-linejoin:round; stroke-width:4; stroke-opacity:1; fill:none" points="114.473,138.69 133.371,138.69 "/>
<path clip-path="url(#clip580)" d="M69.543 1042.34 Q65.0291 1042.34 62.7432 1046.8 Q60.4863 1051.23 60.4863 1060.14 Q60.4863 1069.02 62.7432 1073.48 Q65.0291 1077.9 69.543 1077.9 Q74.0858 1077.9 76.3427 1073.48 Q78.6286 1069.02 78.6286 1060.14 Q78.6286 1051.23 76.3427 1046.8 Q74.0858 1042.34 69.543 1042.34 M69.543 1037.71 Q76.8057 1037.71 80.6251 1043.47 Q84.4734 1049.2 84.4734 1060.14 Q84.4734 1071.05 80.6251 1076.8 Q76.8057 1082.53 69.543 1082.53 Q62.2803 1082.53 58.4319 1076.8 Q54.6125 1071.05 54.6125 1060.14 Q54.6125 1049.2 58.4319 1043.47 Q62.2803 1037.71 69.543 1037.71 Z" fill="#000000" fill-rule="nonzero" fill-opacity="1" /><path clip-path="url(#clip580)" d="M59.5893 892.494 L69.1379 892.494 L69.1379 859.537 L58.7502 861.621 L58.7502 856.297 L69.08 854.213 L74.9249 854.213 L74.9249 892.494 L84.4734 892.494 L84.4734 897.413 L59.5893 897.413 L59.5893 892.494 Z" fill="#000000" fill-rule="nonzero" fill-opacity="1" /><path clip-path="url(#clip580)" d="M64.0742 708.213 L84.4734 708.213 L84.4734 713.132 L57.043 713.132 L57.043 708.213 Q60.3706 704.77 66.0997 698.983 Q71.8578 693.167 73.3335 691.489 Q76.1402 688.335 77.2397 686.165 Q78.3681 683.966 78.3681 681.854 Q78.3681 678.41 75.9376 676.24 Q73.536 674.07 69.6587 674.07 Q66.9099 674.07 63.8428 675.025 Q60.8046 675.98 57.3324 677.918 L57.3324 672.016 Q60.8625 670.598 63.9296 669.875 Q66.9967 669.151 69.543 669.151 Q76.2559 669.151 80.2489 672.508 Q84.242 675.864 84.242 681.477 Q84.242 684.14 83.2292 686.541 Q82.2454 688.914 79.6124 692.155 Q78.889 692.994 75.0117 697.016 Q71.1344 701.009 64.0742 708.213 Z" fill="#000000" fill-rule="nonzero" fill-opacity="1" /><path clip-path="url(#clip580)" d="M75.5614 505.559 Q79.757 506.456 82.1008 509.292 Q84.4734 512.127 84.4734 516.294 Q84.4734 522.688 80.0753 526.19 Q75.6772 529.691 67.5754 529.691 Q64.8555 529.691 61.962 529.141 Q59.0974 528.62 56.0303 527.55 L56.0303 521.907 Q58.4608 523.325 61.3543 524.048 Q64.2479 524.772 67.4018 524.772 Q72.8994 524.772 75.764 522.602 Q78.6575 520.432 78.6575 516.294 Q78.6575 512.474 75.9665 510.333 Q73.3045 508.163 68.5302 508.163 L63.4955 508.163 L63.4955 503.36 L68.7617 503.36 Q73.073 503.36 75.3589 501.653 Q77.6448 499.917 77.6448 496.676 Q77.6448 493.348 75.2721 491.583 Q72.9284 489.789 68.5302 489.789 Q66.1286 489.789 63.3798 490.31 Q60.631 490.831 57.3324 491.931 L57.3324 486.722 Q60.6599 485.796 63.5534 485.333 Q66.4759 484.87 69.0511 484.87 Q75.7061 484.87 79.5834 487.909 Q83.4607 490.918 83.4607 496.068 Q83.4607 499.656 81.4063 502.145 Q79.3519 504.604 75.5614 505.559 Z" fill="#000000" fill-rule="nonzero" fill-opacity="1" /><path clip-path="url(#clip580)" d="M72.4943 306.463 L57.7375 329.525 L72.4943 329.525 L72.4943 306.463 M70.9608 301.371 L78.3103 301.371 L78.3103 329.525 L84.4734 329.525 L84.4734 334.386 L78.3103 334.386 L78.3103 344.571 L72.4943 344.571 L72.4943 334.386 L52.9921 334.386 L52.9921 328.743 L70.9608 301.371 Z" fill="#000000" fill-rule="nonzero" fill-opacity="1" /><path clip-path="url(#clip580)" d="M58.3451 117.09 L81.2906 117.09 L81.2906 122.009 L63.6981 122.009 L63.6981 132.599 Q64.9712 132.165 66.2444 131.963 Q67.5175 131.731 68.7907 131.731 Q76.0244 131.731 80.2489 135.695 Q84.4734 139.659 84.4734 146.43 Q84.4734 153.404 80.1332 157.281 Q75.7929 161.129 67.8937 161.129 Q65.1738 161.129 62.3381 160.666 Q59.5314 160.203 56.5222 159.277 L56.5222 153.404 Q59.1264 154.821 61.9041 155.516 Q64.6819 156.21 67.7779 156.21 Q72.7837 156.21 75.7061 153.577 Q78.6286 150.944 78.6286 146.43 Q78.6286 141.916 75.7061 139.283 Q72.7837 136.65 67.7779 136.65 Q65.4342 136.65 63.0905 137.171 Q60.7756 137.692 58.3451 138.791 L58.3451 117.09 Z" fill="#000000" fill-rule="nonzero" fill-opacity="1" /><polyline clip-path="url(#clip582)" style="stroke:#009af9; stroke-linecap:round; stroke-linejoin:round; stroke-width:10; stroke-opacity:1; fill:none" points="166.5,808.204 195.894,808.404 225.288,809.002 254.681,809.995 284.075,811.378 313.469,813.146 342.863,815.29 372.256,817.799 401.65,820.663 431.044,823.867 460.437,827.398 489.831,831.239 519.225,835.373 548.618,839.782 578.012,844.447 607.406,849.347 636.8,854.462 666.193,859.771 695.587,865.252 724.981,870.883 754.374,876.642 783.768,882.508 813.162,888.458 842.556,894.472 871.949,900.528 901.343,906.607 930.737,912.687 960.13,918.751 989.524,924.78 1018.92,930.758 1048.31,936.667 1077.71,942.492 1107.1,948.22 1136.49,953.838 1165.89,959.333 1195.28,964.696 1224.67,969.916 1254.07,974.986 1283.46,979.897 1312.85,984.645 1342.25,989.225 1371.64,993.632 1401.04,997.863 1430.43,1001.92 1459.82,1005.79 1489.22,1009.49 1518.61,1013.01 1548,1016.36 1577.4,1019.53 1606.79,1022.53 1636.19,1025.37 1665.58,1028.04 1694.97,1030.55 1724.37,1032.91 1753.76,1035.12 1783.15,1037.19 1812.55,1039.12 1841.94,1040.91 1871.34,1042.59 1900.73,1044.14 "/>
<polyline clip-path="url(#clip582)" style="stroke:#e26f46; stroke-linecap:round; stroke-linejoin:round; stroke-width:8; stroke-opacity:0.5; fill:none" points="166.5,588.25 195.894,588.609 225.288,589.682 254.681,591.466 284.075,593.951 313.469,597.128 342.863,600.981 372.256,605.493 401.65,610.644 431.044,616.411 460.437,622.77 489.831,629.692 519.225,637.147 548.618,645.104 578.012,653.53 607.406,662.39 636.8,671.647 666.193,681.265 695.587,691.205 724.981,701.43 754.374,711.902 783.768,722.58 813.162,733.428 842.556,744.407 871.949,755.481 901.343,766.612 930.737,777.766 960.13,788.908 989.524,800.006 1018.92,811.029 1048.31,821.947 1077.71,832.731 1107.1,843.357 1136.49,853.8 1165.89,864.038 1195.28,874.051 1224.67,883.821 1254.07,893.331 1283.46,902.567 1312.85,911.518 1342.25,920.173 1371.64,928.524 1401.04,936.564 1430.43,944.289 1459.82,951.696 1489.22,958.783 1518.61,965.551 1548,972 1577.4,978.134 1606.79,983.957 1636.19,989.473 1665.58,994.69 1694.97,999.613 1724.37,1004.25 1753.76,1008.61 1783.15,1012.7 1812.55,1016.53 1841.94,1020.12 1871.34,1023.46 1900.73,1026.58 "/>
<polyline clip-path="url(#clip582)" style="stroke:#3da44d; stroke-linecap:round; stroke-linejoin:round; stroke-width:8; stroke-opacity:0.5; fill:none" points="166.5,925.625 195.894,925.736 225.288,926.069 254.681,926.622 284.075,927.392 313.469,928.376 342.863,929.569 372.256,930.964 401.65,932.556 431.044,934.336 460.437,936.297 489.831,938.428 519.225,940.72 548.618,943.162 578.012,945.744 607.406,948.453 636.8,951.279 666.193,954.208 695.587,957.228 724.981,960.328 754.374,963.494 783.768,966.714 813.162,969.976 842.556,973.267 871.949,976.577 901.343,979.893 930.737,983.205 960.13,986.502 989.524,989.774 1018.92,993.011 1048.31,996.206 1077.71,999.348 1107.1,1002.43 1136.49,1005.45 1165.89,1008.39 1195.28,1011.26 1224.67,1014.05 1254.07,1016.74 1283.46,1019.35 1312.85,1021.86 1342.25,1024.28 1371.64,1026.6 1401.04,1028.82 1430.43,1030.94 1459.82,1032.97 1489.22,1034.89 1518.61,1036.72 1548,1038.45 1577.4,1040.08 1606.79,1041.63 1636.19,1043.08 1665.58,1044.44 1694.97,1045.72 1724.37,1046.92 1753.76,1048.03 1783.15,1049.07 1812.55,1050.04 1841.94,1050.93 1871.34,1051.77 1900.73,1052.53 "/>
<polyline clip-path="url(#clip582)" style="stroke:#c271d2; stroke-linecap:round; stroke-linejoin:round; stroke-width:8; stroke-opacity:0.5; fill:none" points="166.5,995.578 195.894,995.632 225.288,995.796 254.681,996.068 284.075,996.447 313.469,996.931 342.863,997.518 372.256,998.204 401.65,998.986 431.044,999.861 460.437,1000.82 489.831,1001.87 519.225,1003 548.618,1004.19 578.012,1005.46 607.406,1006.79 636.8,1008.17 666.193,1009.6 695.587,1011.08 724.981,1012.59 754.374,1014.14 783.768,1015.71 813.162,1017.3 842.556,1018.9 871.949,1020.51 901.343,1022.12 930.737,1023.73 960.13,1025.33 989.524,1026.91 1018.92,1028.48 1048.31,1030.02 1077.71,1031.54 1107.1,1033.02 1136.49,1034.48 1165.89,1035.89 1195.28,1037.27 1224.67,1038.6 1254.07,1039.89 1283.46,1041.14 1312.85,1042.34 1342.25,1043.49 1371.64,1044.59 1401.04,1045.64 1430.43,1046.65 1459.82,1047.6 1489.22,1048.51 1518.61,1049.37 1548,1050.19 1577.4,1050.95 1606.79,1051.68 1636.19,1052.35 1665.58,1052.99 1694.97,1053.58 1724.37,1054.14 1753.76,1054.65 1783.15,1055.13 1812.55,1055.58 1841.94,1055.99 1871.34,1056.37 1900.73,1056.73 "/>
<polyline clip-path="url(#clip582)" style="stroke:#ac8d18; stroke-linecap:round; stroke-linejoin:round; stroke-width:8; stroke-opacity:0.5; fill:none" points="166.5,76.6465 195.894,77.3746 225.288,79.5558 254.681,83.1804 284.075,88.2323 313.469,94.6892 342.863,102.523 372.256,111.699 401.65,122.177 431.044,133.913 460.437,146.855 489.831,160.95 519.225,176.138 548.618,192.355 578.012,209.536 607.406,227.611 636.8,246.507 666.193,266.152 695.587,286.47 724.981,307.383 754.374,328.815 783.768,350.688 813.162,372.926 842.556,395.452 871.949,418.191 901.343,441.07 930.737,464.017 960.13,486.963 989.524,509.841 1018.92,532.589 1048.31,555.144 1077.71,577.45 1107.1,599.454 1136.49,621.106 1165.89,642.359 1195.28,663.171 1224.67,683.505 1254.07,703.326 1283.46,722.605 1312.85,741.314 1342.25,759.431 1371.64,776.939 1401.04,793.822 1430.43,810.069 1459.82,825.672 1489.22,840.627 1518.61,854.931 1548,868.588 1577.4,881.6 1606.79,893.974 1636.19,905.719 1665.58,916.846 1694.97,927.368 1724.37,937.299 1753.76,946.655 1783.15,955.453 1812.55,963.712 1841.94,971.451 1871.34,978.688 1900.73,985.446 "/>
<polyline clip-path="url(#clip582)" style="stroke:#00a9ad; stroke-linecap:round; stroke-linejoin:round; stroke-width:8; stroke-opacity:0.5; fill:none" points="166.5,222.867 195.894,223.457 225.288,225.223 254.681,228.158 284.075,232.251 313.469,237.483 342.863,243.832 372.256,251.273 401.65,259.775 431.044,269.302 460.437,279.816 489.831,291.274 519.225,303.63 548.618,316.836 578.012,330.839 607.406,345.586 636.8,361.02 666.193,377.084 695.587,393.718 724.981,410.863 754.374,428.457 783.768,446.439 813.162,464.749 842.556,483.325 871.949,502.109 901.343,521.041 930.737,540.064 960.13,559.121 989.524,578.16 1018.92,597.128 1048.31,615.976 1077.71,634.656 1107.1,653.124 1136.49,671.339 1165.89,689.261 1195.28,706.855 1224.67,724.088 1254.07,740.931 1283.46,757.355 1312.85,773.339 1342.25,788.862 1371.64,803.905 1401.04,818.455 1430.43,832.499 1459.82,846.029 1489.22,859.038 1518.61,871.522 1548,883.48 1577.4,894.913 1606.79,905.823 1636.19,916.215 1665.58,926.096 1694.97,935.475 1724.37,944.36 1753.76,952.763 1783.15,960.696 1812.55,968.172 1841.94,975.206 1871.34,981.811 1900.73,988.005 "/>
<polyline clip-path="url(#clip582)" style="stroke:#ed5d92; stroke-linecap:round; stroke-linejoin:round; stroke-width:8; stroke-opacity:0.5; fill:none" points="166.5,984.31 195.894,984.377 225.288,984.58 254.681,984.916 284.075,985.384 313.469,985.981 342.863,986.704 372.256,987.55 401.65,988.514 431.044,989.591 460.437,990.776 489.831,992.062 519.225,993.443 548.618,994.912 578.012,996.463 607.406,998.088 636.8,999.778 666.193,1001.53 695.587,1003.33 724.981,1005.17 754.374,1007.05 783.768,1008.95 813.162,1010.88 842.556,1012.81 871.949,1014.75 901.343,1016.69 930.737,1018.62 960.13,1020.54 989.524,1022.43 1018.92,1024.3 1048.31,1026.13 1077.71,1027.93 1107.1,1029.69 1136.49,1031.4 1165.89,1033.06 1195.28,1034.68 1224.67,1036.24 1254.07,1037.74 1283.46,1039.19 1312.85,1040.57 1342.25,1041.9 1371.64,1043.17 1401.04,1044.38 1430.43,1045.52 1459.82,1046.61 1489.22,1047.64 1518.61,1048.61 1548,1049.52 1577.4,1050.38 1606.79,1051.19 1636.19,1051.94 1665.58,1052.64 1694.97,1053.3 1724.37,1053.9 1753.76,1054.47 1783.15,1054.99 1812.55,1055.47 1841.94,1055.91 1871.34,1056.32 1900.73,1056.69 "/>
<path clip-path="url(#clip580)" d="M1332.77 211.474 L1891.48 211.474 L1891.48 81.8736 L1332.77 81.8736  Z" fill="#ffffff" fill-rule="evenodd" fill-opacity="1"/>
<polyline clip-path="url(#clip580)" style="stroke:#000000; stroke-linecap:round; stroke-linejoin:round; stroke-width:4; stroke-opacity:1; fill:none" points="1332.77,211.474 1891.48,211.474 1891.48,81.8736 1332.77,81.8736 1332.77,211.474 "/>
<polyline clip-path="url(#clip580)" style="stroke:#009af9; stroke-linecap:round; stroke-linejoin:round; stroke-width:12.5; stroke-opacity:1; fill:none" points="1353.19,146.674 1475.75,146.674 "/>
<path clip-path="url(#clip580)" d="M1496.17 123.251 L1501.53 123.251 L1501.53 149.842 L1517.41 135.866 L1524.21 135.866 L1507.02 151.028 L1524.93 168.274 L1517.99 168.274 L1501.53 152.446 L1501.53 168.274 L1496.17 168.274 L1496.17 123.251 Z" fill="#000000" fill-rule="nonzero" fill-opacity="1" /><path clip-path="url(#clip580)" d="M1556.3 150.739 L1556.3 153.343 L1531.82 153.343 Q1532.17 158.841 1535.12 161.734 Q1538.1 164.599 1543.39 164.599 Q1546.46 164.599 1549.33 163.846 Q1552.22 163.094 1555.05 161.59 L1555.05 166.624 Q1552.19 167.84 1549.18 168.476 Q1546.17 169.113 1543.08 169.113 Q1535.32 169.113 1530.78 164.599 Q1526.26 160.085 1526.26 152.388 Q1526.26 144.431 1530.55 139.773 Q1534.86 135.085 1542.15 135.085 Q1548.69 135.085 1552.48 139.31 Q1556.3 143.505 1556.3 150.739 M1550.98 149.176 Q1550.92 144.807 1548.52 142.203 Q1546.14 139.599 1542.21 139.599 Q1537.75 139.599 1535.06 142.116 Q1532.4 144.634 1531.99 149.205 L1550.98 149.176 Z" fill="#000000" fill-rule="nonzero" fill-opacity="1" /><path clip-path="url(#clip580)" d="M1583.82 140.843 Q1582.92 140.322 1581.85 140.091 Q1580.81 139.83 1579.53 139.83 Q1575.02 139.83 1572.59 142.782 Q1570.19 145.704 1570.19 151.202 L1570.19 168.274 L1564.84 168.274 L1564.84 135.866 L1570.19 135.866 L1570.19 140.901 Q1571.87 137.95 1574.56 136.532 Q1577.25 135.085 1581.1 135.085 Q1581.65 135.085 1582.31 135.172 Q1582.98 135.23 1583.79 135.374 L1583.82 140.843 Z" fill="#000000" fill-rule="nonzero" fill-opacity="1" /><path clip-path="url(#clip580)" d="M1615.3 148.713 L1615.3 168.274 L1609.97 168.274 L1609.97 148.887 Q1609.97 144.286 1608.18 142.001 Q1606.39 139.715 1602.8 139.715 Q1598.49 139.715 1596 142.464 Q1593.51 145.212 1593.51 149.958 L1593.51 168.274 L1588.16 168.274 L1588.16 135.866 L1593.51 135.866 L1593.51 140.901 Q1595.42 137.979 1597.99 136.532 Q1600.6 135.085 1603.98 135.085 Q1609.57 135.085 1612.43 138.557 Q1615.3 142.001 1615.3 148.713 Z" fill="#000000" fill-rule="nonzero" fill-opacity="1" /><path clip-path="url(#clip580)" d="M1653.64 150.739 L1653.64 153.343 L1629.16 153.343 Q1629.5 158.841 1632.46 161.734 Q1635.44 164.599 1640.73 164.599 Q1643.8 164.599 1646.66 163.846 Q1649.56 163.094 1652.39 161.59 L1652.39 166.624 Q1649.53 167.84 1646.52 168.476 Q1643.51 169.113 1640.41 169.113 Q1632.66 169.113 1628.12 164.599 Q1623.6 160.085 1623.6 152.388 Q1623.6 144.431 1627.88 139.773 Q1632.2 135.085 1639.49 135.085 Q1646.03 135.085 1649.82 139.31 Q1653.64 143.505 1653.64 150.739 M1648.31 149.176 Q1648.25 144.807 1645.85 142.203 Q1643.48 139.599 1639.55 139.599 Q1635.09 139.599 1632.4 142.116 Q1629.74 144.634 1629.33 149.205 L1648.31 149.176 Z" fill="#000000" fill-rule="nonzero" fill-opacity="1" /><path clip-path="url(#clip580)" d="M1662.38 123.251 L1667.7 123.251 L1667.7 168.274 L1662.38 168.274 L1662.38 123.251 Z" fill="#000000" fill-rule="nonzero" fill-opacity="1" /><path clip-path="url(#clip580)" d="M1722.91 142.087 Q1724.9 138.499 1727.68 136.792 Q1730.46 135.085 1734.22 135.085 Q1739.28 135.085 1742.03 138.644 Q1744.78 142.174 1744.78 148.713 L1744.78 168.274 L1739.43 168.274 L1739.43 148.887 Q1739.43 144.229 1737.78 141.972 Q1736.13 139.715 1732.75 139.715 Q1728.61 139.715 1726.21 142.464 Q1723.8 145.212 1723.8 149.958 L1723.8 168.274 L1718.45 168.274 L1718.45 148.887 Q1718.45 144.2 1716.8 141.972 Q1715.15 139.715 1711.71 139.715 Q1707.63 139.715 1705.23 142.492 Q1702.83 145.241 1702.83 149.958 L1702.83 168.274 L1697.47 168.274 L1697.47 135.866 L1702.83 135.866 L1702.83 140.901 Q1704.65 137.921 1707.2 136.503 Q1709.74 135.085 1713.24 135.085 Q1716.77 135.085 1719.23 136.879 Q1721.72 138.673 1722.91 142.087 Z" fill="#000000" fill-rule="nonzero" fill-opacity="1" /><path clip-path="url(#clip580)" d="M1767.96 139.599 Q1763.68 139.599 1761.19 142.955 Q1758.7 146.283 1758.7 152.099 Q1758.7 157.915 1761.16 161.271 Q1763.65 164.599 1767.96 164.599 Q1772.21 164.599 1774.7 161.242 Q1777.19 157.886 1777.19 152.099 Q1777.19 146.341 1774.7 142.984 Q1772.21 139.599 1767.96 139.599 M1767.96 135.085 Q1774.9 135.085 1778.87 139.599 Q1782.83 144.113 1782.83 152.099 Q1782.83 160.056 1778.87 164.599 Q1774.9 169.113 1767.96 169.113 Q1760.99 169.113 1757.02 164.599 Q1753.09 160.056 1753.09 152.099 Q1753.09 144.113 1757.02 139.599 Q1760.99 135.085 1767.96 135.085 Z" fill="#000000" fill-rule="nonzero" fill-opacity="1" /><path clip-path="url(#clip580)" d="M1812.98 140.785 L1812.98 123.251 L1818.31 123.251 L1818.31 168.274 L1812.98 168.274 L1812.98 163.412 Q1811.3 166.306 1808.73 167.724 Q1806.18 169.113 1802.59 169.113 Q1796.72 169.113 1793.02 164.425 Q1789.34 159.738 1789.34 152.099 Q1789.34 144.46 1793.02 139.773 Q1796.72 135.085 1802.59 135.085 Q1806.18 135.085 1808.73 136.503 Q1811.3 137.892 1812.98 140.785 M1794.84 152.099 Q1794.84 157.973 1797.24 161.329 Q1799.67 164.657 1803.9 164.657 Q1808.12 164.657 1810.55 161.329 Q1812.98 157.973 1812.98 152.099 Q1812.98 146.225 1810.55 142.898 Q1808.12 139.541 1803.9 139.541 Q1799.67 139.541 1797.24 142.898 Q1794.84 146.225 1794.84 152.099 Z" fill="#000000" fill-rule="nonzero" fill-opacity="1" /><path clip-path="url(#clip580)" d="M1856.99 150.739 L1856.99 153.343 L1832.51 153.343 Q1832.86 158.841 1835.81 161.734 Q1838.79 164.599 1844.09 164.599 Q1847.15 164.599 1850.02 163.846 Q1852.91 163.094 1855.75 161.59 L1855.75 166.624 Q1852.88 167.84 1849.87 168.476 Q1846.86 169.113 1843.77 169.113 Q1836.01 169.113 1831.47 164.599 Q1826.96 160.085 1826.96 152.388 Q1826.96 144.431 1831.24 139.773 Q1835.55 135.085 1842.84 135.085 Q1849.38 135.085 1853.17 139.31 Q1856.99 143.505 1856.99 150.739 M1851.67 149.176 Q1851.61 144.807 1849.21 142.203 Q1846.84 139.599 1842.9 139.599 Q1838.44 139.599 1835.75 142.116 Q1833.09 144.634 1832.69 149.205 L1851.67 149.176 Z" fill="#000000" fill-rule="nonzero" fill-opacity="1" /><path clip-path="url(#clip580)" d="M1865.73 123.251 L1871.05 123.251 L1871.05 168.274 L1865.73 168.274 L1865.73 123.251 Z" fill="#000000" fill-rule="nonzero" fill-opacity="1" /></svg>
