<?xml version="1.0" encoding="utf-8"?>
<svg xmlns="http://www.w3.org/2000/svg" xmlns:xlink="http://www.w3.org/1999/xlink" width="500" height="300" viewBox="0 0 2000 1200">
<defs>
  <clipPath id="clip370">
    <rect x="0" y="0" width="2000" height="1200"/>
  </clipPath>
</defs>
<path clip-path="url(#clip370)" d="M0 1200 L2000 1200 L2000 0 L0 0  Z" fill="#ffffff" fill-rule="evenodd" fill-opacity="1"/>
<defs>
  <clipPath id="clip371">
    <rect x="400" y="0" width="1401" height="1200"/>
  </clipPath>
</defs>
<path clip-path="url(#clip370)" d="M185.654 1086.13 L1952.76 1086.13 L1952.76 47.2441 L185.654 47.2441  Z" fill="#ffffff" fill-rule="evenodd" fill-opacity="1"/>
<defs>
  <clipPath id="clip372">
    <rect x="185" y="47" width="1768" height="1040"/>
  </clipPath>
</defs>
<polyline clip-path="url(#clip370)" style="stroke:#000000; stroke-linecap:round; stroke-linejoin:round; stroke-width:4; stroke-opacity:1; fill:none" points="185.654,1086.13 1952.76,1086.13 "/>
<polyline clip-path="url(#clip370)" style="stroke:#000000; stroke-linecap:round; stroke-linejoin:round; stroke-width:4; stroke-opacity:1; fill:none" points="207.41,1086.13 207.41,1067.23 "/>
<polyline clip-path="url(#clip370)" style="stroke:#000000; stroke-linecap:round; stroke-linejoin:round; stroke-width:4; stroke-opacity:1; fill:none" points="631.244,1086.13 631.244,1067.23 "/>
<polyline clip-path="url(#clip370)" style="stroke:#000000; stroke-linecap:round; stroke-linejoin:round; stroke-width:4; stroke-opacity:1; fill:none" points="1055.08,1086.13 1055.08,1067.23 "/>
<polyline clip-path="url(#clip370)" style="stroke:#000000; stroke-linecap:round; stroke-linejoin:round; stroke-width:4; stroke-opacity:1; fill:none" points="1478.91,1086.13 1478.91,1067.23 "/>
<polyline clip-path="url(#clip370)" style="stroke:#000000; stroke-linecap:round; stroke-linejoin:round; stroke-width:4; stroke-opacity:1; fill:none" points="1902.74,1086.13 1902.74,1067.23 "/>
<path clip-path="url(#clip370)" d="M207.41 1116.78 Q202.897 1116.78 200.611 1121.23 Q198.354 1125.66 198.354 1134.57 Q198.354 1143.45 200.611 1147.91 Q202.897 1152.34 207.41 1152.34 Q211.953 1152.34 214.21 1147.91 Q216.496 1143.45 216.496 1134.57 Q216.496 1125.66 214.21 1121.23 Q211.953 1116.78 207.41 1116.78 M207.41 1112.15 Q214.673 1112.15 218.493 1117.9 Q222.341 1123.63 222.341 1134.57 Q222.341 1145.48 218.493 1151.24 Q214.673 1156.97 207.41 1156.97 Q200.148 1156.97 196.299 1151.24 Q192.48 1145.48 192.48 1134.57 Q192.48 1123.63 196.299 1117.9 Q200.148 1112.15 207.41 1112.15 Z" fill="#000000" fill-rule="nonzero" fill-opacity="1" /><path clip-path="url(#clip370)" d="M619.091 1112.93 L642.036 1112.93 L642.036 1117.85 L624.444 1117.85 L624.444 1128.44 Q625.717 1128 626.99 1127.8 Q628.263 1127.57 629.537 1127.57 Q636.77 1127.57 640.995 1131.53 Q645.219 1135.5 645.219 1142.27 Q645.219 1149.24 640.879 1153.12 Q636.539 1156.97 628.64 1156.97 Q625.92 1156.97 623.084 1156.5 Q620.277 1156.04 617.268 1155.12 L617.268 1149.24 Q619.872 1150.66 622.65 1151.35 Q625.428 1152.05 628.524 1152.05 Q633.53 1152.05 636.452 1149.41 Q639.374 1146.78 639.374 1142.27 Q639.374 1137.75 636.452 1135.12 Q633.53 1132.49 628.524 1132.49 Q626.18 1132.49 623.836 1133.01 Q621.522 1133.53 619.091 1134.63 L619.091 1112.93 Z" fill="#000000" fill-rule="nonzero" fill-opacity="1" /><path clip-path="url(#clip370)" d="M1023.44 1151.21 L1032.99 1151.21 L1032.99 1118.25 L1022.6 1120.34 L1022.6 1115.01 L1032.93 1112.93 L1038.77 1112.93 L1038.77 1151.21 L1048.32 1151.21 L1048.32 1156.13 L1023.44 1156.13 L1023.44 1151.21 Z" fill="#000000" fill-rule="nonzero" fill-opacity="1" /><path clip-path="url(#clip370)" d="M1072.63 1116.78 Q1068.11 1116.78 1065.83 1121.23 Q1063.57 1125.66 1063.57 1134.57 Q1063.57 1143.45 1065.83 1147.91 Q1068.11 1152.34 1072.63 1152.34 Q1077.17 1152.34 1079.43 1147.91 Q1081.71 1143.45 1081.71 1134.57 Q1081.71 1125.66 1079.43 1121.23 Q1077.17 1116.78 1072.63 1116.78 M1072.63 1112.15 Q1079.89 1112.15 1083.71 1117.9 Q1087.56 1123.63 1087.56 1134.57 Q1087.56 1145.48 1083.71 1151.24 Q1079.89 1156.97 1072.63 1156.97 Q1065.36 1156.97 1061.52 1151.24 Q1057.7 1145.48 1057.7 1134.57 Q1057.7 1123.63 1061.52 1117.9 Q1065.36 1112.15 1072.63 1112.15 Z" fill="#000000" fill-rule="nonzero" fill-opacity="1" /><path clip-path="url(#clip370)" d="M1447.89 1151.21 L1457.44 1151.21 L1457.44 1118.25 L1447.05 1120.34 L1447.05 1115.01 L1457.38 1112.93 L1463.23 1112.93 L1463.23 1151.21 L1472.78 1151.21 L1472.78 1156.13 L1447.89 1156.13 L1447.89 1151.21 Z" fill="#000000" fill-rule="nonzero" fill-opacity="1" /><path clip-path="url(#clip370)" d="M1484.64 1112.93 L1507.58 1112.93 L1507.58 1117.85 L1489.99 1117.85 L1489.99 1128.44 Q1491.27 1128 1492.54 1127.8 Q1493.81 1127.57 1495.08 1127.57 Q1502.32 1127.57 1506.54 1131.53 Q1510.77 1135.5 1510.77 1142.27 Q1510.77 1149.24 1506.43 1153.12 Q1502.09 1156.97 1494.19 1156.97 Q1491.47 1156.97 1488.63 1156.5 Q1485.83 1156.04 1482.82 1155.12 L1482.82 1149.24 Q1485.42 1150.66 1488.2 1151.35 Q1490.98 1152.05 1494.07 1152.05 Q1499.08 1152.05 1502 1149.41 Q1504.92 1146.78 1504.92 1142.27 Q1504.92 1137.75 1502 1135.12 Q1499.08 1132.49 1494.07 1132.49 Q1491.73 1132.49 1489.38 1133.01 Q1487.07 1133.53 1484.64 1134.63 L1484.64 1112.93 Z" fill="#000000" fill-rule="nonzero" fill-opacity="1" /><path clip-path="url(#clip370)" d="M1876.21 1151.21 L1896.61 1151.21 L1896.61 1156.13 L1869.18 1156.13 L1869.18 1151.21 Q1872.51 1147.77 1878.24 1141.98 Q1883.99 1136.16 1885.47 1134.48 Q1888.28 1131.33 1889.38 1129.16 Q1890.5 1126.96 1890.5 1124.85 Q1890.5 1121.41 1888.07 1119.24 Q1885.67 1117.07 1881.79 1117.07 Q1879.05 1117.07 1875.98 1118.02 Q1872.94 1118.98 1869.47 1120.91 L1869.47 1115.01 Q1873 1113.59 1876.07 1112.87 Q1879.13 1112.15 1881.68 1112.15 Q1888.39 1112.15 1892.38 1115.5 Q1896.38 1118.86 1896.38 1124.47 Q1896.38 1127.13 1895.37 1129.54 Q1894.38 1131.91 1891.75 1135.15 Q1891.02 1135.99 1887.15 1140.01 Q1883.27 1144 1876.21 1151.21 Z" fill="#000000" fill-rule="nonzero" fill-opacity="1" /><path clip-path="url(#clip370)" d="M1921.38 1116.78 Q1916.86 1116.78 1914.58 1121.23 Q1912.32 1125.66 1912.32 1134.57 Q1912.32 1143.45 1914.58 1147.91 Q1916.86 1152.34 1921.38 1152.34 Q1925.92 1152.34 1928.18 1147.91 Q1930.46 1143.45 1930.46 1134.57 Q1930.46 1125.66 1928.18 1121.23 Q1925.92 1116.78 1921.38 1116.78 M1921.38 1112.15 Q1928.64 1112.15 1932.46 1117.9 Q1936.31 1123.63 1936.31 1134.57 Q1936.31 1145.48 1932.46 1151.24 Q1928.64 1156.97 1921.38 1156.97 Q1914.12 1156.97 1910.27 1151.24 Q1906.45 1145.48 1906.45 1134.57 Q1906.45 1123.63 1910.27 1117.9 Q1914.12 1112.15 1921.38 1112.15 Z" fill="#000000" fill-rule="nonzero" fill-opacity="1" /><polyline clip-path="url(#clip370)" style="stroke:#000000; stroke-linecap:round; stroke-linejoin:round; stroke-width:4; stroke-opacity:1; fill:none" points="185.654,1086.13 185.654,47.2441 "/>
<polyline clip-path="url(#clip370)" style="stroke:#000000; stroke-linecap:round; stroke-linejoin:round; stroke-width:4; stroke-opacity:1; fill:none" points="185.654,981.461 204.551,981.461 "/>
<polyline clip-path="url(#clip370)" style="stroke:#000000; stroke-linecap:round; stroke-linejoin:round; stroke-width:4; stroke-opacity:1; fill:none" points="185.654,845.927 204.551,845.927 "/>
<polyline clip-path="url(#clip370)" style="stroke:#000000; stroke-linecap:round; stroke-linejoin:round; stroke-width:4; stroke-opacity:1; fill:none" points="185.654,710.392 204.551,710.392 "/>
<polyline clip-path="url(#clip370)" style="stroke:#000000; stroke-linecap:round; stroke-linejoin:round; stroke-width:4; stroke-opacity:1; fill:none" points="185.654,574.858 204.551,574.858 "/>
<polyline clip-path="url(#clip370)" style="stroke:#000000; stroke-linecap:round; stroke-linejoin:round; stroke-width:4; stroke-opacity:1; fill:none" points="185.654,439.324 204.551,439.324 "/>
<polyline clip-path="url(#clip370)" style="stroke:#000000; stroke-linecap:round; stroke-linejoin:round; stroke-width:4; stroke-opacity:1; fill:none" points="185.654,303.79 204.551,303.79 "/>
<polyline clip-path="url(#clip370)" style="stroke:#000000; stroke-linecap:round; stroke-linejoin:round; stroke-width:4; stroke-opacity:1; fill:none" points="185.654,168.256 204.551,168.256 "/>
<path clip-path="url(#clip370)" d="M96.7998 998.142 L117.199 998.142 L117.199 1003.06 L89.7685 1003.06 L89.7685 998.142 Q93.0961 994.698 98.8252 988.911 Q104.583 983.096 106.059 981.417 Q108.866 978.263 109.965 976.093 Q111.094 973.894 111.094 971.782 Q111.094 968.339 108.663 966.169 Q106.262 963.998 102.384 963.998 Q99.6354 963.998 96.5683 964.953 Q93.5301 965.908 90.0579 967.847 L90.0579 961.944 Q93.588 960.526 96.6551 959.803 Q99.7222 959.079 102.268 959.079 Q108.981 959.079 112.974 962.436 Q116.967 965.792 116.967 971.406 Q116.967 974.068 115.955 976.469 Q114.971 978.842 112.338 982.083 Q111.614 982.922 107.737 986.944 Q103.86 990.937 96.7998 998.142 Z" fill="#000000" fill-rule="nonzero" fill-opacity="1" /><path clip-path="url(#clip370)" d="M129.525 959.861 L152.471 959.861 L152.471 964.78 L134.878 964.78 L134.878 975.37 Q136.151 974.936 137.425 974.733 Q138.698 974.502 139.971 974.502 Q147.205 974.502 151.429 978.466 Q155.654 982.43 155.654 989.201 Q155.654 996.174 151.313 1000.05 Q146.973 1003.9 139.074 1003.9 Q136.354 1003.9 133.518 1003.44 Q130.712 1002.97 127.702 1002.05 L127.702 996.174 Q130.307 997.592 133.084 998.286 Q135.862 998.981 138.958 998.981 Q143.964 998.981 146.886 996.348 Q149.809 993.715 149.809 989.201 Q149.809 984.687 146.886 982.054 Q143.964 979.421 138.958 979.421 Q136.614 979.421 134.271 979.942 Q131.956 980.462 129.525 981.562 L129.525 959.861 Z" fill="#000000" fill-rule="nonzero" fill-opacity="1" /><path clip-path="url(#clip370)" d="M90.5787 824.327 L113.524 824.327 L113.524 829.245 L95.9317 829.245 L95.9317 839.836 Q97.2049 839.402 98.478 839.199 Q99.7511 838.968 101.024 838.968 Q108.258 838.968 112.483 842.932 Q116.707 846.896 116.707 853.667 Q116.707 860.64 112.367 864.517 Q108.027 868.366 100.127 868.366 Q97.4074 868.366 94.5718 867.903 Q91.7651 867.44 88.7558 866.514 L88.7558 860.64 Q91.36 862.058 94.1377 862.752 Q96.9155 863.447 100.012 863.447 Q105.017 863.447 107.94 860.814 Q110.862 858.181 110.862 853.667 Q110.862 849.153 107.94 846.52 Q105.017 843.887 100.012 843.887 Q97.6678 843.887 95.3241 844.407 Q93.0093 844.928 90.5787 846.028 L90.5787 824.327 Z" fill="#000000" fill-rule="nonzero" fill-opacity="1" /><path clip-path="url(#clip370)" d="M140.723 828.175 Q136.209 828.175 133.923 832.631 Q131.666 837.058 131.666 845.97 Q131.666 854.853 133.923 859.309 Q136.209 863.736 140.723 863.736 Q145.266 863.736 147.523 859.309 Q149.809 854.853 149.809 845.97 Q149.809 837.058 147.523 832.631 Q145.266 828.175 140.723 828.175 M140.723 823.545 Q147.986 823.545 151.805 829.303 Q155.654 835.032 155.654 845.97 Q155.654 856.878 151.805 862.636 Q147.986 868.366 140.723 868.366 Q133.46 868.366 129.612 862.636 Q125.793 856.878 125.793 845.97 Q125.793 835.032 129.612 829.303 Q133.46 823.545 140.723 823.545 Z" fill="#000000" fill-rule="nonzero" fill-opacity="1" /><path clip-path="url(#clip370)" d="M90.2894 688.792 L118.067 688.792 L118.067 691.281 L102.384 731.992 L96.2789 731.992 L111.036 693.711 L90.2894 693.711 L90.2894 688.792 Z" fill="#000000" fill-rule="nonzero" fill-opacity="1" /><path clip-path="url(#clip370)" d="M129.525 688.792 L152.471 688.792 L152.471 693.711 L134.878 693.711 L134.878 704.302 Q136.151 703.868 137.425 703.665 Q138.698 703.433 139.971 703.433 Q147.205 703.433 151.429 707.398 Q155.654 711.362 155.654 718.132 Q155.654 725.106 151.313 728.983 Q146.973 732.831 139.074 732.831 Q136.354 732.831 133.518 732.369 Q130.712 731.906 127.702 730.98 L127.702 725.106 Q130.307 726.524 133.084 727.218 Q135.862 727.913 138.958 727.913 Q143.964 727.913 146.886 725.279 Q149.809 722.646 149.809 718.132 Q149.809 713.619 146.886 710.986 Q143.964 708.352 138.958 708.352 Q136.614 708.352 134.271 708.873 Q131.956 709.394 129.525 710.494 L129.525 688.792 Z" fill="#000000" fill-rule="nonzero" fill-opacity="1" /><path clip-path="url(#clip370)" d="M53.8312 591.539 L63.3798 591.539 L63.3798 558.582 L52.9921 560.666 L52.9921 555.342 L63.3219 553.258 L69.1668 553.258 L69.1668 591.539 L78.7154 591.539 L78.7154 596.458 L53.8312 596.458 L53.8312 591.539 Z" fill="#000000" fill-rule="nonzero" fill-opacity="1" /><path clip-path="url(#clip370)" d="M103.021 557.107 Q98.5069 557.107 96.2211 561.563 Q93.9641 565.99 93.9641 574.902 Q93.9641 583.785 96.2211 588.241 Q98.5069 592.668 103.021 592.668 Q107.564 592.668 109.821 588.241 Q112.106 583.785 112.106 574.902 Q112.106 565.99 109.821 561.563 Q107.564 557.107 103.021 557.107 M103.021 552.477 Q110.283 552.477 114.103 558.235 Q117.951 563.964 117.951 574.902 Q117.951 585.81 114.103 591.568 Q110.283 597.297 103.021 597.297 Q95.7581 597.297 91.9097 591.568 Q88.0903 585.81 88.0903 574.902 Q88.0903 563.964 91.9097 558.235 Q95.7581 552.477 103.021 552.477 Z" fill="#000000" fill-rule="nonzero" fill-opacity="1" /><path clip-path="url(#clip370)" d="M140.723 557.107 Q136.209 557.107 133.923 561.563 Q131.666 565.99 131.666 574.902 Q131.666 583.785 133.923 588.241 Q136.209 592.668 140.723 592.668 Q145.266 592.668 147.523 588.241 Q149.809 583.785 149.809 574.902 Q149.809 565.99 147.523 561.563 Q145.266 557.107 140.723 557.107 M140.723 552.477 Q147.986 552.477 151.805 558.235 Q155.654 563.964 155.654 574.902 Q155.654 585.81 151.805 591.568 Q147.986 597.297 140.723 597.297 Q133.46 597.297 129.612 591.568 Q125.793 585.81 125.793 574.902 Q125.793 563.964 129.612 558.235 Q133.46 552.477 140.723 552.477 Z" fill="#000000" fill-rule="nonzero" fill-opacity="1" /><path clip-path="url(#clip370)" d="M55.0754 456.005 L64.624 456.005 L64.624 423.048 L54.2363 425.131 L54.2363 419.807 L64.5661 417.724 L70.411 417.724 L70.411 456.005 L79.9596 456.005 L79.9596 460.924 L55.0754 460.924 L55.0754 456.005 Z" fill="#000000" fill-rule="nonzero" fill-opacity="1" /><path clip-path="url(#clip370)" d="M96.7998 456.005 L117.199 456.005 L117.199 460.924 L89.7685 460.924 L89.7685 456.005 Q93.0961 452.562 98.8252 446.775 Q104.583 440.959 106.059 439.281 Q108.866 436.127 109.965 433.957 Q111.094 431.758 111.094 429.645 Q111.094 426.202 108.663 424.032 Q106.262 421.862 102.384 421.862 Q99.6354 421.862 96.5683 422.817 Q93.5301 423.771 90.0579 425.71 L90.0579 419.807 Q93.588 418.39 96.6551 417.666 Q99.7222 416.943 102.268 416.943 Q108.981 416.943 112.974 420.299 Q116.967 423.656 116.967 429.269 Q116.967 431.931 115.955 434.333 Q114.971 436.705 112.338 439.946 Q111.614 440.785 107.737 444.807 Q103.86 448.8 96.7998 456.005 Z" fill="#000000" fill-rule="nonzero" fill-opacity="1" /><path clip-path="url(#clip370)" d="M129.525 417.724 L152.471 417.724 L152.471 422.643 L134.878 422.643 L134.878 433.233 Q136.151 432.799 137.425 432.597 Q138.698 432.365 139.971 432.365 Q147.205 432.365 151.429 436.329 Q155.654 440.293 155.654 447.064 Q155.654 454.038 151.313 457.915 Q146.973 461.763 139.074 461.763 Q136.354 461.763 133.518 461.3 Q130.712 460.837 127.702 459.911 L127.702 454.038 Q130.307 455.455 133.084 456.15 Q135.862 456.844 138.958 456.844 Q143.964 456.844 146.886 454.211 Q149.809 451.578 149.809 447.064 Q149.809 442.55 146.886 439.917 Q143.964 437.284 138.958 437.284 Q136.614 437.284 134.271 437.805 Q131.956 438.326 129.525 439.425 L129.525 417.724 Z" fill="#000000" fill-rule="nonzero" fill-opacity="1" /><path clip-path="url(#clip370)" d="M53.8312 320.471 L63.3798 320.471 L63.3798 287.514 L52.9921 289.597 L52.9921 284.273 L63.3219 282.19 L69.1668 282.19 L69.1668 320.471 L78.7154 320.471 L78.7154 325.39 L53.8312 325.39 L53.8312 320.471 Z" fill="#000000" fill-rule="nonzero" fill-opacity="1" /><path clip-path="url(#clip370)" d="M90.5787 282.19 L113.524 282.19 L113.524 287.109 L95.9317 287.109 L95.9317 297.699 Q97.2049 297.265 98.478 297.062 Q99.7511 296.831 101.024 296.831 Q108.258 296.831 112.483 300.795 Q116.707 304.759 116.707 311.53 Q116.707 318.503 112.367 322.381 Q108.027 326.229 100.127 326.229 Q97.4074 326.229 94.5718 325.766 Q91.7651 325.303 88.7558 324.377 L88.7558 318.503 Q91.36 319.921 94.1377 320.616 Q96.9155 321.31 100.012 321.31 Q105.017 321.31 107.94 318.677 Q110.862 316.044 110.862 311.53 Q110.862 307.016 107.94 304.383 Q105.017 301.75 100.012 301.75 Q97.6678 301.75 95.3241 302.271 Q93.0093 302.792 90.5787 303.891 L90.5787 282.19 Z" fill="#000000" fill-rule="nonzero" fill-opacity="1" /><path clip-path="url(#clip370)" d="M140.723 286.038 Q136.209 286.038 133.923 290.494 Q131.666 294.921 131.666 303.833 Q131.666 312.716 133.923 317.172 Q136.209 321.599 140.723 321.599 Q145.266 321.599 147.523 317.172 Q149.809 312.716 149.809 303.833 Q149.809 294.921 147.523 290.494 Q145.266 286.038 140.723 286.038 M140.723 281.409 Q147.986 281.409 151.805 287.167 Q155.654 292.896 155.654 303.833 Q155.654 314.742 151.805 320.5 Q147.986 326.229 140.723 326.229 Q133.46 326.229 129.612 320.5 Q125.793 314.742 125.793 303.833 Q125.793 292.896 129.612 287.167 Q133.46 281.409 140.723 281.409 Z" fill="#000000" fill-rule="nonzero" fill-opacity="1" /><path clip-path="url(#clip370)" d="M55.0754 184.937 L64.624 184.937 L64.624 151.98 L54.2363 154.063 L54.2363 148.739 L64.5661 146.656 L70.411 146.656 L70.411 184.937 L79.9596 184.937 L79.9596 189.856 L55.0754 189.856 L55.0754 184.937 Z" fill="#000000" fill-rule="nonzero" fill-opacity="1" /><path clip-path="url(#clip370)" d="M90.2894 146.656 L118.067 146.656 L118.067 149.144 L102.384 189.856 L96.2789 189.856 L111.036 151.575 L90.2894 151.575 L90.2894 146.656 Z" fill="#000000" fill-rule="nonzero" fill-opacity="1" /><path clip-path="url(#clip370)" d="M129.525 146.656 L152.471 146.656 L152.471 151.575 L134.878 151.575 L134.878 162.165 Q136.151 161.731 137.425 161.528 Q138.698 161.297 139.971 161.297 Q147.205 161.297 151.429 165.261 Q155.654 169.225 155.654 175.996 Q155.654 182.969 151.313 186.846 Q146.973 190.695 139.074 190.695 Q136.354 190.695 133.518 190.232 Q130.712 189.769 127.702 188.843 L127.702 182.969 Q130.307 184.387 133.084 185.081 Q135.862 185.776 138.958 185.776 Q143.964 185.776 146.886 183.143 Q149.809 180.51 149.809 175.996 Q149.809 171.482 146.886 168.849 Q143.964 166.216 138.958 166.216 Q136.614 166.216 134.271 166.737 Q131.956 167.257 129.525 168.357 L129.525 146.656 Z" fill="#000000" fill-rule="nonzero" fill-opacity="1" /><polyline clip-path="url(#clip372)" style="stroke:#009af9; stroke-linecap:round; stroke-linejoin:round; stroke-width:10; stroke-opacity:1; fill:none" points="235.666,76.6465 263.921,77.4974 292.177,80.0461 320.433,84.2801 348.688,90.1787 376.944,97.7131 405.199,106.847 433.455,117.536 461.71,129.728 489.966,143.367 518.221,158.388 546.477,174.72 574.733,192.288 602.988,211.013 631.244,230.811 659.499,251.593 687.755,273.269 716.01,295.748 744.266,318.935 772.521,342.736 800.777,367.055 829.033,391.798 857.288,416.872 885.544,442.184 913.799,467.644 942.055,493.166 970.31,518.665 998.566,544.059 1026.82,569.273 1055.08,594.234 1083.33,618.873 1111.59,643.127 1139.84,666.937 1168.1,690.25 1196.35,713.017 1224.61,735.194 1252.87,756.744 1281.12,777.634 1309.38,797.835 1337.63,817.324 1365.89,836.084 1394.14,854.1 1422.4,871.362 1450.65,887.867 1478.91,903.611 1507.17,918.599 1535.42,932.836 1563.68,946.331 1591.93,959.096 1620.19,971.144 1648.44,982.494 1676.7,993.163 1704.95,1003.17 1733.21,1012.54 1761.47,1021.3 1789.72,1029.47 1817.98,1037.07 1846.23,1044.13 1874.49,1050.67 1902.74,1056.73 "/>
</svg>
