<?xml version="1.0" encoding="utf-8"?>
<svg xmlns="http://www.w3.org/2000/svg" xmlns:xlink="http://www.w3.org/1999/xlink" width="500" height="300" viewBox="0 0 2000 1200">
<defs>
  <clipPath id="clip730">
    <rect x="0" y="0" width="2000" height="1200"/>
  </clipPath>
</defs>
<path clip-path="url(#clip730)" d="M0 1200 L2000 1200 L2000 0 L0 0  Z" fill="#ffffff" fill-rule="evenodd" fill-opacity="1"/>
<defs>
  <clipPath id="clip731">
    <rect x="400" y="0" width="1401" height="1200"/>
  </clipPath>
</defs>
<path clip-path="url(#clip730)" d="M187.824 1086.13 L1952.76 1086.13 L1952.76 47.2441 L187.824 47.2441  Z" fill="#ffffff" fill-rule="evenodd" fill-opacity="1"/>
<defs>
  <clipPath id="clip732">
    <rect x="187" y="47" width="1766" height="1040"/>
  </clipPath>
</defs>
<polyline clip-path="url(#clip730)" style="stroke:#000000; stroke-linecap:round; stroke-linejoin:round; stroke-width:4; stroke-opacity:1; fill:none" points="187.824,1086.13 1952.76,1086.13 "/>
<polyline clip-path="url(#clip730)" style="stroke:#000000; stroke-linecap:round; stroke-linejoin:round; stroke-width:4; stroke-opacity:1; fill:none" points="209.554,1086.13 209.554,1067.23 "/>
<polyline clip-path="url(#clip730)" style="stroke:#000000; stroke-linecap:round; stroke-linejoin:round; stroke-width:4; stroke-opacity:1; fill:none" points="632.867,1086.13 632.867,1067.23 "/>
<polyline clip-path="url(#clip730)" style="stroke:#000000; stroke-linecap:round; stroke-linejoin:round; stroke-width:4; stroke-opacity:1; fill:none" points="1056.18,1086.13 1056.18,1067.23 "/>
<polyline clip-path="url(#clip730)" style="stroke:#000000; stroke-linecap:round; stroke-linejoin:round; stroke-width:4; stroke-opacity:1; fill:none" points="1479.49,1086.13 1479.49,1067.23 "/>
<polyline clip-path="url(#clip730)" style="stroke:#000000; stroke-linecap:round; stroke-linejoin:round; stroke-width:4; stroke-opacity:1; fill:none" points="1902.8,1086.13 1902.8,1067.23 "/>
<path clip-path="url(#clip730)" d="M209.554 1116.78 Q205.04 1116.78 202.754 1121.23 Q200.497 1125.66 200.497 1134.57 Q200.497 1143.45 202.754 1147.91 Q205.04 1152.34 209.554 1152.34 Q214.097 1152.34 216.354 1147.91 Q218.639 1143.45 218.639 1134.57 Q218.639 1125.66 216.354 1121.23 Q214.097 1116.78 209.554 1116.78 M209.554 1112.15 Q216.816 1112.15 220.636 1117.9 Q224.484 1123.63 224.484 1134.57 Q224.484 1145.48 220.636 1151.24 Q216.816 1156.97 209.554 1156.97 Q202.291 1156.97 198.443 1151.24 Q194.623 1145.48 194.623 1134.57 Q194.623 1123.63 198.443 1117.9 Q202.291 1112.15 209.554 1112.15 Z" fill="#000000" fill-rule="nonzero" fill-opacity="1" /><path clip-path="url(#clip730)" d="M620.714 1112.93 L643.659 1112.93 L643.659 1117.85 L626.067 1117.85 L626.067 1128.44 Q627.34 1128 628.613 1127.8 Q629.886 1127.57 631.159 1127.57 Q638.393 1127.57 642.618 1131.53 Q646.842 1135.5 646.842 1142.27 Q646.842 1149.24 642.502 1153.12 Q638.162 1156.97 630.262 1156.97 Q627.543 1156.97 624.707 1156.5 Q621.9 1156.04 618.891 1155.12 L618.891 1149.24 Q621.495 1150.66 624.273 1151.35 Q627.051 1152.05 630.147 1152.05 Q635.152 1152.05 638.075 1149.41 Q640.997 1146.78 640.997 1142.27 Q640.997 1137.75 638.075 1135.12 Q635.152 1132.49 630.147 1132.49 Q627.803 1132.49 625.459 1133.01 Q623.144 1133.53 620.714 1134.63 L620.714 1112.93 Z" fill="#000000" fill-rule="nonzero" fill-opacity="1" /><path clip-path="url(#clip730)" d="M1024.54 1151.21 L1034.09 1151.21 L1034.09 1118.25 L1023.7 1120.34 L1023.7 1115.01 L1034.03 1112.93 L1039.87 1112.93 L1039.87 1151.21 L1049.42 1151.21 L1049.42 1156.13 L1024.54 1156.13 L1024.54 1151.21 Z" fill="#000000" fill-rule="nonzero" fill-opacity="1" /><path clip-path="url(#clip730)" d="M1073.73 1116.78 Q1069.21 1116.78 1066.93 1121.23 Q1064.67 1125.66 1064.67 1134.57 Q1064.67 1143.45 1066.93 1147.91 Q1069.21 1152.34 1073.73 1152.34 Q1078.27 1152.34 1080.53 1147.91 Q1082.81 1143.45 1082.81 1134.57 Q1082.81 1125.66 1080.53 1121.23 Q1078.27 1116.78 1073.73 1116.78 M1073.73 1112.15 Q1080.99 1112.15 1084.81 1117.9 Q1088.66 1123.63 1088.66 1134.57 Q1088.66 1145.48 1084.81 1151.24 Q1080.99 1156.97 1073.73 1156.97 Q1066.47 1156.97 1062.62 1151.24 Q1058.8 1145.48 1058.8 1134.57 Q1058.8 1123.63 1062.62 1117.9 Q1066.47 1112.15 1073.73 1112.15 Z" fill="#000000" fill-rule="nonzero" fill-opacity="1" /><path clip-path="url(#clip730)" d="M1448.47 1151.21 L1458.02 1151.21 L1458.02 1118.25 L1447.63 1120.34 L1447.63 1115.01 L1457.96 1112.93 L1463.81 1112.93 L1463.81 1151.21 L1473.36 1151.21 L1473.36 1156.13 L1448.47 1156.13 L1448.47 1151.21 Z" fill="#000000" fill-rule="nonzero" fill-opacity="1" /><path clip-path="url(#clip730)" d="M1485.22 1112.93 L1508.17 1112.93 L1508.17 1117.85 L1490.57 1117.85 L1490.57 1128.44 Q1491.85 1128 1493.12 1127.8 Q1494.39 1127.57 1495.67 1127.57 Q1502.9 1127.57 1507.13 1131.53 Q1511.35 1135.5 1511.35 1142.27 Q1511.35 1149.24 1507.01 1153.12 Q1502.67 1156.97 1494.77 1156.97 Q1492.05 1156.97 1489.21 1156.5 Q1486.41 1156.04 1483.4 1155.12 L1483.4 1149.24 Q1486 1150.66 1488.78 1151.35 Q1491.56 1152.05 1494.65 1152.05 Q1499.66 1152.05 1502.58 1149.41 Q1505.5 1146.78 1505.5 1142.27 Q1505.5 1137.75 1502.58 1135.12 Q1499.66 1132.49 1494.65 1132.49 Q1492.31 1132.49 1489.97 1133.01 Q1487.65 1133.53 1485.22 1134.63 L1485.22 1112.93 Z" fill="#000000" fill-rule="nonzero" fill-opacity="1" /><path clip-path="url(#clip730)" d="M1876.27 1151.21 L1896.67 1151.21 L1896.67 1156.13 L1869.24 1156.13 L1869.24 1151.21 Q1872.57 1147.77 1878.3 1141.98 Q1884.06 1136.16 1885.53 1134.48 Q1888.34 1131.33 1889.44 1129.16 Q1890.57 1126.96 1890.57 1124.85 Q1890.57 1121.41 1888.13 1119.24 Q1885.73 1117.07 1881.86 1117.07 Q1879.11 1117.07 1876.04 1118.02 Q1873 1118.98 1869.53 1120.91 L1869.53 1115.01 Q1873.06 1113.59 1876.13 1112.87 Q1879.19 1112.15 1881.74 1112.15 Q1888.45 1112.15 1892.45 1115.5 Q1896.44 1118.86 1896.44 1124.47 Q1896.44 1127.13 1895.43 1129.54 Q1894.44 1131.91 1891.81 1135.15 Q1891.09 1135.99 1887.21 1140.01 Q1883.33 1144 1876.27 1151.21 Z" fill="#000000" fill-rule="nonzero" fill-opacity="1" /><path clip-path="url(#clip730)" d="M1921.44 1116.78 Q1916.93 1116.78 1914.64 1121.23 Q1912.38 1125.66 1912.38 1134.57 Q1912.38 1143.45 1914.64 1147.91 Q1916.93 1152.34 1921.44 1152.34 Q1925.98 1152.34 1928.24 1147.91 Q1930.52 1143.45 1930.52 1134.57 Q1930.52 1125.66 1928.24 1121.23 Q1925.98 1116.78 1921.44 1116.78 M1921.44 1112.15 Q1928.7 1112.15 1932.52 1117.9 Q1936.37 1123.63 1936.37 1134.57 Q1936.37 1145.48 1932.52 1151.24 Q1928.7 1156.97 1921.44 1156.97 Q1914.18 1156.97 1910.33 1151.24 Q1906.51 1145.48 1906.51 1134.57 Q1906.51 1123.63 1910.33 1117.9 Q1914.18 1112.15 1921.44 1112.15 Z" fill="#000000" fill-rule="nonzero" fill-opacity="1" /><polyline clip-path="url(#clip730)" style="stroke:#000000; stroke-linecap:round; stroke-linejoin:round; stroke-width:4; stroke-opacity:1; fill:none" points="187.824,1086.13 187.824,47.2441 "/>
<polyline clip-path="url(#clip730)" style="stroke:#000000; stroke-linecap:round; stroke-linejoin:round; stroke-width:4; stroke-opacity:1; fill:none" points="187.824,1066.95 206.721,1066.95 "/>
<polyline clip-path="url(#clip730)" style="stroke:#000000; stroke-linecap:round; stroke-linejoin:round; stroke-width:4; stroke-opacity:1; fill:none" points="187.824,794.107 206.721,794.107 "/>
<polyline clip-path="url(#clip730)" style="stroke:#000000; stroke-linecap:round; stroke-linejoin:round; stroke-width:4; stroke-opacity:1; fill:none" points="187.824,521.26 206.721,521.26 "/>
<polyline clip-path="url(#clip730)" style="stroke:#000000; stroke-linecap:round; stroke-linejoin:round; stroke-width:4; stroke-opacity:1; fill:none" points="187.824,248.414 206.721,248.414 "/>
<path clip-path="url(#clip730)" d="M142.893 1049.2 Q138.379 1049.2 136.094 1053.66 Q133.837 1058.08 133.837 1067 Q133.837 1075.88 136.094 1080.34 Q138.379 1084.76 142.893 1084.76 Q147.436 1084.76 149.693 1080.34 Q151.979 1075.88 151.979 1067 Q151.979 1058.08 149.693 1053.66 Q147.436 1049.2 142.893 1049.2 M142.893 1044.57 Q150.156 1044.57 153.975 1050.33 Q157.824 1056.06 157.824 1067 Q157.824 1077.9 153.975 1083.66 Q150.156 1089.39 142.893 1089.39 Q135.631 1089.39 131.782 1083.66 Q127.963 1077.9 127.963 1067 Q127.963 1056.06 131.782 1050.33 Q135.631 1044.57 142.893 1044.57 Z" fill="#000000" fill-rule="nonzero" fill-opacity="1" /><path clip-path="url(#clip730)" d="M56.0014 810.788 L65.5499 810.788 L65.5499 777.831 L55.1623 779.914 L55.1623 774.59 L65.4921 772.507 L71.3369 772.507 L71.3369 810.788 L80.8855 810.788 L80.8855 815.707 L56.0014 815.707 L56.0014 810.788 Z" fill="#000000" fill-rule="nonzero" fill-opacity="1" /><path clip-path="url(#clip730)" d="M105.191 776.355 Q100.677 776.355 98.3912 780.811 Q96.1343 785.238 96.1343 794.15 Q96.1343 803.033 98.3912 807.489 Q100.677 811.916 105.191 811.916 Q109.734 811.916 111.991 807.489 Q114.277 803.033 114.277 794.15 Q114.277 785.238 111.991 780.811 Q109.734 776.355 105.191 776.355 M105.191 771.725 Q112.454 771.725 116.273 777.483 Q120.121 783.213 120.121 794.15 Q120.121 805.058 116.273 810.817 Q112.454 816.546 105.191 816.546 Q97.9282 816.546 94.0799 810.817 Q90.2604 805.058 90.2604 794.15 Q90.2604 783.213 94.0799 777.483 Q97.9282 771.725 105.191 771.725 Z" fill="#000000" fill-rule="nonzero" fill-opacity="1" /><path clip-path="url(#clip730)" d="M142.893 776.355 Q138.379 776.355 136.094 780.811 Q133.837 785.238 133.837 794.15 Q133.837 803.033 136.094 807.489 Q138.379 811.916 142.893 811.916 Q147.436 811.916 149.693 807.489 Q151.979 803.033 151.979 794.15 Q151.979 785.238 149.693 780.811 Q147.436 776.355 142.893 776.355 M142.893 771.725 Q150.156 771.725 153.975 777.483 Q157.824 783.213 157.824 794.15 Q157.824 805.058 153.975 810.817 Q150.156 816.546 142.893 816.546 Q135.631 816.546 131.782 810.817 Q127.963 805.058 127.963 794.15 Q127.963 783.213 131.782 777.483 Q135.631 771.725 142.893 771.725 Z" fill="#000000" fill-rule="nonzero" fill-opacity="1" /><path clip-path="url(#clip730)" d="M60.0233 537.941 L80.4225 537.941 L80.4225 542.86 L52.9921 542.86 L52.9921 537.941 Q56.3197 534.498 62.0488 528.711 Q67.8069 522.895 69.2825 521.217 Q72.0892 518.063 73.1888 515.893 Q74.3172 513.694 74.3172 511.582 Q74.3172 508.138 71.8867 505.968 Q69.4851 503.798 65.6078 503.798 Q62.859 503.798 59.7919 504.753 Q56.7537 505.708 53.2815 507.646 L53.2815 501.744 Q56.8115 500.326 59.8787 499.602 Q62.9458 498.879 65.4921 498.879 Q72.205 498.879 76.198 502.236 Q80.1911 505.592 80.1911 511.205 Q80.1911 513.867 79.1783 516.269 Q78.1945 518.642 75.5614 521.882 Q74.8381 522.722 70.9608 526.744 Q67.0835 530.737 60.0233 537.941 Z" fill="#000000" fill-rule="nonzero" fill-opacity="1" /><path clip-path="url(#clip730)" d="M105.191 503.509 Q100.677 503.509 98.3912 507.965 Q96.1343 512.392 96.1343 521.304 Q96.1343 530.187 98.3912 534.643 Q100.677 539.07 105.191 539.07 Q109.734 539.07 111.991 534.643 Q114.277 530.187 114.277 521.304 Q114.277 512.392 111.991 507.965 Q109.734 503.509 105.191 503.509 M105.191 498.879 Q112.454 498.879 116.273 504.637 Q120.121 510.366 120.121 521.304 Q120.121 532.212 116.273 537.97 Q112.454 543.699 105.191 543.699 Q97.9282 543.699 94.0799 537.97 Q90.2604 532.212 90.2604 521.304 Q90.2604 510.366 94.0799 504.637 Q97.9282 498.879 105.191 498.879 Z" fill="#000000" fill-rule="nonzero" fill-opacity="1" /><path clip-path="url(#clip730)" d="M142.893 503.509 Q138.379 503.509 136.094 507.965 Q133.837 512.392 133.837 521.304 Q133.837 530.187 136.094 534.643 Q138.379 539.07 142.893 539.07 Q147.436 539.07 149.693 534.643 Q151.979 530.187 151.979 521.304 Q151.979 512.392 149.693 507.965 Q147.436 503.509 142.893 503.509 M142.893 498.879 Q150.156 498.879 153.975 504.637 Q157.824 510.366 157.824 521.304 Q157.824 532.212 153.975 537.97 Q150.156 543.699 142.893 543.699 Q135.631 543.699 131.782 537.97 Q127.963 532.212 127.963 521.304 Q127.963 510.366 131.782 504.637 Q135.631 498.879 142.893 498.879 Z" fill="#000000" fill-rule="nonzero" fill-opacity="1" /><path clip-path="url(#clip730)" d="M72.6969 246.721 Q76.8925 247.618 79.2362 250.454 Q81.6089 253.29 81.6089 257.456 Q81.6089 263.851 77.2107 267.352 Q72.8126 270.853 64.7108 270.853 Q61.9909 270.853 59.0974 270.304 Q56.2328 269.783 53.1657 268.712 L53.1657 263.07 Q55.5963 264.488 58.4898 265.211 Q61.3833 265.934 64.5372 265.934 Q70.0349 265.934 72.8994 263.764 Q75.7929 261.594 75.7929 257.456 Q75.7929 253.637 73.102 251.496 Q70.4399 249.326 65.6657 249.326 L60.631 249.326 L60.631 244.522 L65.8971 244.522 Q70.2085 244.522 72.4943 242.815 Q74.7802 241.079 74.7802 237.838 Q74.7802 234.511 72.4075 232.746 Q70.0638 230.952 65.6657 230.952 Q63.2641 230.952 60.5152 231.473 Q57.7664 231.994 54.4678 233.093 L54.4678 227.885 Q57.7953 226.959 60.6888 226.496 Q63.6113 226.033 66.1865 226.033 Q72.8416 226.033 76.7189 229.071 Q80.5961 232.08 80.5961 237.231 Q80.5961 240.819 78.5418 243.307 Q76.4874 245.767 72.6969 246.721 Z" fill="#000000" fill-rule="nonzero" fill-opacity="1" /><path clip-path="url(#clip730)" d="M105.191 230.663 Q100.677 230.663 98.3912 235.119 Q96.1343 239.546 96.1343 248.458 Q96.1343 257.341 98.3912 261.797 Q100.677 266.224 105.191 266.224 Q109.734 266.224 111.991 261.797 Q114.277 257.341 114.277 248.458 Q114.277 239.546 111.991 235.119 Q109.734 230.663 105.191 230.663 M105.191 226.033 Q112.454 226.033 116.273 231.791 Q120.121 237.52 120.121 248.458 Q120.121 259.366 116.273 265.124 Q112.454 270.853 105.191 270.853 Q97.9282 270.853 94.0799 265.124 Q90.2604 259.366 90.2604 248.458 Q90.2604 237.52 94.0799 231.791 Q97.9282 226.033 105.191 226.033 Z" fill="#000000" fill-rule="nonzero" fill-opacity="1" /><path clip-path="url(#clip730)" d="M142.893 230.663 Q138.379 230.663 136.094 235.119 Q133.837 239.546 133.837 248.458 Q133.837 257.341 136.094 261.797 Q138.379 266.224 142.893 266.224 Q147.436 266.224 149.693 261.797 Q151.979 257.341 151.979 248.458 Q151.979 239.546 149.693 235.119 Q147.436 230.663 142.893 230.663 M142.893 226.033 Q150.156 226.033 153.975 231.791 Q157.824 237.52 157.824 248.458 Q157.824 259.366 153.975 265.124 Q150.156 270.853 142.893 270.853 Q135.631 270.853 131.782 265.124 Q127.963 259.366 127.963 248.458 Q127.963 237.52 131.782 231.791 Q135.631 226.033 142.893 226.033 Z" fill="#000000" fill-rule="nonzero" fill-opacity="1" /><polyline clip-path="url(#clip732)" style="stroke:#009af9; stroke-linecap:round; stroke-linejoin:round; stroke-width:10; stroke-opacity:1; fill:none" points="237.775,570.473 265.996,570.826 294.216,571.884 322.437,573.642 350.658,576.093 378.879,579.226 407.1,583.029 435.321,587.485 463.541,592.575 491.762,598.279 519.983,604.573 548.204,611.43 576.425,618.825 604.646,626.726 632.867,635.103 661.087,643.923 689.308,653.152 717.529,662.756 745.75,672.698 773.971,682.942 802.192,693.452 830.413,704.191 858.633,715.123 886.854,726.21 915.075,737.417 943.296,748.709 971.517,760.051 999.738,771.409 1027.96,782.752 1056.18,794.049 1084.4,805.268 1112.62,816.384 1140.84,827.368 1169.06,838.197 1197.28,848.847 1225.5,859.297 1253.73,869.527 1281.95,879.521 1310.17,889.261 1338.39,898.735 1366.61,907.93 1394.83,916.837 1423.05,925.446 1451.27,933.751 1479.49,941.747 1507.71,949.43 1535.93,956.799 1564.15,963.852 1592.38,970.591 1620.6,977.018 1648.82,983.135 1677.04,988.948 1705.26,994.46 1733.48,999.679 1761.7,1004.61 1789.92,1009.26 1818.14,1013.64 1846.36,1017.76 1874.58,1021.63 1902.8,1025.25 "/>
<polyline clip-path="url(#clip732)" style="stroke:#e26f46; stroke-linecap:round; stroke-linejoin:round; stroke-width:8; stroke-opacity:0.5; fill:none" points="237.775,818.047 265.996,818.275 294.216,818.959 322.437,820.093 350.658,821.673 378.879,823.688 407.1,826.13 435.321,828.984 463.541,832.234 491.762,835.865 519.983,839.856 548.204,844.188 576.425,848.837 604.646,853.78 632.867,858.993 661.087,864.45 689.308,870.126 717.529,875.993 745.75,882.024 773.971,888.193 802.192,894.473 830.413,900.837 858.633,907.26 886.854,913.715 915.075,920.179 943.296,926.628 971.517,933.04 999.738,939.392 1027.96,945.666 1056.18,951.843 1084.4,957.905 1112.62,963.837 1140.84,969.625 1169.06,975.257 1197.28,980.721 1225.5,986.008 1253.73,991.11 1281.95,996.021 1310.17,1000.74 1338.39,1005.25 1366.61,1009.56 1394.83,1013.67 1423.05,1017.57 1451.27,1021.28 1479.49,1024.78 1507.71,1028.08 1535.93,1031.2 1564.15,1034.12 1592.38,1036.86 1620.6,1039.42 1648.82,1041.81 1677.04,1044.03 1705.26,1046.1 1733.48,1048.01 1761.7,1049.78 1789.92,1051.42 1818.14,1052.92 1846.36,1054.3 1874.58,1055.57 1902.8,1056.73 "/>
<polyline clip-path="url(#clip732)" style="stroke:#3da44d; stroke-linecap:round; stroke-linejoin:round; stroke-width:8; stroke-opacity:0.5; fill:none" points="237.775,76.6465 265.996,77.1931 294.216,78.8313 322.437,81.5555 350.658,85.3568 378.879,90.2227 407.1,96.1371 435.321,103.081 463.541,111.031 491.762,119.962 519.983,129.845 548.204,140.648 576.425,152.337 604.646,164.876 632.867,178.224 661.087,192.342 689.308,207.185 717.529,222.709 745.75,238.868 773.971,255.614 802.192,272.899 830.413,290.673 858.633,308.887 886.854,327.49 915.075,346.434 943.296,365.666 971.517,385.139 999.738,404.803 1027.96,424.609 1056.18,444.511 1084.4,464.461 1112.62,484.416 1140.84,504.332 1169.06,524.167 1197.28,543.88 1225.5,563.433 1253.73,582.791 1281.95,601.918 1310.17,620.783 1338.39,639.355 1366.61,657.606 1394.83,675.51 1423.05,693.045 1451.27,710.188 1479.49,726.921 1507.71,743.227 1535.93,759.091 1564.15,774.501 1592.38,789.446 1620.6,803.918 1648.82,817.911 1677.04,831.419 1705.26,844.44 1733.48,856.974 1761.7,869.02 1789.92,880.582 1818.14,891.661 1846.36,902.264 1874.58,912.396 1902.8,922.065 "/>
<polyline clip-path="url(#clip732)" style="stroke:#c271d2; stroke-linecap:round; stroke-linejoin:round; stroke-width:8; stroke-opacity:0.5; fill:none" points="237.775,716.392 265.996,716.618 294.216,717.295 322.437,718.42 350.658,719.99 378.879,721.997 407.1,724.435 435.321,727.294 463.541,730.563 491.762,734.23 519.983,738.281 548.204,742.701 576.425,747.474 604.646,752.582 632.867,758.007 661.087,763.73 689.308,769.73 717.529,775.987 745.75,782.48 773.971,789.186 802.192,796.083 830.413,803.149 858.633,810.363 886.854,817.7 915.075,825.14 943.296,832.66 971.517,840.239 999.738,847.855 1027.96,855.488 1056.18,863.118 1084.4,870.727 1112.62,878.294 1140.84,885.804 1169.06,893.238 1197.28,900.583 1225.5,907.822 1253.73,914.942 1281.95,921.931 1310.17,928.777 1338.39,935.469 1366.61,941.998 1394.83,948.356 1423.05,954.536 1451.27,960.531 1479.49,966.336 1507.71,971.947 1535.93,977.361 1564.15,982.575 1592.38,987.588 1620.6,992.4 1648.82,997.01 1677.04,1001.42 1705.26,1005.63 1733.48,1009.64 1761.7,1013.46 1789.92,1017.09 1818.14,1020.54 1846.36,1023.8 1874.58,1026.88 1902.8,1029.79 "/>
<polyline clip-path="url(#clip732)" style="stroke:#ac8d18; stroke-linecap:round; stroke-linejoin:round; stroke-width:8; stroke-opacity:0.5; fill:none" points="237.775,363.815 265.996,364.367 294.216,366.02 322.437,368.767 350.658,372.594 378.879,377.485 407.1,383.415 435.321,390.358 463.541,398.281 491.762,407.149 519.983,416.92 548.204,427.552 576.425,438.998 604.646,451.206 632.867,464.124 661.087,477.698 689.308,491.87 717.529,506.582 745.75,521.774 773.971,537.387 802.192,553.36 830.413,569.633 858.633,586.146 886.854,602.841 915.075,619.659 943.296,636.543 971.517,653.441 999.738,670.299 1027.96,687.066 1056.18,703.696 1084.4,720.143 1112.62,736.365 1140.84,752.322 1169.06,767.979 1197.28,783.303 1225.5,798.264 1253.73,812.835 1281.95,826.994 1310.17,840.719 1338.39,853.993 1366.61,866.804 1394.83,879.139 1423.05,890.99 1451.27,902.352 1479.49,913.222 1507.71,923.6 1535.93,933.487 1564.15,942.887 1592.38,951.806 1620.6,960.252 1648.82,968.233 1677.04,975.76 1705.26,982.846 1733.48,989.503 1761.7,995.745 1789.92,1001.59 1818.14,1007.04 1846.36,1012.13 1874.58,1016.86 1902.8,1021.26 "/>
<polyline clip-path="url(#clip732)" style="stroke:#00a9ad; stroke-linecap:round; stroke-linejoin:round; stroke-width:8; stroke-opacity:0.5; fill:none" points="237.775,446.278 265.996,446.724 294.216,448.061 322.437,450.283 350.658,453.381 378.879,457.34 407.1,462.145 435.321,467.774 463.541,474.205 491.762,481.41 519.983,489.358 548.204,498.018 576.425,507.354 604.646,517.328 632.867,527.9 661.087,539.029 689.308,550.671 717.529,562.783 745.75,575.318 773.971,588.231 802.192,601.474 830.413,615.003 858.633,628.768 886.854,642.726 915.075,656.829 943.296,671.033 971.517,685.295 999.738,699.572 1027.96,713.824 1056.18,728.01 1084.4,742.095 1112.62,756.042 1140.84,769.817 1169.06,783.391 1197.28,796.734 1225.5,809.819 1253.73,822.622 1281.95,835.121 1310.17,847.298 1338.39,859.134 1366.61,870.614 1394.83,881.728 1423.05,892.463 1451.27,902.813 1479.49,912.77 1507.71,922.332 1535.93,931.496 1564.15,940.262 1592.38,948.63 1620.6,956.605 1648.82,964.19 1677.04,971.392 1705.26,978.216 1733.48,984.672 1761.7,990.768 1789.92,996.513 1818.14,1001.92 1846.36,1007 1874.58,1011.76 1902.8,1016.21 "/>
<polyline clip-path="url(#clip732)" style="stroke:#ed5d92; stroke-linecap:round; stroke-linejoin:round; stroke-width:8; stroke-opacity:0.5; fill:none" points="237.775,669.816 265.996,670.096 294.216,670.933 322.437,672.324 350.658,674.264 378.879,676.743 407.1,679.753 435.321,683.28 463.541,687.309 491.762,691.825 519.983,696.808 548.204,702.239 576.425,708.095 604.646,714.355 632.867,720.992 661.087,727.982 689.308,735.298 717.529,742.913 745.75,750.798 773.971,758.925 802.192,767.266 830.413,775.79 858.633,784.47 886.854,793.277 915.075,802.183 943.296,811.159 971.517,820.178 999.738,829.214 1027.96,838.241 1056.18,847.236 1084.4,856.173 1112.62,865.031 1140.84,873.789 1169.06,882.428 1197.28,890.927 1225.5,899.272 1253.73,907.446 1281.95,915.434 1310.17,923.225 1338.39,930.807 1366.61,938.171 1394.83,945.308 1423.05,952.211 1451.27,958.874 1479.49,965.294 1507.71,971.467 1535.93,977.391 1564.15,983.066 1592.38,988.491 1620.6,993.669 1648.82,998.602 1677.04,1003.29 1705.26,1007.74 1733.48,1011.96 1761.7,1015.95 1789.92,1019.72 1818.14,1023.27 1846.36,1026.61 1874.58,1029.74 1902.8,1032.69 "/>
<path clip-path="url(#clip730)" d="M1342.55 211.474 L1893.92 211.474 L1893.92 81.8736 L1342.55 81.8736  Z" fill="#ffffff" fill-rule="evenodd" fill-opacity="1"/>
<polyline clip-path="url(#clip730)" style="stroke:#000000; stroke-linecap:round; stroke-linejoin:round; stroke-width:4; stroke-opacity:1; fill:none" points="1342.55,211.474 1893.92,211.474 1893.92,81.8736 1342.55,81.8736 1342.55,211.474 "/>
<polyline clip-path="url(#clip730)" style="stroke:#009af9; stroke-linecap:round; stroke-linejoin:round; stroke-width:12.5; stroke-opacity:1; fill:none" points="1362.16,146.674 1479.82,146.674 "/>
<path clip-path="url(#clip730)" d="M1499.43 123.251 L1504.79 123.251 L1504.79 149.842 L1520.67 135.866 L1527.47 135.866 L1510.28 151.028 L1528.19 168.274 L1521.25 168.274 L1504.79 152.446 L1504.79 168.274 L1499.43 168.274 L1499.43 123.251 Z" fill="#000000" fill-rule="nonzero" fill-opacity="1" /><path clip-path="url(#clip730)" d="M1559.56 150.739 L1559.56 153.343 L1535.08 153.343 Q1535.43 158.841 1538.38 161.734 Q1541.36 164.599 1546.65 164.599 Q1549.72 164.599 1552.59 163.846 Q1555.48 163.094 1558.32 161.59 L1558.32 166.624 Q1555.45 167.84 1552.44 168.476 Q1549.43 169.113 1546.34 169.113 Q1538.58 169.113 1534.04 164.599 Q1529.52 160.085 1529.52 152.388 Q1529.52 144.431 1533.81 139.773 Q1538.12 135.085 1545.41 135.085 Q1551.95 135.085 1555.74 139.31 Q1559.56 143.505 1559.56 150.739 M1554.24 149.176 Q1554.18 144.807 1551.78 142.203 Q1549.4 139.599 1545.47 139.599 Q1541.01 139.599 1538.32 142.116 Q1535.66 144.634 1535.25 149.205 L1554.24 149.176 Z" fill="#000000" fill-rule="nonzero" fill-opacity="1" /><path clip-path="url(#clip730)" d="M1587.08 140.843 Q1586.18 140.322 1585.11 140.091 Q1584.07 139.83 1582.79 139.83 Q1578.28 139.83 1575.85 142.782 Q1573.45 145.704 1573.45 151.202 L1573.45 168.274 L1568.1 168.274 L1568.1 135.866 L1573.45 135.866 L1573.45 140.901 Q1575.13 137.95 1577.82 136.532 Q1580.51 135.085 1584.36 135.085 Q1584.91 135.085 1585.57 135.172 Q1586.24 135.23 1587.05 135.374 L1587.08 140.843 Z" fill="#000000" fill-rule="nonzero" fill-opacity="1" /><path clip-path="url(#clip730)" d="M1618.56 148.713 L1618.56 168.274 L1613.23 168.274 L1613.23 148.887 Q1613.23 144.286 1611.44 142.001 Q1609.65 139.715 1606.06 139.715 Q1601.75 139.715 1599.26 142.464 Q1596.77 145.212 1596.77 149.958 L1596.77 168.274 L1591.42 168.274 L1591.42 135.866 L1596.77 135.866 L1596.77 140.901 Q1598.68 137.979 1601.25 136.532 Q1603.86 135.085 1607.24 135.085 Q1612.83 135.085 1615.69 138.557 Q1618.56 142.001 1618.56 148.713 Z" fill="#000000" fill-rule="nonzero" fill-opacity="1" /><path clip-path="url(#clip730)" d="M1656.9 150.739 L1656.9 153.343 L1632.42 153.343 Q1632.76 158.841 1635.72 161.734 Q1638.7 164.599 1643.99 164.599 Q1647.06 164.599 1649.92 163.846 Q1652.82 163.094 1655.65 161.59 L1655.65 166.624 Q1652.79 167.84 1649.78 168.476 Q1646.77 169.113 1643.67 169.113 Q1635.92 169.113 1631.38 164.599 Q1626.86 160.085 1626.86 152.388 Q1626.86 144.431 1631.14 139.773 Q1635.46 135.085 1642.75 135.085 Q1649.29 135.085 1653.08 139.31 Q1656.9 143.505 1656.9 150.739 M1651.57 149.176 Q1651.51 144.807 1649.11 142.203 Q1646.74 139.599 1642.81 139.599 Q1638.35 139.599 1635.66 142.116 Q1633 144.634 1632.59 149.205 L1651.57 149.176 Z" fill="#000000" fill-rule="nonzero" fill-opacity="1" /><path clip-path="url(#clip730)" d="M1665.64 123.251 L1670.96 123.251 L1670.96 168.274 L1665.64 168.274 L1665.64 123.251 Z" fill="#000000" fill-rule="nonzero" fill-opacity="1" /><path clip-path="url(#clip730)" d="M1726.17 142.087 Q1728.16 138.499 1730.94 136.792 Q1733.72 135.085 1737.48 135.085 Q1742.54 135.085 1745.29 138.644 Q1748.04 142.174 1748.04 148.713 L1748.04 168.274 L1742.69 168.274 L1742.69 148.887 Q1742.69 144.229 1741.04 141.972 Q1739.39 139.715 1736.01 139.715 Q1731.87 139.715 1729.47 142.464 Q1727.06 145.212 1727.06 149.958 L1727.06 168.274 L1721.71 168.274 L1721.71 148.887 Q1721.71 144.2 1720.06 141.972 Q1718.41 139.715 1714.97 139.715 Q1710.89 139.715 1708.49 142.492 Q1706.09 145.241 1706.09 149.958 L1706.09 168.274 L1700.73 168.274 L1700.73 135.866 L1706.09 135.866 L1706.09 140.901 Q1707.91 137.921 1710.46 136.503 Q1713 135.085 1716.5 135.085 Q1720.03 135.085 1722.49 136.879 Q1724.98 138.673 1726.17 142.087 Z" fill="#000000" fill-rule="nonzero" fill-opacity="1" /><path clip-path="url(#clip730)" d="M1771.22 139.599 Q1766.94 139.599 1764.45 142.955 Q1761.96 146.283 1761.96 152.099 Q1761.96 157.915 1764.42 161.271 Q1766.91 164.599 1771.22 164.599 Q1775.47 164.599 1777.96 161.242 Q1780.45 157.886 1780.45 152.099 Q1780.45 146.341 1777.96 142.984 Q1775.47 139.599 1771.22 139.599 M1771.22 135.085 Q1778.16 135.085 1782.13 139.599 Q1786.09 144.113 1786.09 152.099 Q1786.09 160.056 1782.13 164.599 Q1778.16 169.113 1771.22 169.113 Q1764.25 169.113 1760.28 164.599 Q1756.35 160.056 1756.35 152.099 Q1756.35 144.113 1760.28 139.599 Q1764.25 135.085 1771.22 135.085 Z" fill="#000000" fill-rule="nonzero" fill-opacity="1" /><path clip-path="url(#clip730)" d="M1816.24 140.785 L1816.24 123.251 L1821.57 123.251 L1821.57 168.274 L1816.24 168.274 L1816.24 163.412 Q1814.56 166.306 1811.99 167.724 Q1809.44 169.113 1805.85 169.113 Q1799.98 169.113 1796.28 164.425 Q1792.6 159.738 1792.6 152.099 Q1792.6 144.46 1796.28 139.773 Q1799.98 135.085 1805.85 135.085 Q1809.44 135.085 1811.99 136.503 Q1814.56 137.892 1816.24 140.785 M1798.1 152.099 Q1798.1 157.973 1800.5 161.329 Q1802.93 164.657 1807.16 164.657 Q1811.38 164.657 1813.81 161.329 Q1816.24 157.973 1816.24 152.099 Q1816.24 146.225 1813.81 142.898 Q1811.38 139.541 1807.16 139.541 Q1802.93 139.541 1800.5 142.898 Q1798.1 146.225 1798.1 152.099 Z" fill="#000000" fill-rule="nonzero" fill-opacity="1" /><path clip-path="url(#clip730)" d="M1860.25 150.739 L1860.25 153.343 L1835.77 153.343 Q1836.12 158.841 1839.07 161.734 Q1842.05 164.599 1847.35 164.599 Q1850.41 164.599 1853.28 163.846 Q1856.17 163.094 1859.01 161.59 L1859.01 166.624 Q1856.14 167.84 1853.13 168.476 Q1850.12 169.113 1847.03 169.113 Q1839.27 169.113 1834.73 164.599 Q1830.22 160.085 1830.22 152.388 Q1830.22 144.431 1834.5 139.773 Q1838.81 135.085 1846.1 135.085 Q1852.64 135.085 1856.43 139.31 Q1860.25 143.505 1860.25 150.739 M1854.93 149.176 Q1854.87 144.807 1852.47 142.203 Q1850.1 139.599 1846.16 139.599 Q1841.7 139.599 1839.01 142.116 Q1836.35 144.634 1835.95 149.205 L1854.93 149.176 Z" fill="#000000" fill-rule="nonzero" fill-opacity="1" /><path clip-path="url(#clip730)" d="M1868.99 123.251 L1874.31 123.251 L1874.31 168.274 L1868.99 168.274 L1868.99 123.251 Z" fill="#000000" fill-rule="nonzero" fill-opacity="1" /></svg>
