<?xml version="1.0" encoding="utf-8"?>
<svg xmlns="http://www.w3.org/2000/svg" xmlns:xlink="http://www.w3.org/1999/xlink" width="500" height="300" viewBox="0 0 2000 1200">
<defs>
  <clipPath id="clip590">
    <rect x="0" y="0" width="2000" height="1200"/>
  </clipPath>
</defs>
<path clip-path="url(#clip590)" d="M0 1200 L2000 1200 L2000 0 L0 0  Z" fill="#ffffff" fill-rule="evenodd" fill-opacity="1"/>
<defs>
  <clipPath id="clip591">
    <rect x="400" y="0" width="1401" height="1200"/>
  </clipPath>
</defs>
<path clip-path="url(#clip590)" d="M185.654 1086.13 L1952.76 1086.13 L1952.76 47.2441 L185.654 47.2441  Z" fill="#ffffff" fill-rule="evenodd" fill-opacity="1"/>
<defs>
  <clipPath id="clip592">
    <rect x="185" y="47" width="1768" height="1040"/>
  </clipPath>
</defs>
<polyline clip-path="url(#clip590)" style="stroke:#000000; stroke-linecap:round; stroke-linejoin:round; stroke-width:4; stroke-opacity:1; fill:none" points="185.654,1086.13 1952.76,1086.13 "/>
<polyline clip-path="url(#clip590)" style="stroke:#000000; stroke-linecap:round; stroke-linejoin:round; stroke-width:4; stroke-opacity:1; fill:none" points="207.41,1086.13 207.41,1067.23 "/>
<polyline clip-path="url(#clip590)" style="stroke:#000000; stroke-linecap:round; stroke-linejoin:round; stroke-width:4; stroke-opacity:1; fill:none" points="631.244,1086.13 631.244,1067.23 "/>
<polyline clip-path="url(#clip590)" style="stroke:#000000; stroke-linecap:round; stroke-linejoin:round; stroke-width:4; stroke-opacity:1; fill:none" points="1055.08,1086.13 1055.08,1067.23 "/>
<polyline clip-path="url(#clip590)" style="stroke:#000000; stroke-linecap:round; stroke-linejoin:round; stroke-width:4; stroke-opacity:1; fill:none" points="1478.91,1086.13 1478.91,1067.23 "/>
<polyline clip-path="url(#clip590)" style="stroke:#000000; stroke-linecap:round; stroke-linejoin:round; stroke-width:4; stroke-opacity:1; fill:none" points="1902.74,1086.13 1902.74,1067.23 "/>
<path clip-path="url(#clip590)" d="M207.41 1116.78 Q202.897 1116.78 200.611 1121.23 Q198.354 1125.66 198.354 1134.57 Q198.354 1143.45 200.611 1147.91 Q202.897 1152.34 207.41 1152.34 Q211.953 1152.34 214.21 1147.91 Q216.496 1143.45 216.496 1134.57 Q216.496 1125.66 214.21 1121.23 Q211.953 1116.78 207.41 1116.78 M207.41 1112.15 Q214.673 1112.15 218.493 1117.9 Q222.341 1123.63 222.341 1134.57 Q222.341 1145.48 218.493 1151.24 Q214.673 1156.97 207.41 1156.97 Q200.148 1156.97 196.299 1151.24 Q192.48 1145.48 192.48 1134.57 Q192.48 1123.63 196.299 1117.9 Q200.148 1112.15 207.41 1112.15 Z" fill="#000000" fill-rule="nonzero" fill-opacity="1" /><path clip-path="url(#clip590)" d="M619.091 1112.93 L642.036 1112.93 L642.036 1117.85 L624.444 1117.85 L624.444 1128.44 Q625.717 1128 626.99 1127.8 Q628.263 1127.57 629.537 1127.57 Q636.77 1127.57 640.995 1131.53 Q645.219 1135.5 645.219 1142.27 Q645.219 1149.24 640.879 1153.12 Q636.539 1156.97 628.64 1156.97 Q625.92 1156.97 623.084 1156.5 Q620.277 1156.04 617.268 1155.12 L617.268 1149.24 Q619.872 1150.66 622.65 1151.35 Q625.428 1152.05 628.524 1152.05 Q633.53 1152.05 636.452 1149.41 Q639.374 1146.78 639.374 1142.27 Q639.374 1137.75 636.452 1135.12 Q633.53 1132.49 628.524 1132.49 Q626.18 1132.49 623.836 1133.01 Q621.522 1133.53 619.091 1134.63 L619.091 1112.93 Z" fill="#000000" fill-rule="nonzero" fill-opacity="1" /><path clip-path="url(#clip590)" d="M1023.44 1151.21 L1032.99 1151.21 L1032.99 1118.25 L1022.6 1120.34 L1022.6 1115.01 L1032.93 1112.93 L1038.77 1112.93 L1038.77 1151.21 L1048.32 1151.21 L1048.32 1156.13 L1023.44 1156.13 L1023.44 1151.21 Z" fill="#000000" fill-rule="nonzero" fill-opacity="1" /><path clip-path="url(#clip590)" d="M1072.63 1116.78 Q1068.11 1116.78 1065.83 1121.23 Q1063.57 1125.66 1063.57 1134.57 Q1063.57 1143.45 1065.83 1147.91 Q1068.11 1152.34 1072.63 1152.34 Q1077.17 1152.34 1079.43 1147.91 Q1081.71 1143.45 1081.71 1134.57 Q1081.71 1125.66 1079.43 1121.23 Q1077.17 1116.78 1072.63 1116.78 M1072.63 1112.15 Q1079.89 1112.15 1083.71 1117.9 Q1087.56 1123.63 1087.56 1134.57 Q1087.56 1145.48 1083.71 1151.24 Q1079.89 1156.97 1072.63 1156.97 Q1065.36 1156.97 1061.52 1151.24 Q1057.7 1145.48 1057.7 1134.57 Q1057.7 1123.63 1061.52 1117.9 Q1065.36 1112.15 1072.63 1112.15 Z" fill="#000000" fill-rule="nonzero" fill-opacity="1" /><path clip-path="url(#clip590)" d="M1447.89 1151.21 L1457.44 1151.21 L1457.44 1118.25 L1447.05 1120.34 L1447.05 1115.01 L1457.38 1112.93 L1463.23 1112.93 L1463.23 1151.21 L1472.78 1151.21 L1472.78 1156.13 L1447.89 1156.13 L1447.89 1151.21 Z" fill="#000000" fill-rule="nonzero" fill-opacity="1" /><path clip-path="url(#clip590)" d="M1484.64 1112.93 L1507.58 1112.93 L1507.58 1117.85 L1489.99 1117.85 L1489.99 1128.44 Q1491.27 1128 1492.54 1127.8 Q1493.81 1127.57 1495.08 1127.57 Q1502.32 1127.57 1506.54 1131.53 Q1510.77 1135.5 1510.77 1142.27 Q1510.77 1149.24 1506.43 1153.12 Q1502.09 1156.97 1494.19 1156.97 Q1491.47 1156.97 1488.63 1156.5 Q1485.83 1156.04 1482.82 1155.12 L1482.82 1149.24 Q1485.42 1150.66 1488.2 1151.35 Q1490.98 1152.05 1494.07 1152.05 Q1499.08 1152.05 1502 1149.41 Q1504.92 1146.78 1504.92 1142.27 Q1504.92 1137.75 1502 1135.12 Q1499.08 1132.49 1494.07 1132.49 Q1491.73 1132.49 1489.38 1133.01 Q1487.07 1133.53 1484.64 1134.63 L1484.64 1112.93 Z" fill="#000000" fill-rule="nonzero" fill-opacity="1" /><path clip-path="url(#clip590)" d="M1876.21 1151.21 L1896.61 1151.21 L1896.61 1156.13 L1869.18 1156.13 L1869.18 1151.21 Q1872.51 1147.77 1878.24 1141.98 Q1883.99 1136.16 1885.47 1134.48 Q1888.28 1131.33 1889.38 1129.16 Q1890.5 1126.96 1890.5 1124.85 Q1890.5 1121.41 1888.07 1119.24 Q1885.67 1117.07 1881.79 1117.07 Q1879.05 1117.07 1875.98 1118.02 Q1872.94 1118.98 1869.47 1120.91 L1869.47 1115.01 Q1873 1113.59 1876.07 1112.87 Q1879.13 1112.15 1881.68 1112.15 Q1888.39 1112.15 1892.38 1115.5 Q1896.38 1118.86 1896.38 1124.47 Q1896.38 1127.13 1895.37 1129.54 Q1894.38 1131.91 1891.75 1135.15 Q1891.02 1135.99 1887.15 1140.01 Q1883.27 1144 1876.21 1151.21 Z" fill="#000000" fill-rule="nonzero" fill-opacity="1" /><path clip-path="url(#clip590)" d="M1921.38 1116.78 Q1916.86 1116.78 1914.58 1121.23 Q1912.32 1125.66 1912.32 1134.57 Q1912.32 1143.45 1914.58 1147.91 Q1916.86 1152.34 1921.38 1152.34 Q1925.92 1152.34 1928.18 1147.91 Q1930.46 1143.45 1930.46 1134.57 Q1930.46 1125.66 1928.18 1121.23 Q1925.92 1116.78 1921.38 1116.78 M1921.38 1112.15 Q1928.64 1112.15 1932.46 1117.9 Q1936.31 1123.63 1936.31 1134.57 Q1936.31 1145.48 1932.46 1151.24 Q1928.64 1156.97 1921.38 1156.97 Q1914.12 1156.97 1910.27 1151.24 Q1906.45 1145.48 1906.45 1134.57 Q1906.45 1123.63 1910.27 1117.9 Q1914.12 1112.15 1921.38 1112.15 Z" fill="#000000" fill-rule="nonzero" fill-opacity="1" /><polyline clip-path="url(#clip590)" style="stroke:#000000; stroke-linecap:round; stroke-linejoin:round; stroke-width:4; stroke-opacity:1; fill:none" points="185.654,1086.13 185.654,47.2441 "/>
<polyline clip-path="url(#clip590)" style="stroke:#000000; stroke-linecap:round; stroke-linejoin:round; stroke-width:4; stroke-opacity:1; fill:none" points="185.654,1072.04 204.551,1072.04 "/>
<polyline clip-path="url(#clip590)" style="stroke:#000000; stroke-linecap:round; stroke-linejoin:round; stroke-width:4; stroke-opacity:1; fill:none" points="185.654,750.537 204.551,750.537 "/>
<polyline clip-path="url(#clip590)" style="stroke:#000000; stroke-linecap:round; stroke-linejoin:round; stroke-width:4; stroke-opacity:1; fill:none" points="185.654,429.039 204.551,429.039 "/>
<polyline clip-path="url(#clip590)" style="stroke:#000000; stroke-linecap:round; stroke-linejoin:round; stroke-width:4; stroke-opacity:1; fill:none" points="185.654,107.54 204.551,107.54 "/>
<path clip-path="url(#clip590)" d="M140.723 1054.28 Q136.209 1054.28 133.923 1058.74 Q131.666 1063.17 131.666 1072.08 Q131.666 1080.96 133.923 1085.42 Q136.209 1089.85 140.723 1089.85 Q145.266 1089.85 147.523 1085.42 Q149.809 1080.96 149.809 1072.08 Q149.809 1063.17 147.523 1058.74 Q145.266 1054.28 140.723 1054.28 M140.723 1049.65 Q147.986 1049.65 151.805 1055.41 Q155.654 1061.14 155.654 1072.08 Q155.654 1082.99 151.805 1088.75 Q147.986 1094.48 140.723 1094.48 Q133.46 1094.48 129.612 1088.75 Q125.793 1082.99 125.793 1072.08 Q125.793 1061.14 129.612 1055.41 Q133.46 1049.65 140.723 1049.65 Z" fill="#000000" fill-rule="nonzero" fill-opacity="1" /><path clip-path="url(#clip590)" d="M90.5787 728.937 L113.524 728.937 L113.524 733.856 L95.9317 733.856 L95.9317 744.446 Q97.2049 744.012 98.478 743.81 Q99.7511 743.578 101.024 743.578 Q108.258 743.578 112.483 747.543 Q116.707 751.507 116.707 758.277 Q116.707 765.251 112.367 769.128 Q108.027 772.976 100.127 772.976 Q97.4074 772.976 94.5718 772.513 Q91.7651 772.05 88.7558 771.125 L88.7558 765.251 Q91.36 766.669 94.1377 767.363 Q96.9155 768.057 100.012 768.057 Q105.017 768.057 107.94 765.424 Q110.862 762.791 110.862 758.277 Q110.862 753.764 107.94 751.13 Q105.017 748.497 100.012 748.497 Q97.6678 748.497 95.3241 749.018 Q93.0093 749.539 90.5787 750.639 L90.5787 728.937 Z" fill="#000000" fill-rule="nonzero" fill-opacity="1" /><path clip-path="url(#clip590)" d="M140.723 732.786 Q136.209 732.786 133.923 737.242 Q131.666 741.669 131.666 750.581 Q131.666 759.464 133.923 763.92 Q136.209 768.347 140.723 768.347 Q145.266 768.347 147.523 763.92 Q149.809 759.464 149.809 750.581 Q149.809 741.669 147.523 737.242 Q145.266 732.786 140.723 732.786 M140.723 728.156 Q147.986 728.156 151.805 733.914 Q155.654 739.643 155.654 750.581 Q155.654 761.489 151.805 767.247 Q147.986 772.976 140.723 772.976 Q133.46 772.976 129.612 767.247 Q125.793 761.489 125.793 750.581 Q125.793 739.643 129.612 733.914 Q133.46 728.156 140.723 728.156 Z" fill="#000000" fill-rule="nonzero" fill-opacity="1" /><path clip-path="url(#clip590)" d="M53.8312 445.72 L63.3798 445.72 L63.3798 412.763 L52.9921 414.846 L52.9921 409.522 L63.3219 407.439 L69.1668 407.439 L69.1668 445.72 L78.7154 445.72 L78.7154 450.639 L53.8312 450.639 L53.8312 445.72 Z" fill="#000000" fill-rule="nonzero" fill-opacity="1" /><path clip-path="url(#clip590)" d="M103.021 411.287 Q98.5069 411.287 96.2211 415.743 Q93.9641 420.17 93.9641 429.082 Q93.9641 437.965 96.2211 442.421 Q98.5069 446.848 103.021 446.848 Q107.564 446.848 109.821 442.421 Q112.106 437.965 112.106 429.082 Q112.106 420.17 109.821 415.743 Q107.564 411.287 103.021 411.287 M103.021 406.657 Q110.283 406.657 114.103 412.415 Q117.951 418.145 117.951 429.082 Q117.951 439.991 114.103 445.749 Q110.283 451.478 103.021 451.478 Q95.7581 451.478 91.9097 445.749 Q88.0903 439.991 88.0903 429.082 Q88.0903 418.145 91.9097 412.415 Q95.7581 406.657 103.021 406.657 Z" fill="#000000" fill-rule="nonzero" fill-opacity="1" /><path clip-path="url(#clip590)" d="M140.723 411.287 Q136.209 411.287 133.923 415.743 Q131.666 420.17 131.666 429.082 Q131.666 437.965 133.923 442.421 Q136.209 446.848 140.723 446.848 Q145.266 446.848 147.523 442.421 Q149.809 437.965 149.809 429.082 Q149.809 420.17 147.523 415.743 Q145.266 411.287 140.723 411.287 M140.723 406.657 Q147.986 406.657 151.805 412.415 Q155.654 418.145 155.654 429.082 Q155.654 439.991 151.805 445.749 Q147.986 451.478 140.723 451.478 Q133.46 451.478 129.612 445.749 Q125.793 439.991 125.793 429.082 Q125.793 418.145 129.612 412.415 Q133.46 406.657 140.723 406.657 Z" fill="#000000" fill-rule="nonzero" fill-opacity="1" /><path clip-path="url(#clip590)" d="M53.8312 124.221 L63.3798 124.221 L63.3798 91.264 L52.9921 93.3473 L52.9921 88.0233 L63.3219 85.9399 L69.1668 85.9399 L69.1668 124.221 L78.7154 124.221 L78.7154 129.14 L53.8312 129.14 L53.8312 124.221 Z" fill="#000000" fill-rule="nonzero" fill-opacity="1" /><path clip-path="url(#clip590)" d="M90.5787 85.9399 L113.524 85.9399 L113.524 90.8589 L95.9317 90.8589 L95.9317 101.449 Q97.2049 101.015 98.478 100.813 Q99.7511 100.581 101.024 100.581 Q108.258 100.581 112.483 104.545 Q116.707 108.509 116.707 115.28 Q116.707 122.253 112.367 126.131 Q108.027 129.979 100.127 129.979 Q97.4074 129.979 94.5718 129.516 Q91.7651 129.053 88.7558 128.127 L88.7558 122.253 Q91.36 123.671 94.1377 124.366 Q96.9155 125.06 100.012 125.06 Q105.017 125.06 107.94 122.427 Q110.862 119.794 110.862 115.28 Q110.862 110.766 107.94 108.133 Q105.017 105.5 100.012 105.5 Q97.6678 105.5 95.3241 106.021 Q93.0093 106.542 90.5787 107.641 L90.5787 85.9399 Z" fill="#000000" fill-rule="nonzero" fill-opacity="1" /><path clip-path="url(#clip590)" d="M140.723 89.7883 Q136.209 89.7883 133.923 94.2443 Q131.666 98.6714 131.666 107.583 Q131.666 116.466 133.923 120.922 Q136.209 125.349 140.723 125.349 Q145.266 125.349 147.523 120.922 Q149.809 116.466 149.809 107.583 Q149.809 98.6714 147.523 94.2443 Q145.266 89.7883 140.723 89.7883 M140.723 85.1587 Q147.986 85.1587 151.805 90.9168 Q155.654 96.6459 155.654 107.583 Q155.654 118.492 151.805 124.25 Q147.986 129.979 140.723 129.979 Q133.46 129.979 129.612 124.25 Q125.793 118.492 125.793 107.583 Q125.793 96.6459 129.612 90.9168 Q133.46 85.1587 140.723 85.1587 Z" fill="#000000" fill-rule="nonzero" fill-opacity="1" /><polyline clip-path="url(#clip592)" style="stroke:#009af9; stroke-linecap:round; stroke-linejoin:round; stroke-width:10; stroke-opacity:1; fill:none" points="235.666,533.432 263.921,533.814 292.177,534.958 320.433,536.86 348.688,539.51 376.944,542.899 405.199,547.012 433.455,551.831 461.71,557.336 489.966,563.505 518.221,570.313 546.477,577.731 574.733,585.729 602.988,594.277 631.244,603.34 659.499,612.882 687.755,622.868 716.01,633.26 744.266,644.019 772.521,655.106 800.777,666.481 829.033,678.105 857.288,689.939 885.544,701.943 913.799,714.077 942.055,726.305 970.31,738.588 998.566,750.891 1026.82,763.178 1055.08,775.416 1083.33,787.573 1111.59,799.619 1139.84,811.524 1168.1,823.263 1196.35,834.809 1224.61,846.14 1252.87,857.234 1281.12,868.074 1309.38,878.64 1337.63,888.92 1365.89,898.899 1394.14,908.566 1422.4,917.912 1450.65,926.93 1478.91,935.613 1507.17,943.959 1535.42,951.965 1563.68,959.63 1591.93,966.955 1620.19,973.942 1648.44,980.594 1676.7,986.916 1704.95,992.913 1733.21,998.591 1761.47,1003.96 1789.72,1009.02 1817.98,1013.8 1846.23,1018.28 1874.49,1022.49 1902.74,1026.44 "/>
<polyline clip-path="url(#clip592)" style="stroke:#e26f46; stroke-linecap:round; stroke-linejoin:round; stroke-width:8; stroke-opacity:0.5; fill:none" points="235.666,524.975 263.921,525.537 292.177,527.219 320.433,530.01 348.688,533.894 376.944,538.846 405.199,544.838 433.455,551.832 461.71,559.786 489.966,568.654 518.221,578.385 546.477,588.92 574.733,600.201 602.988,612.165 631.244,624.745 659.499,637.874 687.755,651.483 716.01,665.501 744.266,679.858 772.521,694.485 800.777,709.313 829.033,724.273 857.288,739.301 885.544,754.332 913.799,769.308 942.055,784.169 970.31,798.863 998.566,813.338 1026.82,827.55 1055.08,841.455 1083.33,855.016 1111.59,868.198 1139.84,880.972 1168.1,893.314 1196.35,905.201 1224.61,916.618 1252.87,927.55 1281.12,937.989 1309.38,947.929 1337.63,957.368 1365.89,966.307 1394.14,974.748 1422.4,982.7 1450.65,990.17 1478.91,997.169 1507.17,1003.71 1535.42,1009.81 1563.68,1015.48 1591.93,1020.74 1620.19,1025.6 1648.44,1030.09 1676.7,1034.23 1704.95,1038.02 1733.21,1041.5 1761.47,1044.68 1789.72,1047.58 1817.98,1050.21 1846.23,1052.6 1874.49,1054.77 1902.74,1056.73 "/>
<polyline clip-path="url(#clip592)" style="stroke:#3da44d; stroke-linecap:round; stroke-linejoin:round; stroke-width:8; stroke-opacity:0.5; fill:none" points="235.666,780.598 263.921,780.832 292.177,781.532 320.433,782.694 348.688,784.314 376.944,786.382 405.199,788.891 433.455,791.827 461.71,795.177 489.966,798.925 518.221,803.055 546.477,807.546 574.733,812.379 602.988,817.532 631.244,822.983 659.499,828.708 687.755,834.681 716.01,840.88 744.266,847.277 772.521,853.847 800.777,860.564 829.033,867.404 857.288,874.339 885.544,881.345 913.799,888.398 942.055,895.473 970.31,902.548 998.566,909.6 1026.82,916.608 1055.08,923.552 1083.33,930.413 1111.59,937.173 1139.84,943.817 1168.1,950.328 1196.35,956.694 1224.61,962.902 1252.87,968.942 1281.12,974.803 1309.38,980.478 1337.63,985.96 1365.89,991.243 1394.14,996.324 1422.4,1001.2 1450.65,1005.87 1478.91,1010.32 1507.17,1014.58 1535.42,1018.62 1563.68,1022.46 1591.93,1026.09 1620.19,1029.53 1648.44,1032.78 1676.7,1035.83 1704.95,1038.7 1733.21,1041.39 1761.47,1043.91 1789.72,1046.26 1817.98,1048.46 1846.23,1050.5 1874.49,1052.4 1902.74,1054.16 "/>
<polyline clip-path="url(#clip592)" style="stroke:#c271d2; stroke-linecap:round; stroke-linejoin:round; stroke-width:8; stroke-opacity:0.5; fill:none" points="235.666,442.467 263.921,442.823 292.177,443.89 320.433,445.665 348.688,448.142 376.944,451.311 405.199,455.163 433.455,459.685 461.71,464.861 489.966,470.675 518.221,477.106 546.477,484.135 574.733,491.737 602.988,499.89 631.244,508.565 659.499,517.738 687.755,527.377 716.01,537.454 744.266,547.939 772.521,558.799 800.777,570.002 829.033,581.517 857.288,593.309 885.544,605.347 913.799,617.596 942.055,630.025 970.31,642.6 998.566,655.289 1026.82,668.061 1055.08,680.884 1083.33,693.729 1111.59,706.566 1139.84,719.366 1168.1,732.103 1196.35,744.751 1224.61,757.285 1252.87,769.681 1281.12,781.917 1309.38,793.974 1337.63,805.83 1365.89,817.47 1394.14,828.875 1422.4,840.033 1450.65,850.929 1478.91,861.551 1507.17,871.89 1535.42,881.937 1563.68,891.683 1591.93,901.123 1620.19,910.252 1648.44,919.067 1676.7,927.566 1704.95,935.746 1733.21,943.609 1761.47,951.155 1789.72,958.386 1817.98,965.305 1846.23,971.917 1874.49,978.225 1902.74,984.236 "/>
<polyline clip-path="url(#clip592)" style="stroke:#ac8d18; stroke-linecap:round; stroke-linejoin:round; stroke-width:8; stroke-opacity:0.5; fill:none" points="235.666,541.759 263.921,542.018 292.177,542.796 320.433,544.091 348.688,545.898 376.944,548.212 405.199,551.026 433.455,554.333 461.71,558.122 489.966,562.383 518.221,567.103 546.477,572.27 574.733,577.868 602.988,583.881 631.244,590.294 659.499,597.087 687.755,604.244 716.01,611.743 744.266,619.566 772.521,627.691 800.777,636.098 829.033,644.764 857.288,653.668 885.544,662.788 913.799,672.1 942.055,681.583 970.31,691.215 998.566,700.973 1026.82,710.834 1055.08,720.778 1083.33,730.783 1111.59,740.827 1139.84,750.89 1168.1,760.952 1196.35,770.994 1224.61,780.997 1252.87,790.943 1281.12,800.815 1309.38,810.597 1337.63,820.272 1365.89,829.827 1394.14,839.248 1422.4,848.52 1450.65,857.634 1478.91,866.578 1507.17,875.341 1535.42,883.914 1563.68,892.29 1591.93,900.462 1620.19,908.422 1648.44,916.166 1676.7,923.688 1704.95,930.986 1733.21,938.056 1761.47,944.896 1789.72,951.505 1817.98,957.883 1846.23,964.028 1874.49,969.943 1902.74,975.629 "/>
<polyline clip-path="url(#clip592)" style="stroke:#00a9ad; stroke-linecap:round; stroke-linejoin:round; stroke-width:8; stroke-opacity:0.5; fill:none" points="235.666,76.6465 263.921,77.2708 292.177,79.1416 320.433,82.2517 348.688,86.5895 376.944,92.1388 405.199,98.8787 433.455,106.784 461.71,115.827 489.966,125.972 518.221,137.184 546.477,149.421 574.733,162.64 602.988,176.794 631.244,191.833 659.499,207.705 687.755,224.354 716.01,241.726 744.266,259.762 772.521,278.402 800.777,297.587 829.033,317.257 857.288,337.349 885.544,357.803 913.799,378.559 942.055,399.555 970.31,420.734 998.566,442.037 1026.82,463.408 1055.08,484.791 1083.33,506.133 1111.59,527.384 1139.84,548.494 1168.1,569.417 1196.35,590.109 1224.61,610.528 1252.87,630.637 1281.12,650.399 1309.38,669.781 1337.63,688.754 1365.89,707.29 1394.14,725.364 1422.4,742.957 1450.65,760.048 1478.91,776.622 1507.17,792.667 1535.42,808.172 1563.68,823.129 1591.93,837.532 1620.19,851.379 1648.44,864.669 1676.7,877.403 1704.95,889.584 1733.21,901.217 1761.47,912.309 1789.72,922.868 1817.98,932.903 1846.23,942.427 1874.49,951.449 1902.74,959.985 "/>
<polyline clip-path="url(#clip592)" style="stroke:#ed5d92; stroke-linecap:round; stroke-linejoin:round; stroke-width:8; stroke-opacity:0.5; fill:none" points="235.666,611.254 263.921,611.664 292.177,612.89 320.433,614.926 348.688,617.762 376.944,621.383 405.199,625.768 433.455,630.896 461.71,636.74 489.966,643.269 518.221,650.451 546.477,658.249 574.733,666.624 602.988,675.535 631.244,684.939 659.499,694.792 687.755,705.046 716.01,715.657 744.266,726.575 772.521,737.754 800.777,749.145 829.033,760.703 857.288,772.38 885.544,784.132 913.799,795.914 942.055,807.684 970.31,819.402 998.566,831.03 1026.82,842.531 1055.08,853.871 1083.33,865.019 1111.59,875.947 1139.84,886.628 1168.1,897.038 1196.35,907.158 1224.61,916.968 1252.87,926.453 1281.12,935.601 1309.38,944.402 1337.63,952.847 1365.89,960.93 1394.14,968.65 1422.4,976.004 1450.65,982.994 1478.91,989.621 1507.17,995.891 1535.42,1001.81 1563.68,1007.38 1591.93,1012.62 1620.19,1017.53 1648.44,1022.12 1676.7,1026.41 1704.95,1030.4 1733.21,1034.11 1761.47,1037.55 1789.72,1040.74 1817.98,1043.68 1846.23,1046.39 1874.49,1048.88 1902.74,1051.17 "/>
<path clip-path="url(#clip590)" d="M1342.26 211.474 L1893.85 211.474 L1893.85 81.8736 L1342.26 81.8736  Z" fill="#ffffff" fill-rule="evenodd" fill-opacity="1"/>
<polyline clip-path="url(#clip590)" style="stroke:#000000; stroke-linecap:round; stroke-linejoin:round; stroke-width:4; stroke-opacity:1; fill:none" points="1342.26,211.474 1893.85,211.474 1893.85,81.8736 1342.26,81.8736 1342.26,211.474 "/>
<polyline clip-path="url(#clip590)" style="stroke:#009af9; stroke-linecap:round; stroke-linejoin:round; stroke-width:12.5; stroke-opacity:1; fill:none" points="1361.89,146.674 1479.7,146.674 "/>
<path clip-path="url(#clip590)" d="M1499.34 123.251 L1504.69 123.251 L1504.69 149.842 L1520.57 135.866 L1527.37 135.866 L1510.19 151.028 L1528.1 168.274 L1521.15 168.274 L1504.69 152.446 L1504.69 168.274 L1499.34 168.274 L1499.34 123.251 Z" fill="#000000" fill-rule="nonzero" fill-opacity="1" /><path clip-path="url(#clip590)" d="M1559.46 150.739 L1559.46 153.343 L1534.98 153.343 Q1535.33 158.841 1538.28 161.734 Q1541.26 164.599 1546.56 164.599 Q1549.62 164.599 1552.49 163.846 Q1555.38 163.094 1558.22 161.59 L1558.22 166.624 Q1555.35 167.84 1552.34 168.476 Q1549.34 169.113 1546.24 169.113 Q1538.48 169.113 1533.94 164.599 Q1529.43 160.085 1529.43 152.388 Q1529.43 144.431 1533.71 139.773 Q1538.02 135.085 1545.31 135.085 Q1551.85 135.085 1555.64 139.31 Q1559.46 143.505 1559.46 150.739 M1554.14 149.176 Q1554.08 144.807 1551.68 142.203 Q1549.31 139.599 1545.37 139.599 Q1540.92 139.599 1538.22 142.116 Q1535.56 144.634 1535.16 149.205 L1554.14 149.176 Z" fill="#000000" fill-rule="nonzero" fill-opacity="1" /><path clip-path="url(#clip590)" d="M1586.98 140.843 Q1586.08 140.322 1585.01 140.091 Q1583.97 139.83 1582.7 139.83 Q1578.18 139.83 1575.75 142.782 Q1573.35 145.704 1573.35 151.202 L1573.35 168.274 L1568 168.274 L1568 135.866 L1573.35 135.866 L1573.35 140.901 Q1575.03 137.95 1577.72 136.532 Q1580.41 135.085 1584.26 135.085 Q1584.81 135.085 1585.48 135.172 Q1586.14 135.23 1586.95 135.374 L1586.98 140.843 Z" fill="#000000" fill-rule="nonzero" fill-opacity="1" /><path clip-path="url(#clip590)" d="M1618.46 148.713 L1618.46 168.274 L1613.14 168.274 L1613.14 148.887 Q1613.14 144.286 1611.34 142.001 Q1609.55 139.715 1605.96 139.715 Q1601.65 139.715 1599.16 142.464 Q1596.67 145.212 1596.67 149.958 L1596.67 168.274 L1591.32 168.274 L1591.32 135.866 L1596.67 135.866 L1596.67 140.901 Q1598.58 137.979 1601.16 136.532 Q1603.76 135.085 1607.15 135.085 Q1612.73 135.085 1615.6 138.557 Q1618.46 142.001 1618.46 148.713 Z" fill="#000000" fill-rule="nonzero" fill-opacity="1" /><path clip-path="url(#clip590)" d="M1656.8 150.739 L1656.8 153.343 L1632.32 153.343 Q1632.67 158.841 1635.62 161.734 Q1638.6 164.599 1643.9 164.599 Q1646.96 164.599 1649.83 163.846 Q1652.72 163.094 1655.56 161.59 L1655.56 166.624 Q1652.69 167.84 1649.68 168.476 Q1646.67 169.113 1643.58 169.113 Q1635.82 169.113 1631.28 164.599 Q1626.77 160.085 1626.77 152.388 Q1626.77 144.431 1631.05 139.773 Q1635.36 135.085 1642.65 135.085 Q1649.19 135.085 1652.98 139.31 Q1656.8 143.505 1656.8 150.739 M1651.48 149.176 Q1651.42 144.807 1649.02 142.203 Q1646.64 139.599 1642.71 139.599 Q1638.25 139.599 1635.56 142.116 Q1632.9 144.634 1632.49 149.205 L1651.48 149.176 Z" fill="#000000" fill-rule="nonzero" fill-opacity="1" /><path clip-path="url(#clip590)" d="M1665.54 123.251 L1670.86 123.251 L1670.86 168.274 L1665.54 168.274 L1665.54 123.251 Z" fill="#000000" fill-rule="nonzero" fill-opacity="1" /><path clip-path="url(#clip590)" d="M1726.07 142.087 Q1728.07 138.499 1730.84 136.792 Q1733.62 135.085 1737.38 135.085 Q1742.45 135.085 1745.2 138.644 Q1747.95 142.174 1747.95 148.713 L1747.95 168.274 L1742.59 168.274 L1742.59 148.887 Q1742.59 144.229 1740.94 141.972 Q1739.29 139.715 1735.91 139.715 Q1731.77 139.715 1729.37 142.464 Q1726.97 145.212 1726.97 149.958 L1726.97 168.274 L1721.61 168.274 L1721.61 148.887 Q1721.61 144.2 1719.97 141.972 Q1718.32 139.715 1714.87 139.715 Q1710.79 139.715 1708.39 142.492 Q1705.99 145.241 1705.99 149.958 L1705.99 168.274 L1700.64 168.274 L1700.64 135.866 L1705.99 135.866 L1705.99 140.901 Q1707.81 137.921 1710.36 136.503 Q1712.91 135.085 1716.41 135.085 Q1719.94 135.085 1722.4 136.879 Q1724.88 138.673 1726.07 142.087 Z" fill="#000000" fill-rule="nonzero" fill-opacity="1" /><path clip-path="url(#clip590)" d="M1771.12 139.599 Q1766.84 139.599 1764.35 142.955 Q1761.86 146.283 1761.86 152.099 Q1761.86 157.915 1764.32 161.271 Q1766.81 164.599 1771.12 164.599 Q1775.38 164.599 1777.86 161.242 Q1780.35 157.886 1780.35 152.099 Q1780.35 146.341 1777.86 142.984 Q1775.38 139.599 1771.12 139.599 M1771.12 135.085 Q1778.07 135.085 1782.03 139.599 Q1786 144.113 1786 152.099 Q1786 160.056 1782.03 164.599 Q1778.07 169.113 1771.12 169.113 Q1764.15 169.113 1760.19 164.599 Q1756.25 160.056 1756.25 152.099 Q1756.25 144.113 1760.19 139.599 Q1764.15 135.085 1771.12 135.085 Z" fill="#000000" fill-rule="nonzero" fill-opacity="1" /><path clip-path="url(#clip590)" d="M1816.15 140.785 L1816.15 123.251 L1821.47 123.251 L1821.47 168.274 L1816.15 168.274 L1816.15 163.412 Q1814.47 166.306 1811.89 167.724 Q1809.35 169.113 1805.76 169.113 Q1799.88 169.113 1796.18 164.425 Q1792.51 159.738 1792.51 152.099 Q1792.51 144.46 1796.18 139.773 Q1799.88 135.085 1805.76 135.085 Q1809.35 135.085 1811.89 136.503 Q1814.47 137.892 1816.15 140.785 M1798 152.099 Q1798 157.973 1800.4 161.329 Q1802.84 164.657 1807.06 164.657 Q1811.28 164.657 1813.71 161.329 Q1816.15 157.973 1816.15 152.099 Q1816.15 146.225 1813.71 142.898 Q1811.28 139.541 1807.06 139.541 Q1802.84 139.541 1800.4 142.898 Q1798 146.225 1798 152.099 Z" fill="#000000" fill-rule="nonzero" fill-opacity="1" /><path clip-path="url(#clip590)" d="M1860.16 150.739 L1860.16 153.343 L1835.68 153.343 Q1836.02 158.841 1838.98 161.734 Q1841.96 164.599 1847.25 164.599 Q1850.32 164.599 1853.18 163.846 Q1856.08 163.094 1858.91 161.59 L1858.91 166.624 Q1856.05 167.84 1853.04 168.476 Q1850.03 169.113 1846.93 169.113 Q1839.18 169.113 1834.63 164.599 Q1830.12 160.085 1830.12 152.388 Q1830.12 144.431 1834.4 139.773 Q1838.71 135.085 1846.01 135.085 Q1852.55 135.085 1856.34 139.31 Q1860.16 143.505 1860.16 150.739 M1854.83 149.176 Q1854.77 144.807 1852.37 142.203 Q1850 139.599 1846.06 139.599 Q1841.61 139.599 1838.92 142.116 Q1836.26 144.634 1835.85 149.205 L1854.83 149.176 Z" fill="#000000" fill-rule="nonzero" fill-opacity="1" /><path clip-path="url(#clip590)" d="M1868.89 123.251 L1874.22 123.251 L1874.22 168.274 L1868.89 168.274 L1868.89 123.251 Z" fill="#000000" fill-rule="nonzero" fill-opacity="1" /></svg>
