<?xml version="1.0" encoding="utf-8"?>
<svg xmlns="http://www.w3.org/2000/svg" xmlns:xlink="http://www.w3.org/1999/xlink" width="500" height="300" viewBox="0 0 2000 1200">
<defs>
  <clipPath id="clip500">
    <rect x="0" y="0" width="2000" height="1200"/>
  </clipPath>
</defs>
<path clip-path="url(#clip500)" d="M0 1200 L2000 1200 L2000 0 L0 0  Z" fill="#ffffff" fill-rule="evenodd" fill-opacity="1"/>
<defs>
  <clipPath id="clip501">
    <rect x="400" y="0" width="1401" height="1200"/>
  </clipPath>
</defs>
<path clip-path="url(#clip500)" d="M189.27 1086.13 L1952.76 1086.13 L1952.76 47.2441 L189.27 47.2441  Z" fill="#ffffff" fill-rule="evenodd" fill-opacity="1"/>
<defs>
  <clipPath id="clip502">
    <rect x="189" y="47" width="1764" height="1040"/>
  </clipPath>
</defs>
<polyline clip-path="url(#clip500)" style="stroke:#000000; stroke-linecap:round; stroke-linejoin:round; stroke-width:4; stroke-opacity:1; fill:none" points="189.27,1086.13 1952.76,1086.13 "/>
<polyline clip-path="url(#clip500)" style="stroke:#000000; stroke-linecap:round; stroke-linejoin:round; stroke-width:4; stroke-opacity:1; fill:none" points="210.983,1086.13 210.983,1067.23 "/>
<polyline clip-path="url(#clip500)" style="stroke:#000000; stroke-linecap:round; stroke-linejoin:round; stroke-width:4; stroke-opacity:1; fill:none" points="633.949,1086.13 633.949,1067.23 "/>
<polyline clip-path="url(#clip500)" style="stroke:#000000; stroke-linecap:round; stroke-linejoin:round; stroke-width:4; stroke-opacity:1; fill:none" points="1056.91,1086.13 1056.91,1067.23 "/>
<polyline clip-path="url(#clip500)" style="stroke:#000000; stroke-linecap:round; stroke-linejoin:round; stroke-width:4; stroke-opacity:1; fill:none" points="1479.88,1086.13 1479.88,1067.23 "/>
<polyline clip-path="url(#clip500)" style="stroke:#000000; stroke-linecap:round; stroke-linejoin:round; stroke-width:4; stroke-opacity:1; fill:none" points="1902.85,1086.13 1902.85,1067.23 "/>
<path clip-path="url(#clip500)" d="M210.983 1116.78 Q206.469 1116.78 204.183 1121.23 Q201.926 1125.66 201.926 1134.57 Q201.926 1143.45 204.183 1147.91 Q206.469 1152.34 210.983 1152.34 Q215.526 1152.34 217.782 1147.91 Q220.068 1143.45 220.068 1134.57 Q220.068 1125.66 217.782 1121.23 Q215.526 1116.78 210.983 1116.78 M210.983 1112.15 Q218.245 1112.15 222.065 1117.9 Q225.913 1123.63 225.913 1134.57 Q225.913 1145.48 222.065 1151.24 Q218.245 1156.97 210.983 1156.97 Q203.72 1156.97 199.872 1151.24 Q196.052 1145.48 196.052 1134.57 Q196.052 1123.63 199.872 1117.9 Q203.72 1112.15 210.983 1112.15 Z" fill="#000000" fill-rule="nonzero" fill-opacity="1" /><path clip-path="url(#clip500)" d="M621.796 1112.93 L644.741 1112.93 L644.741 1117.85 L627.149 1117.85 L627.149 1128.44 Q628.422 1128 629.695 1127.8 Q630.968 1127.57 632.241 1127.57 Q639.475 1127.57 643.7 1131.53 Q647.924 1135.5 647.924 1142.27 Q647.924 1149.24 643.584 1153.12 Q639.244 1156.97 631.344 1156.97 Q628.624 1156.97 625.789 1156.5 Q622.982 1156.04 619.973 1155.12 L619.973 1149.24 Q622.577 1150.66 625.355 1151.35 Q628.133 1152.05 631.229 1152.05 Q636.234 1152.05 639.157 1149.41 Q642.079 1146.78 642.079 1142.27 Q642.079 1137.75 639.157 1135.12 Q636.234 1132.49 631.229 1132.49 Q628.885 1132.49 626.541 1133.01 Q624.226 1133.53 621.796 1134.63 L621.796 1112.93 Z" fill="#000000" fill-rule="nonzero" fill-opacity="1" /><path clip-path="url(#clip500)" d="M1025.27 1151.21 L1034.82 1151.21 L1034.82 1118.25 L1024.43 1120.34 L1024.43 1115.01 L1034.76 1112.93 L1040.61 1112.93 L1040.61 1151.21 L1050.16 1151.21 L1050.16 1156.13 L1025.27 1156.13 L1025.27 1151.21 Z" fill="#000000" fill-rule="nonzero" fill-opacity="1" /><path clip-path="url(#clip500)" d="M1074.46 1116.78 Q1069.95 1116.78 1067.66 1121.23 Q1065.41 1125.66 1065.41 1134.57 Q1065.41 1143.45 1067.66 1147.91 Q1069.95 1152.34 1074.46 1152.34 Q1079.01 1152.34 1081.26 1147.91 Q1083.55 1143.45 1083.55 1134.57 Q1083.55 1125.66 1081.26 1121.23 Q1079.01 1116.78 1074.46 1116.78 M1074.46 1112.15 Q1081.73 1112.15 1085.55 1117.9 Q1089.39 1123.63 1089.39 1134.57 Q1089.39 1145.48 1085.55 1151.24 Q1081.73 1156.97 1074.46 1156.97 Q1067.2 1156.97 1063.35 1151.24 Q1059.53 1145.48 1059.53 1134.57 Q1059.53 1123.63 1063.35 1117.9 Q1067.2 1112.15 1074.46 1112.15 Z" fill="#000000" fill-rule="nonzero" fill-opacity="1" /><path clip-path="url(#clip500)" d="M1448.86 1151.21 L1458.41 1151.21 L1458.41 1118.25 L1448.02 1120.34 L1448.02 1115.01 L1458.35 1112.93 L1464.2 1112.93 L1464.2 1151.21 L1473.75 1151.21 L1473.75 1156.13 L1448.86 1156.13 L1448.86 1151.21 Z" fill="#000000" fill-rule="nonzero" fill-opacity="1" /><path clip-path="url(#clip500)" d="M1485.61 1112.93 L1508.55 1112.93 L1508.55 1117.85 L1490.96 1117.85 L1490.96 1128.44 Q1492.24 1128 1493.51 1127.8 Q1494.78 1127.57 1496.05 1127.57 Q1503.29 1127.57 1507.51 1131.53 Q1511.74 1135.5 1511.74 1142.27 Q1511.74 1149.24 1507.4 1153.12 Q1503.06 1156.97 1495.16 1156.97 Q1492.44 1156.97 1489.6 1156.5 Q1486.8 1156.04 1483.79 1155.12 L1483.79 1149.24 Q1486.39 1150.66 1489.17 1151.35 Q1491.95 1152.05 1495.04 1152.05 Q1500.05 1152.05 1502.97 1149.41 Q1505.89 1146.78 1505.89 1142.27 Q1505.89 1137.75 1502.97 1135.12 Q1500.05 1132.49 1495.04 1132.49 Q1492.7 1132.49 1490.35 1133.01 Q1488.04 1133.53 1485.61 1134.63 L1485.61 1112.93 Z" fill="#000000" fill-rule="nonzero" fill-opacity="1" /><path clip-path="url(#clip500)" d="M1876.31 1151.21 L1896.71 1151.21 L1896.71 1156.13 L1869.28 1156.13 L1869.28 1151.21 Q1872.61 1147.77 1878.34 1141.98 Q1884.1 1136.16 1885.57 1134.48 Q1888.38 1131.33 1889.48 1129.16 Q1890.61 1126.96 1890.61 1124.85 Q1890.61 1121.41 1888.18 1119.24 Q1885.77 1117.07 1881.9 1117.07 Q1879.15 1117.07 1876.08 1118.02 Q1873.04 1118.98 1869.57 1120.91 L1869.57 1115.01 Q1873.1 1113.59 1876.17 1112.87 Q1879.23 1112.15 1881.78 1112.15 Q1888.49 1112.15 1892.49 1115.5 Q1896.48 1118.86 1896.48 1124.47 Q1896.48 1127.13 1895.47 1129.54 Q1894.48 1131.91 1891.85 1135.15 Q1891.13 1135.99 1887.25 1140.01 Q1883.37 1144 1876.31 1151.21 Z" fill="#000000" fill-rule="nonzero" fill-opacity="1" /><path clip-path="url(#clip500)" d="M1921.48 1116.78 Q1916.97 1116.78 1914.68 1121.23 Q1912.42 1125.66 1912.42 1134.57 Q1912.42 1143.45 1914.68 1147.91 Q1916.97 1152.34 1921.48 1152.34 Q1926.02 1152.34 1928.28 1147.91 Q1930.57 1143.45 1930.57 1134.57 Q1930.57 1125.66 1928.28 1121.23 Q1926.02 1116.78 1921.48 1116.78 M1921.48 1112.15 Q1928.74 1112.15 1932.56 1117.9 Q1936.41 1123.63 1936.41 1134.57 Q1936.41 1145.48 1932.56 1151.24 Q1928.74 1156.97 1921.48 1156.97 Q1914.22 1156.97 1910.37 1151.24 Q1906.55 1145.48 1906.55 1134.57 Q1906.55 1123.63 1910.37 1117.9 Q1914.22 1112.15 1921.48 1112.15 Z" fill="#000000" fill-rule="nonzero" fill-opacity="1" /><polyline clip-path="url(#clip500)" style="stroke:#000000; stroke-linecap:round; stroke-linejoin:round; stroke-width:4; stroke-opacity:1; fill:none" points="189.27,1086.13 189.27,47.2441 "/>
<polyline clip-path="url(#clip500)" style="stroke:#000000; stroke-linecap:round; stroke-linejoin:round; stroke-width:4; stroke-opacity:1; fill:none" points="189.27,1059.36 208.168,1059.36 "/>
<polyline clip-path="url(#clip500)" style="stroke:#000000; stroke-linecap:round; stroke-linejoin:round; stroke-width:4; stroke-opacity:1; fill:none" points="189.27,772.301 208.168,772.301 "/>
<polyline clip-path="url(#clip500)" style="stroke:#000000; stroke-linecap:round; stroke-linejoin:round; stroke-width:4; stroke-opacity:1; fill:none" points="189.27,485.239 208.168,485.239 "/>
<polyline clip-path="url(#clip500)" style="stroke:#000000; stroke-linecap:round; stroke-linejoin:round; stroke-width:4; stroke-opacity:1; fill:none" points="189.27,198.178 208.168,198.178 "/>
<path clip-path="url(#clip500)" d="M144.34 1041.61 Q139.826 1041.61 137.54 1046.07 Q135.283 1050.49 135.283 1059.41 Q135.283 1068.29 137.54 1072.74 Q139.826 1077.17 144.34 1077.17 Q148.883 1077.17 151.14 1072.74 Q153.426 1068.29 153.426 1059.41 Q153.426 1050.49 151.14 1046.07 Q148.883 1041.61 144.34 1041.61 M144.34 1036.98 Q151.603 1036.98 155.422 1042.74 Q159.27 1048.47 159.27 1059.41 Q159.27 1070.31 155.422 1076.07 Q151.603 1081.8 144.34 1081.8 Q137.077 1081.8 133.229 1076.07 Q129.41 1070.31 129.41 1059.41 Q129.41 1048.47 133.229 1042.74 Q137.077 1036.98 144.34 1036.98 Z" fill="#000000" fill-rule="nonzero" fill-opacity="1" /><path clip-path="url(#clip500)" d="M61.4701 788.982 L81.8693 788.982 L81.8693 793.901 L54.4389 793.901 L54.4389 788.982 Q57.7664 785.539 63.4955 779.752 Q69.2536 773.936 70.7293 772.257 Q73.536 769.103 74.6355 766.933 Q75.764 764.734 75.764 762.622 Q75.764 759.179 73.3335 757.009 Q70.9318 754.838 67.0546 754.838 Q64.3057 754.838 61.2386 755.793 Q58.2004 756.748 54.7282 758.687 L54.7282 752.784 Q58.2583 751.366 61.3254 750.643 Q64.3925 749.92 66.9388 749.92 Q73.6517 749.92 77.6448 753.276 Q81.6378 756.632 81.6378 762.246 Q81.6378 764.908 80.6251 767.309 Q79.6413 769.682 77.0082 772.923 Q76.2848 773.762 72.4075 777.784 Q68.5302 781.777 61.4701 788.982 Z" fill="#000000" fill-rule="nonzero" fill-opacity="1" /><path clip-path="url(#clip500)" d="M106.638 754.549 Q102.124 754.549 99.8379 759.005 Q97.581 763.432 97.581 772.344 Q97.581 781.227 99.8379 785.683 Q102.124 790.11 106.638 790.11 Q111.18 790.11 113.437 785.683 Q115.723 781.227 115.723 772.344 Q115.723 763.432 113.437 759.005 Q111.18 754.549 106.638 754.549 M106.638 749.92 Q113.9 749.92 117.72 755.678 Q121.568 761.407 121.568 772.344 Q121.568 783.253 117.72 789.011 Q113.9 794.74 106.638 794.74 Q99.375 794.74 95.5266 789.011 Q91.7072 783.253 91.7072 772.344 Q91.7072 761.407 95.5266 755.678 Q99.375 749.92 106.638 749.92 Z" fill="#000000" fill-rule="nonzero" fill-opacity="1" /><path clip-path="url(#clip500)" d="M144.34 754.549 Q139.826 754.549 137.54 759.005 Q135.283 763.432 135.283 772.344 Q135.283 781.227 137.54 785.683 Q139.826 790.11 144.34 790.11 Q148.883 790.11 151.14 785.683 Q153.426 781.227 153.426 772.344 Q153.426 763.432 151.14 759.005 Q148.883 754.549 144.34 754.549 M144.34 749.92 Q151.603 749.92 155.422 755.678 Q159.27 761.407 159.27 772.344 Q159.27 783.253 155.422 789.011 Q151.603 794.74 144.34 794.74 Q137.077 794.74 133.229 789.011 Q129.41 783.253 129.41 772.344 Q129.41 761.407 133.229 755.678 Q137.077 749.92 144.34 749.92 Z" fill="#000000" fill-rule="nonzero" fill-opacity="1" /><path clip-path="url(#clip500)" d="M72.4943 468.732 L57.7375 491.793 L72.4943 491.793 L72.4943 468.732 M70.9608 463.639 L78.3103 463.639 L78.3103 491.793 L84.4734 491.793 L84.4734 496.654 L78.3103 496.654 L78.3103 506.839 L72.4943 506.839 L72.4943 496.654 L52.9921 496.654 L52.9921 491.012 L70.9608 463.639 Z" fill="#000000" fill-rule="nonzero" fill-opacity="1" /><path clip-path="url(#clip500)" d="M106.638 467.488 Q102.124 467.488 99.8379 471.944 Q97.581 476.371 97.581 485.283 Q97.581 494.166 99.8379 498.622 Q102.124 503.049 106.638 503.049 Q111.18 503.049 113.437 498.622 Q115.723 494.166 115.723 485.283 Q115.723 476.371 113.437 471.944 Q111.18 467.488 106.638 467.488 M106.638 462.858 Q113.9 462.858 117.72 468.616 Q121.568 474.345 121.568 485.283 Q121.568 496.191 117.72 501.949 Q113.9 507.678 106.638 507.678 Q99.375 507.678 95.5266 501.949 Q91.7072 496.191 91.7072 485.283 Q91.7072 474.345 95.5266 468.616 Q99.375 462.858 106.638 462.858 Z" fill="#000000" fill-rule="nonzero" fill-opacity="1" /><path clip-path="url(#clip500)" d="M144.34 467.488 Q139.826 467.488 137.54 471.944 Q135.283 476.371 135.283 485.283 Q135.283 494.166 137.54 498.622 Q139.826 503.049 144.34 503.049 Q148.883 503.049 151.14 498.622 Q153.426 494.166 153.426 485.283 Q153.426 476.371 151.14 471.944 Q148.883 467.488 144.34 467.488 M144.34 462.858 Q151.603 462.858 155.422 468.616 Q159.27 474.345 159.27 485.283 Q159.27 496.191 155.422 501.949 Q151.603 507.678 144.34 507.678 Q137.077 507.678 133.229 501.949 Q129.41 496.191 129.41 485.283 Q129.41 474.345 133.229 468.616 Q137.077 462.858 144.34 462.858 Z" fill="#000000" fill-rule="nonzero" fill-opacity="1" /><path clip-path="url(#clip500)" d="M69.6587 195.849 Q65.7235 195.849 63.4087 198.54 Q61.1229 201.231 61.1229 205.918 Q61.1229 210.577 63.4087 213.297 Q65.7235 215.987 69.6587 215.987 Q73.5939 215.987 75.8797 213.297 Q78.1945 210.577 78.1945 205.918 Q78.1945 201.231 75.8797 198.54 Q73.5939 195.849 69.6587 195.849 M81.2617 177.533 L81.2617 182.857 Q79.0626 181.815 76.8057 181.265 Q74.5777 180.716 72.3786 180.716 Q66.5916 180.716 63.5245 184.622 Q60.4863 188.528 60.0523 196.427 Q61.7594 193.91 64.3347 192.579 Q66.9099 191.219 70.0059 191.219 Q76.5163 191.219 80.2779 195.183 Q84.0683 199.118 84.0683 205.918 Q84.0683 212.573 80.1332 216.595 Q76.198 220.617 69.6587 220.617 Q62.1645 220.617 58.2004 214.888 Q54.2363 209.13 54.2363 198.221 Q54.2363 187.978 59.0974 181.902 Q63.9585 175.797 72.1471 175.797 Q74.3462 175.797 76.5742 176.231 Q78.8311 176.665 81.2617 177.533 Z" fill="#000000" fill-rule="nonzero" fill-opacity="1" /><path clip-path="url(#clip500)" d="M106.638 180.426 Q102.124 180.426 99.8379 184.882 Q97.581 189.309 97.581 198.221 Q97.581 207.104 99.8379 211.56 Q102.124 215.987 106.638 215.987 Q111.18 215.987 113.437 211.56 Q115.723 207.104 115.723 198.221 Q115.723 189.309 113.437 184.882 Q111.18 180.426 106.638 180.426 M106.638 175.797 Q113.9 175.797 117.72 181.555 Q121.568 187.284 121.568 198.221 Q121.568 209.13 117.72 214.888 Q113.9 220.617 106.638 220.617 Q99.375 220.617 95.5266 214.888 Q91.7072 209.13 91.7072 198.221 Q91.7072 187.284 95.5266 181.555 Q99.375 175.797 106.638 175.797 Z" fill="#000000" fill-rule="nonzero" fill-opacity="1" /><path clip-path="url(#clip500)" d="M144.34 180.426 Q139.826 180.426 137.54 184.882 Q135.283 189.309 135.283 198.221 Q135.283 207.104 137.54 211.56 Q139.826 215.987 144.34 215.987 Q148.883 215.987 151.14 211.56 Q153.426 207.104 153.426 198.221 Q153.426 189.309 151.14 184.882 Q148.883 180.426 144.34 180.426 M144.34 175.797 Q151.603 175.797 155.422 181.555 Q159.27 187.284 159.27 198.221 Q159.27 209.13 155.422 214.888 Q151.603 220.617 144.34 220.617 Q137.077 220.617 133.229 214.888 Q129.41 209.13 129.41 198.221 Q129.41 187.284 133.229 181.555 Q137.077 175.797 144.34 175.797 Z" fill="#000000" fill-rule="nonzero" fill-opacity="1" /><polyline clip-path="url(#clip502)" style="stroke:#009af9; stroke-linecap:round; stroke-linejoin:round; stroke-width:10; stroke-opacity:1; fill:none" points="239.18,783.93 267.378,784.155 295.576,784.83 323.774,785.951 351.971,787.513 380.169,789.507 408.367,791.925 436.564,794.755 464.762,797.983 492.96,801.594 521.158,805.571 549.355,809.895 577.553,814.546 605.751,819.504 633.949,824.745 662.146,830.247 690.344,835.986 718.542,841.937 746.739,848.076 774.937,854.377 803.135,860.816 831.333,867.366 859.53,874.005 887.728,880.706 915.926,887.447 944.123,894.203 972.321,900.954 1000.52,907.677 1028.72,914.353 1056.91,920.961 1085.11,927.484 1113.31,933.906 1141.51,940.209 1169.71,946.381 1197.9,952.409 1226.1,958.28 1254.3,963.986 1282.5,969.516 1310.69,974.865 1338.89,980.024 1367.09,984.991 1395.29,989.761 1423.48,994.331 1451.68,998.7 1479.88,1002.87 1508.08,1006.84 1536.28,1010.61 1564.47,1014.18 1592.67,1017.56 1620.87,1020.75 1649.07,1023.75 1677.26,1026.58 1705.46,1029.23 1733.66,1031.71 1761.86,1034.03 1790.06,1036.19 1818.25,1038.2 1846.45,1040.07 1874.65,1041.8 1902.85,1043.41 "/>
<polyline clip-path="url(#clip502)" style="stroke:#e26f46; stroke-linecap:round; stroke-linejoin:round; stroke-width:8; stroke-opacity:0.5; fill:none" points="239.18,758.225 267.378,758.437 295.576,759.07 323.774,760.123 351.971,761.592 380.169,763.468 408.367,765.746 436.564,768.416 464.762,771.466 492.96,774.884 521.158,778.656 549.355,782.767 577.553,787.201 605.751,791.939 633.949,796.964 662.146,802.256 690.344,807.795 718.542,813.561 746.739,819.531 774.937,825.685 803.135,832.001 831.333,838.457 859.53,845.03 887.728,851.701 915.926,858.446 944.123,865.245 972.321,872.077 1000.52,878.922 1028.72,885.762 1056.91,892.576 1085.11,899.348 1113.31,906.061 1141.51,912.699 1169.71,919.246 1197.9,925.688 1226.1,932.014 1254.3,938.21 1282.5,944.267 1310.69,950.175 1338.89,955.925 1367.09,961.509 1395.29,966.922 1423.48,972.159 1451.68,977.214 1479.88,982.084 1508.08,986.769 1536.28,991.264 1564.47,995.572 1592.67,999.69 1620.87,1003.62 1649.07,1007.37 1677.26,1010.93 1705.46,1014.31 1733.66,1017.51 1761.86,1020.54 1790.06,1023.41 1818.25,1026.1 1846.45,1028.64 1874.65,1031.03 1902.85,1033.26 "/>
<polyline clip-path="url(#clip502)" style="stroke:#3da44d; stroke-linecap:round; stroke-linejoin:round; stroke-width:8; stroke-opacity:0.5; fill:none" points="239.18,764.084 267.378,764.302 295.576,764.956 323.774,766.042 351.971,767.555 380.169,769.489 408.367,771.836 436.564,774.586 464.762,777.725 492.96,781.241 521.158,785.119 549.355,789.342 577.553,793.893 605.751,798.753 633.949,803.901 662.146,809.318 690.344,814.981 718.542,820.869 746.739,826.959 774.937,833.228 803.135,839.652 831.333,846.21 859.53,852.877 887.728,859.631 915.926,866.449 944.123,873.31 972.321,880.192 1000.52,887.074 1028.72,893.936 1056.91,900.76 1085.11,907.527 1113.31,914.22 1141.51,920.822 1169.71,927.32 1197.9,933.699 1226.1,939.946 1254.3,946.05 1282.5,952.001 1310.69,957.79 1338.89,963.409 1367.09,968.85 1395.29,974.109 1423.48,979.182 1451.68,984.063 1479.88,988.752 1508.08,993.247 1536.28,997.547 1564.47,1001.65 1592.67,1005.57 1620.87,1009.29 1649.07,1012.82 1677.26,1016.17 1705.46,1019.33 1733.66,1022.32 1761.86,1025.14 1790.06,1027.79 1818.25,1030.27 1846.45,1032.6 1874.65,1034.78 1902.85,1036.82 "/>
<polyline clip-path="url(#clip502)" style="stroke:#c271d2; stroke-linecap:round; stroke-linejoin:round; stroke-width:8; stroke-opacity:0.5; fill:none" points="239.18,76.6465 267.378,77.3246 295.576,79.356 323.774,82.7325 351.971,87.44 380.169,93.4592 408.367,100.765 436.564,109.329 464.762,119.115 492.96,130.083 521.158,142.191 549.355,155.39 577.553,169.628 605.751,184.85 633.949,200.998 662.146,218.009 690.344,235.821 718.542,254.368 746.739,273.583 774.937,293.397 803.135,313.742 831.333,334.548 859.53,355.745 887.728,377.265 915.926,399.038 944.123,420.999 972.321,443.08 1000.52,465.219 1028.72,487.352 1056.91,509.421 1085.11,531.367 1113.31,553.138 1141.51,574.68 1169.71,595.945 1197.9,616.889 1226.1,637.469 1254.3,657.647 1282.5,677.387 1310.69,696.659 1338.89,715.433 1367.09,733.686 1395.29,751.395 1423.48,768.543 1451.68,785.115 1479.88,801.099 1508.08,816.488 1536.28,831.274 1564.47,845.456 1592.67,859.033 1620.87,872.007 1649.07,884.382 1677.26,896.166 1705.46,907.366 1733.66,917.992 1761.86,928.057 1790.06,937.574 1818.25,946.557 1846.45,955.021 1874.65,962.983 1902.85,970.461 "/>
<polyline clip-path="url(#clip502)" style="stroke:#ac8d18; stroke-linecap:round; stroke-linejoin:round; stroke-width:8; stroke-opacity:0.5; fill:none" points="239.18,807.44 267.378,807.68 295.576,808.399 323.774,809.592 351.971,811.253 380.169,813.372 408.367,815.937 436.564,818.935 464.762,822.348 492.96,826.157 521.158,830.342 549.355,834.88 577.553,839.748 605.751,844.919 633.949,850.367 662.146,856.064 690.344,861.983 718.542,868.094 746.739,874.369 774.937,880.779 803.135,887.296 831.333,893.89 859.53,900.534 887.728,907.202 915.926,913.868 944.123,920.507 972.321,927.095 1000.52,933.61 1028.72,940.032 1056.91,946.342 1085.11,952.522 1113.31,958.556 1141.51,964.431 1169.71,970.134 1197.9,975.654 1226.1,980.981 1254.3,986.11 1282.5,991.033 1310.69,995.747 1338.89,1000.25 1367.09,1004.54 1395.29,1008.61 1423.48,1012.47 1451.68,1016.12 1479.88,1019.56 1508.08,1022.8 1536.28,1025.83 1564.47,1028.68 1592.67,1031.33 1620.87,1033.81 1649.07,1036.11 1677.26,1038.24 1705.46,1040.22 1733.66,1042.04 1761.86,1043.72 1790.06,1045.26 1818.25,1046.68 1846.45,1047.97 1874.65,1049.16 1902.85,1050.23 "/>
<polyline clip-path="url(#clip502)" style="stroke:#00a9ad; stroke-linecap:round; stroke-linejoin:round; stroke-width:8; stroke-opacity:0.5; fill:none" points="239.18,802.442 267.378,802.674 295.576,803.371 323.774,804.528 351.971,806.14 380.169,808.196 408.367,810.687 436.564,813.599 464.762,816.916 492.96,820.622 521.158,824.697 549.355,829.12 577.553,833.869 605.751,838.919 633.949,844.246 662.146,849.825 690.344,855.629 718.542,861.63 746.739,867.803 774.937,874.118 803.135,880.55 831.333,887.071 859.53,893.654 887.728,900.275 915.926,906.907 944.123,913.528 972.321,920.113 1000.52,926.642 1028.72,933.094 1056.91,939.45 1085.11,945.692 1113.31,951.804 1141.51,957.772 1169.71,963.582 1197.9,969.224 1226.1,974.687 1254.3,979.962 1282.5,985.044 1310.69,989.927 1338.89,994.606 1367.09,999.079 1395.29,1003.34 1423.48,1007.4 1451.68,1011.25 1479.88,1014.9 1508.08,1018.35 1536.28,1021.59 1564.47,1024.64 1592.67,1027.51 1620.87,1030.19 1649.07,1032.69 1677.26,1035.02 1705.46,1037.19 1733.66,1039.2 1761.86,1041.07 1790.06,1042.79 1818.25,1044.37 1846.45,1045.83 1874.65,1047.17 1902.85,1048.4 "/>
<polyline clip-path="url(#clip502)" style="stroke:#ed5d92; stroke-linecap:round; stroke-linejoin:round; stroke-width:8; stroke-opacity:0.5; fill:none" points="239.18,982.165 267.378,982.24 295.576,982.464 323.774,982.836 351.971,983.354 380.169,984.015 408.367,984.814 436.564,985.749 464.762,986.812 492.96,987.999 521.158,989.302 549.355,990.715 577.553,992.229 605.751,993.838 633.949,995.532 662.146,997.303 690.344,999.141 718.542,1001.04 746.739,1002.99 774.937,1004.97 803.135,1006.99 831.333,1009.03 859.53,1011.09 887.728,1013.15 915.926,1015.21 944.123,1017.26 972.321,1019.29 1000.52,1021.3 1028.72,1023.28 1056.91,1025.22 1085.11,1027.12 1113.31,1028.97 1141.51,1030.77 1169.71,1032.52 1197.9,1034.21 1226.1,1035.84 1254.3,1037.4 1282.5,1038.91 1310.69,1040.34 1338.89,1041.71 1367.09,1043.01 1395.29,1044.25 1423.48,1045.42 1451.68,1046.52 1479.88,1047.56 1508.08,1048.54 1536.28,1049.45 1564.47,1050.31 1592.67,1051.1 1620.87,1051.84 1649.07,1052.53 1677.26,1053.17 1705.46,1053.76 1733.66,1054.3 1761.86,1054.8 1790.06,1055.26 1818.25,1055.68 1846.45,1056.06 1874.65,1056.41 1902.85,1056.73 "/>
<path clip-path="url(#clip500)" d="M1342.74 211.474 L1893.97 211.474 L1893.97 81.8736 L1342.74 81.8736  Z" fill="#ffffff" fill-rule="evenodd" fill-opacity="1"/>
<polyline clip-path="url(#clip500)" style="stroke:#000000; stroke-linecap:round; stroke-linejoin:round; stroke-width:4; stroke-opacity:1; fill:none" points="1342.74,211.474 1893.97,211.474 1893.97,81.8736 1342.74,81.8736 1342.74,211.474 "/>
<polyline clip-path="url(#clip500)" style="stroke:#009af9; stroke-linecap:round; stroke-linejoin:round; stroke-width:12.5; stroke-opacity:1; fill:none" points="1362.34,146.674 1479.9,146.674 "/>
<path clip-path="url(#clip500)" d="M1499.5 123.251 L1504.85 123.251 L1504.85 149.842 L1520.73 135.866 L1527.53 135.866 L1510.35 151.028 L1528.26 168.274 L1521.31 168.274 L1504.85 152.446 L1504.85 168.274 L1499.5 168.274 L1499.5 123.251 Z" fill="#000000" fill-rule="nonzero" fill-opacity="1" /><path clip-path="url(#clip500)" d="M1559.62 150.739 L1559.62 153.343 L1535.14 153.343 Q1535.49 158.841 1538.44 161.734 Q1541.42 164.599 1546.72 164.599 Q1549.79 164.599 1552.65 163.846 Q1555.54 163.094 1558.38 161.59 L1558.38 166.624 Q1555.51 167.84 1552.51 168.476 Q1549.5 169.113 1546.4 169.113 Q1538.65 169.113 1534.1 164.599 Q1529.59 160.085 1529.59 152.388 Q1529.59 144.431 1533.87 139.773 Q1538.18 135.085 1545.47 135.085 Q1552.01 135.085 1555.8 139.31 Q1559.62 143.505 1559.62 150.739 M1554.3 149.176 Q1554.24 144.807 1551.84 142.203 Q1549.47 139.599 1545.53 139.599 Q1541.08 139.599 1538.39 142.116 Q1535.72 144.634 1535.32 149.205 L1554.3 149.176 Z" fill="#000000" fill-rule="nonzero" fill-opacity="1" /><path clip-path="url(#clip500)" d="M1587.14 140.843 Q1586.24 140.322 1585.17 140.091 Q1584.13 139.83 1582.86 139.83 Q1578.34 139.83 1575.91 142.782 Q1573.51 145.704 1573.51 151.202 L1573.51 168.274 L1568.16 168.274 L1568.16 135.866 L1573.51 135.866 L1573.51 140.901 Q1575.19 137.95 1577.88 136.532 Q1580.57 135.085 1584.42 135.085 Q1584.97 135.085 1585.64 135.172 Q1586.3 135.23 1587.11 135.374 L1587.14 140.843 Z" fill="#000000" fill-rule="nonzero" fill-opacity="1" /><path clip-path="url(#clip500)" d="M1618.62 148.713 L1618.62 168.274 L1613.3 168.274 L1613.3 148.887 Q1613.3 144.286 1611.5 142.001 Q1609.71 139.715 1606.12 139.715 Q1601.81 139.715 1599.32 142.464 Q1596.83 145.212 1596.83 149.958 L1596.83 168.274 L1591.48 168.274 L1591.48 135.866 L1596.83 135.866 L1596.83 140.901 Q1598.74 137.979 1601.32 136.532 Q1603.92 135.085 1607.31 135.085 Q1612.89 135.085 1615.76 138.557 Q1618.62 142.001 1618.62 148.713 Z" fill="#000000" fill-rule="nonzero" fill-opacity="1" /><path clip-path="url(#clip500)" d="M1656.96 150.739 L1656.96 153.343 L1632.48 153.343 Q1632.83 158.841 1635.78 161.734 Q1638.76 164.599 1644.06 164.599 Q1647.12 164.599 1649.99 163.846 Q1652.88 163.094 1655.72 161.59 L1655.72 166.624 Q1652.85 167.84 1649.84 168.476 Q1646.83 169.113 1643.74 169.113 Q1635.98 169.113 1631.44 164.599 Q1626.93 160.085 1626.93 152.388 Q1626.93 144.431 1631.21 139.773 Q1635.52 135.085 1642.81 135.085 Q1649.35 135.085 1653.14 139.31 Q1656.96 143.505 1656.96 150.739 M1651.64 149.176 Q1651.58 144.807 1649.18 142.203 Q1646.8 139.599 1642.87 139.599 Q1638.41 139.599 1635.72 142.116 Q1633.06 144.634 1632.66 149.205 L1651.64 149.176 Z" fill="#000000" fill-rule="nonzero" fill-opacity="1" /><path clip-path="url(#clip500)" d="M1665.7 123.251 L1671.02 123.251 L1671.02 168.274 L1665.7 168.274 L1665.7 123.251 Z" fill="#000000" fill-rule="nonzero" fill-opacity="1" /><path clip-path="url(#clip500)" d="M1726.23 142.087 Q1728.23 138.499 1731.01 136.792 Q1733.78 135.085 1737.55 135.085 Q1742.61 135.085 1745.36 138.644 Q1748.11 142.174 1748.11 148.713 L1748.11 168.274 L1742.75 168.274 L1742.75 148.887 Q1742.75 144.229 1741.1 141.972 Q1739.45 139.715 1736.07 139.715 Q1731.93 139.715 1729.53 142.464 Q1727.13 145.212 1727.13 149.958 L1727.13 168.274 L1721.78 168.274 L1721.78 148.887 Q1721.78 144.2 1720.13 141.972 Q1718.48 139.715 1715.03 139.715 Q1710.95 139.715 1708.55 142.492 Q1706.15 145.241 1706.15 149.958 L1706.15 168.274 L1700.8 168.274 L1700.8 135.866 L1706.15 135.866 L1706.15 140.901 Q1707.97 137.921 1710.52 136.503 Q1713.07 135.085 1716.57 135.085 Q1720.1 135.085 1722.56 136.879 Q1725.05 138.673 1726.23 142.087 Z" fill="#000000" fill-rule="nonzero" fill-opacity="1" /><path clip-path="url(#clip500)" d="M1771.28 139.599 Q1767 139.599 1764.51 142.955 Q1762.02 146.283 1762.02 152.099 Q1762.02 157.915 1764.48 161.271 Q1766.97 164.599 1771.28 164.599 Q1775.54 164.599 1778.03 161.242 Q1780.51 157.886 1780.51 152.099 Q1780.51 146.341 1778.03 142.984 Q1775.54 139.599 1771.28 139.599 M1771.28 135.085 Q1778.23 135.085 1782.19 139.599 Q1786.16 144.113 1786.16 152.099 Q1786.16 160.056 1782.19 164.599 Q1778.23 169.113 1771.28 169.113 Q1764.31 169.113 1760.35 164.599 Q1756.41 160.056 1756.41 152.099 Q1756.41 144.113 1760.35 139.599 Q1764.31 135.085 1771.28 135.085 Z" fill="#000000" fill-rule="nonzero" fill-opacity="1" /><path clip-path="url(#clip500)" d="M1816.31 140.785 L1816.31 123.251 L1821.63 123.251 L1821.63 168.274 L1816.31 168.274 L1816.31 163.412 Q1814.63 166.306 1812.05 167.724 Q1809.51 169.113 1805.92 169.113 Q1800.04 169.113 1796.34 164.425 Q1792.67 159.738 1792.67 152.099 Q1792.67 144.46 1796.34 139.773 Q1800.04 135.085 1805.92 135.085 Q1809.51 135.085 1812.05 136.503 Q1814.63 137.892 1816.31 140.785 M1798.16 152.099 Q1798.16 157.973 1800.57 161.329 Q1803 164.657 1807.22 164.657 Q1811.45 164.657 1813.88 161.329 Q1816.31 157.973 1816.31 152.099 Q1816.31 146.225 1813.88 142.898 Q1811.45 139.541 1807.22 139.541 Q1803 139.541 1800.57 142.898 Q1798.16 146.225 1798.16 152.099 Z" fill="#000000" fill-rule="nonzero" fill-opacity="1" /><path clip-path="url(#clip500)" d="M1860.32 150.739 L1860.32 153.343 L1835.84 153.343 Q1836.18 158.841 1839.14 161.734 Q1842.12 164.599 1847.41 164.599 Q1850.48 164.599 1853.34 163.846 Q1856.24 163.094 1859.07 161.59 L1859.07 166.624 Q1856.21 167.84 1853.2 168.476 Q1850.19 169.113 1847.09 169.113 Q1839.34 169.113 1834.8 164.599 Q1830.28 160.085 1830.28 152.388 Q1830.28 144.431 1834.56 139.773 Q1838.88 135.085 1846.17 135.085 Q1852.71 135.085 1856.5 139.31 Q1860.32 143.505 1860.32 150.739 M1854.99 149.176 Q1854.93 144.807 1852.53 142.203 Q1850.16 139.599 1846.22 139.599 Q1841.77 139.599 1839.08 142.116 Q1836.42 144.634 1836.01 149.205 L1854.99 149.176 Z" fill="#000000" fill-rule="nonzero" fill-opacity="1" /><path clip-path="url(#clip500)" d="M1869.05 123.251 L1874.38 123.251 L1874.38 168.274 L1869.05 168.274 L1869.05 123.251 Z" fill="#000000" fill-rule="nonzero" fill-opacity="1" /></svg>
