<?xml version="1.0" encoding="utf-8"?>
<svg xmlns="http://www.w3.org/2000/svg" xmlns:xlink="http://www.w3.org/1999/xlink" width="500" height="300" viewBox="0 0 2000 1200">
<defs>
  <clipPath id="clip830">
    <rect x="0" y="0" width="2000" height="1200"/>
  </clipPath>
</defs>
<path clip-path="url(#clip830)" d="M0 1200 L2000 1200 L2000 0 L0 0  Z" fill="#ffffff" fill-rule="evenodd" fill-opacity="1"/>
<defs>
  <clipPath id="clip831">
    <rect x="400" y="0" width="1401" height="1200"/>
  </clipPath>
</defs>
<path clip-path="url(#clip830)" d="M197.835 1086.13 L1952.76 1086.13 L1952.76 47.2441 L197.835 47.2441  Z" fill="#ffffff" fill-rule="evenodd" fill-opacity="1"/>
<defs>
  <clipPath id="clip832">
    <rect x="197" y="47" width="1756" height="1040"/>
  </clipPath>
</defs>
<polyline clip-path="url(#clip830)" style="stroke:#000000; stroke-linecap:round; stroke-linejoin:round; stroke-width:4; stroke-opacity:1; fill:none" points="197.835,1086.13 1952.76,1086.13 "/>
<polyline clip-path="url(#clip830)" style="stroke:#000000; stroke-linecap:round; stroke-linejoin:round; stroke-width:4; stroke-opacity:1; fill:none" points="523.434,1086.13 523.434,1067.23 "/>
<polyline clip-path="url(#clip830)" style="stroke:#000000; stroke-linecap:round; stroke-linejoin:round; stroke-width:4; stroke-opacity:1; fill:none" points="868.347,1086.13 868.347,1067.23 "/>
<polyline clip-path="url(#clip830)" style="stroke:#000000; stroke-linecap:round; stroke-linejoin:round; stroke-width:4; stroke-opacity:1; fill:none" points="1213.26,1086.13 1213.26,1067.23 "/>
<polyline clip-path="url(#clip830)" style="stroke:#000000; stroke-linecap:round; stroke-linejoin:round; stroke-width:4; stroke-opacity:1; fill:none" points="1558.17,1086.13 1558.17,1067.23 "/>
<polyline clip-path="url(#clip830)" style="stroke:#000000; stroke-linecap:round; stroke-linejoin:round; stroke-width:4; stroke-opacity:1; fill:none" points="1903.09,1086.13 1903.09,1067.23 "/>
<path clip-path="url(#clip830)" d="M495.786 1116.78 Q491.272 1116.78 488.987 1121.23 Q486.73 1125.66 486.73 1134.57 Q486.73 1143.45 488.987 1147.91 Q491.272 1152.34 495.786 1152.34 Q500.329 1152.34 502.586 1147.91 Q504.872 1143.45 504.872 1134.57 Q504.872 1125.66 502.586 1121.23 Q500.329 1116.78 495.786 1116.78 M495.786 1112.15 Q503.049 1112.15 506.868 1117.9 Q510.717 1123.63 510.717 1134.57 Q510.717 1145.48 506.868 1151.24 Q503.049 1156.97 495.786 1156.97 Q488.524 1156.97 484.675 1151.24 Q480.856 1145.48 480.856 1134.57 Q480.856 1123.63 484.675 1117.9 Q488.524 1112.15 495.786 1112.15 Z" fill="#000000" fill-rule="nonzero" fill-opacity="1" /><path clip-path="url(#clip830)" d="M520.989 1148.78 L527.094 1148.78 L527.094 1156.13 L520.989 1156.13 L520.989 1148.78 Z" fill="#000000" fill-rule="nonzero" fill-opacity="1" /><path clip-path="url(#clip830)" d="M539.883 1112.93 L562.829 1112.93 L562.829 1117.85 L545.236 1117.85 L545.236 1128.44 Q546.509 1128 547.783 1127.8 Q549.056 1127.57 550.329 1127.57 Q557.563 1127.57 561.787 1131.53 Q566.012 1135.5 566.012 1142.27 Q566.012 1149.24 561.671 1153.12 Q557.331 1156.97 549.432 1156.97 Q546.712 1156.97 543.876 1156.5 Q541.07 1156.04 538.06 1155.12 L538.06 1149.24 Q540.665 1150.66 543.442 1151.35 Q546.22 1152.05 549.316 1152.05 Q554.322 1152.05 557.244 1149.41 Q560.167 1146.78 560.167 1142.27 Q560.167 1137.75 557.244 1135.12 Q554.322 1132.49 549.316 1132.49 Q546.972 1132.49 544.629 1133.01 Q542.314 1133.53 539.883 1134.63 L539.883 1112.93 Z" fill="#000000" fill-rule="nonzero" fill-opacity="1" /><path clip-path="url(#clip830)" d="M827.289 1151.21 L836.837 1151.21 L836.837 1118.25 L826.449 1120.34 L826.449 1115.01 L836.779 1112.93 L842.624 1112.93 L842.624 1151.21 L852.173 1151.21 L852.173 1156.13 L827.289 1156.13 L827.289 1151.21 Z" fill="#000000" fill-rule="nonzero" fill-opacity="1" /><path clip-path="url(#clip830)" d="M863.978 1148.78 L870.083 1148.78 L870.083 1156.13 L863.978 1156.13 L863.978 1148.78 Z" fill="#000000" fill-rule="nonzero" fill-opacity="1" /><path clip-path="url(#clip830)" d="M895.315 1116.78 Q890.801 1116.78 888.515 1121.23 Q886.258 1125.66 886.258 1134.57 Q886.258 1143.45 888.515 1147.91 Q890.801 1152.34 895.315 1152.34 Q899.858 1152.34 902.115 1147.91 Q904.4 1143.45 904.4 1134.57 Q904.4 1125.66 902.115 1121.23 Q899.858 1116.78 895.315 1116.78 M895.315 1112.15 Q902.578 1112.15 906.397 1117.9 Q910.245 1123.63 910.245 1134.57 Q910.245 1145.48 906.397 1151.24 Q902.578 1156.97 895.315 1156.97 Q888.052 1156.97 884.204 1151.24 Q880.384 1145.48 880.384 1134.57 Q880.384 1123.63 884.204 1117.9 Q888.052 1112.15 895.315 1112.15 Z" fill="#000000" fill-rule="nonzero" fill-opacity="1" /><path clip-path="url(#clip830)" d="M1172.82 1151.21 L1182.37 1151.21 L1182.37 1118.25 L1171.99 1120.34 L1171.99 1115.01 L1182.32 1112.93 L1188.16 1112.93 L1188.16 1151.21 L1197.71 1151.21 L1197.71 1156.13 L1172.82 1156.13 L1172.82 1151.21 Z" fill="#000000" fill-rule="nonzero" fill-opacity="1" /><path clip-path="url(#clip830)" d="M1209.51 1148.78 L1215.62 1148.78 L1215.62 1156.13 L1209.51 1156.13 L1209.51 1148.78 Z" fill="#000000" fill-rule="nonzero" fill-opacity="1" /><path clip-path="url(#clip830)" d="M1228.41 1112.93 L1251.35 1112.93 L1251.35 1117.85 L1233.76 1117.85 L1233.76 1128.44 Q1235.03 1128 1236.31 1127.8 Q1237.58 1127.57 1238.85 1127.57 Q1246.09 1127.57 1250.31 1131.53 Q1254.54 1135.5 1254.54 1142.27 Q1254.54 1149.24 1250.2 1153.12 Q1245.86 1156.97 1237.96 1156.97 Q1235.24 1156.97 1232.4 1156.5 Q1229.59 1156.04 1226.59 1155.12 L1226.59 1149.24 Q1229.19 1150.66 1231.97 1151.35 Q1234.75 1152.05 1237.84 1152.05 Q1242.85 1152.05 1245.77 1149.41 Q1248.69 1146.78 1248.69 1142.27 Q1248.69 1137.75 1245.77 1135.12 Q1242.85 1132.49 1237.84 1132.49 Q1235.5 1132.49 1233.15 1133.01 Q1230.84 1133.53 1228.41 1134.63 L1228.41 1112.93 Z" fill="#000000" fill-rule="nonzero" fill-opacity="1" /><path clip-path="url(#clip830)" d="M1522.22 1151.21 L1542.62 1151.21 L1542.62 1156.13 L1515.19 1156.13 L1515.19 1151.21 Q1518.52 1147.77 1524.25 1141.98 Q1530.01 1136.16 1531.48 1134.48 Q1534.29 1131.33 1535.39 1129.16 Q1536.52 1126.96 1536.52 1124.85 Q1536.52 1121.41 1534.09 1119.24 Q1531.68 1117.07 1527.81 1117.07 Q1525.06 1117.07 1521.99 1118.02 Q1518.95 1118.98 1515.48 1120.91 L1515.48 1115.01 Q1519.01 1113.59 1522.08 1112.87 Q1525.15 1112.15 1527.69 1112.15 Q1534.4 1112.15 1538.4 1115.5 Q1542.39 1118.86 1542.39 1124.47 Q1542.39 1127.13 1541.38 1129.54 Q1540.39 1131.91 1537.76 1135.15 Q1537.04 1135.99 1533.16 1140.01 Q1529.28 1144 1522.22 1151.21 Z" fill="#000000" fill-rule="nonzero" fill-opacity="1" /><path clip-path="url(#clip830)" d="M1554.89 1148.78 L1561 1148.78 L1561 1156.13 L1554.89 1156.13 L1554.89 1148.78 Z" fill="#000000" fill-rule="nonzero" fill-opacity="1" /><path clip-path="url(#clip830)" d="M1586.23 1116.78 Q1581.71 1116.78 1579.43 1121.23 Q1577.17 1125.66 1577.17 1134.57 Q1577.17 1143.45 1579.43 1147.91 Q1581.71 1152.34 1586.23 1152.34 Q1590.77 1152.34 1593.03 1147.91 Q1595.31 1143.45 1595.31 1134.57 Q1595.31 1125.66 1593.03 1121.23 Q1590.77 1116.78 1586.23 1116.78 M1586.23 1112.15 Q1593.49 1112.15 1597.31 1117.9 Q1601.16 1123.63 1601.16 1134.57 Q1601.16 1145.48 1597.31 1151.24 Q1593.49 1156.97 1586.23 1156.97 Q1578.96 1156.97 1575.12 1151.24 Q1571.3 1145.48 1571.3 1134.57 Q1571.3 1123.63 1575.12 1117.9 Q1578.96 1112.15 1586.23 1112.15 Z" fill="#000000" fill-rule="nonzero" fill-opacity="1" /><path clip-path="url(#clip830)" d="M1867.76 1151.21 L1888.16 1151.21 L1888.16 1156.13 L1860.73 1156.13 L1860.73 1151.21 Q1864.05 1147.77 1869.78 1141.98 Q1875.54 1136.16 1877.02 1134.48 Q1879.82 1131.33 1880.92 1129.16 Q1882.05 1126.96 1882.05 1124.85 Q1882.05 1121.41 1879.62 1119.24 Q1877.22 1117.07 1873.34 1117.07 Q1870.59 1117.07 1867.53 1118.02 Q1864.49 1118.98 1861.02 1120.91 L1861.02 1115.01 Q1864.55 1113.59 1867.61 1112.87 Q1870.68 1112.15 1873.23 1112.15 Q1879.94 1112.15 1883.93 1115.5 Q1887.93 1118.86 1887.93 1124.47 Q1887.93 1127.13 1886.91 1129.54 Q1885.93 1131.91 1883.3 1135.15 Q1882.57 1135.99 1878.7 1140.01 Q1874.82 1144 1867.76 1151.21 Z" fill="#000000" fill-rule="nonzero" fill-opacity="1" /><path clip-path="url(#clip830)" d="M1900.43 1148.78 L1906.53 1148.78 L1906.53 1156.13 L1900.43 1156.13 L1900.43 1148.78 Z" fill="#000000" fill-rule="nonzero" fill-opacity="1" /><path clip-path="url(#clip830)" d="M1919.32 1112.93 L1942.27 1112.93 L1942.27 1117.85 L1924.67 1117.85 L1924.67 1128.44 Q1925.95 1128 1927.22 1127.8 Q1928.49 1127.57 1929.77 1127.57 Q1937 1127.57 1941.22 1131.53 Q1945.45 1135.5 1945.45 1142.27 Q1945.45 1149.24 1941.11 1153.12 Q1936.77 1156.97 1928.87 1156.97 Q1926.15 1156.97 1923.31 1156.5 Q1920.51 1156.04 1917.5 1155.12 L1917.5 1149.24 Q1920.1 1150.66 1922.88 1151.35 Q1925.66 1152.05 1928.75 1152.05 Q1933.76 1152.05 1936.68 1149.41 Q1939.6 1146.78 1939.6 1142.27 Q1939.6 1137.75 1936.68 1135.12 Q1933.76 1132.49 1928.75 1132.49 Q1926.41 1132.49 1924.07 1133.01 Q1921.75 1133.53 1919.32 1134.63 L1919.32 1112.93 Z" fill="#000000" fill-rule="nonzero" fill-opacity="1" /><polyline clip-path="url(#clip830)" style="stroke:#000000; stroke-linecap:round; stroke-linejoin:round; stroke-width:4; stroke-opacity:1; fill:none" points="197.835,1086.13 197.835,47.2441 "/>
<polyline clip-path="url(#clip830)" style="stroke:#000000; stroke-linecap:round; stroke-linejoin:round; stroke-width:4; stroke-opacity:1; fill:none" points="197.835,915.81 216.733,915.81 "/>
<polyline clip-path="url(#clip830)" style="stroke:#000000; stroke-linecap:round; stroke-linejoin:round; stroke-width:4; stroke-opacity:1; fill:none" points="197.835,682.709 216.733,682.709 "/>
<polyline clip-path="url(#clip830)" style="stroke:#000000; stroke-linecap:round; stroke-linejoin:round; stroke-width:4; stroke-opacity:1; fill:none" points="197.835,449.608 216.733,449.608 "/>
<polyline clip-path="url(#clip830)" style="stroke:#000000; stroke-linecap:round; stroke-linejoin:round; stroke-width:4; stroke-opacity:1; fill:none" points="197.835,216.507 216.733,216.507 "/>
<path clip-path="url(#clip830)" d="M52.9921 916.374 L90.0868 916.374 L90.0868 921.293 L52.9921 921.293 L52.9921 916.374 Z" fill="#000000" fill-rule="nonzero" fill-opacity="1" /><path clip-path="url(#clip830)" d="M107.737 932.491 L128.136 932.491 L128.136 937.41 L100.706 937.41 L100.706 932.491 Q104.034 929.048 109.763 923.261 Q115.521 917.445 116.996 915.767 Q119.803 912.613 120.903 910.443 Q122.031 908.244 122.031 906.131 Q122.031 902.688 119.601 900.518 Q117.199 898.348 113.322 898.348 Q110.573 898.348 107.506 899.303 Q104.468 900.258 100.995 902.196 L100.995 896.294 Q104.525 894.876 107.593 894.152 Q110.66 893.429 113.206 893.429 Q119.919 893.429 123.912 896.785 Q127.905 900.142 127.905 905.755 Q127.905 908.417 126.892 910.819 Q125.908 913.192 123.275 916.432 Q122.552 917.271 118.675 921.293 Q114.797 925.286 107.737 932.491 Z" fill="#000000" fill-rule="nonzero" fill-opacity="1" /><path clip-path="url(#clip830)" d="M152.905 898.059 Q148.391 898.059 146.105 902.515 Q143.848 906.942 143.848 915.854 Q143.848 924.737 146.105 929.193 Q148.391 933.62 152.905 933.62 Q157.448 933.62 159.705 929.193 Q161.99 924.737 161.99 915.854 Q161.99 906.942 159.705 902.515 Q157.448 898.059 152.905 898.059 M152.905 893.429 Q160.167 893.429 163.987 899.187 Q167.835 904.916 167.835 915.854 Q167.835 926.762 163.987 932.52 Q160.167 938.249 152.905 938.249 Q145.642 938.249 141.794 932.52 Q137.974 926.762 137.974 915.854 Q137.974 904.916 141.794 899.187 Q145.642 893.429 152.905 893.429 Z" fill="#000000" fill-rule="nonzero" fill-opacity="1" /><path clip-path="url(#clip830)" d="M152.905 664.958 Q148.391 664.958 146.105 669.414 Q143.848 673.841 143.848 682.753 Q143.848 691.636 146.105 696.092 Q148.391 700.519 152.905 700.519 Q157.448 700.519 159.705 696.092 Q161.99 691.636 161.99 682.753 Q161.99 673.841 159.705 669.414 Q157.448 664.958 152.905 664.958 M152.905 660.328 Q160.167 660.328 163.987 666.086 Q167.835 671.815 167.835 682.753 Q167.835 693.661 163.987 699.419 Q160.167 705.148 152.905 705.148 Q145.642 705.148 141.794 699.419 Q137.974 693.661 137.974 682.753 Q137.974 671.815 141.794 666.086 Q145.642 660.328 152.905 660.328 Z" fill="#000000" fill-rule="nonzero" fill-opacity="1" /><path clip-path="url(#clip830)" d="M107.737 466.289 L128.136 466.289 L128.136 471.208 L100.706 471.208 L100.706 466.289 Q104.034 462.846 109.763 457.059 Q115.521 451.243 116.996 449.565 Q119.803 446.411 120.903 444.241 Q122.031 442.042 122.031 439.929 Q122.031 436.486 119.601 434.316 Q117.199 432.146 113.322 432.146 Q110.573 432.146 107.506 433.101 Q104.468 434.056 100.995 435.994 L100.995 430.091 Q104.525 428.674 107.593 427.95 Q110.66 427.227 113.206 427.227 Q119.919 427.227 123.912 430.583 Q127.905 433.94 127.905 439.553 Q127.905 442.215 126.892 444.617 Q125.908 446.99 123.275 450.23 Q122.552 451.069 118.675 455.091 Q114.797 459.084 107.737 466.289 Z" fill="#000000" fill-rule="nonzero" fill-opacity="1" /><path clip-path="url(#clip830)" d="M152.905 431.856 Q148.391 431.856 146.105 436.312 Q143.848 440.74 143.848 449.652 Q143.848 458.535 146.105 462.991 Q148.391 467.418 152.905 467.418 Q157.448 467.418 159.705 462.991 Q161.99 458.535 161.99 449.652 Q161.99 440.74 159.705 436.312 Q157.448 431.856 152.905 431.856 M152.905 427.227 Q160.167 427.227 163.987 432.985 Q167.835 438.714 167.835 449.652 Q167.835 460.56 163.987 466.318 Q160.167 472.047 152.905 472.047 Q145.642 472.047 141.794 466.318 Q137.974 460.56 137.974 449.652 Q137.974 438.714 141.794 432.985 Q145.642 427.227 152.905 427.227 Z" fill="#000000" fill-rule="nonzero" fill-opacity="1" /><path clip-path="url(#clip830)" d="M118.761 200 L104.005 223.061 L118.761 223.061 L118.761 200 M117.228 194.907 L124.577 194.907 L124.577 223.061 L130.741 223.061 L130.741 227.922 L124.577 227.922 L124.577 238.107 L118.761 238.107 L118.761 227.922 L99.2592 227.922 L99.2592 222.28 L117.228 194.907 Z" fill="#000000" fill-rule="nonzero" fill-opacity="1" /><path clip-path="url(#clip830)" d="M152.905 198.755 Q148.391 198.755 146.105 203.211 Q143.848 207.639 143.848 216.55 Q143.848 225.434 146.105 229.89 Q148.391 234.317 152.905 234.317 Q157.448 234.317 159.705 229.89 Q161.99 225.434 161.99 216.55 Q161.99 207.639 159.705 203.211 Q157.448 198.755 152.905 198.755 M152.905 194.126 Q160.167 194.126 163.987 199.884 Q167.835 205.613 167.835 216.55 Q167.835 227.459 163.987 233.217 Q160.167 238.946 152.905 238.946 Q145.642 238.946 141.794 233.217 Q137.974 227.459 137.974 216.55 Q137.974 205.613 141.794 199.884 Q145.642 194.126 152.905 194.126 Z" fill="#000000" fill-rule="nonzero" fill-opacity="1" /><polyline clip-path="url(#clip832)" style="stroke:#0000ff; stroke-linecap:round; stroke-linejoin:round; stroke-width:4; stroke-opacity:1; fill:none" points="247.503,774.085 316.486,805.32 385.468,814.178 454.451,803.456 523.434,775.95 592.416,734.458 661.399,681.777 730.382,620.704 730.382,620.704 799.365,554.037 868.347,484.573 937.33,415.109 1006.31,348.442 1006.31,348.442 1075.3,287.37 1144.28,234.689 1144.28,234.689 1213.26,193.197 1282.24,165.691 1351.23,154.968 1420.21,163.826 1489.19,195.062 1558.17,251.472 1627.16,335.855 1696.14,451.007 1765.12,599.725 1834.11,784.807 1903.09,1009.05 "/>
<circle clip-path="url(#clip832)" cx="247.503" cy="642.802" r="10.8" fill="#ffa500" fill-rule="evenodd" fill-opacity="1" stroke="none"/>
<circle clip-path="url(#clip832)" cx="316.486" cy="638.513" r="10.8" fill="#ffa500" fill-rule="evenodd" fill-opacity="1" stroke="none"/>
<circle clip-path="url(#clip832)" cx="316.486" cy="638.513" r="10.8" fill="#ffa500" fill-rule="evenodd" fill-opacity="1" stroke="none"/>
<circle clip-path="url(#clip832)" cx="385.468" cy="644.854" r="10.8" fill="#ffa500" fill-rule="evenodd" fill-opacity="1" stroke="none"/>
<circle clip-path="url(#clip832)" cx="385.468" cy="644.854" r="10.8" fill="#ffa500" fill-rule="evenodd" fill-opacity="1" stroke="none"/>
<circle clip-path="url(#clip832)" cx="454.451" cy="660.145" r="10.8" fill="#ffa500" fill-rule="evenodd" fill-opacity="1" stroke="none"/>
<circle clip-path="url(#clip832)" cx="454.451" cy="660.145" r="10.8" fill="#ffa500" fill-rule="evenodd" fill-opacity="1" stroke="none"/>
<circle clip-path="url(#clip832)" cx="523.434" cy="682.709" r="10.8" fill="#ffa500" fill-rule="evenodd" fill-opacity="1" stroke="none"/>
<circle clip-path="url(#clip832)" cx="523.434" cy="682.709" r="10.8" fill="#ffa500" fill-rule="evenodd" fill-opacity="1" stroke="none"/>
<circle clip-path="url(#clip832)" cx="592.416" cy="710.868" r="10.8" fill="#ffa500" fill-rule="evenodd" fill-opacity="1" stroke="none"/>
<circle clip-path="url(#clip832)" cx="592.416" cy="710.868" r="10.8" fill="#ffa500" fill-rule="evenodd" fill-opacity="1" stroke="none"/>
<circle clip-path="url(#clip832)" cx="661.399" cy="742.942" r="10.8" fill="#ffa500" fill-rule="evenodd" fill-opacity="1" stroke="none"/>
<circle clip-path="url(#clip832)" cx="661.399" cy="742.942" r="10.8" fill="#ffa500" fill-rule="evenodd" fill-opacity="1" stroke="none"/>
<circle clip-path="url(#clip832)" cx="730.382" cy="777.255" r="10.8" fill="#ffa500" fill-rule="evenodd" fill-opacity="1" stroke="none"/>
<circle clip-path="url(#clip832)" cx="730.382" cy="777.255" r="10.8" fill="#ffa500" fill-rule="evenodd" fill-opacity="1" stroke="none"/>
<circle clip-path="url(#clip832)" cx="799.365" cy="812.127" r="10.8" fill="#ffa500" fill-rule="evenodd" fill-opacity="1" stroke="none"/>
<circle clip-path="url(#clip832)" cx="799.365" cy="812.127" r="10.8" fill="#ffa500" fill-rule="evenodd" fill-opacity="1" stroke="none"/>
<circle clip-path="url(#clip832)" cx="868.347" cy="845.88" r="10.8" fill="#ffa500" fill-rule="evenodd" fill-opacity="1" stroke="none"/>
<circle clip-path="url(#clip832)" cx="868.347" cy="845.88" r="10.8" fill="#ffa500" fill-rule="evenodd" fill-opacity="1" stroke="none"/>
<circle clip-path="url(#clip832)" cx="937.33" cy="876.836" r="10.8" fill="#ffa500" fill-rule="evenodd" fill-opacity="1" stroke="none"/>
<circle clip-path="url(#clip832)" cx="937.33" cy="876.836" r="10.8" fill="#ffa500" fill-rule="evenodd" fill-opacity="1" stroke="none"/>
<circle clip-path="url(#clip832)" cx="1006.31" cy="903.316" r="10.8" fill="#ffa500" fill-rule="evenodd" fill-opacity="1" stroke="none"/>
<circle clip-path="url(#clip832)" cx="1006.31" cy="903.316" r="10.8" fill="#ffa500" fill-rule="evenodd" fill-opacity="1" stroke="none"/>
<circle clip-path="url(#clip832)" cx="1075.3" cy="923.642" r="10.8" fill="#ffa500" fill-rule="evenodd" fill-opacity="1" stroke="none"/>
<circle clip-path="url(#clip832)" cx="1075.3" cy="923.642" r="10.8" fill="#ffa500" fill-rule="evenodd" fill-opacity="1" stroke="none"/>
<circle clip-path="url(#clip832)" cx="1144.28" cy="936.137" r="10.8" fill="#ffa500" fill-rule="evenodd" fill-opacity="1" stroke="none"/>
<circle clip-path="url(#clip832)" cx="1144.28" cy="936.137" r="10.8" fill="#ffa500" fill-rule="evenodd" fill-opacity="1" stroke="none"/>
<circle clip-path="url(#clip832)" cx="1213.26" cy="939.12" r="10.8" fill="#ffa500" fill-rule="evenodd" fill-opacity="1" stroke="none"/>
<circle clip-path="url(#clip832)" cx="1213.26" cy="939.12" r="10.8" fill="#ffa500" fill-rule="evenodd" fill-opacity="1" stroke="none"/>
<circle clip-path="url(#clip832)" cx="1282.24" cy="930.915" r="10.8" fill="#ffa500" fill-rule="evenodd" fill-opacity="1" stroke="none"/>
<circle clip-path="url(#clip832)" cx="1282.24" cy="930.915" r="10.8" fill="#ffa500" fill-rule="evenodd" fill-opacity="1" stroke="none"/>
<circle clip-path="url(#clip832)" cx="1351.23" cy="909.843" r="10.8" fill="#ffa500" fill-rule="evenodd" fill-opacity="1" stroke="none"/>
<circle clip-path="url(#clip832)" cx="1420.21" cy="874.225" r="10.8" fill="#ffa500" fill-rule="evenodd" fill-opacity="1" stroke="none"/>
<circle clip-path="url(#clip832)" cx="1489.19" cy="822.383" r="10.8" fill="#ffa500" fill-rule="evenodd" fill-opacity="1" stroke="none"/>
<circle clip-path="url(#clip832)" cx="1558.17" cy="752.639" r="10.8" fill="#ffa500" fill-rule="evenodd" fill-opacity="1" stroke="none"/>
<circle clip-path="url(#clip832)" cx="1627.16" cy="663.315" r="10.8" fill="#ffa500" fill-rule="evenodd" fill-opacity="1" stroke="none"/>
<circle clip-path="url(#clip832)" cx="1696.14" cy="552.732" r="10.8" fill="#ffa500" fill-rule="evenodd" fill-opacity="1" stroke="none"/>
<circle clip-path="url(#clip832)" cx="1765.12" cy="419.212" r="10.8" fill="#ffa500" fill-rule="evenodd" fill-opacity="1" stroke="none"/>
<circle clip-path="url(#clip832)" cx="1834.11" cy="261.076" r="10.8" fill="#ffa500" fill-rule="evenodd" fill-opacity="1" stroke="none"/>
<circle clip-path="url(#clip832)" cx="1903.09" cy="76.6465" r="10.8" fill="#ffa500" fill-rule="evenodd" fill-opacity="1" stroke="none"/>
<circle clip-path="url(#clip832)" cx="247.503" cy="835.223" r="10.8" fill="#000000" fill-rule="evenodd" fill-opacity="1" stroke="none"/>
<circle clip-path="url(#clip832)" cx="316.486" cy="794.015" r="10.8" fill="#000000" fill-rule="evenodd" fill-opacity="1" stroke="none"/>
<circle clip-path="url(#clip832)" cx="385.468" cy="944.186" r="10.8" fill="#000000" fill-rule="evenodd" fill-opacity="1" stroke="none"/>
<circle clip-path="url(#clip832)" cx="454.451" cy="764.176" r="10.8" fill="#000000" fill-rule="evenodd" fill-opacity="1" stroke="none"/>
<circle clip-path="url(#clip832)" cx="523.434" cy="679.188" r="10.8" fill="#000000" fill-rule="evenodd" fill-opacity="1" stroke="none"/>
<circle clip-path="url(#clip832)" cx="592.416" cy="798.49" r="10.8" fill="#000000" fill-rule="evenodd" fill-opacity="1" stroke="none"/>
<circle clip-path="url(#clip832)" cx="661.399" cy="705.433" r="10.8" fill="#000000" fill-rule="evenodd" fill-opacity="1" stroke="none"/>
<circle clip-path="url(#clip832)" cx="730.382" cy="636.285" r="10.8" fill="#000000" fill-rule="evenodd" fill-opacity="1" stroke="none"/>
<circle clip-path="url(#clip832)" cx="799.365" cy="566.968" r="10.8" fill="#000000" fill-rule="evenodd" fill-opacity="1" stroke="none"/>
<circle clip-path="url(#clip832)" cx="868.347" cy="558.593" r="10.8" fill="#000000" fill-rule="evenodd" fill-opacity="1" stroke="none"/>
<circle clip-path="url(#clip832)" cx="937.33" cy="372.625" r="10.8" fill="#000000" fill-rule="evenodd" fill-opacity="1" stroke="none"/>
<circle clip-path="url(#clip832)" cx="1006.31" cy="345.02" r="10.8" fill="#000000" fill-rule="evenodd" fill-opacity="1" stroke="none"/>
<circle clip-path="url(#clip832)" cx="1075.3" cy="369.17" r="10.8" fill="#000000" fill-rule="evenodd" fill-opacity="1" stroke="none"/>
<circle clip-path="url(#clip832)" cx="1144.28" cy="181.585" r="10.8" fill="#000000" fill-rule="evenodd" fill-opacity="1" stroke="none"/>
<circle clip-path="url(#clip832)" cx="1213.26" cy="254.516" r="10.8" fill="#000000" fill-rule="evenodd" fill-opacity="1" stroke="none"/>
<circle clip-path="url(#clip832)" cx="1282.24" cy="159.434" r="10.8" fill="#000000" fill-rule="evenodd" fill-opacity="1" stroke="none"/>
<circle clip-path="url(#clip832)" cx="1351.23" cy="158.328" r="10.8" fill="#000000" fill-rule="evenodd" fill-opacity="1" stroke="none"/>
<circle clip-path="url(#clip832)" cx="1420.21" cy="207.625" r="10.8" fill="#000000" fill-rule="evenodd" fill-opacity="1" stroke="none"/>
<circle clip-path="url(#clip832)" cx="1489.19" cy="169.179" r="10.8" fill="#000000" fill-rule="evenodd" fill-opacity="1" stroke="none"/>
<circle clip-path="url(#clip832)" cx="1558.17" cy="179.499" r="10.8" fill="#000000" fill-rule="evenodd" fill-opacity="1" stroke="none"/>
<circle clip-path="url(#clip832)" cx="1627.16" cy="317.593" r="10.8" fill="#000000" fill-rule="evenodd" fill-opacity="1" stroke="none"/>
<circle clip-path="url(#clip832)" cx="1696.14" cy="432.997" r="10.8" fill="#000000" fill-rule="evenodd" fill-opacity="1" stroke="none"/>
<circle clip-path="url(#clip832)" cx="1765.12" cy="689.755" r="10.8" fill="#000000" fill-rule="evenodd" fill-opacity="1" stroke="none"/>
<circle clip-path="url(#clip832)" cx="1834.11" cy="838.939" r="10.8" fill="#000000" fill-rule="evenodd" fill-opacity="1" stroke="none"/>
<circle clip-path="url(#clip832)" cx="1903.09" cy="1056.73" r="10.8" fill="#000000" fill-rule="evenodd" fill-opacity="1" stroke="none"/>
<circle clip-path="url(#clip832)" cx="316.486" cy="709.637" r="10.8" fill="#000000" fill-rule="evenodd" fill-opacity="1" stroke="none"/>
<circle clip-path="url(#clip832)" cx="385.468" cy="739.001" r="10.8" fill="#000000" fill-rule="evenodd" fill-opacity="1" stroke="none"/>
<circle clip-path="url(#clip832)" cx="454.451" cy="810.288" r="10.8" fill="#000000" fill-rule="evenodd" fill-opacity="1" stroke="none"/>
<circle clip-path="url(#clip832)" cx="523.434" cy="793.346" r="10.8" fill="#000000" fill-rule="evenodd" fill-opacity="1" stroke="none"/>
<circle clip-path="url(#clip832)" cx="592.416" cy="764.022" r="10.8" fill="#000000" fill-rule="evenodd" fill-opacity="1" stroke="none"/>
<circle clip-path="url(#clip832)" cx="661.399" cy="605.531" r="10.8" fill="#000000" fill-rule="evenodd" fill-opacity="1" stroke="none"/>
<circle clip-path="url(#clip832)" cx="730.382" cy="666.131" r="10.8" fill="#000000" fill-rule="evenodd" fill-opacity="1" stroke="none"/>
<circle clip-path="url(#clip832)" cx="799.365" cy="597.306" r="10.8" fill="#000000" fill-rule="evenodd" fill-opacity="1" stroke="none"/>
<circle clip-path="url(#clip832)" cx="868.347" cy="543.93" r="10.8" fill="#000000" fill-rule="evenodd" fill-opacity="1" stroke="none"/>
<circle clip-path="url(#clip832)" cx="937.33" cy="587.928" r="10.8" fill="#000000" fill-rule="evenodd" fill-opacity="1" stroke="none"/>
<circle clip-path="url(#clip832)" cx="1006.31" cy="388.785" r="10.8" fill="#000000" fill-rule="evenodd" fill-opacity="1" stroke="none"/>
<circle clip-path="url(#clip832)" cx="1075.3" cy="278.543" r="10.8" fill="#000000" fill-rule="evenodd" fill-opacity="1" stroke="none"/>
<circle clip-path="url(#clip832)" cx="1144.28" cy="333.356" r="10.8" fill="#000000" fill-rule="evenodd" fill-opacity="1" stroke="none"/>
<circle clip-path="url(#clip832)" cx="1213.26" cy="229.919" r="10.8" fill="#000000" fill-rule="evenodd" fill-opacity="1" stroke="none"/>
<circle clip-path="url(#clip832)" cx="1282.24" cy="106.373" r="10.8" fill="#000000" fill-rule="evenodd" fill-opacity="1" stroke="none"/>
<path clip-path="url(#clip830)" d="M256.333 341.074 L571.147 341.074 L571.147 81.8736 L256.333 81.8736  Z" fill="#ffffff" fill-rule="evenodd" fill-opacity="1"/>
<polyline clip-path="url(#clip830)" style="stroke:#000000; stroke-linecap:round; stroke-linejoin:round; stroke-width:4; stroke-opacity:1; fill:none" points="256.333,341.074 571.147,341.074 571.147,81.8736 256.333,81.8736 256.333,341.074 "/>
<polyline clip-path="url(#clip830)" style="stroke:#0000ff; stroke-linecap:round; stroke-linejoin:round; stroke-width:5; stroke-opacity:1; fill:none" points="275.832,146.674 392.826,146.674 "/>
<path clip-path="url(#clip830)" d="M421.585 126.665 L421.585 135.866 L432.551 135.866 L432.551 140.004 L421.585 140.004 L421.585 157.597 Q421.585 161.561 422.655 162.689 Q423.755 163.818 427.082 163.818 L432.551 163.818 L432.551 168.274 L427.082 168.274 Q420.919 168.274 418.576 165.988 Q416.232 163.673 416.232 157.597 L416.232 140.004 L412.326 140.004 L412.326 135.866 L416.232 135.866 L416.232 126.665 L421.585 126.665 Z" fill="#000000" fill-rule="nonzero" fill-opacity="1" /><path clip-path="url(#clip830)" d="M458.332 140.843 Q457.435 140.322 456.365 140.091 Q455.323 139.83 454.05 139.83 Q449.536 139.83 447.105 142.782 Q444.704 145.704 444.704 151.202 L444.704 168.274 L439.351 168.274 L439.351 135.866 L444.704 135.866 L444.704 140.901 Q446.382 137.95 449.073 136.532 Q451.764 135.085 455.612 135.085 Q456.162 135.085 456.828 135.172 Q457.493 135.23 458.303 135.374 L458.332 140.843 Z" fill="#000000" fill-rule="nonzero" fill-opacity="1" /><path clip-path="url(#clip830)" d="M463.367 155.484 L463.367 135.866 L468.691 135.866 L468.691 155.282 Q468.691 159.882 470.485 162.197 Q472.279 164.483 475.867 164.483 Q480.178 164.483 482.667 161.734 Q485.184 158.985 485.184 154.24 L485.184 135.866 L490.508 135.866 L490.508 168.274 L485.184 168.274 L485.184 163.297 Q483.245 166.248 480.67 167.695 Q478.124 169.113 474.738 169.113 Q469.154 169.113 466.26 165.64 Q463.367 162.168 463.367 155.484 M476.764 135.085 L476.764 135.085 Z" fill="#000000" fill-rule="nonzero" fill-opacity="1" /><path clip-path="url(#clip830)" d="M506.741 126.665 L506.741 135.866 L517.707 135.866 L517.707 140.004 L506.741 140.004 L506.741 157.597 Q506.741 161.561 507.811 162.689 Q508.911 163.818 512.238 163.818 L517.707 163.818 L517.707 168.274 L512.238 168.274 Q506.075 168.274 503.731 165.988 Q501.388 163.673 501.388 157.597 L501.388 140.004 L497.481 140.004 L497.481 135.866 L501.388 135.866 L501.388 126.665 L506.741 126.665 Z" fill="#000000" fill-rule="nonzero" fill-opacity="1" /><path clip-path="url(#clip830)" d="M551.648 148.713 L551.648 168.274 L546.324 168.274 L546.324 148.887 Q546.324 144.286 544.53 142.001 Q542.736 139.715 539.148 139.715 Q534.836 139.715 532.348 142.464 Q529.86 145.212 529.86 149.958 L529.86 168.274 L524.507 168.274 L524.507 123.251 L529.86 123.251 L529.86 140.901 Q531.769 137.979 534.345 136.532 Q536.949 135.085 540.334 135.085 Q545.919 135.085 548.783 138.557 Q551.648 142.001 551.648 148.713 Z" fill="#000000" fill-rule="nonzero" fill-opacity="1" /><circle clip-path="url(#clip830)" cx="334.329" cy="211.474" r="28.8" fill="#ffa500" fill-rule="evenodd" fill-opacity="1" stroke="none"/>
<path clip-path="url(#clip830)" d="M412.326 200.666 L417.65 200.666 L417.65 233.074 L412.326 233.074 L412.326 200.666 M412.326 188.051 L417.65 188.051 L417.65 194.793 L412.326 194.793 L412.326 188.051 Z" fill="#000000" fill-rule="nonzero" fill-opacity="1" /><path clip-path="url(#clip830)" d="M455.728 213.513 L455.728 233.074 L450.404 233.074 L450.404 213.687 Q450.404 209.086 448.61 206.801 Q446.816 204.515 443.228 204.515 Q438.917 204.515 436.428 207.264 Q433.94 210.012 433.94 214.758 L433.94 233.074 L428.587 233.074 L428.587 200.666 L433.94 200.666 L433.94 205.701 Q435.85 202.779 438.425 201.332 Q441.029 199.885 444.415 199.885 Q449.999 199.885 452.864 203.357 Q455.728 206.801 455.728 213.513 Z" fill="#000000" fill-rule="nonzero" fill-opacity="1" /><path clip-path="url(#clip830)" d="M466.347 200.666 L471.671 200.666 L471.671 233.074 L466.347 233.074 L466.347 200.666 M466.347 188.051 L471.671 188.051 L471.671 194.793 L466.347 194.793 L466.347 188.051 Z" fill="#000000" fill-rule="nonzero" fill-opacity="1" /><path clip-path="url(#clip830)" d="M488.077 191.465 L488.077 200.666 L499.044 200.666 L499.044 204.804 L488.077 204.804 L488.077 222.397 Q488.077 226.361 489.148 227.489 Q490.248 228.618 493.575 228.618 L499.044 228.618 L499.044 233.074 L493.575 233.074 Q487.412 233.074 485.068 230.788 Q482.724 228.473 482.724 222.397 L482.724 204.804 L478.818 204.804 L478.818 200.666 L482.724 200.666 L482.724 191.465 L488.077 191.465 Z" fill="#000000" fill-rule="nonzero" fill-opacity="1" /><circle clip-path="url(#clip830)" cx="334.329" cy="276.274" r="28.8" fill="#000000" fill-rule="evenodd" fill-opacity="1" stroke="none"/>
<path clip-path="url(#clip830)" d="M435.965 270.385 L435.965 252.851 L441.29 252.851 L441.29 297.874 L435.965 297.874 L435.965 293.012 Q434.287 295.906 431.712 297.324 Q429.166 298.713 425.578 298.713 Q419.704 298.713 416 294.025 Q412.326 289.338 412.326 281.699 Q412.326 274.06 416 269.373 Q419.704 264.685 425.578 264.685 Q429.166 264.685 431.712 266.103 Q434.287 267.492 435.965 270.385 M417.823 281.699 Q417.823 287.573 420.225 290.929 Q422.655 294.257 426.88 294.257 Q431.104 294.257 433.535 290.929 Q435.965 287.573 435.965 281.699 Q435.965 275.825 433.535 272.498 Q431.104 269.141 426.88 269.141 Q422.655 269.141 420.225 272.498 Q417.823 275.825 417.823 281.699 Z" fill="#000000" fill-rule="nonzero" fill-opacity="1" /><path clip-path="url(#clip830)" d="M466.984 281.583 Q460.531 281.583 458.043 283.059 Q455.554 284.535 455.554 288.094 Q455.554 290.929 457.406 292.607 Q459.287 294.257 462.499 294.257 Q466.926 294.257 469.588 291.132 Q472.279 287.978 472.279 282.769 L472.279 281.583 L466.984 281.583 M477.603 279.384 L477.603 297.874 L472.279 297.874 L472.279 292.955 Q470.456 295.906 467.736 297.324 Q465.016 298.713 461.081 298.713 Q456.104 298.713 453.153 295.935 Q450.23 293.128 450.23 288.441 Q450.23 282.972 453.876 280.194 Q457.551 277.416 464.814 277.416 L472.279 277.416 L472.279 276.896 Q472.279 273.221 469.848 271.224 Q467.447 269.199 463.078 269.199 Q460.3 269.199 457.667 269.864 Q455.034 270.53 452.603 271.861 L452.603 266.942 Q455.526 265.814 458.274 265.264 Q461.023 264.685 463.627 264.685 Q470.659 264.685 474.131 268.331 Q477.603 271.977 477.603 279.384 Z" fill="#000000" fill-rule="nonzero" fill-opacity="1" /><path clip-path="url(#clip830)" d="M493.836 256.265 L493.836 265.466 L504.802 265.466 L504.802 269.604 L493.836 269.604 L493.836 287.197 Q493.836 291.161 494.906 292.289 Q496.006 293.418 499.333 293.418 L504.802 293.418 L504.802 297.874 L499.333 297.874 Q493.17 297.874 490.826 295.588 Q488.483 293.273 488.483 287.197 L488.483 269.604 L484.576 269.604 L484.576 265.466 L488.483 265.466 L488.483 256.265 L493.836 256.265 Z" fill="#000000" fill-rule="nonzero" fill-opacity="1" /><path clip-path="url(#clip830)" d="M526.532 281.583 Q520.08 281.583 517.591 283.059 Q515.103 284.535 515.103 288.094 Q515.103 290.929 516.955 292.607 Q518.835 294.257 522.047 294.257 Q526.474 294.257 529.136 291.132 Q531.827 287.978 531.827 282.769 L531.827 281.583 L526.532 281.583 M537.151 279.384 L537.151 297.874 L531.827 297.874 L531.827 292.955 Q530.004 295.906 527.284 297.324 Q524.565 298.713 520.629 298.713 Q515.653 298.713 512.701 295.935 Q509.779 293.128 509.779 288.441 Q509.779 282.972 513.425 280.194 Q517.099 277.416 524.362 277.416 L531.827 277.416 L531.827 276.896 Q531.827 273.221 529.397 271.224 Q526.995 269.199 522.626 269.199 Q519.848 269.199 517.215 269.864 Q514.582 270.53 512.151 271.861 L512.151 266.942 Q515.074 265.814 517.823 265.264 Q520.572 264.685 523.176 264.685 Q530.207 264.685 533.679 268.331 Q537.151 271.977 537.151 279.384 Z" fill="#000000" fill-rule="nonzero" fill-opacity="1" /></svg>
