<?xml version="1.0" encoding="utf-8"?>
<svg xmlns="http://www.w3.org/2000/svg" xmlns:xlink="http://www.w3.org/1999/xlink" width="500" height="300" viewBox="0 0 2000 1200">
<defs>
  <clipPath id="clip430">
    <rect x="0" y="0" width="2000" height="1200"/>
  </clipPath>
</defs>
<path clip-path="url(#clip430)" d="M0 1200 L2000 1200 L2000 0 L0 0  Z" fill="#ffffff" fill-rule="evenodd" fill-opacity="1"/>
<defs>
  <clipPath id="clip431">
    <rect x="400" y="0" width="1401" height="1200"/>
  </clipPath>
</defs>
<path clip-path="url(#clip430)" d="M187.824 1086.13 L1952.76 1086.13 L1952.76 47.2441 L187.824 47.2441  Z" fill="#ffffff" fill-rule="evenodd" fill-opacity="1"/>
<defs>
  <clipPath id="clip432">
    <rect x="187" y="47" width="1766" height="1040"/>
  </clipPath>
</defs>
<polyline clip-path="url(#clip430)" style="stroke:#000000; stroke-linecap:round; stroke-linejoin:round; stroke-width:4; stroke-opacity:1; fill:none" points="187.824,1086.13 1952.76,1086.13 "/>
<polyline clip-path="url(#clip430)" style="stroke:#000000; stroke-linecap:round; stroke-linejoin:round; stroke-width:4; stroke-opacity:1; fill:none" points="209.554,1086.13 209.554,1067.23 "/>
<polyline clip-path="url(#clip430)" style="stroke:#000000; stroke-linecap:round; stroke-linejoin:round; stroke-width:4; stroke-opacity:1; fill:none" points="632.867,1086.13 632.867,1067.23 "/>
<polyline clip-path="url(#clip430)" style="stroke:#000000; stroke-linecap:round; stroke-linejoin:round; stroke-width:4; stroke-opacity:1; fill:none" points="1056.18,1086.13 1056.18,1067.23 "/>
<polyline clip-path="url(#clip430)" style="stroke:#000000; stroke-linecap:round; stroke-linejoin:round; stroke-width:4; stroke-opacity:1; fill:none" points="1479.49,1086.13 1479.49,1067.23 "/>
<polyline clip-path="url(#clip430)" style="stroke:#000000; stroke-linecap:round; stroke-linejoin:round; stroke-width:4; stroke-opacity:1; fill:none" points="1902.8,1086.13 1902.8,1067.23 "/>
<path clip-path="url(#clip430)" d="M209.554 1116.78 Q205.04 1116.78 202.754 1121.23 Q200.497 1125.66 200.497 1134.57 Q200.497 1143.45 202.754 1147.91 Q205.04 1152.34 209.554 1152.34 Q214.097 1152.34 216.354 1147.91 Q218.639 1143.45 218.639 1134.57 Q218.639 1125.66 216.354 1121.23 Q214.097 1116.78 209.554 1116.78 M209.554 1112.15 Q216.816 1112.15 220.636 1117.9 Q224.484 1123.63 224.484 1134.57 Q224.484 1145.48 220.636 1151.24 Q216.816 1156.97 209.554 1156.97 Q202.291 1156.97 198.443 1151.24 Q194.623 1145.48 194.623 1134.57 Q194.623 1123.63 198.443 1117.9 Q202.291 1112.15 209.554 1112.15 Z" fill="#000000" fill-rule="nonzero" fill-opacity="1" /><path clip-path="url(#clip430)" d="M620.714 1112.93 L643.659 1112.93 L643.659 1117.85 L626.067 1117.85 L626.067 1128.44 Q627.34 1128 628.613 1127.8 Q629.886 1127.57 631.159 1127.57 Q638.393 1127.57 642.618 1131.53 Q646.842 1135.5 646.842 1142.27 Q646.842 1149.24 642.502 1153.12 Q638.162 1156.97 630.262 1156.97 Q627.543 1156.97 624.707 1156.5 Q621.9 1156.04 618.891 1155.12 L618.891 1149.24 Q621.495 1150.66 624.273 1151.35 Q627.051 1152.05 630.147 1152.05 Q635.152 1152.05 638.075 1149.41 Q640.997 1146.78 640.997 1142.27 Q640.997 1137.75 638.075 1135.12 Q635.152 1132.49 630.147 1132.49 Q627.803 1132.49 625.459 1133.01 Q623.144 1133.53 620.714 1134.63 L620.714 1112.93 Z" fill="#000000" fill-rule="nonzero" fill-opacity="1" /><path clip-path="url(#clip430)" d="M1024.54 1151.21 L1034.09 1151.21 L1034.09 1118.25 L1023.7 1120.34 L1023.7 1115.01 L1034.03 1112.93 L1039.87 1112.93 L1039.87 1151.21 L1049.42 1151.21 L1049.42 1156.13 L1024.54 1156.13 L1024.54 1151.21 Z" fill="#000000" fill-rule="nonzero" fill-opacity="1" /><path clip-path="url(#clip430)" d="M1073.73 1116.78 Q1069.21 1116.78 1066.93 1121.23 Q1064.67 1125.66 1064.67 1134.57 Q1064.67 1143.45 1066.93 1147.91 Q1069.21 1152.34 1073.73 1152.34 Q1078.27 1152.34 1080.53 1147.91 Q1082.81 1143.45 1082.81 1134.57 Q1082.81 1125.66 1080.53 1121.23 Q1078.27 1116.78 1073.73 1116.78 M1073.73 1112.15 Q1080.99 1112.15 1084.81 1117.9 Q1088.66 1123.63 1088.66 1134.57 Q1088.66 1145.48 1084.81 1151.24 Q1080.99 1156.97 1073.73 1156.97 Q1066.47 1156.97 1062.62 1151.24 Q1058.8 1145.48 1058.8 1134.57 Q1058.8 1123.63 1062.62 1117.9 Q1066.47 1112.15 1073.73 1112.15 Z" fill="#000000" fill-rule="nonzero" fill-opacity="1" /><path clip-path="url(#clip430)" d="M1448.47 1151.21 L1458.02 1151.21 L1458.02 1118.25 L1447.63 1120.34 L1447.63 1115.01 L1457.96 1112.93 L1463.81 1112.93 L1463.81 1151.21 L1473.36 1151.21 L1473.36 1156.13 L1448.47 1156.13 L1448.47 1151.21 Z" fill="#000000" fill-rule="nonzero" fill-opacity="1" /><path clip-path="url(#clip430)" d="M1485.22 1112.93 L1508.17 1112.93 L1508.17 1117.85 L1490.57 1117.85 L1490.57 1128.44 Q1491.85 1128 1493.12 1127.8 Q1494.39 1127.57 1495.67 1127.57 Q1502.9 1127.57 1507.13 1131.53 Q1511.35 1135.5 1511.35 1142.27 Q1511.35 1149.24 1507.01 1153.12 Q1502.67 1156.97 1494.77 1156.97 Q1492.05 1156.97 1489.21 1156.5 Q1486.41 1156.04 1483.4 1155.12 L1483.4 1149.24 Q1486 1150.66 1488.78 1151.35 Q1491.56 1152.05 1494.65 1152.05 Q1499.66 1152.05 1502.58 1149.41 Q1505.5 1146.78 1505.5 1142.27 Q1505.5 1137.75 1502.58 1135.12 Q1499.66 1132.49 1494.65 1132.49 Q1492.31 1132.49 1489.97 1133.01 Q1487.65 1133.53 1485.22 1134.63 L1485.22 1112.93 Z" fill="#000000" fill-rule="nonzero" fill-opacity="1" /><path clip-path="url(#clip430)" d="M1876.27 1151.21 L1896.67 1151.21 L1896.67 1156.13 L1869.24 1156.13 L1869.24 1151.21 Q1872.57 1147.77 1878.3 1141.98 Q1884.06 1136.16 1885.53 1134.48 Q1888.34 1131.33 1889.44 1129.16 Q1890.57 1126.96 1890.57 1124.85 Q1890.57 1121.41 1888.13 1119.24 Q1885.73 1117.07 1881.86 1117.07 Q1879.11 1117.07 1876.04 1118.02 Q1873 1118.98 1869.53 1120.91 L1869.53 1115.01 Q1873.06 1113.59 1876.13 1112.87 Q1879.19 1112.15 1881.74 1112.15 Q1888.45 1112.15 1892.45 1115.5 Q1896.44 1118.86 1896.44 1124.47 Q1896.44 1127.13 1895.43 1129.54 Q1894.44 1131.91 1891.81 1135.15 Q1891.09 1135.99 1887.21 1140.01 Q1883.33 1144 1876.27 1151.21 Z" fill="#000000" fill-rule="nonzero" fill-opacity="1" /><path clip-path="url(#clip430)" d="M1921.44 1116.78 Q1916.93 1116.78 1914.64 1121.23 Q1912.38 1125.66 1912.38 1134.57 Q1912.38 1143.45 1914.64 1147.91 Q1916.93 1152.34 1921.44 1152.34 Q1925.98 1152.34 1928.24 1147.91 Q1930.52 1143.45 1930.52 1134.57 Q1930.52 1125.66 1928.24 1121.23 Q1925.98 1116.78 1921.44 1116.78 M1921.44 1112.15 Q1928.7 1112.15 1932.52 1117.9 Q1936.37 1123.63 1936.37 1134.57 Q1936.37 1145.48 1932.52 1151.24 Q1928.7 1156.97 1921.44 1156.97 Q1914.18 1156.97 1910.33 1151.24 Q1906.51 1145.48 1906.51 1134.57 Q1906.51 1123.63 1910.33 1117.9 Q1914.18 1112.15 1921.44 1112.15 Z" fill="#000000" fill-rule="nonzero" fill-opacity="1" /><polyline clip-path="url(#clip430)" style="stroke:#000000; stroke-linecap:round; stroke-linejoin:round; stroke-width:4; stroke-opacity:1; fill:none" points="187.824,1086.13 187.824,47.2441 "/>
<polyline clip-path="url(#clip430)" style="stroke:#000000; stroke-linecap:round; stroke-linejoin:round; stroke-width:4; stroke-opacity:1; fill:none" points="187.824,1071.37 206.721,1071.37 "/>
<polyline clip-path="url(#clip430)" style="stroke:#000000; stroke-linecap:round; stroke-linejoin:round; stroke-width:4; stroke-opacity:1; fill:none" points="187.824,785.343 206.721,785.343 "/>
<polyline clip-path="url(#clip430)" style="stroke:#000000; stroke-linecap:round; stroke-linejoin:round; stroke-width:4; stroke-opacity:1; fill:none" points="187.824,499.316 206.721,499.316 "/>
<polyline clip-path="url(#clip430)" style="stroke:#000000; stroke-linecap:round; stroke-linejoin:round; stroke-width:4; stroke-opacity:1; fill:none" points="187.824,213.29 206.721,213.29 "/>
<path clip-path="url(#clip430)" d="M142.893 1053.62 Q138.379 1053.62 136.094 1058.07 Q133.837 1062.5 133.837 1071.41 Q133.837 1080.3 136.094 1084.75 Q138.379 1089.18 142.893 1089.18 Q147.436 1089.18 149.693 1084.75 Q151.979 1080.3 151.979 1071.41 Q151.979 1062.5 149.693 1058.07 Q147.436 1053.62 142.893 1053.62 M142.893 1048.99 Q150.156 1048.99 153.975 1054.75 Q157.824 1060.48 157.824 1071.41 Q157.824 1082.32 153.975 1088.08 Q150.156 1093.81 142.893 1093.81 Q135.631 1093.81 131.782 1088.08 Q127.963 1082.32 127.963 1071.41 Q127.963 1060.48 131.782 1054.75 Q135.631 1048.99 142.893 1048.99 Z" fill="#000000" fill-rule="nonzero" fill-opacity="1" /><path clip-path="url(#clip430)" d="M56.0014 802.024 L65.5499 802.024 L65.5499 769.067 L55.1623 771.15 L55.1623 765.826 L65.4921 763.743 L71.3369 763.743 L71.3369 802.024 L80.8855 802.024 L80.8855 806.943 L56.0014 806.943 L56.0014 802.024 Z" fill="#000000" fill-rule="nonzero" fill-opacity="1" /><path clip-path="url(#clip430)" d="M105.191 767.591 Q100.677 767.591 98.3912 772.047 Q96.1343 776.474 96.1343 785.386 Q96.1343 794.269 98.3912 798.725 Q100.677 803.152 105.191 803.152 Q109.734 803.152 111.991 798.725 Q114.277 794.269 114.277 785.386 Q114.277 776.474 111.991 772.047 Q109.734 767.591 105.191 767.591 M105.191 762.962 Q112.454 762.962 116.273 768.72 Q120.121 774.449 120.121 785.386 Q120.121 796.295 116.273 802.053 Q112.454 807.782 105.191 807.782 Q97.9282 807.782 94.0799 802.053 Q90.2604 796.295 90.2604 785.386 Q90.2604 774.449 94.0799 768.72 Q97.9282 762.962 105.191 762.962 Z" fill="#000000" fill-rule="nonzero" fill-opacity="1" /><path clip-path="url(#clip430)" d="M142.893 767.591 Q138.379 767.591 136.094 772.047 Q133.837 776.474 133.837 785.386 Q133.837 794.269 136.094 798.725 Q138.379 803.152 142.893 803.152 Q147.436 803.152 149.693 798.725 Q151.979 794.269 151.979 785.386 Q151.979 776.474 149.693 772.047 Q147.436 767.591 142.893 767.591 M142.893 762.962 Q150.156 762.962 153.975 768.72 Q157.824 774.449 157.824 785.386 Q157.824 796.295 153.975 802.053 Q150.156 807.782 142.893 807.782 Q135.631 807.782 131.782 802.053 Q127.963 796.295 127.963 785.386 Q127.963 774.449 131.782 768.72 Q135.631 762.962 142.893 762.962 Z" fill="#000000" fill-rule="nonzero" fill-opacity="1" /><path clip-path="url(#clip430)" d="M60.0233 515.997 L80.4225 515.997 L80.4225 520.916 L52.9921 520.916 L52.9921 515.997 Q56.3197 512.554 62.0488 506.767 Q67.8069 500.951 69.2825 499.273 Q72.0892 496.119 73.1888 493.949 Q74.3172 491.75 74.3172 489.638 Q74.3172 486.194 71.8867 484.024 Q69.4851 481.854 65.6078 481.854 Q62.859 481.854 59.7919 482.809 Q56.7537 483.764 53.2815 485.702 L53.2815 479.8 Q56.8115 478.382 59.8787 477.659 Q62.9458 476.935 65.4921 476.935 Q72.205 476.935 76.198 480.292 Q80.1911 483.648 80.1911 489.261 Q80.1911 491.923 79.1783 494.325 Q78.1945 496.698 75.5614 499.939 Q74.8381 500.778 70.9608 504.8 Q67.0835 508.793 60.0233 515.997 Z" fill="#000000" fill-rule="nonzero" fill-opacity="1" /><path clip-path="url(#clip430)" d="M105.191 481.565 Q100.677 481.565 98.3912 486.021 Q96.1343 490.448 96.1343 499.36 Q96.1343 508.243 98.3912 512.699 Q100.677 517.126 105.191 517.126 Q109.734 517.126 111.991 512.699 Q114.277 508.243 114.277 499.36 Q114.277 490.448 111.991 486.021 Q109.734 481.565 105.191 481.565 M105.191 476.935 Q112.454 476.935 116.273 482.693 Q120.121 488.422 120.121 499.36 Q120.121 510.268 116.273 516.026 Q112.454 521.756 105.191 521.756 Q97.9282 521.756 94.0799 516.026 Q90.2604 510.268 90.2604 499.36 Q90.2604 488.422 94.0799 482.693 Q97.9282 476.935 105.191 476.935 Z" fill="#000000" fill-rule="nonzero" fill-opacity="1" /><path clip-path="url(#clip430)" d="M142.893 481.565 Q138.379 481.565 136.094 486.021 Q133.837 490.448 133.837 499.36 Q133.837 508.243 136.094 512.699 Q138.379 517.126 142.893 517.126 Q147.436 517.126 149.693 512.699 Q151.979 508.243 151.979 499.36 Q151.979 490.448 149.693 486.021 Q147.436 481.565 142.893 481.565 M142.893 476.935 Q150.156 476.935 153.975 482.693 Q157.824 488.422 157.824 499.36 Q157.824 510.268 153.975 516.026 Q150.156 521.756 142.893 521.756 Q135.631 521.756 131.782 516.026 Q127.963 510.268 127.963 499.36 Q127.963 488.422 131.782 482.693 Q135.631 476.935 142.893 476.935 Z" fill="#000000" fill-rule="nonzero" fill-opacity="1" /><path clip-path="url(#clip430)" d="M72.6969 211.597 Q76.8925 212.494 79.2362 215.33 Q81.6089 218.166 81.6089 222.332 Q81.6089 228.727 77.2107 232.228 Q72.8126 235.729 64.7108 235.729 Q61.9909 235.729 59.0974 235.179 Q56.2328 234.658 53.1657 233.588 L53.1657 227.946 Q55.5963 229.363 58.4898 230.087 Q61.3833 230.81 64.5372 230.81 Q70.0349 230.81 72.8994 228.64 Q75.7929 226.47 75.7929 222.332 Q75.7929 218.513 73.102 216.372 Q70.4399 214.201 65.6657 214.201 L60.631 214.201 L60.631 209.398 L65.8971 209.398 Q70.2085 209.398 72.4943 207.691 Q74.7802 205.955 74.7802 202.714 Q74.7802 199.387 72.4075 197.622 Q70.0638 195.828 65.6657 195.828 Q63.2641 195.828 60.5152 196.349 Q57.7664 196.869 54.4678 197.969 L54.4678 192.761 Q57.7953 191.835 60.6888 191.372 Q63.6113 190.909 66.1865 190.909 Q72.8416 190.909 76.7189 193.947 Q80.5961 196.956 80.5961 202.107 Q80.5961 205.695 78.5418 208.183 Q76.4874 210.642 72.6969 211.597 Z" fill="#000000" fill-rule="nonzero" fill-opacity="1" /><path clip-path="url(#clip430)" d="M105.191 195.538 Q100.677 195.538 98.3912 199.994 Q96.1343 204.421 96.1343 213.333 Q96.1343 222.216 98.3912 226.672 Q100.677 231.099 105.191 231.099 Q109.734 231.099 111.991 226.672 Q114.277 222.216 114.277 213.333 Q114.277 204.421 111.991 199.994 Q109.734 195.538 105.191 195.538 M105.191 190.909 Q112.454 190.909 116.273 196.667 Q120.121 202.396 120.121 213.333 Q120.121 224.242 116.273 230 Q112.454 235.729 105.191 235.729 Q97.9282 235.729 94.0799 230 Q90.2604 224.242 90.2604 213.333 Q90.2604 202.396 94.0799 196.667 Q97.9282 190.909 105.191 190.909 Z" fill="#000000" fill-rule="nonzero" fill-opacity="1" /><path clip-path="url(#clip430)" d="M142.893 195.538 Q138.379 195.538 136.094 199.994 Q133.837 204.421 133.837 213.333 Q133.837 222.216 136.094 226.672 Q138.379 231.099 142.893 231.099 Q147.436 231.099 149.693 226.672 Q151.979 222.216 151.979 213.333 Q151.979 204.421 149.693 199.994 Q147.436 195.538 142.893 195.538 M142.893 190.909 Q150.156 190.909 153.975 196.667 Q157.824 202.396 157.824 213.333 Q157.824 224.242 153.975 230 Q150.156 235.729 142.893 235.729 Q135.631 235.729 131.782 230 Q127.963 224.242 127.963 213.333 Q127.963 202.396 131.782 196.667 Q135.631 190.909 142.893 190.909 Z" fill="#000000" fill-rule="nonzero" fill-opacity="1" /><polyline clip-path="url(#clip432)" style="stroke:#009af9; stroke-linecap:round; stroke-linejoin:round; stroke-width:10; stroke-opacity:1; fill:none" points="237.775,522.491 265.996,522.94 294.216,524.284 322.437,526.518 350.658,529.63 378.879,533.605 407.1,538.424 435.321,544.063 463.541,550.496 491.762,557.692 519.983,565.617 548.204,574.233 576.425,583.502 604.646,593.382 632.867,603.826 661.087,614.791 689.308,626.227 717.529,638.087 745.75,650.32 773.971,662.877 802.192,675.708 830.413,688.762 858.633,701.991 886.854,715.345 915.075,728.778 943.296,742.243 971.517,755.696 999.738,769.094 1027.96,782.396 1056.18,795.565 1084.4,808.565 1112.62,821.361 1140.84,833.923 1169.06,846.222 1197.28,858.234 1225.5,869.935 1253.73,881.304 1281.95,892.326 1310.17,902.983 1338.39,913.266 1366.61,923.163 1394.83,932.668 1423.05,941.776 1451.27,950.483 1479.49,958.79 1507.71,966.698 1535.93,974.209 1564.15,981.329 1592.38,988.063 1620.6,994.42 1648.82,1000.41 1677.04,1006.04 1705.26,1011.32 1733.48,1016.26 1761.7,1020.88 1789.92,1025.19 1818.14,1029.2 1846.36,1032.92 1874.58,1036.38 1902.8,1039.57 "/>
<polyline clip-path="url(#clip432)" style="stroke:#e26f46; stroke-linecap:round; stroke-linejoin:round; stroke-width:8; stroke-opacity:0.5; fill:none" points="237.775,768.503 265.996,768.767 294.216,769.556 322.437,770.866 350.658,772.691 378.879,775.021 407.1,777.845 435.321,781.147 463.541,784.91 491.762,789.117 519.983,793.745 548.204,798.773 576.425,804.175 604.646,809.925 632.867,815.996 661.087,822.361 689.308,828.988 717.529,835.85 745.75,842.915 773.971,850.154 802.192,857.536 830.413,865.031 858.633,872.609 886.854,880.242 915.075,887.902 943.296,895.561 971.517,903.193 999.738,910.773 1027.96,918.279 1056.18,925.687 1084.4,932.978 1112.62,940.133 1140.84,947.134 1169.06,953.967 1197.28,960.616 1225.5,967.071 1253.73,973.32 1281.95,979.355 1310.17,985.169 1338.39,990.756 1366.61,996.111 1394.83,1001.23 1423.05,1006.12 1451.27,1010.77 1479.49,1015.19 1507.71,1019.38 1535.93,1023.34 1564.15,1027.07 1592.38,1030.59 1620.6,1033.89 1648.82,1036.98 1677.04,1039.87 1705.26,1042.57 1733.48,1045.09 1761.7,1047.43 1789.92,1049.59 1818.14,1051.6 1846.36,1053.45 1874.58,1055.16 1902.8,1056.73 "/>
<polyline clip-path="url(#clip432)" style="stroke:#3da44d; stroke-linecap:round; stroke-linejoin:round; stroke-width:8; stroke-opacity:0.5; fill:none" points="237.775,755.692 265.996,755.96 294.216,756.765 322.437,758.101 350.658,759.962 378.879,762.339 407.1,765.22 435.321,768.589 463.541,772.431 491.762,776.727 519.983,781.454 548.204,786.591 576.425,792.113 604.646,797.994 632.867,804.206 661.087,810.722 689.308,817.511 717.529,824.543 745.75,831.79 773.971,839.219 802.192,846.8 830.413,854.503 858.633,862.299 886.854,870.157 915.075,878.049 943.296,885.948 971.517,893.826 999.738,901.659 1027.96,909.422 1056.18,917.094 1084.4,924.651 1112.62,932.076 1140.84,939.35 1169.06,946.457 1197.28,953.383 1225.5,960.114 1253.73,966.64 1281.95,972.951 1310.17,979.038 1338.39,984.897 1366.61,990.521 1394.83,995.909 1423.05,1001.06 1451.27,1005.97 1479.49,1010.63 1507.71,1015.07 1535.93,1019.26 1564.15,1023.23 1592.38,1026.97 1620.6,1030.49 1648.82,1033.79 1677.04,1036.89 1705.26,1039.78 1733.48,1042.49 1761.7,1045 1789.92,1047.34 1818.14,1049.5 1846.36,1051.51 1874.58,1053.36 1902.8,1055.07 "/>
<polyline clip-path="url(#clip432)" style="stroke:#c271d2; stroke-linecap:round; stroke-linejoin:round; stroke-width:8; stroke-opacity:0.5; fill:none" points="237.775,365.394 265.996,365.897 294.216,367.403 322.437,369.906 350.658,373.395 378.879,377.856 407.1,383.269 435.321,389.611 463.541,396.857 491.762,404.976 519.983,413.935 548.204,423.696 576.425,434.221 604.646,445.468 632.867,457.391 661.087,469.944 689.308,483.08 717.529,496.748 745.75,510.897 773.971,525.476 802.192,540.433 830.413,555.716 858.633,571.271 886.854,587.048 915.075,602.994 943.296,619.061 971.517,635.198 999.738,651.359 1027.96,667.496 1056.18,683.566 1084.4,699.527 1112.62,715.339 1140.84,730.963 1169.06,746.366 1197.28,761.513 1225.5,776.375 1253.73,790.923 1281.95,805.134 1310.17,818.985 1338.39,832.455 1366.61,845.529 1394.83,858.191 1423.05,870.43 1451.27,882.236 1479.49,893.601 1507.71,904.522 1535.93,914.994 1564.15,925.018 1592.38,934.594 1620.6,943.726 1648.82,952.418 1677.04,960.675 1705.26,968.506 1733.48,975.919 1761.7,982.924 1789.92,989.532 1818.14,995.753 1846.36,1001.6 1874.58,1007.09 1902.8,1012.23 "/>
<polyline clip-path="url(#clip432)" style="stroke:#ac8d18; stroke-linecap:round; stroke-linejoin:round; stroke-width:8; stroke-opacity:0.5; fill:none" points="237.775,76.6465 265.996,77.4116 294.216,79.7034 322.437,83.5113 350.658,88.8178 378.879,95.5986 407.1,103.823 435.321,113.453 463.541,124.445 491.762,136.751 519.983,150.316 548.204,165.079 576.425,180.977 604.646,197.942 632.867,215.9 661.087,234.778 689.308,254.497 717.529,274.978 745.75,296.14 773.971,317.899 802.192,340.174 830.413,362.882 858.633,385.94 886.854,409.267 915.075,432.784 943.296,456.413 971.517,480.078 999.738,503.706 1027.96,527.229 1056.18,550.578 1084.4,573.693 1112.62,596.512 1140.84,618.983 1169.06,641.052 1197.28,662.675 1225.5,683.807 1253.73,704.412 1281.95,724.456 1310.17,743.91 1338.39,762.748 1366.61,780.949 1394.83,798.497 1423.05,815.38 1451.27,831.587 1479.49,847.113 1507.71,861.956 1535.93,876.118 1564.15,889.602 1592.38,902.415 1620.6,914.566 1648.82,926.067 1677.04,936.932 1705.26,947.175 1733.48,956.815 1761.7,965.868 1789.92,974.356 1818.14,982.298 1846.36,989.715 1874.58,996.63 1902.8,1003.06 "/>
<polyline clip-path="url(#clip432)" style="stroke:#00a9ad; stroke-linecap:round; stroke-linejoin:round; stroke-width:8; stroke-opacity:0.5; fill:none" points="237.775,117.018 265.996,117.768 294.216,120.015 322.437,123.749 350.658,128.952 378.879,135.6 407.1,143.661 435.321,153.098 463.541,163.869 491.762,175.922 519.983,189.204 548.204,203.655 576.425,219.211 604.646,235.804 632.867,253.361 661.087,271.808 689.308,291.068 717.529,311.06 745.75,331.705 773.971,352.92 802.192,374.624 830.413,396.734 858.633,419.169 886.854,441.849 915.075,464.696 943.296,487.632 971.517,510.584 999.738,533.48 1027.96,556.253 1056.18,578.837 1084.4,601.171 1112.62,623.197 1140.84,644.864 1169.06,666.121 1197.28,686.923 1225.5,707.231 1253.73,727.009 1281.95,746.224 1310.17,764.849 1338.39,782.862 1366.61,800.243 1394.83,816.978 1423.05,833.054 1451.27,848.466 1479.49,863.209 1507.71,877.282 1535.93,890.688 1564.15,903.433 1592.38,915.523 1620.6,926.971 1648.82,937.788 1677.04,947.989 1705.26,957.591 1733.48,966.61 1761.7,975.065 1789.92,982.977 1818.14,990.367 1846.36,997.256 1874.58,1003.67 1902.8,1009.62 "/>
<polyline clip-path="url(#clip432)" style="stroke:#ed5d92; stroke-linecap:round; stroke-linejoin:round; stroke-width:8; stroke-opacity:0.5; fill:none" points="237.775,644.629 265.996,645.03 294.216,646.231 322.437,648.224 350.658,651 378.879,654.541 407.1,658.829 435.321,663.839 463.541,669.545 491.762,675.915 519.983,682.916 548.204,690.508 576.425,698.654 604.646,707.311 632.867,716.435 661.087,725.98 689.308,735.899 717.529,746.146 745.75,756.671 773.971,767.429 802.192,778.369 830.413,789.447 858.633,800.615 886.854,811.829 915.075,823.046 943.296,834.224 971.517,845.325 999.738,856.311 1027.96,867.147 1056.18,877.801 1084.4,888.244 1112.62,898.449 1140.84,908.392 1169.06,918.052 1197.28,927.41 1225.5,936.451 1253.73,945.162 1281.95,953.532 1310.17,961.553 1338.39,969.221 1366.61,976.532 1394.83,983.485 1423.05,990.081 1451.27,996.323 1479.49,1002.22 1507.71,1007.77 1535.93,1012.98 1564.15,1017.87 1592.38,1022.44 1620.6,1026.7 1648.82,1030.67 1677.04,1034.36 1705.26,1037.77 1733.48,1040.93 1761.7,1043.84 1789.92,1046.52 1818.14,1048.99 1846.36,1051.24 1874.58,1053.3 1902.8,1055.19 "/>
<path clip-path="url(#clip430)" d="M1342.55 211.474 L1893.92 211.474 L1893.92 81.8736 L1342.55 81.8736  Z" fill="#ffffff" fill-rule="evenodd" fill-opacity="1"/>
<polyline clip-path="url(#clip430)" style="stroke:#000000; stroke-linecap:round; stroke-linejoin:round; stroke-width:4; stroke-opacity:1; fill:none" points="1342.55,211.474 1893.92,211.474 1893.92,81.8736 1342.55,81.8736 1342.55,211.474 "/>
<polyline clip-path="url(#clip430)" style="stroke:#009af9; stroke-linecap:round; stroke-linejoin:round; stroke-width:12.5; stroke-opacity:1; fill:none" points="1362.16,146.674 1479.82,146.674 "/>
<path clip-path="url(#clip430)" d="M1499.43 123.251 L1504.79 123.251 L1504.79 149.842 L1520.67 135.866 L1527.47 135.866 L1510.28 151.028 L1528.19 168.274 L1521.25 168.274 L1504.79 152.446 L1504.79 168.274 L1499.43 168.274 L1499.43 123.251 Z" fill="#000000" fill-rule="nonzero" fill-opacity="1" /><path clip-path="url(#clip430)" d="M1559.56 150.739 L1559.56 153.343 L1535.08 153.343 Q1535.43 158.841 1538.38 161.734 Q1541.36 164.599 1546.65 164.599 Q1549.72 164.599 1552.59 163.846 Q1555.48 163.094 1558.32 161.59 L1558.32 166.624 Q1555.45 167.84 1552.44 168.476 Q1549.43 169.113 1546.34 169.113 Q1538.58 169.113 1534.04 164.599 Q1529.52 160.085 1529.52 152.388 Q1529.52 144.431 1533.81 139.773 Q1538.12 135.085 1545.41 135.085 Q1551.95 135.085 1555.74 139.31 Q1559.56 143.505 1559.56 150.739 M1554.24 149.176 Q1554.18 144.807 1551.78 142.203 Q1549.4 139.599 1545.47 139.599 Q1541.01 139.599 1538.32 142.116 Q1535.66 144.634 1535.25 149.205 L1554.24 149.176 Z" fill="#000000" fill-rule="nonzero" fill-opacity="1" /><path clip-path="url(#clip430)" d="M1587.08 140.843 Q1586.18 140.322 1585.11 140.091 Q1584.07 139.83 1582.79 139.83 Q1578.28 139.83 1575.85 142.782 Q1573.45 145.704 1573.45 151.202 L1573.45 168.274 L1568.1 168.274 L1568.1 135.866 L1573.45 135.866 L1573.45 140.901 Q1575.13 137.95 1577.82 136.532 Q1580.51 135.085 1584.36 135.085 Q1584.91 135.085 1585.57 135.172 Q1586.24 135.23 1587.05 135.374 L1587.08 140.843 Z" fill="#000000" fill-rule="nonzero" fill-opacity="1" /><path clip-path="url(#clip430)" d="M1618.56 148.713 L1618.56 168.274 L1613.23 168.274 L1613.23 148.887 Q1613.23 144.286 1611.44 142.001 Q1609.65 139.715 1606.06 139.715 Q1601.75 139.715 1599.26 142.464 Q1596.77 145.212 1596.77 149.958 L1596.77 168.274 L1591.42 168.274 L1591.42 135.866 L1596.77 135.866 L1596.77 140.901 Q1598.68 137.979 1601.25 136.532 Q1603.86 135.085 1607.24 135.085 Q1612.83 135.085 1615.69 138.557 Q1618.56 142.001 1618.56 148.713 Z" fill="#000000" fill-rule="nonzero" fill-opacity="1" /><path clip-path="url(#clip430)" d="M1656.9 150.739 L1656.9 153.343 L1632.42 153.343 Q1632.76 158.841 1635.72 161.734 Q1638.7 164.599 1643.99 164.599 Q1647.06 164.599 1649.92 163.846 Q1652.82 163.094 1655.65 161.59 L1655.65 166.624 Q1652.79 167.84 1649.78 168.476 Q1646.77 169.113 1643.67 169.113 Q1635.92 169.113 1631.38 164.599 Q1626.86 160.085 1626.86 152.388 Q1626.86 144.431 1631.14 139.773 Q1635.46 135.085 1642.75 135.085 Q1649.29 135.085 1653.08 139.31 Q1656.9 143.505 1656.9 150.739 M1651.57 149.176 Q1651.51 144.807 1649.11 142.203 Q1646.74 139.599 1642.81 139.599 Q1638.35 139.599 1635.66 142.116 Q1633 144.634 1632.59 149.205 L1651.57 149.176 Z" fill="#000000" fill-rule="nonzero" fill-opacity="1" /><path clip-path="url(#clip430)" d="M1665.64 123.251 L1670.96 123.251 L1670.96 168.274 L1665.64 168.274 L1665.64 123.251 Z" fill="#000000" fill-rule="nonzero" fill-opacity="1" /><path clip-path="url(#clip430)" d="M1726.17 142.087 Q1728.16 138.499 1730.94 136.792 Q1733.72 135.085 1737.48 135.085 Q1742.54 135.085 1745.29 138.644 Q1748.04 142.174 1748.04 148.713 L1748.04 168.274 L1742.69 168.274 L1742.69 148.887 Q1742.69 144.229 1741.04 141.972 Q1739.39 139.715 1736.01 139.715 Q1731.87 139.715 1729.47 142.464 Q1727.06 145.212 1727.06 149.958 L1727.06 168.274 L1721.71 168.274 L1721.71 148.887 Q1721.71 144.2 1720.06 141.972 Q1718.41 139.715 1714.97 139.715 Q1710.89 139.715 1708.49 142.492 Q1706.09 145.241 1706.09 149.958 L1706.09 168.274 L1700.73 168.274 L1700.73 135.866 L1706.09 135.866 L1706.09 140.901 Q1707.91 137.921 1710.46 136.503 Q1713 135.085 1716.5 135.085 Q1720.03 135.085 1722.49 136.879 Q1724.98 138.673 1726.17 142.087 Z" fill="#000000" fill-rule="nonzero" fill-opacity="1" /><path clip-path="url(#clip430)" d="M1771.22 139.599 Q1766.94 139.599 1764.45 142.955 Q1761.96 146.283 1761.96 152.099 Q1761.96 157.915 1764.42 161.271 Q1766.91 164.599 1771.22 164.599 Q1775.47 164.599 1777.96 161.242 Q1780.45 157.886 1780.45 152.099 Q1780.45 146.341 1777.96 142.984 Q1775.47 139.599 1771.22 139.599 M1771.22 135.085 Q1778.16 135.085 1782.13 139.599 Q1786.09 144.113 1786.09 152.099 Q1786.09 160.056 1782.13 164.599 Q1778.16 169.113 1771.22 169.113 Q1764.25 169.113 1760.28 164.599 Q1756.35 160.056 1756.35 152.099 Q1756.35 144.113 1760.28 139.599 Q1764.25 135.085 1771.22 135.085 Z" fill="#000000" fill-rule="nonzero" fill-opacity="1" /><path clip-path="url(#clip430)" d="M1816.24 140.785 L1816.24 123.251 L1821.57 123.251 L1821.57 168.274 L1816.24 168.274 L1816.24 163.412 Q1814.56 166.306 1811.99 167.724 Q1809.44 169.113 1805.85 169.113 Q1799.98 169.113 1796.28 164.425 Q1792.6 159.738 1792.6 152.099 Q1792.6 144.46 1796.28 139.773 Q1799.98 135.085 1805.85 135.085 Q1809.44 135.085 1811.99 136.503 Q1814.56 137.892 1816.24 140.785 M1798.1 152.099 Q1798.1 157.973 1800.5 161.329 Q1802.93 164.657 1807.16 164.657 Q1811.38 164.657 1813.81 161.329 Q1816.24 157.973 1816.24 152.099 Q1816.24 146.225 1813.81 142.898 Q1811.38 139.541 1807.16 139.541 Q1802.93 139.541 1800.5 142.898 Q1798.1 146.225 1798.1 152.099 Z" fill="#000000" fill-rule="nonzero" fill-opacity="1" /><path clip-path="url(#clip430)" d="M1860.25 150.739 L1860.25 153.343 L1835.77 153.343 Q1836.12 158.841 1839.07 161.734 Q1842.05 164.599 1847.35 164.599 Q1850.41 164.599 1853.28 163.846 Q1856.17 163.094 1859.01 161.59 L1859.01 166.624 Q1856.14 167.84 1853.13 168.476 Q1850.12 169.113 1847.03 169.113 Q1839.27 169.113 1834.73 164.599 Q1830.22 160.085 1830.22 152.388 Q1830.22 144.431 1834.5 139.773 Q1838.81 135.085 1846.1 135.085 Q1852.64 135.085 1856.43 139.31 Q1860.25 143.505 1860.25 150.739 M1854.93 149.176 Q1854.87 144.807 1852.47 142.203 Q1850.1 139.599 1846.16 139.599 Q1841.7 139.599 1839.01 142.116 Q1836.35 144.634 1835.95 149.205 L1854.93 149.176 Z" fill="#000000" fill-rule="nonzero" fill-opacity="1" /><path clip-path="url(#clip430)" d="M1868.99 123.251 L1874.31 123.251 L1874.31 168.274 L1868.99 168.274 L1868.99 123.251 Z" fill="#000000" fill-rule="nonzero" fill-opacity="1" /></svg>
