<?xml version="1.0" encoding="utf-8"?>
<svg xmlns="http://www.w3.org/2000/svg" xmlns:xlink="http://www.w3.org/1999/xlink" width="500" height="300" viewBox="0 0 2000 1200">
<defs>
  <clipPath id="clip670">
    <rect x="0" y="0" width="2000" height="1200"/>
  </clipPath>
</defs>
<path clip-path="url(#clip670)" d="M0 1200 L2000 1200 L2000 0 L0 0  Z" fill="#ffffff" fill-rule="evenodd" fill-opacity="1"/>
<defs>
  <clipPath id="clip671">
    <rect x="400" y="0" width="1401" height="1200"/>
  </clipPath>
</defs>
<path clip-path="url(#clip670)" d="M187.824 1086.13 L1952.76 1086.13 L1952.76 47.2441 L187.824 47.2441  Z" fill="#ffffff" fill-rule="evenodd" fill-opacity="1"/>
<defs>
  <clipPath id="clip672">
    <rect x="187" y="47" width="1766" height="1040"/>
  </clipPath>
</defs>
<polyline clip-path="url(#clip670)" style="stroke:#000000; stroke-linecap:round; stroke-linejoin:round; stroke-width:4; stroke-opacity:1; fill:none" points="187.824,1086.13 1952.76,1086.13 "/>
<polyline clip-path="url(#clip670)" style="stroke:#000000; stroke-linecap:round; stroke-linejoin:round; stroke-width:4; stroke-opacity:1; fill:none" points="209.554,1086.13 209.554,1067.23 "/>
<polyline clip-path="url(#clip670)" style="stroke:#000000; stroke-linecap:round; stroke-linejoin:round; stroke-width:4; stroke-opacity:1; fill:none" points="632.867,1086.13 632.867,1067.23 "/>
<polyline clip-path="url(#clip670)" style="stroke:#000000; stroke-linecap:round; stroke-linejoin:round; stroke-width:4; stroke-opacity:1; fill:none" points="1056.18,1086.13 1056.18,1067.23 "/>
<polyline clip-path="url(#clip670)" style="stroke:#000000; stroke-linecap:round; stroke-linejoin:round; stroke-width:4; stroke-opacity:1; fill:none" points="1479.49,1086.13 1479.49,1067.23 "/>
<polyline clip-path="url(#clip670)" style="stroke:#000000; stroke-linecap:round; stroke-linejoin:round; stroke-width:4; stroke-opacity:1; fill:none" points="1902.8,1086.13 1902.8,1067.23 "/>
<path clip-path="url(#clip670)" d="M209.554 1116.78 Q205.04 1116.78 202.754 1121.23 Q200.497 1125.66 200.497 1134.57 Q200.497 1143.45 202.754 1147.91 Q205.04 1152.34 209.554 1152.34 Q214.097 1152.34 216.354 1147.91 Q218.639 1143.45 218.639 1134.57 Q218.639 1125.66 216.354 1121.23 Q214.097 1116.78 209.554 1116.78 M209.554 1112.15 Q216.816 1112.15 220.636 1117.9 Q224.484 1123.63 224.484 1134.57 Q224.484 1145.48 220.636 1151.24 Q216.816 1156.97 209.554 1156.97 Q202.291 1156.97 198.443 1151.24 Q194.623 1145.48 194.623 1134.57 Q194.623 1123.63 198.443 1117.9 Q202.291 1112.15 209.554 1112.15 Z" fill="#000000" fill-rule="nonzero" fill-opacity="1" /><path clip-path="url(#clip670)" d="M620.714 1112.93 L643.659 1112.93 L643.659 1117.85 L626.067 1117.85 L626.067 1128.44 Q627.34 1128 628.613 1127.8 Q629.886 1127.57 631.159 1127.57 Q638.393 1127.57 642.618 1131.53 Q646.842 1135.5 646.842 1142.27 Q646.842 1149.24 642.502 1153.12 Q638.162 1156.97 630.262 1156.97 Q627.543 1156.97 624.707 1156.5 Q621.9 1156.04 618.891 1155.12 L618.891 1149.24 Q621.495 1150.66 624.273 1151.35 Q627.051 1152.05 630.147 1152.05 Q635.152 1152.05 638.075 1149.41 Q640.997 1146.78 640.997 1142.27 Q640.997 1137.75 638.075 1135.12 Q635.152 1132.49 630.147 1132.49 Q627.803 1132.49 625.459 1133.01 Q623.144 1133.53 620.714 1134.63 L620.714 1112.93 Z" fill="#000000" fill-rule="nonzero" fill-opacity="1" /><path clip-path="url(#clip670)" d="M1024.54 1151.21 L1034.09 1151.21 L1034.09 1118.25 L1023.7 1120.34 L1023.7 1115.01 L1034.03 1112.93 L1039.87 1112.93 L1039.87 1151.21 L1049.42 1151.21 L1049.42 1156.13 L1024.54 1156.13 L1024.54 1151.21 Z" fill="#000000" fill-rule="nonzero" fill-opacity="1" /><path clip-path="url(#clip670)" d="M1073.73 1116.78 Q1069.21 1116.78 1066.93 1121.23 Q1064.67 1125.66 1064.67 1134.57 Q1064.67 1143.45 1066.93 1147.91 Q1069.21 1152.34 1073.73 1152.34 Q1078.27 1152.34 1080.53 1147.91 Q1082.81 1143.45 1082.81 1134.57 Q1082.81 1125.66 1080.53 1121.23 Q1078.27 1116.78 1073.73 1116.78 M1073.73 1112.15 Q1080.99 1112.15 1084.81 1117.9 Q1088.66 1123.63 1088.66 1134.57 Q1088.66 1145.48 1084.81 1151.24 Q1080.99 1156.97 1073.73 1156.97 Q1066.47 1156.97 1062.62 1151.24 Q1058.8 1145.48 1058.8 1134.57 Q1058.8 1123.63 1062.62 1117.9 Q1066.47 1112.15 1073.73 1112.15 Z" fill="#000000" fill-rule="nonzero" fill-opacity="1" /><path clip-path="url(#clip670)" d="M1448.47 1151.21 L1458.02 1151.21 L1458.02 1118.25 L1447.63 1120.34 L1447.63 1115.01 L1457.96 1112.93 L1463.81 1112.93 L1463.81 1151.21 L1473.36 1151.21 L1473.36 1156.13 L1448.47 1156.13 L1448.47 1151.21 Z" fill="#000000" fill-rule="nonzero" fill-opacity="1" /><path clip-path="url(#clip670)" d="M1485.22 1112.93 L1508.17 1112.93 L1508.17 1117.85 L1490.57 1117.85 L1490.57 1128.44 Q1491.85 1128 1493.12 1127.8 Q1494.39 1127.57 1495.67 1127.57 Q1502.9 1127.57 1507.13 1131.53 Q1511.35 1135.5 1511.35 1142.27 Q1511.35 1149.24 1507.01 1153.12 Q1502.67 1156.97 1494.77 1156.97 Q1492.05 1156.97 1489.21 1156.5 Q1486.41 1156.04 1483.4 1155.12 L1483.4 1149.24 Q1486 1150.66 1488.78 1151.35 Q1491.56 1152.05 1494.65 1152.05 Q1499.66 1152.05 1502.58 1149.41 Q1505.5 1146.78 1505.5 1142.27 Q1505.5 1137.75 1502.58 1135.12 Q1499.66 1132.49 1494.65 1132.49 Q1492.31 1132.49 1489.97 1133.01 Q1487.65 1133.53 1485.22 1134.63 L1485.22 1112.93 Z" fill="#000000" fill-rule="nonzero" fill-opacity="1" /><path clip-path="url(#clip670)" d="M1876.27 1151.21 L1896.67 1151.21 L1896.67 1156.13 L1869.24 1156.13 L1869.24 1151.21 Q1872.57 1147.77 1878.3 1141.98 Q1884.06 1136.16 1885.53 1134.48 Q1888.34 1131.33 1889.44 1129.16 Q1890.57 1126.96 1890.57 1124.85 Q1890.57 1121.41 1888.13 1119.24 Q1885.73 1117.07 1881.86 1117.07 Q1879.11 1117.07 1876.04 1118.02 Q1873 1118.98 1869.53 1120.91 L1869.53 1115.01 Q1873.06 1113.59 1876.13 1112.87 Q1879.19 1112.15 1881.74 1112.15 Q1888.45 1112.15 1892.45 1115.5 Q1896.44 1118.86 1896.44 1124.47 Q1896.44 1127.13 1895.43 1129.54 Q1894.44 1131.91 1891.81 1135.15 Q1891.09 1135.99 1887.21 1140.01 Q1883.33 1144 1876.27 1151.21 Z" fill="#000000" fill-rule="nonzero" fill-opacity="1" /><path clip-path="url(#clip670)" d="M1921.44 1116.78 Q1916.93 1116.78 1914.64 1121.23 Q1912.38 1125.66 1912.38 1134.57 Q1912.38 1143.45 1914.64 1147.91 Q1916.93 1152.34 1921.44 1152.34 Q1925.98 1152.34 1928.24 1147.91 Q1930.52 1143.45 1930.52 1134.57 Q1930.52 1125.66 1928.24 1121.23 Q1925.98 1116.78 1921.44 1116.78 M1921.44 1112.15 Q1928.7 1112.15 1932.52 1117.9 Q1936.37 1123.63 1936.37 1134.57 Q1936.37 1145.48 1932.52 1151.24 Q1928.7 1156.97 1921.44 1156.97 Q1914.18 1156.97 1910.33 1151.24 Q1906.51 1145.48 1906.51 1134.57 Q1906.51 1123.63 1910.33 1117.9 Q1914.18 1112.15 1921.44 1112.15 Z" fill="#000000" fill-rule="nonzero" fill-opacity="1" /><polyline clip-path="url(#clip670)" style="stroke:#000000; stroke-linecap:round; stroke-linejoin:round; stroke-width:4; stroke-opacity:1; fill:none" points="187.824,1086.13 187.824,47.2441 "/>
<polyline clip-path="url(#clip670)" style="stroke:#000000; stroke-linecap:round; stroke-linejoin:round; stroke-width:4; stroke-opacity:1; fill:none" points="187.824,1066.95 206.721,1066.95 "/>
<polyline clip-path="url(#clip670)" style="stroke:#000000; stroke-linecap:round; stroke-linejoin:round; stroke-width:4; stroke-opacity:1; fill:none" points="187.824,794.143 206.721,794.143 "/>
<polyline clip-path="url(#clip670)" style="stroke:#000000; stroke-linecap:round; stroke-linejoin:round; stroke-width:4; stroke-opacity:1; fill:none" points="187.824,521.335 206.721,521.335 "/>
<polyline clip-path="url(#clip670)" style="stroke:#000000; stroke-linecap:round; stroke-linejoin:round; stroke-width:4; stroke-opacity:1; fill:none" points="187.824,248.527 206.721,248.527 "/>
<path clip-path="url(#clip670)" d="M142.893 1049.2 Q138.379 1049.2 136.094 1053.66 Q133.837 1058.08 133.837 1066.99 Q133.837 1075.88 136.094 1080.33 Q138.379 1084.76 142.893 1084.76 Q147.436 1084.76 149.693 1080.33 Q151.979 1075.88 151.979 1066.99 Q151.979 1058.08 149.693 1053.66 Q147.436 1049.2 142.893 1049.2 M142.893 1044.57 Q150.156 1044.57 153.975 1050.33 Q157.824 1056.06 157.824 1066.99 Q157.824 1077.9 153.975 1083.66 Q150.156 1089.39 142.893 1089.39 Q135.631 1089.39 131.782 1083.66 Q127.963 1077.9 127.963 1066.99 Q127.963 1056.06 131.782 1050.33 Q135.631 1044.57 142.893 1044.57 Z" fill="#000000" fill-rule="nonzero" fill-opacity="1" /><path clip-path="url(#clip670)" d="M56.0014 810.824 L65.5499 810.824 L65.5499 777.867 L55.1623 779.951 L55.1623 774.627 L65.4921 772.543 L71.3369 772.543 L71.3369 810.824 L80.8855 810.824 L80.8855 815.743 L56.0014 815.743 L56.0014 810.824 Z" fill="#000000" fill-rule="nonzero" fill-opacity="1" /><path clip-path="url(#clip670)" d="M105.191 776.392 Q100.677 776.392 98.3912 780.848 Q96.1343 785.275 96.1343 794.187 Q96.1343 803.07 98.3912 807.526 Q100.677 811.953 105.191 811.953 Q109.734 811.953 111.991 807.526 Q114.277 803.07 114.277 794.187 Q114.277 785.275 111.991 780.848 Q109.734 776.392 105.191 776.392 M105.191 771.762 Q112.454 771.762 116.273 777.52 Q120.121 783.249 120.121 794.187 Q120.121 805.095 116.273 810.853 Q112.454 816.582 105.191 816.582 Q97.9282 816.582 94.0799 810.853 Q90.2604 805.095 90.2604 794.187 Q90.2604 783.249 94.0799 777.52 Q97.9282 771.762 105.191 771.762 Z" fill="#000000" fill-rule="nonzero" fill-opacity="1" /><path clip-path="url(#clip670)" d="M142.893 776.392 Q138.379 776.392 136.094 780.848 Q133.837 785.275 133.837 794.187 Q133.837 803.07 136.094 807.526 Q138.379 811.953 142.893 811.953 Q147.436 811.953 149.693 807.526 Q151.979 803.07 151.979 794.187 Q151.979 785.275 149.693 780.848 Q147.436 776.392 142.893 776.392 M142.893 771.762 Q150.156 771.762 153.975 777.52 Q157.824 783.249 157.824 794.187 Q157.824 805.095 153.975 810.853 Q150.156 816.582 142.893 816.582 Q135.631 816.582 131.782 810.853 Q127.963 805.095 127.963 794.187 Q127.963 783.249 131.782 777.52 Q135.631 771.762 142.893 771.762 Z" fill="#000000" fill-rule="nonzero" fill-opacity="1" /><path clip-path="url(#clip670)" d="M60.0233 538.016 L80.4225 538.016 L80.4225 542.935 L52.9921 542.935 L52.9921 538.016 Q56.3197 534.573 62.0488 528.786 Q67.8069 522.97 69.2825 521.292 Q72.0892 518.138 73.1888 515.967 Q74.3172 513.768 74.3172 511.656 Q74.3172 508.213 71.8867 506.043 Q69.4851 503.873 65.6078 503.873 Q62.859 503.873 59.7919 504.828 Q56.7537 505.782 53.2815 507.721 L53.2815 501.818 Q56.8115 500.4 59.8787 499.677 Q62.9458 498.954 65.4921 498.954 Q72.205 498.954 76.198 502.31 Q80.1911 505.667 80.1911 511.28 Q80.1911 513.942 79.1783 516.344 Q78.1945 518.716 75.5614 521.957 Q74.8381 522.796 70.9608 526.818 Q67.0835 530.811 60.0233 538.016 Z" fill="#000000" fill-rule="nonzero" fill-opacity="1" /><path clip-path="url(#clip670)" d="M105.191 503.583 Q100.677 503.583 98.3912 508.039 Q96.1343 512.466 96.1343 521.378 Q96.1343 530.261 98.3912 534.717 Q100.677 539.144 105.191 539.144 Q109.734 539.144 111.991 534.717 Q114.277 530.261 114.277 521.378 Q114.277 512.466 111.991 508.039 Q109.734 503.583 105.191 503.583 M105.191 498.954 Q112.454 498.954 116.273 504.712 Q120.121 510.441 120.121 521.378 Q120.121 532.287 116.273 538.045 Q112.454 543.774 105.191 543.774 Q97.9282 543.774 94.0799 538.045 Q90.2604 532.287 90.2604 521.378 Q90.2604 510.441 94.0799 504.712 Q97.9282 498.954 105.191 498.954 Z" fill="#000000" fill-rule="nonzero" fill-opacity="1" /><path clip-path="url(#clip670)" d="M142.893 503.583 Q138.379 503.583 136.094 508.039 Q133.837 512.466 133.837 521.378 Q133.837 530.261 136.094 534.717 Q138.379 539.144 142.893 539.144 Q147.436 539.144 149.693 534.717 Q151.979 530.261 151.979 521.378 Q151.979 512.466 149.693 508.039 Q147.436 503.583 142.893 503.583 M142.893 498.954 Q150.156 498.954 153.975 504.712 Q157.824 510.441 157.824 521.378 Q157.824 532.287 153.975 538.045 Q150.156 543.774 142.893 543.774 Q135.631 543.774 131.782 538.045 Q127.963 532.287 127.963 521.378 Q127.963 510.441 131.782 504.712 Q135.631 498.954 142.893 498.954 Z" fill="#000000" fill-rule="nonzero" fill-opacity="1" /><path clip-path="url(#clip670)" d="M72.6969 246.834 Q76.8925 247.731 79.2362 250.567 Q81.6089 253.402 81.6089 257.569 Q81.6089 263.964 77.2107 267.465 Q72.8126 270.966 64.7108 270.966 Q61.9909 270.966 59.0974 270.416 Q56.2328 269.895 53.1657 268.825 L53.1657 263.182 Q55.5963 264.6 58.4898 265.323 Q61.3833 266.047 64.5372 266.047 Q70.0349 266.047 72.8994 263.877 Q75.7929 261.707 75.7929 257.569 Q75.7929 253.749 73.102 251.608 Q70.4399 249.438 65.6657 249.438 L60.631 249.438 L60.631 244.635 L65.8971 244.635 Q70.2085 244.635 72.4943 242.928 Q74.7802 241.192 74.7802 237.951 Q74.7802 234.623 72.4075 232.858 Q70.0638 231.064 65.6657 231.064 Q63.2641 231.064 60.5152 231.585 Q57.7664 232.106 54.4678 233.206 L54.4678 227.997 Q57.7953 227.071 60.6888 226.608 Q63.6113 226.145 66.1865 226.145 Q72.8416 226.145 76.7189 229.184 Q80.5961 232.193 80.5961 237.343 Q80.5961 240.931 78.5418 243.42 Q76.4874 245.879 72.6969 246.834 Z" fill="#000000" fill-rule="nonzero" fill-opacity="1" /><path clip-path="url(#clip670)" d="M105.191 230.775 Q100.677 230.775 98.3912 235.231 Q96.1343 239.658 96.1343 248.57 Q96.1343 257.453 98.3912 261.909 Q100.677 266.336 105.191 266.336 Q109.734 266.336 111.991 261.909 Q114.277 257.453 114.277 248.57 Q114.277 239.658 111.991 235.231 Q109.734 230.775 105.191 230.775 M105.191 226.145 Q112.454 226.145 116.273 231.903 Q120.121 237.633 120.121 248.57 Q120.121 259.479 116.273 265.237 Q112.454 270.966 105.191 270.966 Q97.9282 270.966 94.0799 265.237 Q90.2604 259.479 90.2604 248.57 Q90.2604 237.633 94.0799 231.903 Q97.9282 226.145 105.191 226.145 Z" fill="#000000" fill-rule="nonzero" fill-opacity="1" /><path clip-path="url(#clip670)" d="M142.893 230.775 Q138.379 230.775 136.094 235.231 Q133.837 239.658 133.837 248.57 Q133.837 257.453 136.094 261.909 Q138.379 266.336 142.893 266.336 Q147.436 266.336 149.693 261.909 Q151.979 257.453 151.979 248.57 Q151.979 239.658 149.693 235.231 Q147.436 230.775 142.893 230.775 M142.893 226.145 Q150.156 226.145 153.975 231.903 Q157.824 237.633 157.824 248.57 Q157.824 259.479 153.975 265.237 Q150.156 270.966 142.893 270.966 Q135.631 270.966 131.782 265.237 Q127.963 259.479 127.963 248.57 Q127.963 237.633 131.782 231.903 Q135.631 226.145 142.893 226.145 Z" fill="#000000" fill-rule="nonzero" fill-opacity="1" /><polyline clip-path="url(#clip672)" style="stroke:#009af9; stroke-linecap:round; stroke-linejoin:round; stroke-width:10; stroke-opacity:1; fill:none" points="237.775,570.523 265.996,570.876 294.216,571.934 322.437,573.692 350.658,576.143 378.879,579.276 407.1,583.078 435.321,587.534 463.541,592.624 491.762,598.327 519.983,604.62 548.204,611.477 576.425,618.87 604.646,626.771 632.867,635.147 661.087,643.966 689.308,653.194 717.529,662.797 745.75,672.738 773.971,682.981 802.192,693.49 830.413,704.228 858.633,715.158 886.854,726.244 915.075,737.45 943.296,748.741 971.517,760.081 999.738,771.439 1027.96,782.78 1056.18,794.075 1084.4,805.294 1112.62,816.409 1140.84,827.392 1169.06,838.22 1197.28,848.868 1225.5,859.317 1253.73,869.546 1281.95,879.539 1310.17,889.278 1338.39,898.751 1366.61,907.945 1394.83,916.851 1423.05,925.459 1451.27,933.763 1479.49,941.758 1507.71,949.441 1535.93,956.808 1564.15,963.861 1592.38,970.6 1620.6,977.026 1648.82,983.142 1677.04,988.954 1705.26,994.466 1733.48,999.685 1761.7,1004.62 1789.92,1009.27 1818.14,1013.65 1846.36,1017.77 1874.58,1021.63 1902.8,1025.25 "/>
<polyline clip-path="url(#clip672)" style="stroke:#e26f46; stroke-linecap:round; stroke-linejoin:round; stroke-width:8; stroke-opacity:0.5; fill:none" points="237.775,818.098 265.996,818.326 294.216,819.009 322.437,820.143 350.658,821.722 378.879,823.738 407.1,826.179 435.321,829.032 463.541,832.282 491.762,835.912 519.983,839.902 548.204,844.232 576.425,848.88 604.646,853.822 632.867,859.034 661.087,864.49 689.308,870.164 717.529,876.03 745.75,882.06 773.971,888.228 802.192,894.506 830.413,900.869 858.633,907.29 886.854,913.744 915.075,920.207 943.296,926.654 971.517,933.064 999.738,939.415 1027.96,945.688 1056.18,951.863 1084.4,957.924 1112.62,963.855 1140.84,969.642 1169.06,975.272 1197.28,980.735 1225.5,986.021 1253.73,991.122 1281.95,996.032 1310.17,1000.75 1338.39,1005.26 1366.61,1009.57 1394.83,1013.68 1423.05,1017.58 1451.27,1021.28 1479.49,1024.78 1507.71,1028.09 1535.93,1031.2 1564.15,1034.12 1592.38,1036.86 1620.6,1039.42 1648.82,1041.81 1677.04,1044.04 1705.26,1046.1 1733.48,1048.01 1761.7,1049.78 1789.92,1051.42 1818.14,1052.92 1846.36,1054.3 1874.58,1055.57 1902.8,1056.73 "/>
<polyline clip-path="url(#clip672)" style="stroke:#3da44d; stroke-linecap:round; stroke-linejoin:round; stroke-width:8; stroke-opacity:0.5; fill:none" points="237.775,716.408 265.996,716.634 294.216,717.311 322.437,718.437 350.658,720.006 378.879,722.013 407.1,724.451 435.321,727.31 463.541,730.579 491.762,734.245 519.983,738.296 548.204,742.716 576.425,747.489 604.646,752.597 632.867,758.022 661.087,763.744 689.308,769.744 717.529,776.001 745.75,782.493 773.971,789.199 802.192,796.096 830.413,803.162 858.633,810.375 886.854,817.712 915.075,825.151 943.296,832.671 971.517,840.249 999.738,847.865 1027.96,855.498 1056.18,863.128 1084.4,870.735 1112.62,878.303 1140.84,885.812 1169.06,893.246 1197.28,900.59 1225.5,907.829 1253.73,914.949 1281.95,921.937 1310.17,928.783 1338.39,935.475 1366.61,942.004 1394.83,948.361 1423.05,954.541 1451.27,960.535 1479.49,966.34 1507.71,971.951 1535.93,977.364 1564.15,982.578 1592.38,987.591 1620.6,992.402 1648.82,997.012 1677.04,1001.42 1705.26,1005.63 1733.48,1009.65 1761.7,1013.47 1789.92,1017.1 1818.14,1020.54 1846.36,1023.8 1874.58,1026.88 1902.8,1029.8 "/>
<polyline clip-path="url(#clip672)" style="stroke:#c271d2; stroke-linecap:round; stroke-linejoin:round; stroke-width:8; stroke-opacity:0.5; fill:none" points="237.775,446.587 265.996,447.033 294.216,448.369 322.437,450.59 350.658,453.686 378.879,457.644 407.1,462.446 435.321,468.073 463.541,474.5 491.762,481.702 519.983,489.646 548.204,498.302 576.425,507.633 604.646,517.602 632.867,528.169 661.087,539.293 689.308,550.93 717.529,563.036 745.75,575.565 773.971,588.471 802.192,601.709 830.413,615.23 858.633,628.99 886.854,642.94 915.075,657.036 943.296,671.234 971.517,685.489 999.738,699.759 1027.96,714.004 1056.18,728.183 1084.4,742.261 1112.62,756.201 1140.84,769.97 1169.06,783.537 1197.28,796.873 1225.5,809.951 1253.73,822.748 1281.95,835.241 1310.17,847.411 1338.39,859.241 1366.61,870.716 1394.83,881.824 1423.05,892.554 1451.27,902.898 1479.49,912.851 1507.71,922.408 1535.93,931.567 1564.15,940.328 1592.38,948.693 1620.6,956.663 1648.82,964.245 1677.04,971.442 1705.26,978.263 1733.48,984.716 1761.7,990.808 1789.92,996.55 1818.14,1001.95 1846.36,1007.03 1874.58,1011.79 1902.8,1016.24 "/>
<polyline clip-path="url(#clip672)" style="stroke:#ac8d18; stroke-linecap:round; stroke-linejoin:round; stroke-width:8; stroke-opacity:0.5; fill:none" points="237.775,76.6465 265.996,77.1931 294.216,78.8313 322.437,81.5556 350.658,85.357 378.879,90.2229 407.1,96.1375 435.321,103.081 463.541,111.032 491.762,119.963 519.983,129.846 548.204,140.649 576.425,152.339 604.646,164.878 632.867,178.226 661.087,192.344 689.308,207.188 717.529,222.712 745.75,238.871 773.971,255.617 802.192,272.902 830.413,290.677 858.633,308.891 886.854,327.495 915.075,346.438 943.296,365.671 971.517,385.144 999.738,404.808 1027.96,424.615 1056.18,444.517 1084.4,464.468 1112.62,484.423 1140.84,504.339 1169.06,524.173 1197.28,543.887 1225.5,563.44 1253.73,582.798 1281.95,601.925 1310.17,620.79 1338.39,639.362 1366.61,657.613 1394.83,675.518 1423.05,693.052 1451.27,710.195 1479.49,726.928 1507.71,743.234 1535.93,759.098 1564.15,774.508 1592.38,789.453 1620.6,803.925 1648.82,817.917 1677.04,831.426 1705.26,844.447 1733.48,856.98 1761.7,869.027 1789.92,880.588 1818.14,891.667 1846.36,902.27 1874.58,912.402 1902.8,922.071 "/>
<polyline clip-path="url(#clip672)" style="stroke:#00a9ad; stroke-linecap:round; stroke-linejoin:round; stroke-width:8; stroke-opacity:0.5; fill:none" points="237.775,363.926 265.996,364.477 294.216,366.131 322.437,368.877 350.658,372.704 378.879,377.593 407.1,383.522 435.321,390.464 463.541,398.386 491.762,407.252 519.983,417.022 548.204,427.652 576.425,439.096 604.646,451.302 632.867,464.218 661.087,477.79 689.308,491.959 717.529,506.669 745.75,521.859 773.971,537.469 802.192,553.44 830.413,569.71 858.633,586.22 886.854,602.912 915.075,619.727 943.296,636.609 971.517,653.504 999.738,670.359 1027.96,687.124 1056.18,703.751 1084.4,720.195 1112.62,736.414 1140.84,752.369 1169.06,768.024 1197.28,783.346 1225.5,798.304 1253.73,812.873 1281.95,827.029 1310.17,840.752 1338.39,854.024 1366.61,866.832 1394.83,879.166 1423.05,891.015 1451.27,902.376 1479.49,913.244 1507.71,923.62 1535.93,933.505 1564.15,942.904 1592.38,951.822 1620.6,960.266 1648.82,968.246 1677.04,975.772 1705.26,982.857 1733.48,989.513 1761.7,995.754 1789.92,1001.59 1818.14,1007.05 1846.36,1012.14 1874.58,1016.87 1902.8,1021.27 "/>
<polyline clip-path="url(#clip672)" style="stroke:#ed5d92; stroke-linecap:round; stroke-linejoin:round; stroke-width:8; stroke-opacity:0.5; fill:none" points="237.775,669.7 265.996,669.98 294.216,670.817 322.437,672.208 350.658,674.149 378.879,676.629 407.1,679.639 435.321,683.167 463.541,687.197 491.762,691.714 519.983,696.699 548.204,702.131 576.425,707.989 604.646,714.25 632.867,720.889 661.087,727.881 689.308,735.199 717.529,742.816 745.75,750.703 773.971,758.832 802.192,767.175 830.413,775.702 858.633,784.385 886.854,793.194 915.075,802.102 943.296,811.08 971.517,820.102 999.738,829.14 1027.96,838.17 1056.18,847.167 1084.4,856.107 1112.62,864.968 1140.84,873.728 1169.06,882.369 1197.28,890.871 1225.5,899.218 1253.73,907.394 1281.95,915.385 1310.17,923.178 1338.39,930.763 1366.61,938.128 1394.83,945.267 1423.05,952.172 1451.27,958.838 1479.49,965.259 1507.71,971.434 1535.93,977.36 1564.15,983.036 1592.38,988.464 1620.6,993.643 1648.82,998.578 1677.04,1003.27 1705.26,1007.72 1733.48,1011.94 1761.7,1015.93 1789.92,1019.7 1818.14,1023.25 1846.36,1026.59 1874.58,1029.73 1902.8,1032.67 "/>
<path clip-path="url(#clip670)" d="M1342.55 211.474 L1893.92 211.474 L1893.92 81.8736 L1342.55 81.8736  Z" fill="#ffffff" fill-rule="evenodd" fill-opacity="1"/>
<polyline clip-path="url(#clip670)" style="stroke:#000000; stroke-linecap:round; stroke-linejoin:round; stroke-width:4; stroke-opacity:1; fill:none" points="1342.55,211.474 1893.92,211.474 1893.92,81.8736 1342.55,81.8736 1342.55,211.474 "/>
<polyline clip-path="url(#clip670)" style="stroke:#009af9; stroke-linecap:round; stroke-linejoin:round; stroke-width:12.5; stroke-opacity:1; fill:none" points="1362.16,146.674 1479.82,146.674 "/>
<path clip-path="url(#clip670)" d="M1499.43 123.251 L1504.79 123.251 L1504.79 149.842 L1520.67 135.866 L1527.47 135.866 L1510.28 151.028 L1528.19 168.274 L1521.25 168.274 L1504.79 152.446 L1504.79 168.274 L1499.43 168.274 L1499.43 123.251 Z" fill="#000000" fill-rule="nonzero" fill-opacity="1" /><path clip-path="url(#clip670)" d="M1559.56 150.739 L1559.56 153.343 L1535.08 153.343 Q1535.43 158.841 1538.38 161.734 Q1541.36 164.599 1546.65 164.599 Q1549.72 164.599 1552.59 163.846 Q1555.48 163.094 1558.32 161.59 L1558.32 166.624 Q1555.45 167.84 1552.44 168.476 Q1549.43 169.113 1546.34 169.113 Q1538.58 169.113 1534.04 164.599 Q1529.52 160.085 1529.52 152.388 Q1529.52 144.431 1533.81 139.773 Q1538.12 135.085 1545.41 135.085 Q1551.95 135.085 1555.74 139.31 Q1559.56 143.505 1559.56 150.739 M1554.24 149.176 Q1554.18 144.807 1551.78 142.203 Q1549.4 139.599 1545.47 139.599 Q1541.01 139.599 1538.32 142.116 Q1535.66 144.634 1535.25 149.205 L1554.24 149.176 Z" fill="#000000" fill-rule="nonzero" fill-opacity="1" /><path clip-path="url(#clip670)" d="M1587.08 140.843 Q1586.18 140.322 1585.11 140.091 Q1584.07 139.83 1582.79 139.83 Q1578.28 139.83 1575.85 142.782 Q1573.45 145.704 1573.45 151.202 L1573.45 168.274 L1568.1 168.274 L1568.1 135.866 L1573.45 135.866 L1573.45 140.901 Q1575.13 137.95 1577.82 136.532 Q1580.51 135.085 1584.36 135.085 Q1584.91 135.085 1585.57 135.172 Q1586.24 135.23 1587.05 135.374 L1587.08 140.843 Z" fill="#000000" fill-rule="nonzero" fill-opacity="1" /><path clip-path="url(#clip670)" d="M1618.56 148.713 L1618.56 168.274 L1613.23 168.274 L1613.23 148.887 Q1613.23 144.286 1611.44 142.001 Q1609.65 139.715 1606.06 139.715 Q1601.75 139.715 1599.26 142.464 Q1596.77 145.212 1596.77 149.958 L1596.77 168.274 L1591.42 168.274 L1591.42 135.866 L1596.77 135.866 L1596.77 140.901 Q1598.68 137.979 1601.25 136.532 Q1603.86 135.085 1607.24 135.085 Q1612.83 135.085 1615.69 138.557 Q1618.56 142.001 1618.56 148.713 Z" fill="#000000" fill-rule="nonzero" fill-opacity="1" /><path clip-path="url(#clip670)" d="M1656.9 150.739 L1656.9 153.343 L1632.42 153.343 Q1632.76 158.841 1635.72 161.734 Q1638.7 164.599 1643.99 164.599 Q1647.06 164.599 1649.92 163.846 Q1652.82 163.094 1655.65 161.59 L1655.65 166.624 Q1652.79 167.84 1649.78 168.476 Q1646.77 169.113 1643.67 169.113 Q1635.92 169.113 1631.38 164.599 Q1626.86 160.085 1626.86 152.388 Q1626.86 144.431 1631.14 139.773 Q1635.46 135.085 1642.75 135.085 Q1649.29 135.085 1653.08 139.31 Q1656.9 143.505 1656.9 150.739 M1651.57 149.176 Q1651.51 144.807 1649.11 142.203 Q1646.74 139.599 1642.81 139.599 Q1638.35 139.599 1635.66 142.116 Q1633 144.634 1632.59 149.205 L1651.57 149.176 Z" fill="#000000" fill-rule="nonzero" fill-opacity="1" /><path clip-path="url(#clip670)" d="M1665.64 123.251 L1670.96 123.251 L1670.96 168.274 L1665.64 168.274 L1665.64 123.251 Z" fill="#000000" fill-rule="nonzero" fill-opacity="1" /><path clip-path="url(#clip670)" d="M1726.17 142.087 Q1728.16 138.499 1730.94 136.792 Q1733.72 135.085 1737.48 135.085 Q1742.54 135.085 1745.29 138.644 Q1748.04 142.174 1748.04 148.713 L1748.04 168.274 L1742.69 168.274 L1742.69 148.887 Q1742.69 144.229 1741.04 141.972 Q1739.39 139.715 1736.01 139.715 Q1731.87 139.715 1729.47 142.464 Q1727.06 145.212 1727.06 149.958 L1727.06 168.274 L1721.71 168.274 L1721.71 148.887 Q1721.71 144.2 1720.06 141.972 Q1718.41 139.715 1714.97 139.715 Q1710.89 139.715 1708.49 142.492 Q1706.09 145.241 1706.09 149.958 L1706.09 168.274 L1700.73 168.274 L1700.73 135.866 L1706.09 135.866 L1706.09 140.901 Q1707.91 137.921 1710.46 136.503 Q1713 135.085 1716.5 135.085 Q1720.03 135.085 1722.49 136.879 Q1724.98 138.673 1726.17 142.087 Z" fill="#000000" fill-rule="nonzero" fill-opacity="1" /><path clip-path="url(#clip670)" d="M1771.22 139.599 Q1766.94 139.599 1764.45 142.955 Q1761.96 146.283 1761.96 152.099 Q1761.96 157.915 1764.42 161.271 Q1766.91 164.599 1771.22 164.599 Q1775.47 164.599 1777.96 161.242 Q1780.45 157.886 1780.45 152.099 Q1780.45 146.341 1777.96 142.984 Q1775.47 139.599 1771.22 139.599 M1771.22 135.085 Q1778.16 135.085 1782.13 139.599 Q1786.09 144.113 1786.09 152.099 Q1786.09 160.056 1782.13 164.599 Q1778.16 169.113 1771.22 169.113 Q1764.25 169.113 1760.28 164.599 Q1756.35 160.056 1756.35 152.099 Q1756.35 144.113 1760.28 139.599 Q1764.25 135.085 1771.22 135.085 Z" fill="#000000" fill-rule="nonzero" fill-opacity="1" /><path clip-path="url(#clip670)" d="M1816.24 140.785 L1816.24 123.251 L1821.57 123.251 L1821.57 168.274 L1816.24 168.274 L1816.24 163.412 Q1814.56 166.306 1811.99 167.724 Q1809.44 169.113 1805.85 169.113 Q1799.98 169.113 1796.28 164.425 Q1792.6 159.738 1792.6 152.099 Q1792.6 144.46 1796.28 139.773 Q1799.98 135.085 1805.85 135.085 Q1809.44 135.085 1811.99 136.503 Q1814.56 137.892 1816.24 140.785 M1798.1 152.099 Q1798.1 157.973 1800.5 161.329 Q1802.93 164.657 1807.16 164.657 Q1811.38 164.657 1813.81 161.329 Q1816.24 157.973 1816.24 152.099 Q1816.24 146.225 1813.81 142.898 Q1811.38 139.541 1807.16 139.541 Q1802.93 139.541 1800.5 142.898 Q1798.1 146.225 1798.1 152.099 Z" fill="#000000" fill-rule="nonzero" fill-opacity="1" /><path clip-path="url(#clip670)" d="M1860.25 150.739 L1860.25 153.343 L1835.77 153.343 Q1836.12 158.841 1839.07 161.734 Q1842.05 164.599 1847.35 164.599 Q1850.41 164.599 1853.28 163.846 Q1856.17 163.094 1859.01 161.59 L1859.01 166.624 Q1856.14 167.84 1853.13 168.476 Q1850.12 169.113 1847.03 169.113 Q1839.27 169.113 1834.73 164.599 Q1830.22 160.085 1830.22 152.388 Q1830.22 144.431 1834.5 139.773 Q1838.81 135.085 1846.1 135.085 Q1852.64 135.085 1856.43 139.31 Q1860.25 143.505 1860.25 150.739 M1854.93 149.176 Q1854.87 144.807 1852.47 142.203 Q1850.1 139.599 1846.16 139.599 Q1841.7 139.599 1839.01 142.116 Q1836.35 144.634 1835.95 149.205 L1854.93 149.176 Z" fill="#000000" fill-rule="nonzero" fill-opacity="1" /><path clip-path="url(#clip670)" d="M1868.99 123.251 L1874.31 123.251 L1874.31 168.274 L1868.99 168.274 L1868.99 123.251 Z" fill="#000000" fill-rule="nonzero" fill-opacity="1" /></svg>
