<?xml version="1.0" encoding="utf-8"?>
<svg xmlns="http://www.w3.org/2000/svg" xmlns:xlink="http://www.w3.org/1999/xlink" width="500" height="300" viewBox="0 0 2000 1200">
<defs>
  <clipPath id="clip520">
    <rect x="0" y="0" width="2000" height="1200"/>
  </clipPath>
</defs>
<path clip-path="url(#clip520)" d="M0 1200 L2000 1200 L2000 0 L0 0  Z" fill="#ffffff" fill-rule="evenodd" fill-opacity="1"/>
<defs>
  <clipPath id="clip521">
    <rect x="400" y="0" width="1401" height="1200"/>
  </clipPath>
</defs>
<path clip-path="url(#clip520)" d="M187.824 1086.13 L1952.76 1086.13 L1952.76 47.2441 L187.824 47.2441  Z" fill="#ffffff" fill-rule="evenodd" fill-opacity="1"/>
<defs>
  <clipPath id="clip522">
    <rect x="187" y="47" width="1766" height="1040"/>
  </clipPath>
</defs>
<polyline clip-path="url(#clip520)" style="stroke:#000000; stroke-linecap:round; stroke-linejoin:round; stroke-width:4; stroke-opacity:1; fill:none" points="187.824,1086.13 1952.76,1086.13 "/>
<polyline clip-path="url(#clip520)" style="stroke:#000000; stroke-linecap:round; stroke-linejoin:round; stroke-width:4; stroke-opacity:1; fill:none" points="209.554,1086.13 209.554,1067.23 "/>
<polyline clip-path="url(#clip520)" style="stroke:#000000; stroke-linecap:round; stroke-linejoin:round; stroke-width:4; stroke-opacity:1; fill:none" points="632.867,1086.13 632.867,1067.23 "/>
<polyline clip-path="url(#clip520)" style="stroke:#000000; stroke-linecap:round; stroke-linejoin:round; stroke-width:4; stroke-opacity:1; fill:none" points="1056.18,1086.13 1056.18,1067.23 "/>
<polyline clip-path="url(#clip520)" style="stroke:#000000; stroke-linecap:round; stroke-linejoin:round; stroke-width:4; stroke-opacity:1; fill:none" points="1479.49,1086.13 1479.49,1067.23 "/>
<polyline clip-path="url(#clip520)" style="stroke:#000000; stroke-linecap:round; stroke-linejoin:round; stroke-width:4; stroke-opacity:1; fill:none" points="1902.8,1086.13 1902.8,1067.23 "/>
<path clip-path="url(#clip520)" d="M209.554 1116.78 Q205.04 1116.78 202.754 1121.23 Q200.497 1125.66 200.497 1134.57 Q200.497 1143.45 202.754 1147.91 Q205.04 1152.34 209.554 1152.34 Q214.097 1152.34 216.354 1147.91 Q218.639 1143.45 218.639 1134.57 Q218.639 1125.66 216.354 1121.23 Q214.097 1116.78 209.554 1116.78 M209.554 1112.15 Q216.816 1112.15 220.636 1117.9 Q224.484 1123.63 224.484 1134.57 Q224.484 1145.48 220.636 1151.24 Q216.816 1156.97 209.554 1156.97 Q202.291 1156.97 198.443 1151.24 Q194.623 1145.48 194.623 1134.57 Q194.623 1123.63 198.443 1117.9 Q202.291 1112.15 209.554 1112.15 Z" fill="#000000" fill-rule="nonzero" fill-opacity="1" /><path clip-path="url(#clip520)" d="M620.714 1112.93 L643.659 1112.93 L643.659 1117.85 L626.067 1117.85 L626.067 1128.44 Q627.34 1128 628.613 1127.8 Q629.886 1127.57 631.159 1127.57 Q638.393 1127.57 642.618 1131.53 Q646.842 1135.5 646.842 1142.27 Q646.842 1149.24 642.502 1153.12 Q638.162 1156.97 630.262 1156.97 Q627.543 1156.97 624.707 1156.5 Q621.9 1156.04 618.891 1155.12 L618.891 1149.24 Q621.495 1150.66 624.273 1151.35 Q627.051 1152.05 630.147 1152.05 Q635.152 1152.05 638.075 1149.41 Q640.997 1146.78 640.997 1142.27 Q640.997 1137.75 638.075 1135.12 Q635.152 1132.49 630.147 1132.49 Q627.803 1132.49 625.459 1133.01 Q623.144 1133.53 620.714 1134.63 L620.714 1112.93 Z" fill="#000000" fill-rule="nonzero" fill-opacity="1" /><path clip-path="url(#clip520)" d="M1024.54 1151.21 L1034.09 1151.21 L1034.09 1118.25 L1023.7 1120.34 L1023.7 1115.01 L1034.03 1112.93 L1039.87 1112.93 L1039.87 1151.21 L1049.42 1151.21 L1049.42 1156.13 L1024.54 1156.13 L1024.54 1151.21 Z" fill="#000000" fill-rule="nonzero" fill-opacity="1" /><path clip-path="url(#clip520)" d="M1073.73 1116.78 Q1069.21 1116.78 1066.93 1121.23 Q1064.67 1125.66 1064.67 1134.57 Q1064.67 1143.45 1066.93 1147.91 Q1069.21 1152.34 1073.73 1152.34 Q1078.27 1152.34 1080.53 1147.91 Q1082.81 1143.45 1082.81 1134.57 Q1082.81 1125.66 1080.53 1121.23 Q1078.27 1116.78 1073.73 1116.78 M1073.73 1112.15 Q1080.99 1112.15 1084.81 1117.9 Q1088.66 1123.63 1088.66 1134.57 Q1088.66 1145.48 1084.81 1151.24 Q1080.99 1156.97 1073.73 1156.97 Q1066.47 1156.97 1062.62 1151.24 Q1058.8 1145.48 1058.8 1134.57 Q1058.8 1123.63 1062.62 1117.9 Q1066.47 1112.15 1073.73 1112.15 Z" fill="#000000" fill-rule="nonzero" fill-opacity="1" /><path clip-path="url(#clip520)" d="M1448.47 1151.21 L1458.02 1151.21 L1458.02 1118.25 L1447.63 1120.34 L1447.63 1115.01 L1457.96 1112.93 L1463.81 1112.93 L1463.81 1151.21 L1473.36 1151.21 L1473.36 1156.13 L1448.47 1156.13 L1448.47 1151.21 Z" fill="#000000" fill-rule="nonzero" fill-opacity="1" /><path clip-path="url(#clip520)" d="M1485.22 1112.93 L1508.17 1112.93 L1508.17 1117.85 L1490.57 1117.85 L1490.57 1128.44 Q1491.85 1128 1493.12 1127.8 Q1494.39 1127.57 1495.67 1127.57 Q1502.9 1127.57 1507.13 1131.53 Q1511.35 1135.5 1511.35 1142.27 Q1511.35 1149.24 1507.01 1153.12 Q1502.67 1156.97 1494.77 1156.97 Q1492.05 1156.97 1489.21 1156.5 Q1486.41 1156.04 1483.4 1155.12 L1483.4 1149.24 Q1486 1150.66 1488.78 1151.35 Q1491.56 1152.05 1494.65 1152.05 Q1499.66 1152.05 1502.58 1149.41 Q1505.5 1146.78 1505.5 1142.27 Q1505.5 1137.75 1502.58 1135.12 Q1499.66 1132.49 1494.65 1132.49 Q1492.31 1132.49 1489.97 1133.01 Q1487.65 1133.53 1485.22 1134.63 L1485.22 1112.93 Z" fill="#000000" fill-rule="nonzero" fill-opacity="1" /><path clip-path="url(#clip520)" d="M1876.27 1151.21 L1896.67 1151.21 L1896.67 1156.13 L1869.24 1156.13 L1869.24 1151.21 Q1872.57 1147.77 1878.3 1141.98 Q1884.06 1136.16 1885.53 1134.48 Q1888.34 1131.33 1889.44 1129.16 Q1890.57 1126.96 1890.57 1124.85 Q1890.57 1121.41 1888.13 1119.24 Q1885.73 1117.07 1881.86 1117.07 Q1879.11 1117.07 1876.04 1118.02 Q1873 1118.98 1869.53 1120.91 L1869.53 1115.01 Q1873.06 1113.59 1876.13 1112.87 Q1879.19 1112.15 1881.74 1112.15 Q1888.45 1112.15 1892.45 1115.5 Q1896.44 1118.86 1896.44 1124.47 Q1896.44 1127.13 1895.43 1129.54 Q1894.44 1131.91 1891.81 1135.15 Q1891.09 1135.99 1887.21 1140.01 Q1883.33 1144 1876.27 1151.21 Z" fill="#000000" fill-rule="nonzero" fill-opacity="1" /><path clip-path="url(#clip520)" d="M1921.44 1116.78 Q1916.93 1116.78 1914.64 1121.23 Q1912.38 1125.66 1912.38 1134.57 Q1912.38 1143.45 1914.64 1147.91 Q1916.93 1152.34 1921.44 1152.34 Q1925.98 1152.34 1928.24 1147.91 Q1930.52 1143.45 1930.52 1134.57 Q1930.52 1125.66 1928.24 1121.23 Q1925.98 1116.78 1921.44 1116.78 M1921.44 1112.15 Q1928.7 1112.15 1932.52 1117.9 Q1936.37 1123.63 1936.37 1134.57 Q1936.37 1145.48 1932.52 1151.24 Q1928.7 1156.97 1921.44 1156.97 Q1914.18 1156.97 1910.33 1151.24 Q1906.51 1145.48 1906.51 1134.57 Q1906.51 1123.63 1910.33 1117.9 Q1914.18 1112.15 1921.44 1112.15 Z" fill="#000000" fill-rule="nonzero" fill-opacity="1" /><polyline clip-path="url(#clip520)" style="stroke:#000000; stroke-linecap:round; stroke-linejoin:round; stroke-width:4; stroke-opacity:1; fill:none" points="187.824,1086.13 187.824,47.2441 "/>
<polyline clip-path="url(#clip520)" style="stroke:#000000; stroke-linecap:round; stroke-linejoin:round; stroke-width:4; stroke-opacity:1; fill:none" points="187.824,1060.87 206.721,1060.87 "/>
<polyline clip-path="url(#clip520)" style="stroke:#000000; stroke-linecap:round; stroke-linejoin:round; stroke-width:4; stroke-opacity:1; fill:none" points="187.824,860.491 206.721,860.491 "/>
<polyline clip-path="url(#clip520)" style="stroke:#000000; stroke-linecap:round; stroke-linejoin:round; stroke-width:4; stroke-opacity:1; fill:none" points="187.824,660.113 206.721,660.113 "/>
<polyline clip-path="url(#clip520)" style="stroke:#000000; stroke-linecap:round; stroke-linejoin:round; stroke-width:4; stroke-opacity:1; fill:none" points="187.824,459.734 206.721,459.734 "/>
<polyline clip-path="url(#clip520)" style="stroke:#000000; stroke-linecap:round; stroke-linejoin:round; stroke-width:4; stroke-opacity:1; fill:none" points="187.824,259.355 206.721,259.355 "/>
<polyline clip-path="url(#clip520)" style="stroke:#000000; stroke-linecap:round; stroke-linejoin:round; stroke-width:4; stroke-opacity:1; fill:none" points="187.824,58.9764 206.721,58.9764 "/>
<path clip-path="url(#clip520)" d="M142.893 1043.12 Q138.379 1043.12 136.094 1047.57 Q133.837 1052 133.837 1060.91 Q133.837 1069.8 136.094 1074.25 Q138.379 1078.68 142.893 1078.68 Q147.436 1078.68 149.693 1074.25 Q151.979 1069.8 151.979 1060.91 Q151.979 1052 149.693 1047.57 Q147.436 1043.12 142.893 1043.12 M142.893 1038.49 Q150.156 1038.49 153.975 1044.25 Q157.824 1049.98 157.824 1060.91 Q157.824 1071.82 153.975 1077.58 Q150.156 1083.31 142.893 1083.31 Q135.631 1083.31 131.782 1077.58 Q127.963 1071.82 127.963 1060.91 Q127.963 1049.98 131.782 1044.25 Q135.631 1038.49 142.893 1038.49 Z" fill="#000000" fill-rule="nonzero" fill-opacity="1" /><path clip-path="url(#clip520)" d="M92.7489 838.891 L115.694 838.891 L115.694 843.81 L98.1018 843.81 L98.1018 854.4 Q99.375 853.966 100.648 853.764 Q101.921 853.532 103.194 853.532 Q110.428 853.532 114.653 857.497 Q118.877 861.461 118.877 868.231 Q118.877 875.205 114.537 879.082 Q110.197 882.93 102.297 882.93 Q99.5775 882.93 96.7419 882.467 Q93.9352 882.005 90.926 881.079 L90.926 875.205 Q93.5301 876.623 96.3079 877.317 Q99.0856 878.011 102.182 878.011 Q107.187 878.011 110.11 875.378 Q113.032 872.745 113.032 868.231 Q113.032 863.718 110.11 861.084 Q107.187 858.451 102.182 858.451 Q99.8379 858.451 97.4942 858.972 Q95.1794 859.493 92.7489 860.593 L92.7489 838.891 Z" fill="#000000" fill-rule="nonzero" fill-opacity="1" /><path clip-path="url(#clip520)" d="M142.893 842.74 Q138.379 842.74 136.094 847.196 Q133.837 851.623 133.837 860.535 Q133.837 869.418 136.094 873.874 Q138.379 878.301 142.893 878.301 Q147.436 878.301 149.693 873.874 Q151.979 869.418 151.979 860.535 Q151.979 851.623 149.693 847.196 Q147.436 842.74 142.893 842.74 M142.893 838.11 Q150.156 838.11 153.975 843.868 Q157.824 849.597 157.824 860.535 Q157.824 871.443 153.975 877.201 Q150.156 882.93 142.893 882.93 Q135.631 882.93 131.782 877.201 Q127.963 871.443 127.963 860.535 Q127.963 849.597 131.782 843.868 Q135.631 838.11 142.893 838.11 Z" fill="#000000" fill-rule="nonzero" fill-opacity="1" /><path clip-path="url(#clip520)" d="M56.0014 676.794 L65.5499 676.794 L65.5499 643.837 L55.1623 645.92 L55.1623 640.596 L65.4921 638.513 L71.3369 638.513 L71.3369 676.794 L80.8855 676.794 L80.8855 681.713 L56.0014 681.713 L56.0014 676.794 Z" fill="#000000" fill-rule="nonzero" fill-opacity="1" /><path clip-path="url(#clip520)" d="M105.191 642.361 Q100.677 642.361 98.3912 646.817 Q96.1343 651.244 96.1343 660.156 Q96.1343 669.039 98.3912 673.495 Q100.677 677.922 105.191 677.922 Q109.734 677.922 111.991 673.495 Q114.277 669.039 114.277 660.156 Q114.277 651.244 111.991 646.817 Q109.734 642.361 105.191 642.361 M105.191 637.731 Q112.454 637.731 116.273 643.489 Q120.121 649.219 120.121 660.156 Q120.121 671.064 116.273 676.823 Q112.454 682.552 105.191 682.552 Q97.9282 682.552 94.0799 676.823 Q90.2604 671.064 90.2604 660.156 Q90.2604 649.219 94.0799 643.489 Q97.9282 637.731 105.191 637.731 Z" fill="#000000" fill-rule="nonzero" fill-opacity="1" /><path clip-path="url(#clip520)" d="M142.893 642.361 Q138.379 642.361 136.094 646.817 Q133.837 651.244 133.837 660.156 Q133.837 669.039 136.094 673.495 Q138.379 677.922 142.893 677.922 Q147.436 677.922 149.693 673.495 Q151.979 669.039 151.979 660.156 Q151.979 651.244 149.693 646.817 Q147.436 642.361 142.893 642.361 M142.893 637.731 Q150.156 637.731 153.975 643.489 Q157.824 649.219 157.824 660.156 Q157.824 671.064 153.975 676.823 Q150.156 682.552 142.893 682.552 Q135.631 682.552 131.782 676.823 Q127.963 671.064 127.963 660.156 Q127.963 649.219 131.782 643.489 Q135.631 637.731 142.893 637.731 Z" fill="#000000" fill-rule="nonzero" fill-opacity="1" /><path clip-path="url(#clip520)" d="M56.0014 476.415 L65.5499 476.415 L65.5499 443.458 L55.1623 445.541 L55.1623 440.217 L65.4921 438.134 L71.3369 438.134 L71.3369 476.415 L80.8855 476.415 L80.8855 481.334 L56.0014 481.334 L56.0014 476.415 Z" fill="#000000" fill-rule="nonzero" fill-opacity="1" /><path clip-path="url(#clip520)" d="M92.7489 438.134 L115.694 438.134 L115.694 443.053 L98.1018 443.053 L98.1018 453.643 Q99.375 453.209 100.648 453.006 Q101.921 452.775 103.194 452.775 Q110.428 452.775 114.653 456.739 Q118.877 460.703 118.877 467.474 Q118.877 474.447 114.537 478.325 Q110.197 482.173 102.297 482.173 Q99.5775 482.173 96.7419 481.71 Q93.9352 481.247 90.926 480.321 L90.926 474.447 Q93.5301 475.865 96.3079 476.56 Q99.0856 477.254 102.182 477.254 Q107.187 477.254 110.11 474.621 Q113.032 471.988 113.032 467.474 Q113.032 462.96 110.11 460.327 Q107.187 457.694 102.182 457.694 Q99.8379 457.694 97.4942 458.215 Q95.1794 458.736 92.7489 459.835 L92.7489 438.134 Z" fill="#000000" fill-rule="nonzero" fill-opacity="1" /><path clip-path="url(#clip520)" d="M142.893 441.982 Q138.379 441.982 136.094 446.438 Q133.837 450.865 133.837 459.777 Q133.837 468.66 136.094 473.116 Q138.379 477.543 142.893 477.543 Q147.436 477.543 149.693 473.116 Q151.979 468.66 151.979 459.777 Q151.979 450.865 149.693 446.438 Q147.436 441.982 142.893 441.982 M142.893 437.353 Q150.156 437.353 153.975 443.111 Q157.824 448.84 157.824 459.777 Q157.824 470.686 153.975 476.444 Q150.156 482.173 142.893 482.173 Q135.631 482.173 131.782 476.444 Q127.963 470.686 127.963 459.777 Q127.963 448.84 131.782 443.111 Q135.631 437.353 142.893 437.353 Z" fill="#000000" fill-rule="nonzero" fill-opacity="1" /><path clip-path="url(#clip520)" d="M60.0233 276.036 L80.4225 276.036 L80.4225 280.955 L52.9921 280.955 L52.9921 276.036 Q56.3197 272.593 62.0488 266.806 Q67.8069 260.99 69.2825 259.312 Q72.0892 256.158 73.1888 253.988 Q74.3172 251.789 74.3172 249.676 Q74.3172 246.233 71.8867 244.063 Q69.4851 241.893 65.6078 241.893 Q62.859 241.893 59.7919 242.848 Q56.7537 243.803 53.2815 245.741 L53.2815 239.838 Q56.8115 238.421 59.8787 237.697 Q62.9458 236.974 65.4921 236.974 Q72.205 236.974 76.198 240.33 Q80.1911 243.687 80.1911 249.3 Q80.1911 251.962 79.1783 254.364 Q78.1945 256.736 75.5614 259.977 Q74.8381 260.816 70.9608 264.838 Q67.0835 268.831 60.0233 276.036 Z" fill="#000000" fill-rule="nonzero" fill-opacity="1" /><path clip-path="url(#clip520)" d="M105.191 241.603 Q100.677 241.603 98.3912 246.059 Q96.1343 250.487 96.1343 259.399 Q96.1343 268.282 98.3912 272.738 Q100.677 277.165 105.191 277.165 Q109.734 277.165 111.991 272.738 Q114.277 268.282 114.277 259.399 Q114.277 250.487 111.991 246.059 Q109.734 241.603 105.191 241.603 M105.191 236.974 Q112.454 236.974 116.273 242.732 Q120.121 248.461 120.121 259.399 Q120.121 270.307 116.273 276.065 Q112.454 281.794 105.191 281.794 Q97.9282 281.794 94.0799 276.065 Q90.2604 270.307 90.2604 259.399 Q90.2604 248.461 94.0799 242.732 Q97.9282 236.974 105.191 236.974 Z" fill="#000000" fill-rule="nonzero" fill-opacity="1" /><path clip-path="url(#clip520)" d="M142.893 241.603 Q138.379 241.603 136.094 246.059 Q133.837 250.487 133.837 259.399 Q133.837 268.282 136.094 272.738 Q138.379 277.165 142.893 277.165 Q147.436 277.165 149.693 272.738 Q151.979 268.282 151.979 259.399 Q151.979 250.487 149.693 246.059 Q147.436 241.603 142.893 241.603 M142.893 236.974 Q150.156 236.974 153.975 242.732 Q157.824 248.461 157.824 259.399 Q157.824 270.307 153.975 276.065 Q150.156 281.794 142.893 281.794 Q135.631 281.794 131.782 276.065 Q127.963 270.307 127.963 259.399 Q127.963 248.461 131.782 242.732 Q135.631 236.974 142.893 236.974 Z" fill="#000000" fill-rule="nonzero" fill-opacity="1" /><path clip-path="url(#clip520)" d="M60.0233 75.6574 L80.4225 75.6574 L80.4225 80.5764 L52.9921 80.5764 L52.9921 75.6574 Q56.3197 72.2141 62.0488 66.4271 Q67.8069 60.6112 69.2825 58.933 Q72.0892 55.7791 73.1888 53.6089 Q74.3172 51.4099 74.3172 49.2976 Q74.3172 45.8543 71.8867 43.6842 Q69.4851 41.5141 65.6078 41.5141 Q62.859 41.5141 59.7919 42.4689 Q56.7537 43.4238 53.2815 45.3624 L53.2815 39.4597 Q56.8115 38.0419 59.8787 37.3185 Q62.9458 36.5951 65.4921 36.5951 Q72.205 36.5951 76.198 39.9516 Q80.1911 43.3081 80.1911 48.9215 Q80.1911 51.5835 79.1783 53.9851 Q78.1945 56.3578 75.5614 59.5985 Q74.8381 60.4376 70.9608 64.4596 Q67.0835 68.4526 60.0233 75.6574 Z" fill="#000000" fill-rule="nonzero" fill-opacity="1" /><path clip-path="url(#clip520)" d="M92.7489 37.3764 L115.694 37.3764 L115.694 42.2953 L98.1018 42.2953 L98.1018 52.8855 Q99.375 52.4515 100.648 52.249 Q101.921 52.0175 103.194 52.0175 Q110.428 52.0175 114.653 55.9816 Q118.877 59.9457 118.877 66.7165 Q118.877 73.6898 114.537 77.5671 Q110.197 81.4155 102.297 81.4155 Q99.5775 81.4155 96.7419 80.9525 Q93.9352 80.4896 90.926 79.5636 L90.926 73.6898 Q93.5301 75.1077 96.3079 75.8021 Q99.0856 76.4965 102.182 76.4965 Q107.187 76.4965 110.11 73.8634 Q113.032 71.2304 113.032 66.7165 Q113.032 62.2026 110.11 59.5695 Q107.187 56.9365 102.182 56.9365 Q99.8379 56.9365 97.4942 57.4573 Q95.1794 57.9781 92.7489 59.0776 L92.7489 37.3764 Z" fill="#000000" fill-rule="nonzero" fill-opacity="1" /><path clip-path="url(#clip520)" d="M142.893 41.2247 Q138.379 41.2247 136.094 45.6807 Q133.837 50.1078 133.837 59.0198 Q133.837 67.9028 136.094 72.3588 Q138.379 76.7859 142.893 76.7859 Q147.436 76.7859 149.693 72.3588 Q151.979 67.9028 151.979 59.0198 Q151.979 50.1078 149.693 45.6807 Q147.436 41.2247 142.893 41.2247 M142.893 36.5951 Q150.156 36.5951 153.975 42.3532 Q157.824 48.0823 157.824 59.0198 Q157.824 69.9283 153.975 75.6864 Q150.156 81.4155 142.893 81.4155 Q135.631 81.4155 131.782 75.6864 Q127.963 69.9283 127.963 59.0198 Q127.963 48.0823 131.782 42.3532 Q135.631 36.5951 142.893 36.5951 Z" fill="#000000" fill-rule="nonzero" fill-opacity="1" /><polyline clip-path="url(#clip522)" style="stroke:#009af9; stroke-linecap:round; stroke-linejoin:round; stroke-width:10; stroke-opacity:1; fill:none" points="237.775,809.058 265.996,809.243 294.216,809.799 322.437,810.722 350.658,812.008 378.879,813.653 407.1,815.648 435.321,817.986 463.541,820.655 491.762,823.645 519.983,826.943 548.204,830.534 576.425,834.404 604.646,838.537 632.867,842.916 661.087,847.523 689.308,852.34 717.529,857.349 745.75,862.53 773.971,867.864 802.192,873.33 830.413,878.91 858.633,884.584 886.854,890.333 915.075,896.137 943.296,901.978 971.517,907.837 999.738,913.697 1027.96,919.542 1056.18,925.354 1084.4,931.118 1112.62,936.82 1140.84,942.446 1169.06,947.984 1197.28,953.421 1225.5,958.746 1253.73,963.951 1281.95,969.026 1310.17,973.963 1338.39,978.756 1366.61,983.398 1394.83,987.886 1423.05,992.216 1451.27,996.383 1479.49,1000.39 1507.71,1004.23 1535.93,1007.9 1564.15,1011.41 1592.38,1014.75 1620.6,1017.93 1648.82,1020.95 1677.04,1023.81 1705.26,1026.52 1733.48,1029.08 1761.7,1031.49 1789.92,1033.76 1818.14,1035.88 1846.36,1037.88 1874.58,1039.75 1902.8,1041.49 "/>
<polyline clip-path="url(#clip522)" style="stroke:#e26f46; stroke-linecap:round; stroke-linejoin:round; stroke-width:8; stroke-opacity:0.5; fill:none" points="237.775,587.865 265.996,588.199 294.216,589.2 322.437,590.863 350.658,593.181 378.879,596.145 407.1,599.742 435.321,603.957 463.541,608.772 491.762,614.169 519.983,620.124 548.204,626.614 576.425,633.612 604.646,641.09 632.867,649.021 661.087,657.371 689.308,666.111 717.529,675.206 745.75,684.624 773.971,694.33 802.192,704.29 830.413,714.469 858.633,724.832 886.854,735.345 915.075,745.975 943.296,756.688 971.517,767.451 999.738,778.233 1027.96,789.002 1056.18,799.731 1084.4,810.391 1112.62,820.954 1140.84,831.397 1169.06,841.694 1197.28,851.826 1225.5,861.77 1253.73,871.509 1281.95,881.026 1310.17,890.305 1338.39,899.335 1366.61,908.102 1394.83,916.597 1423.05,924.813 1451.27,932.741 1479.49,940.378 1507.71,947.72 1535.93,954.764 1564.15,961.511 1592.38,967.959 1620.6,974.112 1648.82,979.972 1677.04,985.542 1705.26,990.828 1733.48,995.835 1761.7,1000.57 1789.92,1005.04 1818.14,1009.25 1846.36,1013.21 1874.58,1016.93 1902.8,1020.41 "/>
<polyline clip-path="url(#clip522)" style="stroke:#3da44d; stroke-linecap:round; stroke-linejoin:round; stroke-width:8; stroke-opacity:0.5; fill:none" points="237.775,996.444 265.996,996.495 294.216,996.647 322.437,996.9 350.658,997.251 378.879,997.701 407.1,998.247 435.321,998.885 463.541,999.613 491.762,1000.43 519.983,1001.33 548.204,1002.3 576.425,1003.36 604.646,1004.48 632.867,1005.67 661.087,1006.91 689.308,1008.22 717.529,1009.57 745.75,1010.96 773.971,1012.4 802.192,1013.87 830.413,1015.36 858.633,1016.88 886.854,1018.41 915.075,1019.95 943.296,1021.5 971.517,1023.06 999.738,1024.6 1027.96,1026.14 1056.18,1027.67 1084.4,1029.18 1112.62,1030.66 1140.84,1032.13 1169.06,1033.56 1197.28,1034.97 1225.5,1036.34 1253.73,1037.67 1281.95,1038.97 1310.17,1040.23 1338.39,1041.44 1366.61,1042.62 1394.83,1043.74 1423.05,1044.83 1451.27,1045.87 1479.49,1046.86 1507.71,1047.81 1535.93,1048.72 1564.15,1049.57 1592.38,1050.39 1620.6,1051.16 1648.82,1051.89 1677.04,1052.58 1705.26,1053.22 1733.48,1053.83 1761.7,1054.4 1789.92,1054.93 1818.14,1055.43 1846.36,1055.89 1874.58,1056.33 1902.8,1056.73 "/>
<polyline clip-path="url(#clip522)" style="stroke:#c271d2; stroke-linecap:round; stroke-linejoin:round; stroke-width:8; stroke-opacity:0.5; fill:none" points="237.775,222.637 265.996,223.186 294.216,224.831 322.437,227.565 350.658,231.377 378.879,236.253 407.1,242.173 435.321,249.116 463.541,257.053 491.762,265.955 519.983,275.787 548.204,286.513 576.425,298.093 604.646,310.483 632.867,323.638 661.087,337.511 689.308,352.052 717.529,367.21 745.75,382.933 773.971,399.167 802.192,415.858 830.413,432.951 858.633,450.391 886.854,468.124 915.075,486.096 943.296,504.252 971.517,522.541 999.738,540.91 1027.96,559.31 1056.18,577.692 1084.4,596.01 1112.62,614.219 1140.84,632.277 1169.06,650.143 1197.28,667.78 1225.5,685.152 1253.73,702.226 1281.95,718.973 1310.17,735.364 1338.39,751.376 1366.61,766.985 1394.83,782.172 1423.05,796.92 1451.27,811.216 1479.49,825.046 1507.71,838.402 1535.93,851.276 1564.15,863.663 1592.38,875.562 1620.6,886.97 1648.82,897.89 1677.04,908.324 1705.26,918.277 1733.48,927.755 1761.7,936.766 1789.92,945.318 1818.14,953.422 1846.36,961.088 1874.58,968.329 1902.8,975.157 "/>
<polyline clip-path="url(#clip522)" style="stroke:#ac8d18; stroke-linecap:round; stroke-linejoin:round; stroke-width:8; stroke-opacity:0.5; fill:none" points="237.775,926.813 265.996,926.916 294.216,927.225 322.437,927.737 350.658,928.451 378.879,929.364 407.1,930.471 435.321,931.767 463.541,933.246 491.762,934.903 519.983,936.728 548.204,938.716 576.425,940.855 604.646,943.139 632.867,945.556 661.087,948.098 689.308,950.752 717.529,953.509 745.75,956.358 773.971,959.288 802.192,962.287 830.413,965.344 858.633,968.449 886.854,971.59 915.075,974.757 943.296,977.939 971.517,981.126 999.738,984.309 1027.96,987.477 1056.18,990.622 1084.4,993.736 1112.62,996.81 1140.84,999.837 1169.06,1002.81 1197.28,1005.72 1225.5,1008.57 1253.73,1011.35 1281.95,1014.05 1310.17,1016.67 1338.39,1019.21 1366.61,1021.66 1394.83,1024.03 1423.05,1026.31 1451.27,1028.49 1479.49,1030.59 1507.71,1032.59 1535.93,1034.5 1564.15,1036.32 1592.38,1038.05 1620.6,1039.68 1648.82,1041.24 1677.04,1042.7 1705.26,1044.08 1733.48,1045.39 1761.7,1046.61 1789.92,1047.75 1818.14,1048.83 1846.36,1049.83 1874.58,1050.76 1902.8,1051.63 "/>
<polyline clip-path="url(#clip522)" style="stroke:#00a9ad; stroke-linecap:round; stroke-linejoin:round; stroke-width:8; stroke-opacity:0.5; fill:none" points="237.775,76.6465 265.996,77.324 294.216,79.3538 322.437,82.7275 350.658,87.4312 378.879,93.4455 407.1,100.746 435.321,109.303 463.541,119.081 491.762,130.042 519.983,142.142 548.204,155.332 576.425,169.561 604.646,184.775 632.867,200.913 661.087,217.917 689.308,235.721 717.529,254.261 745.75,273.469 773.971,293.278 802.192,313.618 830.413,334.421 858.633,355.617 886.854,377.136 915.075,398.911 943.296,420.875 971.517,442.961 999.738,465.107 1027.96,487.249 1056.18,509.329 1084.4,531.288 1112.62,553.073 1140.84,574.632 1169.06,595.917 1197.28,616.881 1225.5,637.484 1253.73,657.687 1281.95,677.454 1310.17,696.753 1338.39,715.557 1366.61,733.841 1394.83,751.583 1423.05,768.765 1451.27,785.372 1479.49,801.393 1507.71,816.818 1535.93,831.642 1564.15,845.862 1592.38,859.478 1620.6,872.491 1648.82,884.905 1677.04,896.728 1705.26,907.967 1733.48,918.633 1761.7,928.736 1789.92,938.291 1818.14,947.312 1846.36,955.813 1874.58,963.812 1902.8,971.325 "/>
<polyline clip-path="url(#clip522)" style="stroke:#ed5d92; stroke-linecap:round; stroke-linejoin:round; stroke-width:8; stroke-opacity:0.5; fill:none" points="237.775,985.223 265.996,985.286 294.216,985.474 322.437,985.785 350.658,986.22 378.879,986.774 407.1,987.447 435.321,988.233 463.541,989.13 491.762,990.134 519.983,991.239 548.204,992.44 576.425,993.732 604.646,995.108 632.867,996.563 661.087,998.09 689.308,999.682 717.529,1001.33 745.75,1003.03 773.971,1004.78 802.192,1006.56 830.413,1008.38 858.633,1010.21 886.854,1012.07 915.075,1013.93 943.296,1015.8 971.517,1017.67 999.738,1019.52 1027.96,1021.36 1056.18,1023.19 1084.4,1024.98 1112.62,1026.75 1140.84,1028.49 1169.06,1030.19 1197.28,1031.84 1225.5,1033.46 1253.73,1035.02 1281.95,1036.54 1310.17,1038.01 1338.39,1039.42 1366.61,1040.78 1394.83,1042.08 1423.05,1043.33 1451.27,1044.52 1479.49,1045.66 1507.71,1046.74 1535.93,1047.77 1564.15,1048.74 1592.38,1049.66 1620.6,1050.52 1648.82,1051.34 1677.04,1052.1 1705.26,1052.82 1733.48,1053.49 1761.7,1054.12 1789.92,1054.7 1818.14,1055.24 1846.36,1055.75 1874.58,1056.21 1902.8,1056.64 "/>
<path clip-path="url(#clip520)" d="M1342.55 211.474 L1893.92 211.474 L1893.92 81.8736 L1342.55 81.8736  Z" fill="#ffffff" fill-rule="evenodd" fill-opacity="1"/>
<polyline clip-path="url(#clip520)" style="stroke:#000000; stroke-linecap:round; stroke-linejoin:round; stroke-width:4; stroke-opacity:1; fill:none" points="1342.55,211.474 1893.92,211.474 1893.92,81.8736 1342.55,81.8736 1342.55,211.474 "/>
<polyline clip-path="url(#clip520)" style="stroke:#009af9; stroke-linecap:round; stroke-linejoin:round; stroke-width:12.5; stroke-opacity:1; fill:none" points="1362.16,146.674 1479.82,146.674 "/>
<path clip-path="url(#clip520)" d="M1499.43 123.251 L1504.79 123.251 L1504.79 149.842 L1520.67 135.866 L1527.47 135.866 L1510.28 151.028 L1528.19 168.274 L1521.25 168.274 L1504.79 152.446 L1504.79 168.274 L1499.43 168.274 L1499.43 123.251 Z" fill="#000000" fill-rule="nonzero" fill-opacity="1" /><path clip-path="url(#clip520)" d="M1559.56 150.739 L1559.56 153.343 L1535.08 153.343 Q1535.43 158.841 1538.38 161.734 Q1541.36 164.599 1546.65 164.599 Q1549.72 164.599 1552.59 163.846 Q1555.48 163.094 1558.32 161.59 L1558.32 166.624 Q1555.45 167.84 1552.44 168.476 Q1549.43 169.113 1546.34 169.113 Q1538.58 169.113 1534.04 164.599 Q1529.52 160.085 1529.52 152.388 Q1529.52 144.431 1533.81 139.773 Q1538.12 135.085 1545.41 135.085 Q1551.95 135.085 1555.74 139.31 Q1559.56 143.505 1559.56 150.739 M1554.24 149.176 Q1554.18 144.807 1551.78 142.203 Q1549.4 139.599 1545.47 139.599 Q1541.01 139.599 1538.32 142.116 Q1535.66 144.634 1535.25 149.205 L1554.24 149.176 Z" fill="#000000" fill-rule="nonzero" fill-opacity="1" /><path clip-path="url(#clip520)" d="M1587.08 140.843 Q1586.18 140.322 1585.11 140.091 Q1584.07 139.83 1582.79 139.83 Q1578.28 139.83 1575.85 142.782 Q1573.45 145.704 1573.45 151.202 L1573.45 168.274 L1568.1 168.274 L1568.1 135.866 L1573.45 135.866 L1573.45 140.901 Q1575.13 137.95 1577.82 136.532 Q1580.51 135.085 1584.36 135.085 Q1584.91 135.085 1585.57 135.172 Q1586.24 135.23 1587.05 135.374 L1587.08 140.843 Z" fill="#000000" fill-rule="nonzero" fill-opacity="1" /><path clip-path="url(#clip520)" d="M1618.56 148.713 L1618.56 168.274 L1613.23 168.274 L1613.23 148.887 Q1613.23 144.286 1611.44 142.001 Q1609.65 139.715 1606.06 139.715 Q1601.75 139.715 1599.26 142.464 Q1596.77 145.212 1596.77 149.958 L1596.77 168.274 L1591.42 168.274 L1591.42 135.866 L1596.77 135.866 L1596.77 140.901 Q1598.68 137.979 1601.25 136.532 Q1603.86 135.085 1607.24 135.085 Q1612.83 135.085 1615.69 138.557 Q1618.56 142.001 1618.56 148.713 Z" fill="#000000" fill-rule="nonzero" fill-opacity="1" /><path clip-path="url(#clip520)" d="M1656.9 150.739 L1656.9 153.343 L1632.42 153.343 Q1632.76 158.841 1635.72 161.734 Q1638.7 164.599 1643.99 164.599 Q1647.06 164.599 1649.92 163.846 Q1652.82 163.094 1655.65 161.59 L1655.65 166.624 Q1652.79 167.84 1649.78 168.476 Q1646.77 169.113 1643.67 169.113 Q1635.92 169.113 1631.38 164.599 Q1626.86 160.085 1626.86 152.388 Q1626.86 144.431 1631.14 139.773 Q1635.46 135.085 1642.75 135.085 Q1649.29 135.085 1653.08 139.31 Q1656.9 143.505 1656.9 150.739 M1651.57 149.176 Q1651.51 144.807 1649.11 142.203 Q1646.74 139.599 1642.81 139.599 Q1638.35 139.599 1635.66 142.116 Q1633 144.634 1632.59 149.205 L1651.57 149.176 Z" fill="#000000" fill-rule="nonzero" fill-opacity="1" /><path clip-path="url(#clip520)" d="M1665.64 123.251 L1670.96 123.251 L1670.96 168.274 L1665.64 168.274 L1665.64 123.251 Z" fill="#000000" fill-rule="nonzero" fill-opacity="1" /><path clip-path="url(#clip520)" d="M1726.17 142.087 Q1728.16 138.499 1730.94 136.792 Q1733.72 135.085 1737.48 135.085 Q1742.54 135.085 1745.29 138.644 Q1748.04 142.174 1748.04 148.713 L1748.04 168.274 L1742.69 168.274 L1742.69 148.887 Q1742.69 144.229 1741.04 141.972 Q1739.39 139.715 1736.01 139.715 Q1731.87 139.715 1729.47 142.464 Q1727.06 145.212 1727.06 149.958 L1727.06 168.274 L1721.71 168.274 L1721.71 148.887 Q1721.71 144.2 1720.06 141.972 Q1718.41 139.715 1714.97 139.715 Q1710.89 139.715 1708.49 142.492 Q1706.09 145.241 1706.09 149.958 L1706.09 168.274 L1700.73 168.274 L1700.73 135.866 L1706.09 135.866 L1706.09 140.901 Q1707.91 137.921 1710.46 136.503 Q1713 135.085 1716.5 135.085 Q1720.03 135.085 1722.49 136.879 Q1724.98 138.673 1726.17 142.087 Z" fill="#000000" fill-rule="nonzero" fill-opacity="1" /><path clip-path="url(#clip520)" d="M1771.22 139.599 Q1766.94 139.599 1764.45 142.955 Q1761.96 146.283 1761.96 152.099 Q1761.96 157.915 1764.42 161.271 Q1766.91 164.599 1771.22 164.599 Q1775.47 164.599 1777.96 161.242 Q1780.45 157.886 1780.45 152.099 Q1780.45 146.341 1777.96 142.984 Q1775.47 139.599 1771.22 139.599 M1771.22 135.085 Q1778.16 135.085 1782.13 139.599 Q1786.09 144.113 1786.09 152.099 Q1786.09 160.056 1782.13 164.599 Q1778.16 169.113 1771.22 169.113 Q1764.25 169.113 1760.28 164.599 Q1756.35 160.056 1756.35 152.099 Q1756.35 144.113 1760.28 139.599 Q1764.25 135.085 1771.22 135.085 Z" fill="#000000" fill-rule="nonzero" fill-opacity="1" /><path clip-path="url(#clip520)" d="M1816.24 140.785 L1816.24 123.251 L1821.57 123.251 L1821.57 168.274 L1816.24 168.274 L1816.24 163.412 Q1814.56 166.306 1811.99 167.724 Q1809.44 169.113 1805.85 169.113 Q1799.98 169.113 1796.28 164.425 Q1792.6 159.738 1792.6 152.099 Q1792.6 144.46 1796.28 139.773 Q1799.98 135.085 1805.85 135.085 Q1809.44 135.085 1811.99 136.503 Q1814.56 137.892 1816.24 140.785 M1798.1 152.099 Q1798.1 157.973 1800.5 161.329 Q1802.93 164.657 1807.16 164.657 Q1811.38 164.657 1813.81 161.329 Q1816.24 157.973 1816.24 152.099 Q1816.24 146.225 1813.81 142.898 Q1811.38 139.541 1807.16 139.541 Q1802.93 139.541 1800.5 142.898 Q1798.1 146.225 1798.1 152.099 Z" fill="#000000" fill-rule="nonzero" fill-opacity="1" /><path clip-path="url(#clip520)" d="M1860.25 150.739 L1860.25 153.343 L1835.77 153.343 Q1836.12 158.841 1839.07 161.734 Q1842.05 164.599 1847.35 164.599 Q1850.41 164.599 1853.28 163.846 Q1856.17 163.094 1859.01 161.59 L1859.01 166.624 Q1856.14 167.84 1853.13 168.476 Q1850.12 169.113 1847.03 169.113 Q1839.27 169.113 1834.73 164.599 Q1830.22 160.085 1830.22 152.388 Q1830.22 144.431 1834.5 139.773 Q1838.81 135.085 1846.1 135.085 Q1852.64 135.085 1856.43 139.31 Q1860.25 143.505 1860.25 150.739 M1854.93 149.176 Q1854.87 144.807 1852.47 142.203 Q1850.1 139.599 1846.16 139.599 Q1841.7 139.599 1839.01 142.116 Q1836.35 144.634 1835.95 149.205 L1854.93 149.176 Z" fill="#000000" fill-rule="nonzero" fill-opacity="1" /><path clip-path="url(#clip520)" d="M1868.99 123.251 L1874.31 123.251 L1874.31 168.274 L1868.99 168.274 L1868.99 123.251 Z" fill="#000000" fill-rule="nonzero" fill-opacity="1" /></svg>
