<?xml version="1.0" encoding="utf-8"?>
<svg xmlns="http://www.w3.org/2000/svg" xmlns:xlink="http://www.w3.org/1999/xlink" width="500" height="300" viewBox="0 0 2000 1200">
<defs>
  <clipPath id="clip550">
    <rect x="0" y="0" width="2000" height="1200"/>
  </clipPath>
</defs>
<path clip-path="url(#clip550)" d="M0 1200 L2000 1200 L2000 0 L0 0  Z" fill="#ffffff" fill-rule="evenodd" fill-opacity="1"/>
<defs>
  <clipPath id="clip551">
    <rect x="400" y="0" width="1401" height="1200"/>
  </clipPath>
</defs>
<path clip-path="url(#clip550)" d="M248.925 1086.13 L1952.76 1086.13 L1952.76 47.2441 L248.925 47.2441  Z" fill="#ffffff" fill-rule="evenodd" fill-opacity="1"/>
<defs>
  <clipPath id="clip552">
    <rect x="248" y="47" width="1705" height="1040"/>
  </clipPath>
</defs>
<polyline clip-path="url(#clip550)" style="stroke:#000000; stroke-linecap:round; stroke-linejoin:round; stroke-width:4; stroke-opacity:1; fill:none" points="248.925,1086.13 1952.76,1086.13 "/>
<polyline clip-path="url(#clip550)" style="stroke:#000000; stroke-linecap:round; stroke-linejoin:round; stroke-width:4; stroke-opacity:1; fill:none" points="511.465,1086.13 511.465,1067.23 "/>
<polyline clip-path="url(#clip550)" style="stroke:#000000; stroke-linecap:round; stroke-linejoin:round; stroke-width:4; stroke-opacity:1; fill:none" points="779.363,1086.13 779.363,1067.23 "/>
<polyline clip-path="url(#clip550)" style="stroke:#000000; stroke-linecap:round; stroke-linejoin:round; stroke-width:4; stroke-opacity:1; fill:none" points="1047.26,1086.13 1047.26,1067.23 "/>
<polyline clip-path="url(#clip550)" style="stroke:#000000; stroke-linecap:round; stroke-linejoin:round; stroke-width:4; stroke-opacity:1; fill:none" points="1315.16,1086.13 1315.16,1067.23 "/>
<polyline clip-path="url(#clip550)" style="stroke:#000000; stroke-linecap:round; stroke-linejoin:round; stroke-width:4; stroke-opacity:1; fill:none" points="1583.06,1086.13 1583.06,1067.23 "/>
<polyline clip-path="url(#clip550)" style="stroke:#000000; stroke-linecap:round; stroke-linejoin:round; stroke-width:4; stroke-opacity:1; fill:none" points="1850.95,1086.13 1850.95,1067.23 "/>
<path clip-path="url(#clip550)" d="M499.313 1112.93 L522.258 1112.93 L522.258 1117.85 L504.666 1117.85 L504.666 1128.44 Q505.939 1128 507.212 1127.8 Q508.485 1127.57 509.758 1127.57 Q516.992 1127.57 521.216 1131.53 Q525.441 1135.5 525.441 1142.27 Q525.441 1149.24 521.101 1153.12 Q516.761 1156.97 508.861 1156.97 Q506.141 1156.97 503.306 1156.5 Q500.499 1156.04 497.49 1155.12 L497.49 1149.24 Q500.094 1150.66 502.872 1151.35 Q505.649 1152.05 508.745 1152.05 Q513.751 1152.05 516.674 1149.41 Q519.596 1146.78 519.596 1142.27 Q519.596 1137.75 516.674 1135.12 Q513.751 1132.49 508.745 1132.49 Q506.402 1132.49 504.058 1133.01 Q501.743 1133.53 499.313 1134.63 L499.313 1112.93 Z" fill="#000000" fill-rule="nonzero" fill-opacity="1" /><path clip-path="url(#clip550)" d="M747.723 1151.21 L757.271 1151.21 L757.271 1118.25 L746.884 1120.34 L746.884 1115.01 L757.213 1112.93 L763.058 1112.93 L763.058 1151.21 L772.607 1151.21 L772.607 1156.13 L747.723 1156.13 L747.723 1151.21 Z" fill="#000000" fill-rule="nonzero" fill-opacity="1" /><path clip-path="url(#clip550)" d="M796.912 1116.78 Q792.398 1116.78 790.113 1121.23 Q787.856 1125.66 787.856 1134.57 Q787.856 1143.45 790.113 1147.91 Q792.398 1152.34 796.912 1152.34 Q801.455 1152.34 803.712 1147.91 Q805.998 1143.45 805.998 1134.57 Q805.998 1125.66 803.712 1121.23 Q801.455 1116.78 796.912 1116.78 M796.912 1112.15 Q804.175 1112.15 807.994 1117.9 Q811.843 1123.63 811.843 1134.57 Q811.843 1145.48 807.994 1151.24 Q804.175 1156.97 796.912 1156.97 Q789.65 1156.97 785.801 1151.24 Q781.982 1145.48 781.982 1134.57 Q781.982 1123.63 785.801 1117.9 Q789.65 1112.15 796.912 1112.15 Z" fill="#000000" fill-rule="nonzero" fill-opacity="1" /><path clip-path="url(#clip550)" d="M1016.24 1151.21 L1025.79 1151.21 L1025.79 1118.25 L1015.4 1120.34 L1015.4 1115.01 L1025.73 1112.93 L1031.58 1112.93 L1031.58 1151.21 L1041.13 1151.21 L1041.13 1156.13 L1016.24 1156.13 L1016.24 1151.21 Z" fill="#000000" fill-rule="nonzero" fill-opacity="1" /><path clip-path="url(#clip550)" d="M1052.99 1112.93 L1075.94 1112.93 L1075.94 1117.85 L1058.34 1117.85 L1058.34 1128.44 Q1059.62 1128 1060.89 1127.8 Q1062.16 1127.57 1063.44 1127.57 Q1070.67 1127.57 1074.89 1131.53 Q1079.12 1135.5 1079.12 1142.27 Q1079.12 1149.24 1074.78 1153.12 Q1070.44 1156.97 1062.54 1156.97 Q1059.82 1156.97 1056.98 1156.5 Q1054.18 1156.04 1051.17 1155.12 L1051.17 1149.24 Q1053.77 1150.66 1056.55 1151.35 Q1059.33 1152.05 1062.42 1152.05 Q1067.43 1152.05 1070.35 1149.41 Q1073.27 1146.78 1073.27 1142.27 Q1073.27 1137.75 1070.35 1135.12 Q1067.43 1132.49 1062.42 1132.49 Q1060.08 1132.49 1057.74 1133.01 Q1055.42 1133.53 1052.99 1134.63 L1052.99 1112.93 Z" fill="#000000" fill-rule="nonzero" fill-opacity="1" /><path clip-path="url(#clip550)" d="M1288.63 1151.21 L1309.02 1151.21 L1309.02 1156.13 L1281.59 1156.13 L1281.59 1151.21 Q1284.92 1147.77 1290.65 1141.98 Q1296.41 1136.16 1297.88 1134.48 Q1300.69 1131.33 1301.79 1129.16 Q1302.92 1126.96 1302.92 1124.85 Q1302.92 1121.41 1300.49 1119.24 Q1298.09 1117.07 1294.21 1117.07 Q1291.46 1117.07 1288.39 1118.02 Q1285.36 1118.98 1281.88 1120.91 L1281.88 1115.01 Q1285.41 1113.59 1288.48 1112.87 Q1291.55 1112.15 1294.09 1112.15 Q1300.81 1112.15 1304.8 1115.5 Q1308.79 1118.86 1308.79 1124.47 Q1308.79 1127.13 1307.78 1129.54 Q1306.8 1131.91 1304.16 1135.15 Q1303.44 1135.99 1299.56 1140.01 Q1295.69 1144 1288.63 1151.21 Z" fill="#000000" fill-rule="nonzero" fill-opacity="1" /><path clip-path="url(#clip550)" d="M1333.79 1116.78 Q1329.28 1116.78 1326.99 1121.23 Q1324.74 1125.66 1324.74 1134.57 Q1324.74 1143.45 1326.99 1147.91 Q1329.28 1152.34 1333.79 1152.34 Q1338.34 1152.34 1340.59 1147.91 Q1342.88 1143.45 1342.88 1134.57 Q1342.88 1125.66 1340.59 1121.23 Q1338.34 1116.78 1333.79 1116.78 M1333.79 1112.15 Q1341.06 1112.15 1344.88 1117.9 Q1348.72 1123.63 1348.72 1134.57 Q1348.72 1145.48 1344.88 1151.24 Q1341.06 1156.97 1333.79 1156.97 Q1326.53 1156.97 1322.68 1151.24 Q1318.86 1145.48 1318.86 1134.57 Q1318.86 1123.63 1322.68 1117.9 Q1326.53 1112.15 1333.79 1112.15 Z" fill="#000000" fill-rule="nonzero" fill-opacity="1" /><path clip-path="url(#clip550)" d="M1557.15 1151.21 L1577.54 1151.21 L1577.54 1156.13 L1550.11 1156.13 L1550.11 1151.21 Q1553.44 1147.77 1559.17 1141.98 Q1564.93 1136.16 1566.4 1134.48 Q1569.21 1131.33 1570.31 1129.16 Q1571.44 1126.96 1571.44 1124.85 Q1571.44 1121.41 1569.01 1119.24 Q1566.61 1117.07 1562.73 1117.07 Q1559.98 1117.07 1556.91 1118.02 Q1553.88 1118.98 1550.4 1120.91 L1550.4 1115.01 Q1553.93 1113.59 1557 1112.87 Q1560.07 1112.15 1562.61 1112.15 Q1569.33 1112.15 1573.32 1115.5 Q1577.31 1118.86 1577.31 1124.47 Q1577.31 1127.13 1576.3 1129.54 Q1575.32 1131.91 1572.68 1135.15 Q1571.96 1135.99 1568.08 1140.01 Q1564.21 1144 1557.15 1151.21 Z" fill="#000000" fill-rule="nonzero" fill-opacity="1" /><path clip-path="url(#clip550)" d="M1589.87 1112.93 L1612.82 1112.93 L1612.82 1117.85 L1595.22 1117.85 L1595.22 1128.44 Q1596.5 1128 1597.77 1127.8 Q1599.04 1127.57 1600.32 1127.57 Q1607.55 1127.57 1611.77 1131.53 Q1616 1135.5 1616 1142.27 Q1616 1149.24 1611.66 1153.12 Q1607.32 1156.97 1599.42 1156.97 Q1596.7 1156.97 1593.86 1156.5 Q1591.06 1156.04 1588.05 1155.12 L1588.05 1149.24 Q1590.65 1150.66 1593.43 1151.35 Q1596.21 1152.05 1599.3 1152.05 Q1604.31 1152.05 1607.23 1149.41 Q1610.15 1146.78 1610.15 1142.27 Q1610.15 1137.75 1607.23 1135.12 Q1604.31 1132.49 1599.3 1132.49 Q1596.96 1132.49 1594.62 1133.01 Q1592.3 1133.53 1589.87 1134.63 L1589.87 1112.93 Z" fill="#000000" fill-rule="nonzero" fill-opacity="1" /><path clip-path="url(#clip550)" d="M1837.01 1132.84 Q1841.2 1133.73 1843.55 1136.57 Q1845.92 1139.4 1845.92 1143.57 Q1845.92 1149.96 1841.52 1153.47 Q1837.12 1156.97 1829.02 1156.97 Q1826.3 1156.97 1823.41 1156.42 Q1820.54 1155.9 1817.48 1154.83 L1817.48 1149.18 Q1819.91 1150.6 1822.8 1151.32 Q1825.69 1152.05 1828.85 1152.05 Q1834.35 1152.05 1837.21 1149.88 Q1840.1 1147.71 1840.1 1143.57 Q1840.1 1139.75 1837.41 1137.61 Q1834.75 1135.44 1829.98 1135.44 L1824.94 1135.44 L1824.94 1130.64 L1830.21 1130.64 Q1834.52 1130.64 1836.81 1128.93 Q1839.09 1127.19 1839.09 1123.95 Q1839.09 1120.62 1836.72 1118.86 Q1834.37 1117.07 1829.98 1117.07 Q1827.58 1117.07 1824.83 1117.59 Q1822.08 1118.11 1818.78 1119.21 L1818.78 1114 Q1822.11 1113.07 1825 1112.61 Q1827.92 1112.15 1830.5 1112.15 Q1837.15 1112.15 1841.03 1115.18 Q1844.91 1118.19 1844.91 1123.34 Q1844.91 1126.93 1842.85 1129.42 Q1840.8 1131.88 1837.01 1132.84 Z" fill="#000000" fill-rule="nonzero" fill-opacity="1" /><path clip-path="url(#clip550)" d="M1869.5 1116.78 Q1864.99 1116.78 1862.7 1121.23 Q1860.45 1125.66 1860.45 1134.57 Q1860.45 1143.45 1862.7 1147.91 Q1864.99 1152.34 1869.5 1152.34 Q1874.04 1152.34 1876.3 1147.91 Q1878.59 1143.45 1878.59 1134.57 Q1878.59 1125.66 1876.3 1121.23 Q1874.04 1116.78 1869.5 1116.78 M1869.5 1112.15 Q1876.76 1112.15 1880.58 1117.9 Q1884.43 1123.63 1884.43 1134.57 Q1884.43 1145.48 1880.58 1151.24 Q1876.76 1156.97 1869.5 1156.97 Q1862.24 1156.97 1858.39 1151.24 Q1854.57 1145.48 1854.57 1134.57 Q1854.57 1123.63 1858.39 1117.9 Q1862.24 1112.15 1869.5 1112.15 Z" fill="#000000" fill-rule="nonzero" fill-opacity="1" /><polyline clip-path="url(#clip550)" style="stroke:#000000; stroke-linecap:round; stroke-linejoin:round; stroke-width:4; stroke-opacity:1; fill:none" points="248.925,1086.13 248.925,47.2441 "/>
<polyline clip-path="url(#clip550)" style="stroke:#000000; stroke-linecap:round; stroke-linejoin:round; stroke-width:4; stroke-opacity:1; fill:none" points="248.925,1002.19 267.823,1002.19 "/>
<polyline clip-path="url(#clip550)" style="stroke:#000000; stroke-linecap:round; stroke-linejoin:round; stroke-width:4; stroke-opacity:1; fill:none" points="248.925,513.554 267.823,513.554 "/>
<path clip-path="url(#clip550)" d="M55.9471 1026.93 L65.4957 1026.93 L65.4957 993.976 L55.108 996.059 L55.108 990.735 L65.4378 988.652 L71.2827 988.652 L71.2827 1026.93 L80.8312 1026.93 L80.8312 1031.85 L55.9471 1031.85 L55.9471 1026.93 Z" fill="#000000" fill-rule="nonzero" fill-opacity="1" /><path clip-path="url(#clip550)" d="M105.137 992.5 Q100.623 992.5 98.3369 996.956 Q96.08 1001.38 96.08 1010.3 Q96.08 1019.18 98.3369 1023.63 Q100.623 1028.06 105.137 1028.06 Q109.679 1028.06 111.936 1023.63 Q114.222 1019.18 114.222 1010.3 Q114.222 1001.38 111.936 996.956 Q109.679 992.5 105.137 992.5 M105.137 987.871 Q112.399 987.871 116.219 993.629 Q120.067 999.358 120.067 1010.3 Q120.067 1021.2 116.219 1026.96 Q112.399 1032.69 105.137 1032.69 Q97.874 1032.69 94.0256 1026.96 Q90.2062 1021.2 90.2062 1010.3 Q90.2062 999.358 94.0256 993.629 Q97.874 987.871 105.137 987.871 Z" fill="#000000" fill-rule="nonzero" fill-opacity="1" /><path clip-path="url(#clip550)" d="M125.78 993.592 L142.354 993.592 L142.354 997.589 L120.067 997.589 L120.067 993.592 Q122.771 990.795 127.426 986.093 Q132.104 981.367 133.303 980.004 Q135.584 977.441 136.477 975.678 Q137.394 973.891 137.394 972.175 Q137.394 969.377 135.419 967.614 Q133.468 965.851 130.317 965.851 Q128.084 965.851 125.592 966.627 Q123.123 967.402 120.302 968.978 L120.302 964.182 Q123.17 963.03 125.662 962.442 Q128.154 961.854 130.223 961.854 Q135.678 961.854 138.922 964.581 Q142.166 967.308 142.166 971.869 Q142.166 974.032 141.343 975.983 Q140.544 977.911 138.405 980.544 Q137.817 981.226 134.667 984.494 Q131.516 987.738 125.78 993.592 Z" fill="#000000" fill-rule="nonzero" fill-opacity="1" /><path clip-path="url(#clip550)" d="M152.322 991.617 L157.283 991.617 L157.283 997.589 L152.322 997.589 L152.322 991.617 Z" fill="#000000" fill-rule="nonzero" fill-opacity="1" /><path clip-path="url(#clip550)" d="M177.783 980.92 Q174.398 980.92 172.447 982.731 Q170.519 984.541 170.519 987.715 Q170.519 990.889 172.447 992.699 Q174.398 994.509 177.783 994.509 Q181.169 994.509 183.12 992.699 Q185.071 990.865 185.071 987.715 Q185.071 984.541 183.12 982.731 Q181.192 980.92 177.783 980.92 M173.035 978.899 Q169.978 978.146 168.262 976.054 Q166.569 973.962 166.569 970.952 Q166.569 966.744 169.555 964.299 Q172.564 961.854 177.783 961.854 Q183.026 961.854 186.012 964.299 Q188.998 966.744 188.998 970.952 Q188.998 973.962 187.281 976.054 Q185.589 978.146 182.556 978.899 Q185.988 979.698 187.893 982.025 Q189.82 984.353 189.82 987.715 Q189.82 992.816 186.694 995.544 Q183.59 998.271 177.783 998.271 Q171.977 998.271 168.85 995.544 Q165.747 992.816 165.747 987.715 Q165.747 984.353 167.674 982.025 Q169.602 979.698 173.035 978.899 M171.295 971.399 Q171.295 974.126 172.988 975.654 Q174.704 977.182 177.783 977.182 Q180.84 977.182 182.556 975.654 Q184.296 974.126 184.296 971.399 Q184.296 968.672 182.556 967.144 Q180.84 965.616 177.783 965.616 Q174.704 965.616 172.988 967.144 Q171.295 968.672 171.295 971.399 Z" fill="#000000" fill-rule="nonzero" fill-opacity="1" /><path clip-path="url(#clip550)" d="M202.351 993.592 L218.925 993.592 L218.925 997.589 L196.638 997.589 L196.638 993.592 Q199.342 990.795 203.997 986.093 Q208.675 981.367 209.874 980.004 Q212.155 977.441 213.048 975.678 Q213.965 973.891 213.965 972.175 Q213.965 969.377 211.99 967.614 Q210.039 965.851 206.889 965.851 Q204.655 965.851 202.163 966.627 Q199.695 967.402 196.873 968.978 L196.873 964.182 Q199.742 963.03 202.234 962.442 Q204.726 961.854 206.794 961.854 Q212.249 961.854 215.493 964.581 Q218.737 967.308 218.737 971.869 Q218.737 974.032 217.915 975.983 Q217.115 977.911 214.976 980.544 Q214.388 981.226 211.238 984.494 Q208.088 987.738 202.351 993.592 Z" fill="#000000" fill-rule="nonzero" fill-opacity="1" /><path clip-path="url(#clip550)" d="M53.8312 538.294 L63.3798 538.294 L63.3798 505.337 L52.9921 507.421 L52.9921 502.096 L63.3219 500.013 L69.1668 500.013 L69.1668 538.294 L78.7154 538.294 L78.7154 543.213 L53.8312 543.213 L53.8312 538.294 Z" fill="#000000" fill-rule="nonzero" fill-opacity="1" /><path clip-path="url(#clip550)" d="M103.021 503.861 Q98.5069 503.861 96.2211 508.317 Q93.9641 512.745 93.9641 521.657 Q93.9641 530.54 96.2211 534.996 Q98.5069 539.423 103.021 539.423 Q107.564 539.423 109.821 534.996 Q112.106 530.54 112.106 521.657 Q112.106 512.745 109.821 508.317 Q107.564 503.861 103.021 503.861 M103.021 499.232 Q110.283 499.232 114.103 504.99 Q117.951 510.719 117.951 521.657 Q117.951 532.565 114.103 538.323 Q110.283 544.052 103.021 544.052 Q95.7581 544.052 91.9097 538.323 Q88.0903 532.565 88.0903 521.657 Q88.0903 510.719 91.9097 504.99 Q95.7581 499.232 103.021 499.232 Z" fill="#000000" fill-rule="nonzero" fill-opacity="1" /><path clip-path="url(#clip550)" d="M123.664 504.953 L140.238 504.953 L140.238 508.95 L117.951 508.95 L117.951 504.953 Q120.655 502.156 125.31 497.454 Q129.988 492.728 131.187 491.365 Q133.468 488.802 134.361 487.039 Q135.278 485.252 135.278 483.536 Q135.278 480.738 133.303 478.975 Q131.352 477.212 128.202 477.212 Q125.968 477.212 123.476 477.988 Q121.008 478.764 118.186 480.339 L118.186 475.543 Q121.055 474.391 123.547 473.803 Q126.039 473.215 128.107 473.215 Q133.562 473.215 136.806 475.942 Q140.05 478.67 140.05 483.231 Q140.05 485.393 139.228 487.345 Q138.428 489.273 136.289 491.906 Q135.701 492.587 132.551 495.855 Q129.4 499.1 123.664 504.953 Z" fill="#000000" fill-rule="nonzero" fill-opacity="1" /><path clip-path="url(#clip550)" d="M150.207 502.979 L155.167 502.979 L155.167 508.95 L150.207 508.95 L150.207 502.979 Z" fill="#000000" fill-rule="nonzero" fill-opacity="1" /><path clip-path="url(#clip550)" d="M175.668 492.282 Q172.282 492.282 170.331 494.092 Q168.403 495.902 168.403 499.076 Q168.403 502.25 170.331 504.06 Q172.282 505.87 175.668 505.87 Q179.053 505.87 181.004 504.06 Q182.956 502.226 182.956 499.076 Q182.956 495.902 181.004 494.092 Q179.077 492.282 175.668 492.282 M170.919 490.26 Q167.862 489.508 166.146 487.415 Q164.453 485.323 164.453 482.314 Q164.453 478.105 167.439 475.66 Q170.448 473.215 175.668 473.215 Q180.91 473.215 183.896 475.66 Q186.882 478.105 186.882 482.314 Q186.882 485.323 185.166 487.415 Q183.473 489.508 180.44 490.26 Q183.873 491.059 185.777 493.387 Q187.705 495.714 187.705 499.076 Q187.705 504.178 184.578 506.905 Q181.475 509.632 175.668 509.632 Q169.861 509.632 166.734 506.905 Q163.631 504.178 163.631 499.076 Q163.631 495.714 165.558 493.387 Q167.486 491.059 170.919 490.26 M169.179 482.76 Q169.179 485.487 170.872 487.016 Q172.588 488.544 175.668 488.544 Q178.724 488.544 180.44 487.016 Q182.18 485.487 182.18 482.76 Q182.18 480.033 180.44 478.505 Q178.724 476.977 175.668 476.977 Q172.588 476.977 170.872 478.505 Q169.179 480.033 169.179 482.76 Z" fill="#000000" fill-rule="nonzero" fill-opacity="1" /><path clip-path="url(#clip550)" d="M209.192 477.988 L197.203 496.725 L209.192 496.725 L209.192 477.988 M207.946 473.85 L213.918 473.85 L213.918 496.725 L218.925 496.725 L218.925 500.675 L213.918 500.675 L213.918 508.95 L209.192 508.95 L209.192 500.675 L193.347 500.675 L193.347 496.09 L207.946 473.85 Z" fill="#000000" fill-rule="nonzero" fill-opacity="1" /><circle clip-path="url(#clip552)" cx="297.147" cy="171.656" r="14.4" fill="#009af9" fill-rule="evenodd" fill-opacity="1" stroke="#000000" stroke-opacity="1" stroke-width="2.4"/>
<circle clip-path="url(#clip552)" cx="350.727" cy="381.323" r="14.4" fill="#009af9" fill-rule="evenodd" fill-opacity="1" stroke="#000000" stroke-opacity="1" stroke-width="2.4"/>
<circle clip-path="url(#clip552)" cx="404.306" cy="318.537" r="14.4" fill="#009af9" fill-rule="evenodd" fill-opacity="1" stroke="#000000" stroke-opacity="1" stroke-width="2.4"/>
<circle clip-path="url(#clip552)" cx="457.886" cy="537.655" r="14.4" fill="#009af9" fill-rule="evenodd" fill-opacity="1" stroke="#000000" stroke-opacity="1" stroke-width="2.4"/>
<circle clip-path="url(#clip552)" cx="511.465" cy="591.996" r="14.4" fill="#009af9" fill-rule="evenodd" fill-opacity="1" stroke="#000000" stroke-opacity="1" stroke-width="2.4"/>
<circle clip-path="url(#clip552)" cx="565.045" cy="441.181" r="14.4" fill="#009af9" fill-rule="evenodd" fill-opacity="1" stroke="#000000" stroke-opacity="1" stroke-width="2.4"/>
<circle clip-path="url(#clip552)" cx="618.625" cy="704.518" r="14.4" fill="#009af9" fill-rule="evenodd" fill-opacity="1" stroke="#000000" stroke-opacity="1" stroke-width="2.4"/>
<circle clip-path="url(#clip552)" cx="672.204" cy="291.77" r="14.4" fill="#009af9" fill-rule="evenodd" fill-opacity="1" stroke="#000000" stroke-opacity="1" stroke-width="2.4"/>
<circle clip-path="url(#clip552)" cx="725.784" cy="469.144" r="14.4" fill="#009af9" fill-rule="evenodd" fill-opacity="1" stroke="#000000" stroke-opacity="1" stroke-width="2.4"/>
<circle clip-path="url(#clip552)" cx="779.363" cy="756.157" r="14.4" fill="#009af9" fill-rule="evenodd" fill-opacity="1" stroke="#000000" stroke-opacity="1" stroke-width="2.4"/>
<circle clip-path="url(#clip552)" cx="832.943" cy="76.6465" r="14.4" fill="#009af9" fill-rule="evenodd" fill-opacity="1" stroke="#000000" stroke-opacity="1" stroke-width="2.4"/>
<circle clip-path="url(#clip552)" cx="886.522" cy="912.916" r="14.4" fill="#009af9" fill-rule="evenodd" fill-opacity="1" stroke="#000000" stroke-opacity="1" stroke-width="2.4"/>
<circle clip-path="url(#clip552)" cx="940.102" cy="228.436" r="14.4" fill="#009af9" fill-rule="evenodd" fill-opacity="1" stroke="#000000" stroke-opacity="1" stroke-width="2.4"/>
<circle clip-path="url(#clip552)" cx="993.682" cy="1005.25" r="14.4" fill="#009af9" fill-rule="evenodd" fill-opacity="1" stroke="#000000" stroke-opacity="1" stroke-width="2.4"/>
<circle clip-path="url(#clip552)" cx="1047.26" cy="1056.73" r="14.4" fill="#009af9" fill-rule="evenodd" fill-opacity="1" stroke="#000000" stroke-opacity="1" stroke-width="2.4"/>
<circle clip-path="url(#clip552)" cx="1100.84" cy="417.255" r="14.4" fill="#009af9" fill-rule="evenodd" fill-opacity="1" stroke="#000000" stroke-opacity="1" stroke-width="2.4"/>
<circle clip-path="url(#clip552)" cx="1154.42" cy="380.785" r="14.4" fill="#009af9" fill-rule="evenodd" fill-opacity="1" stroke="#000000" stroke-opacity="1" stroke-width="2.4"/>
<circle clip-path="url(#clip552)" cx="1208" cy="607.476" r="14.4" fill="#009af9" fill-rule="evenodd" fill-opacity="1" stroke="#000000" stroke-opacity="1" stroke-width="2.4"/>
<circle clip-path="url(#clip552)" cx="1261.58" cy="512.259" r="14.4" fill="#009af9" fill-rule="evenodd" fill-opacity="1" stroke="#000000" stroke-opacity="1" stroke-width="2.4"/>
<circle clip-path="url(#clip552)" cx="1315.16" cy="401.328" r="14.4" fill="#009af9" fill-rule="evenodd" fill-opacity="1" stroke="#000000" stroke-opacity="1" stroke-width="2.4"/>
<circle clip-path="url(#clip552)" cx="1368.74" cy="320.394" r="14.4" fill="#009af9" fill-rule="evenodd" fill-opacity="1" stroke="#000000" stroke-opacity="1" stroke-width="2.4"/>
<circle clip-path="url(#clip552)" cx="1422.32" cy="565.034" r="14.4" fill="#009af9" fill-rule="evenodd" fill-opacity="1" stroke="#000000" stroke-opacity="1" stroke-width="2.4"/>
<circle clip-path="url(#clip552)" cx="1475.9" cy="633.428" r="14.4" fill="#009af9" fill-rule="evenodd" fill-opacity="1" stroke="#000000" stroke-opacity="1" stroke-width="2.4"/>
<circle clip-path="url(#clip552)" cx="1529.48" cy="747.512" r="14.4" fill="#009af9" fill-rule="evenodd" fill-opacity="1" stroke="#000000" stroke-opacity="1" stroke-width="2.4"/>
<circle clip-path="url(#clip552)" cx="1583.06" cy="360.05" r="14.4" fill="#009af9" fill-rule="evenodd" fill-opacity="1" stroke="#000000" stroke-opacity="1" stroke-width="2.4"/>
<circle clip-path="url(#clip552)" cx="1636.64" cy="811.459" r="14.4" fill="#009af9" fill-rule="evenodd" fill-opacity="1" stroke="#000000" stroke-opacity="1" stroke-width="2.4"/>
<circle clip-path="url(#clip552)" cx="1690.22" cy="218.913" r="14.4" fill="#009af9" fill-rule="evenodd" fill-opacity="1" stroke="#000000" stroke-opacity="1" stroke-width="2.4"/>
<circle clip-path="url(#clip552)" cx="1743.8" cy="704.295" r="14.4" fill="#009af9" fill-rule="evenodd" fill-opacity="1" stroke="#000000" stroke-opacity="1" stroke-width="2.4"/>
<circle clip-path="url(#clip552)" cx="1797.38" cy="673.05" r="14.4" fill="#009af9" fill-rule="evenodd" fill-opacity="1" stroke="#000000" stroke-opacity="1" stroke-width="2.4"/>
<circle clip-path="url(#clip552)" cx="1850.95" cy="761.062" r="14.4" fill="#009af9" fill-rule="evenodd" fill-opacity="1" stroke="#000000" stroke-opacity="1" stroke-width="2.4"/>
<circle clip-path="url(#clip552)" cx="1904.53" cy="722.763" r="14.4" fill="#009af9" fill-rule="evenodd" fill-opacity="1" stroke="#000000" stroke-opacity="1" stroke-width="2.4"/>
<path clip-path="url(#clip550)" d="M1518.32 1051.5 L1895.96 1051.5 L1895.96 921.898 L1518.32 921.898  Z" fill="#ffffff" fill-rule="evenodd" fill-opacity="1"/>
<polyline clip-path="url(#clip550)" style="stroke:#000000; stroke-linecap:round; stroke-linejoin:round; stroke-width:4; stroke-opacity:1; fill:none" points="1518.32,1051.5 1895.96,1051.5 1895.96,921.898 1518.32,921.898 1518.32,1051.5 "/>
<circle clip-path="url(#clip550)" cx="1594.04" cy="986.698" r="25.6" fill="#009af9" fill-rule="evenodd" fill-opacity="1" stroke="#000000" stroke-opacity="1" stroke-width="4.26667"/>
<path clip-path="url(#clip550)" d="M1669.77 989.693 L1685.36 989.693 L1685.36 994.439 L1669.77 994.439 L1669.77 989.693 Z" fill="#000000" fill-rule="nonzero" fill-opacity="1" /><path clip-path="url(#clip550)" d="M1693.84 963.276 L1699.17 963.276 L1699.17 1008.3 L1693.84 1008.3 L1693.84 963.276 Z" fill="#000000" fill-rule="nonzero" fill-opacity="1" /><path clip-path="url(#clip550)" d="M1722.86 979.624 Q1718.58 979.624 1716.09 982.98 Q1713.61 986.308 1713.61 992.124 Q1713.61 997.94 1716.06 1001.3 Q1718.55 1004.62 1722.86 1004.62 Q1727.12 1004.62 1729.61 1001.27 Q1732.09 997.911 1732.09 992.124 Q1732.09 986.366 1729.61 983.009 Q1727.12 979.624 1722.86 979.624 M1722.86 975.11 Q1729.81 975.11 1733.77 979.624 Q1737.74 984.138 1737.74 992.124 Q1737.74 1000.08 1733.77 1004.62 Q1729.81 1009.14 1722.86 1009.14 Q1715.89 1009.14 1711.93 1004.62 Q1707.99 1000.08 1707.99 992.124 Q1707.99 984.138 1711.93 979.624 Q1715.89 975.11 1722.86 975.11 Z" fill="#000000" fill-rule="nonzero" fill-opacity="1" /><path clip-path="url(#clip550)" d="M1767.89 991.719 Q1767.89 985.932 1765.49 982.749 Q1763.11 979.566 1758.8 979.566 Q1754.52 979.566 1752.12 982.749 Q1749.74 985.932 1749.74 991.719 Q1749.74 997.477 1752.12 1000.66 Q1754.52 1003.84 1758.8 1003.84 Q1763.11 1003.84 1765.49 1000.66 Q1767.89 997.477 1767.89 991.719 M1773.21 1004.28 Q1773.21 1012.55 1769.54 1016.57 Q1765.86 1020.62 1758.28 1020.62 Q1755.47 1020.62 1752.99 1020.19 Q1750.5 1019.79 1748.15 1018.92 L1748.15 1013.74 Q1750.5 1015.01 1752.78 1015.62 Q1755.07 1016.23 1757.44 1016.23 Q1762.68 1016.23 1765.28 1013.48 Q1767.89 1010.76 1767.89 1005.23 L1767.89 1002.6 Q1766.24 1005.46 1763.66 1006.88 Q1761.09 1008.3 1757.5 1008.3 Q1751.54 1008.3 1747.89 1003.76 Q1744.25 999.213 1744.25 991.719 Q1744.25 984.196 1747.89 979.653 Q1751.54 975.11 1757.5 975.11 Q1761.09 975.11 1763.66 976.528 Q1766.24 977.946 1767.89 980.81 L1767.89 975.891 L1773.21 975.891 L1773.21 1004.28 Z" fill="#000000" fill-rule="nonzero" fill-opacity="1" /><path clip-path="url(#clip550)" d="M1784.18 963.276 L1789.5 963.276 L1789.5 1008.3 L1784.18 1008.3 L1784.18 963.276 Z" fill="#000000" fill-rule="nonzero" fill-opacity="1" /><path clip-path="url(#clip550)" d="M1800.64 975.891 L1805.97 975.891 L1805.97 1008.3 L1800.64 1008.3 L1800.64 975.891 M1800.64 963.276 L1805.97 963.276 L1805.97 970.017 L1800.64 970.017 L1800.64 963.276 Z" fill="#000000" fill-rule="nonzero" fill-opacity="1" /><path clip-path="url(#clip550)" d="M1816.9 963.276 L1822.26 963.276 L1822.26 989.867 L1838.14 975.891 L1844.94 975.891 L1827.75 991.053 L1845.66 1008.3 L1838.72 1008.3 L1822.26 992.471 L1822.26 1008.3 L1816.9 1008.3 L1816.9 963.276 Z" fill="#000000" fill-rule="nonzero" fill-opacity="1" /><path clip-path="url(#clip550)" d="M1877.03 990.764 L1877.03 993.368 L1852.55 993.368 Q1852.9 998.866 1855.85 1001.76 Q1858.83 1004.62 1864.13 1004.62 Q1867.19 1004.62 1870.06 1003.87 Q1872.95 1003.12 1875.79 1001.61 L1875.79 1006.65 Q1872.92 1007.86 1869.91 1008.5 Q1866.9 1009.14 1863.81 1009.14 Q1856.05 1009.14 1851.51 1004.62 Q1847 1000.11 1847 992.413 Q1847 984.456 1851.28 979.797 Q1855.59 975.11 1862.88 975.11 Q1869.42 975.11 1873.21 979.334 Q1877.03 983.53 1877.03 990.764 M1871.71 989.201 Q1871.65 984.832 1869.25 982.228 Q1866.87 979.624 1862.94 979.624 Q1858.48 979.624 1855.79 982.141 Q1853.13 984.658 1852.72 989.23 L1871.71 989.201 Z" fill="#000000" fill-rule="nonzero" fill-opacity="1" /></svg>
