<?xml version="1.0" encoding="utf-8"?>
<svg xmlns="http://www.w3.org/2000/svg" xmlns:xlink="http://www.w3.org/1999/xlink" width="500" height="300" viewBox="0 0 2000 1200">
<defs>
  <clipPath id="clip740">
    <rect x="0" y="0" width="2000" height="1200"/>
  </clipPath>
</defs>
<path clip-path="url(#clip740)" d="M0 1200 L2000 1200 L2000 0 L0 0  Z" fill="#ffffff" fill-rule="evenodd" fill-opacity="1"/>
<defs>
  <clipPath id="clip741">
    <rect x="400" y="0" width="1401" height="1200"/>
  </clipPath>
</defs>
<path clip-path="url(#clip740)" d="M187.824 1086.13 L1952.76 1086.13 L1952.76 47.2441 L187.824 47.2441  Z" fill="#ffffff" fill-rule="evenodd" fill-opacity="1"/>
<defs>
  <clipPath id="clip742">
    <rect x="187" y="47" width="1766" height="1040"/>
  </clipPath>
</defs>
<polyline clip-path="url(#clip740)" style="stroke:#000000; stroke-linecap:round; stroke-linejoin:round; stroke-width:4; stroke-opacity:1; fill:none" points="187.824,1086.13 1952.76,1086.13 "/>
<polyline clip-path="url(#clip740)" style="stroke:#000000; stroke-linecap:round; stroke-linejoin:round; stroke-width:4; stroke-opacity:1; fill:none" points="209.554,1086.13 209.554,1067.23 "/>
<polyline clip-path="url(#clip740)" style="stroke:#000000; stroke-linecap:round; stroke-linejoin:round; stroke-width:4; stroke-opacity:1; fill:none" points="632.867,1086.13 632.867,1067.23 "/>
<polyline clip-path="url(#clip740)" style="stroke:#000000; stroke-linecap:round; stroke-linejoin:round; stroke-width:4; stroke-opacity:1; fill:none" points="1056.18,1086.13 1056.18,1067.23 "/>
<polyline clip-path="url(#clip740)" style="stroke:#000000; stroke-linecap:round; stroke-linejoin:round; stroke-width:4; stroke-opacity:1; fill:none" points="1479.49,1086.13 1479.49,1067.23 "/>
<polyline clip-path="url(#clip740)" style="stroke:#000000; stroke-linecap:round; stroke-linejoin:round; stroke-width:4; stroke-opacity:1; fill:none" points="1902.8,1086.13 1902.8,1067.23 "/>
<path clip-path="url(#clip740)" d="M209.554 1116.78 Q205.04 1116.78 202.754 1121.23 Q200.497 1125.66 200.497 1134.57 Q200.497 1143.45 202.754 1147.91 Q205.04 1152.34 209.554 1152.34 Q214.097 1152.34 216.354 1147.91 Q218.639 1143.45 218.639 1134.57 Q218.639 1125.66 216.354 1121.23 Q214.097 1116.78 209.554 1116.78 M209.554 1112.15 Q216.816 1112.15 220.636 1117.9 Q224.484 1123.63 224.484 1134.57 Q224.484 1145.48 220.636 1151.24 Q216.816 1156.97 209.554 1156.97 Q202.291 1156.97 198.443 1151.24 Q194.623 1145.48 194.623 1134.57 Q194.623 1123.63 198.443 1117.9 Q202.291 1112.15 209.554 1112.15 Z" fill="#000000" fill-rule="nonzero" fill-opacity="1" /><path clip-path="url(#clip740)" d="M620.714 1112.93 L643.659 1112.93 L643.659 1117.85 L626.067 1117.85 L626.067 1128.44 Q627.34 1128 628.613 1127.8 Q629.886 1127.57 631.159 1127.57 Q638.393 1127.57 642.618 1131.53 Q646.842 1135.5 646.842 1142.27 Q646.842 1149.24 642.502 1153.12 Q638.162 1156.97 630.262 1156.97 Q627.543 1156.97 624.707 1156.5 Q621.9 1156.04 618.891 1155.12 L618.891 1149.24 Q621.495 1150.66 624.273 1151.35 Q627.051 1152.05 630.147 1152.05 Q635.152 1152.05 638.075 1149.41 Q640.997 1146.78 640.997 1142.27 Q640.997 1137.75 638.075 1135.12 Q635.152 1132.49 630.147 1132.49 Q627.803 1132.49 625.459 1133.01 Q623.144 1133.53 620.714 1134.63 L620.714 1112.93 Z" fill="#000000" fill-rule="nonzero" fill-opacity="1" /><path clip-path="url(#clip740)" d="M1024.54 1151.21 L1034.09 1151.21 L1034.09 1118.25 L1023.7 1120.34 L1023.7 1115.01 L1034.03 1112.93 L1039.87 1112.93 L1039.87 1151.21 L1049.42 1151.21 L1049.42 1156.13 L1024.54 1156.13 L1024.54 1151.21 Z" fill="#000000" fill-rule="nonzero" fill-opacity="1" /><path clip-path="url(#clip740)" d="M1073.73 1116.78 Q1069.21 1116.78 1066.93 1121.23 Q1064.67 1125.66 1064.67 1134.57 Q1064.67 1143.45 1066.93 1147.91 Q1069.21 1152.34 1073.73 1152.34 Q1078.27 1152.34 1080.53 1147.91 Q1082.81 1143.45 1082.81 1134.57 Q1082.81 1125.66 1080.53 1121.23 Q1078.27 1116.78 1073.73 1116.78 M1073.73 1112.15 Q1080.99 1112.15 1084.81 1117.9 Q1088.66 1123.63 1088.66 1134.57 Q1088.66 1145.48 1084.81 1151.24 Q1080.99 1156.97 1073.73 1156.97 Q1066.47 1156.97 1062.62 1151.24 Q1058.8 1145.48 1058.8 1134.57 Q1058.8 1123.63 1062.62 1117.9 Q1066.47 1112.15 1073.73 1112.15 Z" fill="#000000" fill-rule="nonzero" fill-opacity="1" /><path clip-path="url(#clip740)" d="M1448.47 1151.21 L1458.02 1151.21 L1458.02 1118.25 L1447.63 1120.34 L1447.63 1115.01 L1457.96 1112.93 L1463.81 1112.93 L1463.81 1151.21 L1473.36 1151.21 L1473.36 1156.13 L1448.47 1156.13 L1448.47 1151.21 Z" fill="#000000" fill-rule="nonzero" fill-opacity="1" /><path clip-path="url(#clip740)" d="M1485.22 1112.93 L1508.17 1112.93 L1508.17 1117.85 L1490.57 1117.85 L1490.57 1128.44 Q1491.85 1128 1493.12 1127.8 Q1494.39 1127.57 1495.67 1127.57 Q1502.9 1127.57 1507.13 1131.53 Q1511.35 1135.5 1511.35 1142.27 Q1511.35 1149.24 1507.01 1153.12 Q1502.67 1156.97 1494.77 1156.97 Q1492.05 1156.97 1489.21 1156.5 Q1486.41 1156.04 1483.4 1155.12 L1483.4 1149.24 Q1486 1150.66 1488.78 1151.35 Q1491.56 1152.05 1494.65 1152.05 Q1499.66 1152.05 1502.58 1149.41 Q1505.5 1146.78 1505.5 1142.27 Q1505.5 1137.75 1502.58 1135.12 Q1499.66 1132.49 1494.65 1132.49 Q1492.31 1132.49 1489.97 1133.01 Q1487.65 1133.53 1485.22 1134.63 L1485.22 1112.93 Z" fill="#000000" fill-rule="nonzero" fill-opacity="1" /><path clip-path="url(#clip740)" d="M1876.27 1151.21 L1896.67 1151.21 L1896.67 1156.13 L1869.24 1156.13 L1869.24 1151.21 Q1872.57 1147.77 1878.3 1141.98 Q1884.06 1136.16 1885.53 1134.48 Q1888.34 1131.33 1889.44 1129.16 Q1890.57 1126.96 1890.57 1124.85 Q1890.57 1121.41 1888.13 1119.24 Q1885.73 1117.07 1881.86 1117.07 Q1879.11 1117.07 1876.04 1118.02 Q1873 1118.98 1869.53 1120.91 L1869.53 1115.01 Q1873.06 1113.59 1876.13 1112.87 Q1879.19 1112.15 1881.74 1112.15 Q1888.45 1112.15 1892.45 1115.5 Q1896.44 1118.86 1896.44 1124.47 Q1896.44 1127.13 1895.43 1129.54 Q1894.44 1131.91 1891.81 1135.15 Q1891.09 1135.99 1887.21 1140.01 Q1883.33 1144 1876.27 1151.21 Z" fill="#000000" fill-rule="nonzero" fill-opacity="1" /><path clip-path="url(#clip740)" d="M1921.44 1116.78 Q1916.93 1116.78 1914.64 1121.23 Q1912.38 1125.66 1912.38 1134.57 Q1912.38 1143.45 1914.64 1147.91 Q1916.93 1152.34 1921.44 1152.34 Q1925.98 1152.34 1928.24 1147.91 Q1930.52 1143.45 1930.52 1134.57 Q1930.52 1125.66 1928.24 1121.23 Q1925.98 1116.78 1921.44 1116.78 M1921.44 1112.15 Q1928.7 1112.15 1932.52 1117.9 Q1936.37 1123.63 1936.37 1134.57 Q1936.37 1145.48 1932.52 1151.24 Q1928.7 1156.97 1921.44 1156.97 Q1914.18 1156.97 1910.33 1151.24 Q1906.51 1145.48 1906.51 1134.57 Q1906.51 1123.63 1910.33 1117.9 Q1914.18 1112.15 1921.44 1112.15 Z" fill="#000000" fill-rule="nonzero" fill-opacity="1" /><polyline clip-path="url(#clip740)" style="stroke:#000000; stroke-linecap:round; stroke-linejoin:round; stroke-width:4; stroke-opacity:1; fill:none" points="187.824,1086.13 187.824,47.2441 "/>
<polyline clip-path="url(#clip740)" style="stroke:#000000; stroke-linecap:round; stroke-linejoin:round; stroke-width:4; stroke-opacity:1; fill:none" points="187.824,1069.54 206.721,1069.54 "/>
<polyline clip-path="url(#clip740)" style="stroke:#000000; stroke-linecap:round; stroke-linejoin:round; stroke-width:4; stroke-opacity:1; fill:none" points="187.824,800.956 206.721,800.956 "/>
<polyline clip-path="url(#clip740)" style="stroke:#000000; stroke-linecap:round; stroke-linejoin:round; stroke-width:4; stroke-opacity:1; fill:none" points="187.824,532.372 206.721,532.372 "/>
<polyline clip-path="url(#clip740)" style="stroke:#000000; stroke-linecap:round; stroke-linejoin:round; stroke-width:4; stroke-opacity:1; fill:none" points="187.824,263.788 206.721,263.788 "/>
<path clip-path="url(#clip740)" d="M142.893 1051.79 Q138.379 1051.79 136.094 1056.24 Q133.837 1060.67 133.837 1069.58 Q133.837 1078.47 136.094 1082.92 Q138.379 1087.35 142.893 1087.35 Q147.436 1087.35 149.693 1082.92 Q151.979 1078.47 151.979 1069.58 Q151.979 1060.67 149.693 1056.24 Q147.436 1051.79 142.893 1051.79 M142.893 1047.16 Q150.156 1047.16 153.975 1052.92 Q157.824 1058.65 157.824 1069.58 Q157.824 1080.49 153.975 1086.25 Q150.156 1091.98 142.893 1091.98 Q135.631 1091.98 131.782 1086.25 Q127.963 1080.49 127.963 1069.58 Q127.963 1058.65 131.782 1052.92 Q135.631 1047.16 142.893 1047.16 Z" fill="#000000" fill-rule="nonzero" fill-opacity="1" /><path clip-path="url(#clip740)" d="M56.0014 817.637 L65.5499 817.637 L65.5499 784.68 L55.1623 786.763 L55.1623 781.439 L65.4921 779.356 L71.3369 779.356 L71.3369 817.637 L80.8855 817.637 L80.8855 822.556 L56.0014 822.556 L56.0014 817.637 Z" fill="#000000" fill-rule="nonzero" fill-opacity="1" /><path clip-path="url(#clip740)" d="M105.191 783.204 Q100.677 783.204 98.3912 787.66 Q96.1343 792.087 96.1343 800.999 Q96.1343 809.882 98.3912 814.338 Q100.677 818.765 105.191 818.765 Q109.734 818.765 111.991 814.338 Q114.277 809.882 114.277 800.999 Q114.277 792.087 111.991 787.66 Q109.734 783.204 105.191 783.204 M105.191 778.574 Q112.454 778.574 116.273 784.333 Q120.121 790.062 120.121 800.999 Q120.121 811.908 116.273 817.666 Q112.454 823.395 105.191 823.395 Q97.9282 823.395 94.0799 817.666 Q90.2604 811.908 90.2604 800.999 Q90.2604 790.062 94.0799 784.333 Q97.9282 778.574 105.191 778.574 Z" fill="#000000" fill-rule="nonzero" fill-opacity="1" /><path clip-path="url(#clip740)" d="M142.893 783.204 Q138.379 783.204 136.094 787.66 Q133.837 792.087 133.837 800.999 Q133.837 809.882 136.094 814.338 Q138.379 818.765 142.893 818.765 Q147.436 818.765 149.693 814.338 Q151.979 809.882 151.979 800.999 Q151.979 792.087 149.693 787.66 Q147.436 783.204 142.893 783.204 M142.893 778.574 Q150.156 778.574 153.975 784.333 Q157.824 790.062 157.824 800.999 Q157.824 811.908 153.975 817.666 Q150.156 823.395 142.893 823.395 Q135.631 823.395 131.782 817.666 Q127.963 811.908 127.963 800.999 Q127.963 790.062 131.782 784.333 Q135.631 778.574 142.893 778.574 Z" fill="#000000" fill-rule="nonzero" fill-opacity="1" /><path clip-path="url(#clip740)" d="M60.0233 549.053 L80.4225 549.053 L80.4225 553.972 L52.9921 553.972 L52.9921 549.053 Q56.3197 545.61 62.0488 539.823 Q67.8069 534.007 69.2825 532.329 Q72.0892 529.175 73.1888 527.004 Q74.3172 524.805 74.3172 522.693 Q74.3172 519.25 71.8867 517.08 Q69.4851 514.91 65.6078 514.91 Q62.859 514.91 59.7919 515.864 Q56.7537 516.819 53.2815 518.758 L53.2815 512.855 Q56.8115 511.437 59.8787 510.714 Q62.9458 509.991 65.4921 509.991 Q72.205 509.991 76.198 513.347 Q80.1911 516.704 80.1911 522.317 Q80.1911 524.979 79.1783 527.381 Q78.1945 529.753 75.5614 532.994 Q74.8381 533.833 70.9608 537.855 Q67.0835 541.848 60.0233 549.053 Z" fill="#000000" fill-rule="nonzero" fill-opacity="1" /><path clip-path="url(#clip740)" d="M105.191 514.62 Q100.677 514.62 98.3912 519.076 Q96.1343 523.503 96.1343 532.415 Q96.1343 541.298 98.3912 545.754 Q100.677 550.181 105.191 550.181 Q109.734 550.181 111.991 545.754 Q114.277 541.298 114.277 532.415 Q114.277 523.503 111.991 519.076 Q109.734 514.62 105.191 514.62 M105.191 509.991 Q112.454 509.991 116.273 515.749 Q120.121 521.478 120.121 532.415 Q120.121 543.324 116.273 549.082 Q112.454 554.811 105.191 554.811 Q97.9282 554.811 94.0799 549.082 Q90.2604 543.324 90.2604 532.415 Q90.2604 521.478 94.0799 515.749 Q97.9282 509.991 105.191 509.991 Z" fill="#000000" fill-rule="nonzero" fill-opacity="1" /><path clip-path="url(#clip740)" d="M142.893 514.62 Q138.379 514.62 136.094 519.076 Q133.837 523.503 133.837 532.415 Q133.837 541.298 136.094 545.754 Q138.379 550.181 142.893 550.181 Q147.436 550.181 149.693 545.754 Q151.979 541.298 151.979 532.415 Q151.979 523.503 149.693 519.076 Q147.436 514.62 142.893 514.62 M142.893 509.991 Q150.156 509.991 153.975 515.749 Q157.824 521.478 157.824 532.415 Q157.824 543.324 153.975 549.082 Q150.156 554.811 142.893 554.811 Q135.631 554.811 131.782 549.082 Q127.963 543.324 127.963 532.415 Q127.963 521.478 131.782 515.749 Q135.631 509.991 142.893 509.991 Z" fill="#000000" fill-rule="nonzero" fill-opacity="1" /><path clip-path="url(#clip740)" d="M72.6969 262.095 Q76.8925 262.992 79.2362 265.828 Q81.6089 268.664 81.6089 272.83 Q81.6089 279.225 77.2107 282.726 Q72.8126 286.227 64.7108 286.227 Q61.9909 286.227 59.0974 285.677 Q56.2328 285.157 53.1657 284.086 L53.1657 278.444 Q55.5963 279.862 58.4898 280.585 Q61.3833 281.308 64.5372 281.308 Q70.0349 281.308 72.8994 279.138 Q75.7929 276.968 75.7929 272.83 Q75.7929 269.011 73.102 266.87 Q70.4399 264.7 65.6657 264.7 L60.631 264.7 L60.631 259.896 L65.8971 259.896 Q70.2085 259.896 72.4943 258.189 Q74.7802 256.453 74.7802 253.212 Q74.7802 249.885 72.4075 248.12 Q70.0638 246.326 65.6657 246.326 Q63.2641 246.326 60.5152 246.847 Q57.7664 247.368 54.4678 248.467 L54.4678 243.259 Q57.7953 242.333 60.6888 241.87 Q63.6113 241.407 66.1865 241.407 Q72.8416 241.407 76.7189 244.445 Q80.5961 247.454 80.5961 252.605 Q80.5961 256.193 78.5418 258.681 Q76.4874 261.141 72.6969 262.095 Z" fill="#000000" fill-rule="nonzero" fill-opacity="1" /><path clip-path="url(#clip740)" d="M105.191 246.036 Q100.677 246.036 98.3912 250.492 Q96.1343 254.92 96.1343 263.832 Q96.1343 272.715 98.3912 277.171 Q100.677 281.598 105.191 281.598 Q109.734 281.598 111.991 277.171 Q114.277 272.715 114.277 263.832 Q114.277 254.92 111.991 250.492 Q109.734 246.036 105.191 246.036 M105.191 241.407 Q112.454 241.407 116.273 247.165 Q120.121 252.894 120.121 263.832 Q120.121 274.74 116.273 280.498 Q112.454 286.227 105.191 286.227 Q97.9282 286.227 94.0799 280.498 Q90.2604 274.74 90.2604 263.832 Q90.2604 252.894 94.0799 247.165 Q97.9282 241.407 105.191 241.407 Z" fill="#000000" fill-rule="nonzero" fill-opacity="1" /><path clip-path="url(#clip740)" d="M142.893 246.036 Q138.379 246.036 136.094 250.492 Q133.837 254.92 133.837 263.832 Q133.837 272.715 136.094 277.171 Q138.379 281.598 142.893 281.598 Q147.436 281.598 149.693 277.171 Q151.979 272.715 151.979 263.832 Q151.979 254.92 149.693 250.492 Q147.436 246.036 142.893 246.036 M142.893 241.407 Q150.156 241.407 153.975 247.165 Q157.824 252.894 157.824 263.832 Q157.824 274.74 153.975 280.498 Q150.156 286.227 142.893 286.227 Q135.631 286.227 131.782 280.498 Q127.963 274.74 127.963 263.832 Q127.963 252.894 131.782 247.165 Q135.631 241.407 142.893 241.407 Z" fill="#000000" fill-rule="nonzero" fill-opacity="1" /><polyline clip-path="url(#clip742)" style="stroke:#009af9; stroke-linecap:round; stroke-linejoin:round; stroke-width:10; stroke-opacity:1; fill:none" points="237.775,653.223 265.996,653.525 294.216,654.432 322.437,655.938 350.658,658.038 378.879,660.722 407.1,663.979 435.321,667.795 463.541,672.153 491.762,677.035 519.983,682.421 548.204,688.287 576.425,694.61 604.646,701.365 632.867,708.522 661.087,716.056 689.308,723.935 717.529,732.129 745.75,740.608 773.971,749.34 802.192,758.293 830.413,767.435 858.633,776.735 886.854,786.161 915.075,795.682 943.296,805.268 971.517,814.889 999.738,824.516 1027.96,834.122 1056.18,843.68 1084.4,853.165 1112.62,862.553 1140.84,871.821 1169.06,880.949 1197.28,889.917 1225.5,898.707 1253.73,907.302 1281.95,915.69 1310.17,923.855 1338.39,931.788 1366.61,939.478 1394.83,946.918 1423.05,954.099 1451.27,961.018 1479.49,967.671 1507.71,974.055 1535.93,980.169 1564.15,986.013 1592.38,991.588 1620.6,996.897 1648.82,1001.94 1677.04,1006.73 1705.26,1011.26 1733.48,1015.55 1761.7,1019.59 1789.92,1023.39 1818.14,1026.97 1846.36,1030.33 1874.58,1033.48 1902.8,1036.42 "/>
<polyline clip-path="url(#clip742)" style="stroke:#e26f46; stroke-linecap:round; stroke-linejoin:round; stroke-width:8; stroke-opacity:0.5; fill:none" points="237.775,456.529 265.996,456.988 294.216,458.364 322.437,460.65 350.658,463.836 378.879,467.908 407.1,472.847 435.321,478.633 463.541,485.239 491.762,492.636 519.983,500.793 548.204,509.674 576.425,519.242 604.646,529.457 632.867,540.276 661.087,551.656 689.308,563.549 717.529,575.91 745.75,588.691 773.971,601.842 802.192,615.314 830.413,629.06 858.633,643.029 886.854,657.173 915.075,671.446 943.296,685.801 971.517,700.192 999.738,714.575 1027.96,728.91 1056.18,743.155 1084.4,757.273 1112.62,771.228 1140.84,784.986 1169.06,798.516 1197.28,811.789 1225.5,824.779 1253.73,837.463 1281.95,849.819 1310.17,861.829 1338.39,873.477 1366.61,884.748 1394.83,895.633 1423.05,906.121 1451.27,916.207 1479.49,925.886 1507.71,935.156 1535.93,944.015 1564.15,952.466 1592.38,960.512 1620.6,968.157 1648.82,975.407 1677.04,982.27 1705.26,988.753 1733.48,994.867 1761.7,1000.62 1789.92,1006.03 1818.14,1011.1 1846.36,1015.84 1874.58,1020.28 1902.8,1024.41 "/>
<polyline clip-path="url(#clip742)" style="stroke:#3da44d; stroke-linecap:round; stroke-linejoin:round; stroke-width:8; stroke-opacity:0.5; fill:none" points="237.775,76.6465 265.996,77.3459 294.216,79.4414 322.437,82.9241 350.658,87.7792 378.879,93.9864 407.1,101.52 435.321,110.348 463.541,120.434 491.762,131.737 519.983,144.21 548.204,157.804 576.425,172.463 604.646,188.13 632.867,204.742 661.087,222.237 689.308,240.547 717.529,259.604 745.75,279.337 773.971,299.675 802.192,320.547 830.413,341.879 858.633,363.599 886.854,385.635 915.075,407.916 943.296,430.374 971.517,452.938 999.738,475.544 1027.96,498.127 1056.18,520.626 1084.4,542.981 1112.62,565.138 1140.84,587.042 1169.06,608.646 1197.28,629.902 1225.5,650.769 1253.73,671.207 1281.95,691.181 1310.17,710.66 1338.39,729.615 1366.61,748.023 1394.83,765.862 1423.05,783.116 1451.27,799.77 1479.49,815.813 1507.71,831.238 1535.93,846.041 1564.15,860.219 1592.38,873.774 1620.6,886.71 1648.82,899.031 1677.04,910.745 1705.26,921.863 1733.48,932.396 1761.7,942.358 1789.92,951.761 1818.14,960.624 1846.36,968.961 1874.58,976.791 1902.8,984.131 "/>
<polyline clip-path="url(#clip742)" style="stroke:#c271d2; stroke-linecap:round; stroke-linejoin:round; stroke-width:8; stroke-opacity:0.5; fill:none" points="237.775,428.645 265.996,429.205 294.216,430.881 322.437,433.664 350.658,437.54 378.879,442.489 407.1,448.485 435.321,455.498 463.541,463.491 491.762,472.424 519.983,482.252 548.204,492.927 576.425,504.396 604.646,516.604 632.867,529.492 661.087,543 689.308,557.067 717.529,571.628 745.75,586.62 773.971,601.979 802.192,617.639 830.413,633.537 858.633,649.609 886.854,665.796 915.075,682.036 943.296,698.271 971.517,714.448 999.738,730.513 1027.96,746.415 1056.18,762.11 1084.4,777.552 1112.62,792.703 1140.84,807.526 1169.06,821.988 1197.28,836.06 1225.5,849.717 1253.73,862.936 1281.95,875.699 1310.17,887.991 1338.39,899.8 1366.61,911.118 1394.83,921.94 1423.05,932.262 1451.27,942.086 1479.49,951.413 1507.71,960.248 1535.93,968.599 1564.15,976.475 1592.38,983.886 1620.6,990.844 1648.82,997.364 1677.04,1003.46 1705.26,1009.14 1733.48,1014.44 1761.7,1019.35 1789.92,1023.91 1818.14,1028.13 1846.36,1032.02 1874.58,1035.61 1902.8,1038.9 "/>
<polyline clip-path="url(#clip742)" style="stroke:#ac8d18; stroke-linecap:round; stroke-linejoin:round; stroke-width:8; stroke-opacity:0.5; fill:none" points="237.775,786.804 265.996,787.003 294.216,787.601 322.437,788.594 350.658,789.978 378.879,791.747 407.1,793.894 435.321,796.411 463.541,799.286 491.762,802.508 519.983,806.064 548.204,809.938 576.425,814.117 604.646,818.582 632.867,823.317 661.087,828.304 689.308,833.522 717.529,838.954 745.75,844.578 773.971,850.374 802.192,856.322 830.413,862.401 858.633,868.59 886.854,874.87 915.075,881.219 943.296,887.618 971.517,894.047 999.738,900.488 1027.96,906.922 1056.18,913.331 1084.4,919.7 1112.62,926.011 1140.84,932.251 1169.06,938.405 1197.28,944.459 1225.5,950.402 1253.73,956.222 1281.95,961.911 1310.17,967.458 1338.39,972.855 1366.61,978.096 1394.83,983.175 1423.05,988.087 1451.27,992.828 1479.49,997.395 1507.71,1001.79 1535.93,1006 1564.15,1010.03 1592.38,1013.89 1620.6,1017.57 1648.82,1021.08 1677.04,1024.41 1705.26,1027.57 1733.48,1030.57 1761.7,1033.4 1789.92,1036.08 1818.14,1038.6 1846.36,1040.97 1874.58,1043.2 1902.8,1045.28 "/>
<polyline clip-path="url(#clip742)" style="stroke:#00a9ad; stroke-linecap:round; stroke-linejoin:round; stroke-width:8; stroke-opacity:0.5; fill:none" points="237.775,894.979 265.996,895.11 294.216,895.502 322.437,896.154 350.658,897.062 378.879,898.223 407.1,899.631 435.321,901.28 463.541,903.163 491.762,905.272 519.983,907.597 548.204,910.128 576.425,912.856 604.646,915.767 632.867,918.851 661.087,922.094 689.308,925.484 717.529,929.007 745.75,932.649 773.971,936.397 802.192,940.237 830.413,944.154 858.633,948.134 886.854,952.165 915.075,956.232 943.296,960.322 971.517,964.422 999.738,968.52 1027.96,972.604 1056.18,976.662 1084.4,980.683 1112.62,984.659 1140.84,988.577 1169.06,992.431 1197.28,996.211 1225.5,999.911 1253.73,1003.52 1281.95,1007.04 1310.17,1010.46 1338.39,1013.78 1366.61,1016.99 1394.83,1020.09 1423.05,1023.07 1451.27,1025.94 1479.49,1028.7 1507.71,1031.34 1535.93,1033.86 1564.15,1036.26 1592.38,1038.55 1620.6,1040.73 1648.82,1042.79 1677.04,1044.74 1705.26,1046.59 1733.48,1048.32 1761.7,1049.96 1789.92,1051.5 1818.14,1052.94 1846.36,1054.29 1874.58,1055.55 1902.8,1056.73 "/>
<polyline clip-path="url(#clip742)" style="stroke:#ed5d92; stroke-linecap:round; stroke-linejoin:round; stroke-width:8; stroke-opacity:0.5; fill:none" points="237.775,799.105 265.996,799.269 294.216,799.759 322.437,800.574 350.658,801.712 378.879,803.167 407.1,804.935 435.321,807.009 463.541,809.382 491.762,812.045 519.983,814.989 548.204,818.205 576.425,821.68 604.646,825.402 632.867,829.36 661.087,833.539 689.308,837.927 717.529,842.507 745.75,847.267 773.971,852.189 802.192,857.26 830.413,862.464 858.633,867.784 886.854,873.206 915.075,878.713 943.296,884.29 971.517,889.921 999.738,895.592 1027.96,901.288 1056.18,906.994 1084.4,912.697 1112.62,918.383 1140.84,924.039 1169.06,929.652 1197.28,935.212 1225.5,940.707 1253.73,946.127 1281.95,951.461 1310.17,956.702 1338.39,961.841 1366.61,966.87 1394.83,971.782 1423.05,976.572 1451.27,981.235 1479.49,985.765 1507.71,990.159 1535.93,994.413 1564.15,998.525 1592.38,1002.49 1620.6,1006.32 1648.82,1009.99 1677.04,1013.53 1705.26,1016.91 1733.48,1020.15 1761.7,1023.25 1789.92,1026.21 1818.14,1029.02 1846.36,1031.7 1874.58,1034.24 1902.8,1036.66 "/>
<path clip-path="url(#clip740)" d="M1342.55 211.474 L1893.92 211.474 L1893.92 81.8736 L1342.55 81.8736  Z" fill="#ffffff" fill-rule="evenodd" fill-opacity="1"/>
<polyline clip-path="url(#clip740)" style="stroke:#000000; stroke-linecap:round; stroke-linejoin:round; stroke-width:4; stroke-opacity:1; fill:none" points="1342.55,211.474 1893.92,211.474 1893.92,81.8736 1342.55,81.8736 1342.55,211.474 "/>
<polyline clip-path="url(#clip740)" style="stroke:#009af9; stroke-linecap:round; stroke-linejoin:round; stroke-width:12.5; stroke-opacity:1; fill:none" points="1362.16,146.674 1479.82,146.674 "/>
<path clip-path="url(#clip740)" d="M1499.43 123.251 L1504.79 123.251 L1504.79 149.842 L1520.67 135.866 L1527.47 135.866 L1510.28 151.028 L1528.19 168.274 L1521.25 168.274 L1504.79 152.446 L1504.79 168.274 L1499.43 168.274 L1499.43 123.251 Z" fill="#000000" fill-rule="nonzero" fill-opacity="1" /><path clip-path="url(#clip740)" d="M1559.56 150.739 L1559.56 153.343 L1535.08 153.343 Q1535.43 158.841 1538.38 161.734 Q1541.36 164.599 1546.65 164.599 Q1549.72 164.599 1552.59 163.846 Q1555.48 163.094 1558.32 161.59 L1558.32 166.624 Q1555.45 167.84 1552.44 168.476 Q1549.43 169.113 1546.34 169.113 Q1538.58 169.113 1534.04 164.599 Q1529.52 160.085 1529.52 152.388 Q1529.52 144.431 1533.81 139.773 Q1538.12 135.085 1545.41 135.085 Q1551.95 135.085 1555.74 139.31 Q1559.56 143.505 1559.56 150.739 M1554.24 149.176 Q1554.18 144.807 1551.78 142.203 Q1549.4 139.599 1545.47 139.599 Q1541.01 139.599 1538.32 142.116 Q1535.66 144.634 1535.25 149.205 L1554.24 149.176 Z" fill="#000000" fill-rule="nonzero" fill-opacity="1" /><path clip-path="url(#clip740)" d="M1587.08 140.843 Q1586.18 140.322 1585.11 140.091 Q1584.07 139.83 1582.79 139.83 Q1578.28 139.83 1575.85 142.782 Q1573.45 145.704 1573.45 151.202 L1573.45 168.274 L1568.1 168.274 L1568.1 135.866 L1573.45 135.866 L1573.45 140.901 Q1575.13 137.95 1577.82 136.532 Q1580.51 135.085 1584.36 135.085 Q1584.91 135.085 1585.57 135.172 Q1586.24 135.23 1587.05 135.374 L1587.08 140.843 Z" fill="#000000" fill-rule="nonzero" fill-opacity="1" /><path clip-path="url(#clip740)" d="M1618.56 148.713 L1618.56 168.274 L1613.23 168.274 L1613.23 148.887 Q1613.23 144.286 1611.44 142.001 Q1609.65 139.715 1606.06 139.715 Q1601.75 139.715 1599.26 142.464 Q1596.77 145.212 1596.77 149.958 L1596.77 168.274 L1591.42 168.274 L1591.42 135.866 L1596.77 135.866 L1596.77 140.901 Q1598.68 137.979 1601.25 136.532 Q1603.86 135.085 1607.24 135.085 Q1612.83 135.085 1615.69 138.557 Q1618.56 142.001 1618.56 148.713 Z" fill="#000000" fill-rule="nonzero" fill-opacity="1" /><path clip-path="url(#clip740)" d="M1656.9 150.739 L1656.9 153.343 L1632.42 153.343 Q1632.76 158.841 1635.72 161.734 Q1638.7 164.599 1643.99 164.599 Q1647.06 164.599 1649.92 163.846 Q1652.82 163.094 1655.65 161.59 L1655.65 166.624 Q1652.79 167.84 1649.78 168.476 Q1646.77 169.113 1643.67 169.113 Q1635.92 169.113 1631.38 164.599 Q1626.86 160.085 1626.86 152.388 Q1626.86 144.431 1631.14 139.773 Q1635.46 135.085 1642.75 135.085 Q1649.29 135.085 1653.08 139.31 Q1656.9 143.505 1656.9 150.739 M1651.57 149.176 Q1651.51 144.807 1649.11 142.203 Q1646.74 139.599 1642.81 139.599 Q1638.35 139.599 1635.66 142.116 Q1633 144.634 1632.59 149.205 L1651.57 149.176 Z" fill="#000000" fill-rule="nonzero" fill-opacity="1" /><path clip-path="url(#clip740)" d="M1665.64 123.251 L1670.96 123.251 L1670.96 168.274 L1665.64 168.274 L1665.64 123.251 Z" fill="#000000" fill-rule="nonzero" fill-opacity="1" /><path clip-path="url(#clip740)" d="M1726.17 142.087 Q1728.16 138.499 1730.94 136.792 Q1733.72 135.085 1737.48 135.085 Q1742.54 135.085 1745.29 138.644 Q1748.04 142.174 1748.04 148.713 L1748.04 168.274 L1742.69 168.274 L1742.69 148.887 Q1742.69 144.229 1741.04 141.972 Q1739.39 139.715 1736.01 139.715 Q1731.87 139.715 1729.47 142.464 Q1727.06 145.212 1727.06 149.958 L1727.06 168.274 L1721.71 168.274 L1721.71 148.887 Q1721.71 144.2 1720.06 141.972 Q1718.41 139.715 1714.97 139.715 Q1710.89 139.715 1708.49 142.492 Q1706.09 145.241 1706.09 149.958 L1706.09 168.274 L1700.73 168.274 L1700.73 135.866 L1706.09 135.866 L1706.09 140.901 Q1707.91 137.921 1710.46 136.503 Q1713 135.085 1716.5 135.085 Q1720.03 135.085 1722.49 136.879 Q1724.98 138.673 1726.17 142.087 Z" fill="#000000" fill-rule="nonzero" fill-opacity="1" /><path clip-path="url(#clip740)" d="M1771.22 139.599 Q1766.94 139.599 1764.45 142.955 Q1761.96 146.283 1761.96 152.099 Q1761.96 157.915 1764.42 161.271 Q1766.91 164.599 1771.22 164.599 Q1775.47 164.599 1777.96 161.242 Q1780.45 157.886 1780.45 152.099 Q1780.45 146.341 1777.96 142.984 Q1775.47 139.599 1771.22 139.599 M1771.22 135.085 Q1778.16 135.085 1782.13 139.599 Q1786.09 144.113 1786.09 152.099 Q1786.09 160.056 1782.13 164.599 Q1778.16 169.113 1771.22 169.113 Q1764.25 169.113 1760.28 164.599 Q1756.35 160.056 1756.35 152.099 Q1756.35 144.113 1760.28 139.599 Q1764.25 135.085 1771.22 135.085 Z" fill="#000000" fill-rule="nonzero" fill-opacity="1" /><path clip-path="url(#clip740)" d="M1816.24 140.785 L1816.24 123.251 L1821.57 123.251 L1821.57 168.274 L1816.24 168.274 L1816.24 163.412 Q1814.56 166.306 1811.99 167.724 Q1809.44 169.113 1805.85 169.113 Q1799.98 169.113 1796.28 164.425 Q1792.6 159.738 1792.6 152.099 Q1792.6 144.46 1796.28 139.773 Q1799.98 135.085 1805.85 135.085 Q1809.44 135.085 1811.99 136.503 Q1814.56 137.892 1816.24 140.785 M1798.1 152.099 Q1798.1 157.973 1800.5 161.329 Q1802.93 164.657 1807.16 164.657 Q1811.38 164.657 1813.81 161.329 Q1816.24 157.973 1816.24 152.099 Q1816.24 146.225 1813.81 142.898 Q1811.38 139.541 1807.16 139.541 Q1802.93 139.541 1800.5 142.898 Q1798.1 146.225 1798.1 152.099 Z" fill="#000000" fill-rule="nonzero" fill-opacity="1" /><path clip-path="url(#clip740)" d="M1860.25 150.739 L1860.25 153.343 L1835.77 153.343 Q1836.12 158.841 1839.07 161.734 Q1842.05 164.599 1847.35 164.599 Q1850.41 164.599 1853.28 163.846 Q1856.17 163.094 1859.01 161.59 L1859.01 166.624 Q1856.14 167.84 1853.13 168.476 Q1850.12 169.113 1847.03 169.113 Q1839.27 169.113 1834.73 164.599 Q1830.22 160.085 1830.22 152.388 Q1830.22 144.431 1834.5 139.773 Q1838.81 135.085 1846.1 135.085 Q1852.64 135.085 1856.43 139.31 Q1860.25 143.505 1860.25 150.739 M1854.93 149.176 Q1854.87 144.807 1852.47 142.203 Q1850.1 139.599 1846.16 139.599 Q1841.7 139.599 1839.01 142.116 Q1836.35 144.634 1835.95 149.205 L1854.93 149.176 Z" fill="#000000" fill-rule="nonzero" fill-opacity="1" /><path clip-path="url(#clip740)" d="M1868.99 123.251 L1874.31 123.251 L1874.31 168.274 L1868.99 168.274 L1868.99 123.251 Z" fill="#000000" fill-rule="nonzero" fill-opacity="1" /></svg>
