<?xml version="1.0" encoding="utf-8"?>
<svg xmlns="http://www.w3.org/2000/svg" xmlns:xlink="http://www.w3.org/1999/xlink" width="500" height="300" viewBox="0 0 2000 1200">
<defs>
  <clipPath id="clip810">
    <rect x="0" y="0" width="2000" height="1200"/>
  </clipPath>
</defs>
<path clip-path="url(#clip810)" d="M0 1200 L2000 1200 L2000 0 L0 0  Z" fill="#ffffff" fill-rule="evenodd" fill-opacity="1"/>
<defs>
  <clipPath id="clip811">
    <rect x="400" y="0" width="1401" height="1200"/>
  </clipPath>
</defs>
<path clip-path="url(#clip810)" d="M247.632 1086.13 L1952.76 1086.13 L1952.76 47.2441 L247.632 47.2441  Z" fill="#ffffff" fill-rule="evenodd" fill-opacity="1"/>
<defs>
  <clipPath id="clip812">
    <rect x="247" y="47" width="1706" height="1040"/>
  </clipPath>
</defs>
<polyline clip-path="url(#clip810)" style="stroke:#000000; stroke-linecap:round; stroke-linejoin:round; stroke-width:4; stroke-opacity:1; fill:none" points="247.632,1086.13 1952.76,1086.13 "/>
<polyline clip-path="url(#clip810)" style="stroke:#000000; stroke-linecap:round; stroke-linejoin:round; stroke-width:4; stroke-opacity:1; fill:none" points="510.372,1086.13 510.372,1067.23 "/>
<polyline clip-path="url(#clip810)" style="stroke:#000000; stroke-linecap:round; stroke-linejoin:round; stroke-width:4; stroke-opacity:1; fill:none" points="778.473,1086.13 778.473,1067.23 "/>
<polyline clip-path="url(#clip810)" style="stroke:#000000; stroke-linecap:round; stroke-linejoin:round; stroke-width:4; stroke-opacity:1; fill:none" points="1046.57,1086.13 1046.57,1067.23 "/>
<polyline clip-path="url(#clip810)" style="stroke:#000000; stroke-linecap:round; stroke-linejoin:round; stroke-width:4; stroke-opacity:1; fill:none" points="1314.68,1086.13 1314.68,1067.23 "/>
<polyline clip-path="url(#clip810)" style="stroke:#000000; stroke-linecap:round; stroke-linejoin:round; stroke-width:4; stroke-opacity:1; fill:none" points="1582.78,1086.13 1582.78,1067.23 "/>
<polyline clip-path="url(#clip810)" style="stroke:#000000; stroke-linecap:round; stroke-linejoin:round; stroke-width:4; stroke-opacity:1; fill:none" points="1850.88,1086.13 1850.88,1067.23 "/>
<path clip-path="url(#clip810)" d="M498.219 1112.93 L521.164 1112.93 L521.164 1117.85 L503.572 1117.85 L503.572 1128.44 Q504.845 1128 506.118 1127.8 Q507.391 1127.57 508.664 1127.57 Q515.898 1127.57 520.123 1131.53 Q524.347 1135.5 524.347 1142.27 Q524.347 1149.24 520.007 1153.12 Q515.667 1156.97 507.767 1156.97 Q505.048 1156.97 502.212 1156.5 Q499.405 1156.04 496.396 1155.12 L496.396 1149.24 Q499 1150.66 501.778 1151.35 Q504.556 1152.05 507.652 1152.05 Q512.657 1152.05 515.58 1149.41 Q518.502 1146.78 518.502 1142.27 Q518.502 1137.75 515.58 1135.12 Q512.657 1132.49 507.652 1132.49 Q505.308 1132.49 502.964 1133.01 Q500.649 1133.53 498.219 1134.63 L498.219 1112.93 Z" fill="#000000" fill-rule="nonzero" fill-opacity="1" /><path clip-path="url(#clip810)" d="M746.832 1151.21 L756.381 1151.21 L756.381 1118.25 L745.993 1120.34 L745.993 1115.01 L756.323 1112.93 L762.168 1112.93 L762.168 1151.21 L771.716 1151.21 L771.716 1156.13 L746.832 1156.13 L746.832 1151.21 Z" fill="#000000" fill-rule="nonzero" fill-opacity="1" /><path clip-path="url(#clip810)" d="M796.022 1116.78 Q791.508 1116.78 789.222 1121.23 Q786.965 1125.66 786.965 1134.57 Q786.965 1143.45 789.222 1147.91 Q791.508 1152.34 796.022 1152.34 Q800.565 1152.34 802.822 1147.91 Q805.107 1143.45 805.107 1134.57 Q805.107 1125.66 802.822 1121.23 Q800.565 1116.78 796.022 1116.78 M796.022 1112.15 Q803.285 1112.15 807.104 1117.9 Q810.952 1123.63 810.952 1134.57 Q810.952 1145.48 807.104 1151.24 Q803.285 1156.97 796.022 1156.97 Q788.759 1156.97 784.911 1151.24 Q781.091 1145.48 781.091 1134.57 Q781.091 1123.63 784.911 1117.9 Q788.759 1112.15 796.022 1112.15 Z" fill="#000000" fill-rule="nonzero" fill-opacity="1" /><path clip-path="url(#clip810)" d="M1015.56 1151.21 L1025.1 1151.21 L1025.1 1118.25 L1014.72 1120.34 L1014.72 1115.01 L1025.05 1112.93 L1030.89 1112.93 L1030.89 1151.21 L1040.44 1151.21 L1040.44 1156.13 L1015.56 1156.13 L1015.56 1151.21 Z" fill="#000000" fill-rule="nonzero" fill-opacity="1" /><path clip-path="url(#clip810)" d="M1052.3 1112.93 L1075.25 1112.93 L1075.25 1117.85 L1057.66 1117.85 L1057.66 1128.44 Q1058.93 1128 1060.2 1127.8 Q1061.48 1127.57 1062.75 1127.57 Q1069.98 1127.57 1074.21 1131.53 Q1078.43 1135.5 1078.43 1142.27 Q1078.43 1149.24 1074.09 1153.12 Q1069.75 1156.97 1061.85 1156.97 Q1059.13 1156.97 1056.3 1156.5 Q1053.49 1156.04 1050.48 1155.12 L1050.48 1149.24 Q1053.08 1150.66 1055.86 1151.35 Q1058.64 1152.05 1061.74 1152.05 Q1066.74 1152.05 1069.66 1149.41 Q1072.59 1146.78 1072.59 1142.27 Q1072.59 1137.75 1069.66 1135.12 Q1066.74 1132.49 1061.74 1132.49 Q1059.39 1132.49 1057.05 1133.01 Q1054.73 1133.53 1052.3 1134.63 L1052.3 1112.93 Z" fill="#000000" fill-rule="nonzero" fill-opacity="1" /><path clip-path="url(#clip810)" d="M1288.14 1151.21 L1308.54 1151.21 L1308.54 1156.13 L1281.11 1156.13 L1281.11 1151.21 Q1284.44 1147.77 1290.17 1141.98 Q1295.93 1136.16 1297.4 1134.48 Q1300.21 1131.33 1301.31 1129.16 Q1302.44 1126.96 1302.44 1124.85 Q1302.44 1121.41 1300.01 1119.24 Q1297.6 1117.07 1293.73 1117.07 Q1290.98 1117.07 1287.91 1118.02 Q1284.87 1118.98 1281.4 1120.91 L1281.4 1115.01 Q1284.93 1113.59 1288 1112.87 Q1291.06 1112.15 1293.61 1112.15 Q1300.32 1112.15 1304.32 1115.5 Q1308.31 1118.86 1308.31 1124.47 Q1308.31 1127.13 1307.3 1129.54 Q1306.31 1131.91 1303.68 1135.15 Q1302.96 1135.99 1299.08 1140.01 Q1295.2 1144 1288.14 1151.21 Z" fill="#000000" fill-rule="nonzero" fill-opacity="1" /><path clip-path="url(#clip810)" d="M1333.31 1116.78 Q1328.8 1116.78 1326.51 1121.23 Q1324.25 1125.66 1324.25 1134.57 Q1324.25 1143.45 1326.51 1147.91 Q1328.8 1152.34 1333.31 1152.34 Q1337.85 1152.34 1340.11 1147.91 Q1342.39 1143.45 1342.39 1134.57 Q1342.39 1125.66 1340.11 1121.23 Q1337.85 1116.78 1333.31 1116.78 M1333.31 1112.15 Q1340.57 1112.15 1344.39 1117.9 Q1348.24 1123.63 1348.24 1134.57 Q1348.24 1145.48 1344.39 1151.24 Q1340.57 1156.97 1333.31 1156.97 Q1326.05 1156.97 1322.2 1151.24 Q1318.38 1145.48 1318.38 1134.57 Q1318.38 1123.63 1322.2 1117.9 Q1326.05 1112.15 1333.31 1112.15 Z" fill="#000000" fill-rule="nonzero" fill-opacity="1" /><path clip-path="url(#clip810)" d="M1556.86 1151.21 L1577.26 1151.21 L1577.26 1156.13 L1549.83 1156.13 L1549.83 1151.21 Q1553.16 1147.77 1558.89 1141.98 Q1564.65 1136.16 1566.12 1134.48 Q1568.93 1131.33 1570.03 1129.16 Q1571.16 1126.96 1571.16 1124.85 Q1571.16 1121.41 1568.73 1119.24 Q1566.33 1117.07 1562.45 1117.07 Q1559.7 1117.07 1556.63 1118.02 Q1553.6 1118.98 1550.12 1120.91 L1550.12 1115.01 Q1553.65 1113.59 1556.72 1112.87 Q1559.79 1112.15 1562.33 1112.15 Q1569.05 1112.15 1573.04 1115.5 Q1577.03 1118.86 1577.03 1124.47 Q1577.03 1127.13 1576.02 1129.54 Q1575.04 1131.91 1572.4 1135.15 Q1571.68 1135.99 1567.8 1140.01 Q1563.93 1144 1556.86 1151.21 Z" fill="#000000" fill-rule="nonzero" fill-opacity="1" /><path clip-path="url(#clip810)" d="M1589.59 1112.93 L1612.54 1112.93 L1612.54 1117.85 L1594.94 1117.85 L1594.94 1128.44 Q1596.22 1128 1597.49 1127.8 Q1598.76 1127.57 1600.04 1127.57 Q1607.27 1127.57 1611.49 1131.53 Q1615.72 1135.5 1615.72 1142.27 Q1615.72 1149.24 1611.38 1153.12 Q1607.04 1156.97 1599.14 1156.97 Q1596.42 1156.97 1593.58 1156.5 Q1590.78 1156.04 1587.77 1155.12 L1587.77 1149.24 Q1590.37 1150.66 1593.15 1151.35 Q1595.93 1152.05 1599.02 1152.05 Q1604.03 1152.05 1606.95 1149.41 Q1609.87 1146.78 1609.87 1142.27 Q1609.87 1137.75 1606.95 1135.12 Q1604.03 1132.49 1599.02 1132.49 Q1596.68 1132.49 1594.34 1133.01 Q1592.02 1133.53 1589.59 1134.63 L1589.59 1112.93 Z" fill="#000000" fill-rule="nonzero" fill-opacity="1" /><path clip-path="url(#clip810)" d="M1836.93 1132.84 Q1841.13 1133.73 1843.47 1136.57 Q1845.84 1139.4 1845.84 1143.57 Q1845.84 1149.96 1841.44 1153.47 Q1837.05 1156.97 1828.94 1156.97 Q1826.22 1156.97 1823.33 1156.42 Q1820.47 1155.9 1817.4 1154.83 L1817.4 1149.18 Q1819.83 1150.6 1822.72 1151.32 Q1825.62 1152.05 1828.77 1152.05 Q1834.27 1152.05 1837.13 1149.88 Q1840.03 1147.71 1840.03 1143.57 Q1840.03 1139.75 1837.34 1137.61 Q1834.67 1135.44 1829.9 1135.44 L1824.86 1135.44 L1824.86 1130.64 L1830.13 1130.64 Q1834.44 1130.64 1836.73 1128.93 Q1839.01 1127.19 1839.01 1123.95 Q1839.01 1120.62 1836.64 1118.86 Q1834.3 1117.07 1829.9 1117.07 Q1827.5 1117.07 1824.75 1117.59 Q1822 1118.11 1818.7 1119.21 L1818.7 1114 Q1822.03 1113.07 1824.92 1112.61 Q1827.85 1112.15 1830.42 1112.15 Q1837.08 1112.15 1840.95 1115.18 Q1844.83 1118.19 1844.83 1123.34 Q1844.83 1126.93 1842.78 1129.42 Q1840.72 1131.88 1836.93 1132.84 Z" fill="#000000" fill-rule="nonzero" fill-opacity="1" /><path clip-path="url(#clip810)" d="M1869.42 1116.78 Q1864.91 1116.78 1862.63 1121.23 Q1860.37 1125.66 1860.37 1134.57 Q1860.37 1143.45 1862.63 1147.91 Q1864.91 1152.34 1869.42 1152.34 Q1873.97 1152.34 1876.22 1147.91 Q1878.51 1143.45 1878.51 1134.57 Q1878.51 1125.66 1876.22 1121.23 Q1873.97 1116.78 1869.42 1116.78 M1869.42 1112.15 Q1876.69 1112.15 1880.51 1117.9 Q1884.36 1123.63 1884.36 1134.57 Q1884.36 1145.48 1880.51 1151.24 Q1876.69 1156.97 1869.42 1156.97 Q1862.16 1156.97 1858.31 1151.24 Q1854.49 1145.48 1854.49 1134.57 Q1854.49 1123.63 1858.31 1117.9 Q1862.16 1112.15 1869.42 1112.15 Z" fill="#000000" fill-rule="nonzero" fill-opacity="1" /><polyline clip-path="url(#clip810)" style="stroke:#000000; stroke-linecap:round; stroke-linejoin:round; stroke-width:4; stroke-opacity:1; fill:none" points="247.632,1086.13 247.632,47.2441 "/>
<polyline clip-path="url(#clip810)" style="stroke:#000000; stroke-linecap:round; stroke-linejoin:round; stroke-width:4; stroke-opacity:1; fill:none" points="247.632,957.26 266.53,957.26 "/>
<polyline clip-path="url(#clip810)" style="stroke:#000000; stroke-linecap:round; stroke-linejoin:round; stroke-width:4; stroke-opacity:1; fill:none" points="247.632,609.444 266.53,609.444 "/>
<polyline clip-path="url(#clip810)" style="stroke:#000000; stroke-linecap:round; stroke-linejoin:round; stroke-width:4; stroke-opacity:1; fill:none" points="247.632,261.628 266.53,261.628 "/>
<path clip-path="url(#clip810)" d="M54.419 982.001 L63.9675 982.001 L63.9675 949.044 L53.5799 951.127 L53.5799 945.803 L63.9097 943.72 L69.7546 943.72 L69.7546 982.001 L79.3031 982.001 L79.3031 986.92 L54.419 986.92 L54.419 982.001 Z" fill="#000000" fill-rule="nonzero" fill-opacity="1" /><path clip-path="url(#clip810)" d="M103.609 947.568 Q99.0947 947.568 96.8088 952.024 Q94.5519 956.451 94.5519 965.363 Q94.5519 974.246 96.8088 978.702 Q99.0947 983.129 103.609 983.129 Q108.151 983.129 110.408 978.702 Q112.694 974.246 112.694 965.363 Q112.694 956.451 110.408 952.024 Q108.151 947.568 103.609 947.568 M103.609 942.939 Q110.871 942.939 114.691 948.697 Q118.539 954.426 118.539 965.363 Q118.539 976.272 114.691 982.03 Q110.871 987.759 103.609 987.759 Q96.3458 987.759 92.4975 982.03 Q88.6781 976.272 88.6781 965.363 Q88.6781 954.426 92.4975 948.697 Q96.3458 942.939 103.609 942.939 Z" fill="#000000" fill-rule="nonzero" fill-opacity="1" /><path clip-path="url(#clip810)" d="M134.408 933.732 Q137.817 934.46 139.721 936.764 Q141.649 939.068 141.649 942.454 Q141.649 947.649 138.076 950.494 Q134.502 953.339 127.919 953.339 Q125.709 953.339 123.359 952.892 Q121.031 952.469 118.539 951.599 L118.539 947.015 Q120.514 948.167 122.865 948.754 Q125.216 949.342 127.778 949.342 Q132.245 949.342 134.573 947.579 Q136.924 945.816 136.924 942.454 Q136.924 939.35 134.737 937.611 Q132.574 935.847 128.695 935.847 L124.605 935.847 L124.605 931.945 L128.883 931.945 Q132.386 931.945 134.243 930.558 Q136.101 929.147 136.101 926.514 Q136.101 923.81 134.173 922.376 Q132.269 920.919 128.695 920.919 Q126.744 920.919 124.51 921.342 Q122.277 921.765 119.597 922.659 L119.597 918.427 Q122.301 917.674 124.652 917.298 Q127.026 916.922 129.118 916.922 Q134.526 916.922 137.676 919.391 Q140.826 921.836 140.826 926.02 Q140.826 928.936 139.157 930.957 Q137.488 932.956 134.408 933.732 Z" fill="#000000" fill-rule="nonzero" fill-opacity="1" /><path clip-path="url(#clip810)" d="M150.653 946.685 L155.614 946.685 L155.614 952.657 L150.653 952.657 L150.653 946.685 Z" fill="#000000" fill-rule="nonzero" fill-opacity="1" /><path clip-path="url(#clip810)" d="M170.049 948.66 L186.623 948.66 L186.623 952.657 L164.336 952.657 L164.336 948.66 Q167.04 945.863 171.694 941.161 Q176.373 936.435 177.572 935.072 Q179.852 932.509 180.746 930.746 Q181.663 928.959 181.663 927.243 Q181.663 924.445 179.688 922.682 Q177.736 920.919 174.586 920.919 Q172.353 920.919 169.861 921.695 Q167.392 922.47 164.571 924.046 L164.571 919.25 Q167.439 918.098 169.931 917.51 Q172.423 916.922 174.492 916.922 Q179.946 916.922 183.191 919.649 Q186.435 922.376 186.435 926.937 Q186.435 929.1 185.612 931.051 Q184.813 932.979 182.674 935.612 Q182.086 936.294 178.935 939.562 Q175.785 942.806 170.049 948.66 Z" fill="#000000" fill-rule="nonzero" fill-opacity="1" /><path clip-path="url(#clip810)" d="M197.414 948.66 L205.172 948.66 L205.172 921.883 L196.732 923.575 L196.732 919.25 L205.125 917.557 L209.874 917.557 L209.874 948.66 L217.632 948.66 L217.632 952.657 L197.414 952.657 L197.414 948.66 Z" fill="#000000" fill-rule="nonzero" fill-opacity="1" /><path clip-path="url(#clip810)" d="M54.7951 634.185 L64.3437 634.185 L64.3437 601.228 L53.956 603.311 L53.956 597.987 L64.2858 595.904 L70.1307 595.904 L70.1307 634.185 L79.6793 634.185 L79.6793 639.104 L54.7951 639.104 L54.7951 634.185 Z" fill="#000000" fill-rule="nonzero" fill-opacity="1" /><path clip-path="url(#clip810)" d="M103.985 599.752 Q99.4708 599.752 97.185 604.208 Q94.928 608.635 94.928 617.547 Q94.928 626.43 97.185 630.886 Q99.4708 635.313 103.985 635.313 Q108.527 635.313 110.784 630.886 Q113.07 626.43 113.07 617.547 Q113.07 608.635 110.784 604.208 Q108.527 599.752 103.985 599.752 M103.985 595.122 Q111.247 595.122 115.067 600.88 Q118.915 606.61 118.915 617.547 Q118.915 628.456 115.067 634.214 Q111.247 639.943 103.985 639.943 Q96.722 639.943 92.8736 634.214 Q89.0542 628.456 89.0542 617.547 Q89.0542 606.61 92.8736 600.88 Q96.722 595.122 103.985 595.122 Z" fill="#000000" fill-rule="nonzero" fill-opacity="1" /><path clip-path="url(#clip810)" d="M134.784 585.915 Q138.193 586.644 140.097 588.948 Q142.025 591.252 142.025 594.637 Q142.025 599.833 138.452 602.678 Q134.878 605.522 128.296 605.522 Q126.086 605.522 123.735 605.076 Q121.407 604.653 118.915 603.783 L118.915 599.198 Q120.89 600.35 123.241 600.938 Q125.592 601.526 128.154 601.526 Q132.621 601.526 134.949 599.763 Q137.3 597.999 137.3 594.637 Q137.3 591.534 135.113 589.794 Q132.95 588.031 129.071 588.031 L124.981 588.031 L124.981 584.129 L129.259 584.129 Q132.762 584.129 134.62 582.742 Q136.477 581.331 136.477 578.698 Q136.477 575.994 134.549 574.56 Q132.645 573.103 129.071 573.103 Q127.12 573.103 124.887 573.526 Q122.653 573.949 119.973 574.842 L119.973 570.611 Q122.677 569.858 125.028 569.482 Q127.402 569.106 129.495 569.106 Q134.902 569.106 138.052 571.574 Q141.202 574.019 141.202 578.204 Q141.202 581.119 139.533 583.141 Q137.864 585.14 134.784 585.915 Z" fill="#000000" fill-rule="nonzero" fill-opacity="1" /><path clip-path="url(#clip810)" d="M151.029 598.869 L155.99 598.869 L155.99 604.841 L151.029 604.841 L151.029 598.869 Z" fill="#000000" fill-rule="nonzero" fill-opacity="1" /><path clip-path="url(#clip810)" d="M170.425 600.844 L186.999 600.844 L186.999 604.841 L164.712 604.841 L164.712 600.844 Q167.416 598.046 172.071 593.344 Q176.749 588.619 177.948 587.255 Q180.228 584.693 181.122 582.93 Q182.039 581.143 182.039 579.427 Q182.039 576.629 180.064 574.866 Q178.113 573.103 174.962 573.103 Q172.729 573.103 170.237 573.878 Q167.768 574.654 164.947 576.229 L164.947 571.433 Q167.815 570.281 170.307 569.694 Q172.799 569.106 174.868 569.106 Q180.323 569.106 183.567 571.833 Q186.811 574.56 186.811 579.121 Q186.811 581.284 185.988 583.235 Q185.189 585.163 183.05 587.796 Q182.462 588.478 179.312 591.746 Q176.161 594.99 170.425 600.844 Z" fill="#000000" fill-rule="nonzero" fill-opacity="1" /><path clip-path="url(#clip810)" d="M201.058 600.844 L217.632 600.844 L217.632 604.841 L195.345 604.841 L195.345 600.844 Q198.049 598.046 202.704 593.344 Q207.382 588.619 208.581 587.255 Q210.862 584.693 211.755 582.93 Q212.672 581.143 212.672 579.427 Q212.672 576.629 210.697 574.866 Q208.746 573.103 205.595 573.103 Q203.362 573.103 200.87 573.878 Q198.402 574.654 195.58 576.229 L195.58 571.433 Q198.449 570.281 200.941 569.694 Q203.433 569.106 205.501 569.106 Q210.956 569.106 214.2 571.833 Q217.444 574.56 217.444 579.121 Q217.444 581.284 216.622 583.235 Q215.822 585.163 213.683 587.796 Q213.095 588.478 209.945 591.746 Q206.794 594.99 201.058 600.844 Z" fill="#000000" fill-rule="nonzero" fill-opacity="1" /><path clip-path="url(#clip810)" d="M53.8312 286.368 L63.3798 286.368 L63.3798 253.411 L52.9921 255.495 L52.9921 250.171 L63.3219 248.087 L69.1668 248.087 L69.1668 286.368 L78.7154 286.368 L78.7154 291.287 L53.8312 291.287 L53.8312 286.368 Z" fill="#000000" fill-rule="nonzero" fill-opacity="1" /><path clip-path="url(#clip810)" d="M103.021 251.936 Q98.5069 251.936 96.2211 256.392 Q93.9641 260.819 93.9641 269.731 Q93.9641 278.614 96.2211 283.07 Q98.5069 287.497 103.021 287.497 Q107.564 287.497 109.821 283.07 Q112.106 278.614 112.106 269.731 Q112.106 260.819 109.821 256.392 Q107.564 251.936 103.021 251.936 M103.021 247.306 Q110.283 247.306 114.103 253.064 Q117.951 258.793 117.951 269.731 Q117.951 280.639 114.103 286.397 Q110.283 292.127 103.021 292.127 Q95.7581 292.127 91.9097 286.397 Q88.0903 280.639 88.0903 269.731 Q88.0903 258.793 91.9097 253.064 Q95.7581 247.306 103.021 247.306 Z" fill="#000000" fill-rule="nonzero" fill-opacity="1" /><path clip-path="url(#clip810)" d="M133.82 238.099 Q137.229 238.828 139.134 241.132 Q141.061 243.436 141.061 246.821 Q141.061 252.017 137.488 254.862 Q133.914 257.706 127.332 257.706 Q125.122 257.706 122.771 257.259 Q120.443 256.836 117.951 255.966 L117.951 251.382 Q119.926 252.534 122.277 253.122 Q124.628 253.71 127.191 253.71 Q131.657 253.71 133.985 251.946 Q136.336 250.183 136.336 246.821 Q136.336 243.718 134.149 241.978 Q131.987 240.215 128.107 240.215 L124.017 240.215 L124.017 236.312 L128.296 236.312 Q131.798 236.312 133.656 234.925 Q135.513 233.515 135.513 230.882 Q135.513 228.178 133.585 226.744 Q131.681 225.286 128.107 225.286 Q126.156 225.286 123.923 225.709 Q121.689 226.133 119.009 227.026 L119.009 222.794 Q121.713 222.042 124.064 221.666 Q126.438 221.29 128.531 221.29 Q133.938 221.29 137.088 223.758 Q140.238 226.203 140.238 230.388 Q140.238 233.303 138.569 235.325 Q136.9 237.323 133.82 238.099 Z" fill="#000000" fill-rule="nonzero" fill-opacity="1" /><path clip-path="url(#clip810)" d="M150.066 251.053 L155.026 251.053 L155.026 257.024 L150.066 257.024 L150.066 251.053 Z" fill="#000000" fill-rule="nonzero" fill-opacity="1" /><path clip-path="url(#clip810)" d="M169.461 253.028 L186.035 253.028 L186.035 257.024 L163.748 257.024 L163.748 253.028 Q166.452 250.23 171.107 245.528 Q175.785 240.803 176.984 239.439 Q179.265 236.877 180.158 235.113 Q181.075 233.327 181.075 231.61 Q181.075 228.813 179.1 227.05 Q177.149 225.286 173.998 225.286 Q171.765 225.286 169.273 226.062 Q166.804 226.838 163.983 228.413 L163.983 223.617 Q166.851 222.465 169.343 221.877 Q171.836 221.29 173.904 221.29 Q179.359 221.29 182.603 224.017 Q185.847 226.744 185.847 231.305 Q185.847 233.468 185.024 235.419 Q184.225 237.347 182.086 239.98 Q181.498 240.662 178.348 243.929 Q175.197 247.174 169.461 253.028 Z" fill="#000000" fill-rule="nonzero" fill-opacity="1" /><path clip-path="url(#clip810)" d="M210.391 238.099 Q213.8 238.828 215.705 241.132 Q217.632 243.436 217.632 246.821 Q217.632 252.017 214.059 254.862 Q210.485 257.706 203.903 257.706 Q201.693 257.706 199.342 257.259 Q197.014 256.836 194.522 255.966 L194.522 251.382 Q196.497 252.534 198.848 253.122 Q201.199 253.71 203.762 253.71 Q208.229 253.71 210.556 251.946 Q212.907 250.183 212.907 246.821 Q212.907 243.718 210.721 241.978 Q208.558 240.215 204.679 240.215 L200.588 240.215 L200.588 236.312 L204.867 236.312 Q208.37 236.312 210.227 234.925 Q212.084 233.515 212.084 230.882 Q212.084 228.178 210.156 226.744 Q208.252 225.286 204.679 225.286 Q202.727 225.286 200.494 225.709 Q198.26 226.133 195.58 227.026 L195.58 222.794 Q198.284 222.042 200.635 221.666 Q203.009 221.29 205.102 221.29 Q210.509 221.29 213.659 223.758 Q216.81 226.203 216.81 230.388 Q216.81 233.303 215.14 235.325 Q213.471 237.323 210.391 238.099 Z" fill="#000000" fill-rule="nonzero" fill-opacity="1" /><circle clip-path="url(#clip812)" cx="295.891" cy="76.6465" r="14.4" fill="#009af9" fill-rule="evenodd" fill-opacity="1" stroke="#000000" stroke-opacity="1" stroke-width="2.4"/>
<circle clip-path="url(#clip812)" cx="349.511" cy="404.969" r="14.4" fill="#009af9" fill-rule="evenodd" fill-opacity="1" stroke="#000000" stroke-opacity="1" stroke-width="2.4"/>
<circle clip-path="url(#clip812)" cx="403.131" cy="479.414" r="14.4" fill="#009af9" fill-rule="evenodd" fill-opacity="1" stroke="#000000" stroke-opacity="1" stroke-width="2.4"/>
<circle clip-path="url(#clip812)" cx="456.751" cy="702.4" r="14.4" fill="#009af9" fill-rule="evenodd" fill-opacity="1" stroke="#000000" stroke-opacity="1" stroke-width="2.4"/>
<circle clip-path="url(#clip812)" cx="510.372" cy="755.903" r="14.4" fill="#009af9" fill-rule="evenodd" fill-opacity="1" stroke="#000000" stroke-opacity="1" stroke-width="2.4"/>
<circle clip-path="url(#clip812)" cx="563.992" cy="683.219" r="14.4" fill="#009af9" fill-rule="evenodd" fill-opacity="1" stroke="#000000" stroke-opacity="1" stroke-width="2.4"/>
<circle clip-path="url(#clip812)" cx="617.612" cy="846.5" r="14.4" fill="#009af9" fill-rule="evenodd" fill-opacity="1" stroke="#000000" stroke-opacity="1" stroke-width="2.4"/>
<circle clip-path="url(#clip812)" cx="671.232" cy="601.754" r="14.4" fill="#009af9" fill-rule="evenodd" fill-opacity="1" stroke="#000000" stroke-opacity="1" stroke-width="2.4"/>
<circle clip-path="url(#clip812)" cx="724.853" cy="709.459" r="14.4" fill="#009af9" fill-rule="evenodd" fill-opacity="1" stroke="#000000" stroke-opacity="1" stroke-width="2.4"/>
<circle clip-path="url(#clip812)" cx="778.473" cy="880.251" r="14.4" fill="#009af9" fill-rule="evenodd" fill-opacity="1" stroke="#000000" stroke-opacity="1" stroke-width="2.4"/>
<circle clip-path="url(#clip812)" cx="832.093" cy="471.174" r="14.4" fill="#009af9" fill-rule="evenodd" fill-opacity="1" stroke="#000000" stroke-opacity="1" stroke-width="2.4"/>
<circle clip-path="url(#clip812)" cx="885.713" cy="972.648" r="14.4" fill="#009af9" fill-rule="evenodd" fill-opacity="1" stroke="#000000" stroke-opacity="1" stroke-width="2.4"/>
<circle clip-path="url(#clip812)" cx="939.333" cy="564.448" r="14.4" fill="#009af9" fill-rule="evenodd" fill-opacity="1" stroke="#000000" stroke-opacity="1" stroke-width="2.4"/>
<circle clip-path="url(#clip812)" cx="992.954" cy="1026.77" r="14.4" fill="#009af9" fill-rule="evenodd" fill-opacity="1" stroke="#000000" stroke-opacity="1" stroke-width="2.4"/>
<circle clip-path="url(#clip812)" cx="1046.57" cy="1056.73" r="14.4" fill="#009af9" fill-rule="evenodd" fill-opacity="1" stroke="#000000" stroke-opacity="1" stroke-width="2.4"/>
<circle clip-path="url(#clip812)" cx="1100.19" cy="678.674" r="14.4" fill="#009af9" fill-rule="evenodd" fill-opacity="1" stroke="#000000" stroke-opacity="1" stroke-width="2.4"/>
<circle clip-path="url(#clip812)" cx="1153.81" cy="656.717" r="14.4" fill="#009af9" fill-rule="evenodd" fill-opacity="1" stroke="#000000" stroke-opacity="1" stroke-width="2.4"/>
<circle clip-path="url(#clip812)" cx="1207.43" cy="792.538" r="14.4" fill="#009af9" fill-rule="evenodd" fill-opacity="1" stroke="#000000" stroke-opacity="1" stroke-width="2.4"/>
<circle clip-path="url(#clip812)" cx="1261.05" cy="735.699" r="14.4" fill="#009af9" fill-rule="evenodd" fill-opacity="1" stroke="#000000" stroke-opacity="1" stroke-width="2.4"/>
<circle clip-path="url(#clip812)" cx="1314.68" cy="669.104" r="14.4" fill="#009af9" fill-rule="evenodd" fill-opacity="1" stroke="#000000" stroke-opacity="1" stroke-width="2.4"/>
<circle clip-path="url(#clip812)" cx="1368.3" cy="620.264" r="14.4" fill="#009af9" fill-rule="evenodd" fill-opacity="1" stroke="#000000" stroke-opacity="1" stroke-width="2.4"/>
<circle clip-path="url(#clip812)" cx="1421.92" cy="767.24" r="14.4" fill="#009af9" fill-rule="evenodd" fill-opacity="1" stroke="#000000" stroke-opacity="1" stroke-width="2.4"/>
<circle clip-path="url(#clip812)" cx="1475.54" cy="807.982" r="14.4" fill="#009af9" fill-rule="evenodd" fill-opacity="1" stroke="#000000" stroke-opacity="1" stroke-width="2.4"/>
<circle clip-path="url(#clip812)" cx="1529.16" cy="875.592" r="14.4" fill="#009af9" fill-rule="evenodd" fill-opacity="1" stroke="#000000" stroke-opacity="1" stroke-width="2.4"/>
<circle clip-path="url(#clip812)" cx="1582.78" cy="644.212" r="14.4" fill="#009af9" fill-rule="evenodd" fill-opacity="1" stroke="#000000" stroke-opacity="1" stroke-width="2.4"/>
<circle clip-path="url(#clip812)" cx="1636.4" cy="913.301" r="14.4" fill="#009af9" fill-rule="evenodd" fill-opacity="1" stroke="#000000" stroke-opacity="1" stroke-width="2.4"/>
<circle clip-path="url(#clip812)" cx="1690.02" cy="558.723" r="14.4" fill="#009af9" fill-rule="evenodd" fill-opacity="1" stroke="#000000" stroke-opacity="1" stroke-width="2.4"/>
<circle clip-path="url(#clip812)" cx="1743.64" cy="850.04" r="14.4" fill="#009af9" fill-rule="evenodd" fill-opacity="1" stroke="#000000" stroke-opacity="1" stroke-width="2.4"/>
<circle clip-path="url(#clip812)" cx="1797.26" cy="831.52" r="14.4" fill="#009af9" fill-rule="evenodd" fill-opacity="1" stroke="#000000" stroke-opacity="1" stroke-width="2.4"/>
<circle clip-path="url(#clip812)" cx="1850.88" cy="883.599" r="14.4" fill="#009af9" fill-rule="evenodd" fill-opacity="1" stroke="#000000" stroke-opacity="1" stroke-width="2.4"/>
<circle clip-path="url(#clip812)" cx="1904.5" cy="860.963" r="14.4" fill="#009af9" fill-rule="evenodd" fill-opacity="1" stroke="#000000" stroke-opacity="1" stroke-width="2.4"/>
<path clip-path="url(#clip810)" d="M1518.14 211.474 L1895.92 211.474 L1895.92 81.8736 L1518.14 81.8736  Z" fill="#ffffff" fill-rule="evenodd" fill-opacity="1"/>
<polyline clip-path="url(#clip810)" style="stroke:#000000; stroke-linecap:round; stroke-linejoin:round; stroke-width:4; stroke-opacity:1; fill:none" points="1518.14,211.474 1895.92,211.474 1895.92,81.8736 1518.14,81.8736 1518.14,211.474 "/>
<circle clip-path="url(#clip810)" cx="1593.93" cy="146.674" r="25.6" fill="#009af9" fill-rule="evenodd" fill-opacity="1" stroke="#000000" stroke-opacity="1" stroke-width="4.26667"/>
<path clip-path="url(#clip810)" d="M1669.71 149.668 L1685.31 149.668 L1685.31 154.414 L1669.71 154.414 L1669.71 149.668 Z" fill="#000000" fill-rule="nonzero" fill-opacity="1" /><path clip-path="url(#clip810)" d="M1693.78 123.251 L1699.11 123.251 L1699.11 168.274 L1693.78 168.274 L1693.78 123.251 Z" fill="#000000" fill-rule="nonzero" fill-opacity="1" /><path clip-path="url(#clip810)" d="M1722.81 139.599 Q1718.52 139.599 1716.04 142.955 Q1713.55 146.283 1713.55 152.099 Q1713.55 157.915 1716.01 161.271 Q1718.5 164.599 1722.81 164.599 Q1727.06 164.599 1729.55 161.242 Q1732.04 157.886 1732.04 152.099 Q1732.04 146.341 1729.55 142.984 Q1727.06 139.599 1722.81 139.599 M1722.81 135.085 Q1729.75 135.085 1733.72 139.599 Q1737.68 144.113 1737.68 152.099 Q1737.68 160.056 1733.72 164.599 Q1729.75 169.113 1722.81 169.113 Q1715.83 169.113 1711.87 164.599 Q1707.93 160.056 1707.93 152.099 Q1707.93 144.113 1711.87 139.599 Q1715.83 135.085 1722.81 135.085 Z" fill="#000000" fill-rule="nonzero" fill-opacity="1" /><path clip-path="url(#clip810)" d="M1767.83 151.694 Q1767.83 145.907 1765.43 142.724 Q1763.06 139.541 1758.74 139.541 Q1754.46 139.541 1752.06 142.724 Q1749.69 145.907 1749.69 151.694 Q1749.69 157.452 1752.06 160.635 Q1754.46 163.818 1758.74 163.818 Q1763.06 163.818 1765.43 160.635 Q1767.83 157.452 1767.83 151.694 M1773.15 164.252 Q1773.15 172.527 1769.48 176.549 Q1765.8 180.6 1758.22 180.6 Q1755.42 180.6 1752.93 180.166 Q1750.44 179.761 1748.1 178.893 L1748.1 173.713 Q1750.44 174.986 1752.73 175.594 Q1755.01 176.202 1757.38 176.202 Q1762.62 176.202 1765.23 173.453 Q1767.83 170.733 1767.83 165.206 L1767.83 162.573 Q1766.18 165.438 1763.61 166.856 Q1761.03 168.274 1757.44 168.274 Q1751.48 168.274 1747.84 163.731 Q1744.19 159.188 1744.19 151.694 Q1744.19 144.171 1747.84 139.628 Q1751.48 135.085 1757.44 135.085 Q1761.03 135.085 1763.61 136.503 Q1766.18 137.921 1767.83 140.785 L1767.83 135.866 L1773.15 135.866 L1773.15 164.252 Z" fill="#000000" fill-rule="nonzero" fill-opacity="1" /><path clip-path="url(#clip810)" d="M1784.12 123.251 L1789.44 123.251 L1789.44 168.274 L1784.12 168.274 L1784.12 123.251 Z" fill="#000000" fill-rule="nonzero" fill-opacity="1" /><path clip-path="url(#clip810)" d="M1800.58 135.866 L1805.91 135.866 L1805.91 168.274 L1800.58 168.274 L1800.58 135.866 M1800.58 123.251 L1805.91 123.251 L1805.91 129.993 L1800.58 129.993 L1800.58 123.251 Z" fill="#000000" fill-rule="nonzero" fill-opacity="1" /><path clip-path="url(#clip810)" d="M1816.85 123.251 L1822.2 123.251 L1822.2 149.842 L1838.08 135.866 L1844.88 135.866 L1827.7 151.028 L1845.61 168.274 L1838.66 168.274 L1822.2 152.446 L1822.2 168.274 L1816.85 168.274 L1816.85 123.251 Z" fill="#000000" fill-rule="nonzero" fill-opacity="1" /><path clip-path="url(#clip810)" d="M1876.97 150.739 L1876.97 153.343 L1852.49 153.343 Q1852.84 158.841 1855.79 161.734 Q1858.77 164.599 1864.07 164.599 Q1867.13 164.599 1870 163.846 Q1872.89 163.094 1875.73 161.59 L1875.73 166.624 Q1872.86 167.84 1869.85 168.476 Q1866.85 169.113 1863.75 169.113 Q1855.99 169.113 1851.45 164.599 Q1846.94 160.085 1846.94 152.388 Q1846.94 144.431 1851.22 139.773 Q1855.53 135.085 1862.82 135.085 Q1869.36 135.085 1873.15 139.31 Q1876.97 143.505 1876.97 150.739 M1871.65 149.176 Q1871.59 144.807 1869.19 142.203 Q1866.82 139.599 1862.88 139.599 Q1858.43 139.599 1855.73 142.116 Q1853.07 144.634 1852.67 149.205 L1871.65 149.176 Z" fill="#000000" fill-rule="nonzero" fill-opacity="1" /></svg>
