<?xml version="1.0" encoding="utf-8"?>
<svg xmlns="http://www.w3.org/2000/svg" xmlns:xlink="http://www.w3.org/1999/xlink" width="500" height="300" viewBox="0 0 2000 1200">
<defs>
  <clipPath id="clip320">
    <rect x="0" y="0" width="2000" height="1200"/>
  </clipPath>
</defs>
<path clip-path="url(#clip320)" d="M0 1200 L2000 1200 L2000 0 L0 0  Z" fill="#ffffff" fill-rule="evenodd" fill-opacity="1"/>
<defs>
  <clipPath id="clip321">
    <rect x="400" y="0" width="1401" height="1200"/>
  </clipPath>
</defs>
<path clip-path="url(#clip320)" d="M279.065 1086.13 L1952.76 1086.13 L1952.76 47.2441 L279.065 47.2441  Z" fill="#ffffff" fill-rule="evenodd" fill-opacity="1"/>
<defs>
  <clipPath id="clip322">
    <rect x="279" y="47" width="1675" height="1040"/>
  </clipPath>
</defs>
<polyline clip-path="url(#clip320)" style="stroke:#000000; stroke-linecap:round; stroke-linejoin:round; stroke-width:4; stroke-opacity:1; fill:none" points="279.065,1086.13 1952.76,1086.13 "/>
<polyline clip-path="url(#clip320)" style="stroke:#000000; stroke-linecap:round; stroke-linejoin:round; stroke-width:4; stroke-opacity:1; fill:none" points="536.961,1086.13 536.961,1067.23 "/>
<polyline clip-path="url(#clip320)" style="stroke:#000000; stroke-linecap:round; stroke-linejoin:round; stroke-width:4; stroke-opacity:1; fill:none" points="800.12,1086.13 800.12,1067.23 "/>
<polyline clip-path="url(#clip320)" style="stroke:#000000; stroke-linecap:round; stroke-linejoin:round; stroke-width:4; stroke-opacity:1; fill:none" points="1063.28,1086.13 1063.28,1067.23 "/>
<polyline clip-path="url(#clip320)" style="stroke:#000000; stroke-linecap:round; stroke-linejoin:round; stroke-width:4; stroke-opacity:1; fill:none" points="1326.44,1086.13 1326.44,1067.23 "/>
<polyline clip-path="url(#clip320)" style="stroke:#000000; stroke-linecap:round; stroke-linejoin:round; stroke-width:4; stroke-opacity:1; fill:none" points="1589.6,1086.13 1589.6,1067.23 "/>
<polyline clip-path="url(#clip320)" style="stroke:#000000; stroke-linecap:round; stroke-linejoin:round; stroke-width:4; stroke-opacity:1; fill:none" points="1852.76,1086.13 1852.76,1067.23 "/>
<path clip-path="url(#clip320)" d="M524.808 1112.93 L547.753 1112.93 L547.753 1117.85 L530.161 1117.85 L530.161 1128.44 Q531.434 1128 532.707 1127.8 Q533.98 1127.57 535.254 1127.57 Q542.487 1127.57 546.712 1131.53 Q550.936 1135.5 550.936 1142.27 Q550.936 1149.24 546.596 1153.12 Q542.256 1156.97 534.357 1156.97 Q531.637 1156.97 528.801 1156.5 Q525.994 1156.04 522.985 1155.12 L522.985 1149.24 Q525.589 1150.66 528.367 1151.35 Q531.145 1152.05 534.241 1152.05 Q539.247 1152.05 542.169 1149.41 Q545.091 1146.78 545.091 1142.27 Q545.091 1137.75 542.169 1135.12 Q539.247 1132.49 534.241 1132.49 Q531.897 1132.49 529.553 1133.01 Q527.239 1133.53 524.808 1134.63 L524.808 1112.93 Z" fill="#000000" fill-rule="nonzero" fill-opacity="1" /><path clip-path="url(#clip320)" d="M768.479 1151.21 L778.028 1151.21 L778.028 1118.25 L767.64 1120.34 L767.64 1115.01 L777.97 1112.93 L783.815 1112.93 L783.815 1151.21 L793.363 1151.21 L793.363 1156.13 L768.479 1156.13 L768.479 1151.21 Z" fill="#000000" fill-rule="nonzero" fill-opacity="1" /><path clip-path="url(#clip320)" d="M817.669 1116.78 Q813.155 1116.78 810.869 1121.23 Q808.612 1125.66 808.612 1134.57 Q808.612 1143.45 810.869 1147.91 Q813.155 1152.34 817.669 1152.34 Q822.212 1152.34 824.468 1147.91 Q826.754 1143.45 826.754 1134.57 Q826.754 1125.66 824.468 1121.23 Q822.212 1116.78 817.669 1116.78 M817.669 1112.15 Q824.931 1112.15 828.751 1117.9 Q832.599 1123.63 832.599 1134.57 Q832.599 1145.48 828.751 1151.24 Q824.931 1156.97 817.669 1156.97 Q810.406 1156.97 806.558 1151.24 Q802.738 1145.48 802.738 1134.57 Q802.738 1123.63 806.558 1117.9 Q810.406 1112.15 817.669 1112.15 Z" fill="#000000" fill-rule="nonzero" fill-opacity="1" /><path clip-path="url(#clip320)" d="M1032.26 1151.21 L1041.81 1151.21 L1041.81 1118.25 L1031.42 1120.34 L1031.42 1115.01 L1041.75 1112.93 L1047.6 1112.93 L1047.6 1151.21 L1057.14 1151.21 L1057.14 1156.13 L1032.26 1156.13 L1032.26 1151.21 Z" fill="#000000" fill-rule="nonzero" fill-opacity="1" /><path clip-path="url(#clip320)" d="M1069.01 1112.93 L1091.95 1112.93 L1091.95 1117.85 L1074.36 1117.85 L1074.36 1128.44 Q1075.63 1128 1076.91 1127.8 Q1078.18 1127.57 1079.45 1127.57 Q1086.69 1127.57 1090.91 1131.53 Q1095.14 1135.5 1095.14 1142.27 Q1095.14 1149.24 1090.8 1153.12 Q1086.46 1156.97 1078.56 1156.97 Q1075.84 1156.97 1073 1156.5 Q1070.19 1156.04 1067.18 1155.12 L1067.18 1149.24 Q1069.79 1150.66 1072.57 1151.35 Q1075.34 1152.05 1078.44 1152.05 Q1083.45 1152.05 1086.37 1149.41 Q1089.29 1146.78 1089.29 1142.27 Q1089.29 1137.75 1086.37 1135.12 Q1083.45 1132.49 1078.44 1132.49 Q1076.1 1132.49 1073.75 1133.01 Q1071.44 1133.53 1069.01 1134.63 L1069.01 1112.93 Z" fill="#000000" fill-rule="nonzero" fill-opacity="1" /><path clip-path="url(#clip320)" d="M1299.9 1151.21 L1320.3 1151.21 L1320.3 1156.13 L1292.87 1156.13 L1292.87 1151.21 Q1296.2 1147.77 1301.93 1141.98 Q1307.69 1136.16 1309.16 1134.48 Q1311.97 1131.33 1313.07 1129.16 Q1314.2 1126.96 1314.2 1124.85 Q1314.2 1121.41 1311.77 1119.24 Q1309.37 1117.07 1305.49 1117.07 Q1302.74 1117.07 1299.67 1118.02 Q1296.63 1118.98 1293.16 1120.91 L1293.16 1115.01 Q1296.69 1113.59 1299.76 1112.87 Q1302.83 1112.15 1305.37 1112.15 Q1312.09 1112.15 1316.08 1115.5 Q1320.07 1118.86 1320.07 1124.47 Q1320.07 1127.13 1319.06 1129.54 Q1318.08 1131.91 1315.44 1135.15 Q1314.72 1135.99 1310.84 1140.01 Q1306.96 1144 1299.9 1151.21 Z" fill="#000000" fill-rule="nonzero" fill-opacity="1" /><path clip-path="url(#clip320)" d="M1345.07 1116.78 Q1340.56 1116.78 1338.27 1121.23 Q1336.02 1125.66 1336.02 1134.57 Q1336.02 1143.45 1338.27 1147.91 Q1340.56 1152.34 1345.07 1152.34 Q1349.61 1152.34 1351.87 1147.91 Q1354.16 1143.45 1354.16 1134.57 Q1354.16 1125.66 1351.87 1121.23 Q1349.61 1116.78 1345.07 1116.78 M1345.07 1112.15 Q1352.33 1112.15 1356.15 1117.9 Q1360 1123.63 1360 1134.57 Q1360 1145.48 1356.15 1151.24 Q1352.33 1156.97 1345.07 1156.97 Q1337.81 1156.97 1333.96 1151.24 Q1330.14 1145.48 1330.14 1134.57 Q1330.14 1123.63 1333.96 1117.9 Q1337.81 1112.15 1345.07 1112.15 Z" fill="#000000" fill-rule="nonzero" fill-opacity="1" /><path clip-path="url(#clip320)" d="M1563.69 1151.21 L1584.08 1151.21 L1584.08 1156.13 L1556.65 1156.13 L1556.65 1151.21 Q1559.98 1147.77 1565.71 1141.98 Q1571.47 1136.16 1572.94 1134.48 Q1575.75 1131.33 1576.85 1129.16 Q1577.98 1126.96 1577.98 1124.85 Q1577.98 1121.41 1575.55 1119.24 Q1573.15 1117.07 1569.27 1117.07 Q1566.52 1117.07 1563.45 1118.02 Q1560.42 1118.98 1556.94 1120.91 L1556.94 1115.01 Q1560.47 1113.59 1563.54 1112.87 Q1566.61 1112.15 1569.15 1112.15 Q1575.87 1112.15 1579.86 1115.5 Q1583.85 1118.86 1583.85 1124.47 Q1583.85 1127.13 1582.84 1129.54 Q1581.86 1131.91 1579.22 1135.15 Q1578.5 1135.99 1574.62 1140.01 Q1570.75 1144 1563.69 1151.21 Z" fill="#000000" fill-rule="nonzero" fill-opacity="1" /><path clip-path="url(#clip320)" d="M1596.41 1112.93 L1619.36 1112.93 L1619.36 1117.85 L1601.76 1117.85 L1601.76 1128.44 Q1603.04 1128 1604.31 1127.8 Q1605.58 1127.57 1606.86 1127.57 Q1614.09 1127.57 1618.31 1131.53 Q1622.54 1135.5 1622.54 1142.27 Q1622.54 1149.24 1618.2 1153.12 Q1613.86 1156.97 1605.96 1156.97 Q1603.24 1156.97 1600.4 1156.5 Q1597.6 1156.04 1594.59 1155.12 L1594.59 1149.24 Q1597.19 1150.66 1599.97 1151.35 Q1602.75 1152.05 1605.84 1152.05 Q1610.85 1152.05 1613.77 1149.41 Q1616.69 1146.78 1616.69 1142.27 Q1616.69 1137.75 1613.77 1135.12 Q1610.85 1132.49 1605.84 1132.49 Q1603.5 1132.49 1601.16 1133.01 Q1598.84 1133.53 1596.41 1134.63 L1596.41 1112.93 Z" fill="#000000" fill-rule="nonzero" fill-opacity="1" /><path clip-path="url(#clip320)" d="M1838.81 1132.84 Q1843 1133.73 1845.35 1136.57 Q1847.72 1139.4 1847.72 1143.57 Q1847.72 1149.96 1843.32 1153.47 Q1838.92 1156.97 1830.82 1156.97 Q1828.1 1156.97 1825.21 1156.42 Q1822.34 1155.9 1819.28 1154.83 L1819.28 1149.18 Q1821.71 1150.6 1824.6 1151.32 Q1827.5 1152.05 1830.65 1152.05 Q1836.15 1152.05 1839.01 1149.88 Q1841.9 1147.71 1841.9 1143.57 Q1841.9 1139.75 1839.21 1137.61 Q1836.55 1135.44 1831.78 1135.44 L1826.74 1135.44 L1826.74 1130.64 L1832.01 1130.64 Q1836.32 1130.64 1838.61 1128.93 Q1840.89 1127.19 1840.89 1123.95 Q1840.89 1120.62 1838.52 1118.86 Q1836.18 1117.07 1831.78 1117.07 Q1829.38 1117.07 1826.63 1117.59 Q1823.88 1118.11 1820.58 1119.21 L1820.58 1114 Q1823.91 1113.07 1826.8 1112.61 Q1829.72 1112.15 1832.3 1112.15 Q1838.95 1112.15 1842.83 1115.18 Q1846.71 1118.19 1846.71 1123.34 Q1846.71 1126.93 1844.65 1129.42 Q1842.6 1131.88 1838.81 1132.84 Z" fill="#000000" fill-rule="nonzero" fill-opacity="1" /><path clip-path="url(#clip320)" d="M1871.3 1116.78 Q1866.79 1116.78 1864.5 1121.23 Q1862.25 1125.66 1862.25 1134.57 Q1862.25 1143.45 1864.5 1147.91 Q1866.79 1152.34 1871.3 1152.34 Q1875.85 1152.34 1878.1 1147.91 Q1880.39 1143.45 1880.39 1134.57 Q1880.39 1125.66 1878.1 1121.23 Q1875.85 1116.78 1871.3 1116.78 M1871.3 1112.15 Q1878.57 1112.15 1882.38 1117.9 Q1886.23 1123.63 1886.23 1134.57 Q1886.23 1145.48 1882.38 1151.24 Q1878.57 1156.97 1871.3 1156.97 Q1864.04 1156.97 1860.19 1151.24 Q1856.37 1145.48 1856.37 1134.57 Q1856.37 1123.63 1860.19 1117.9 Q1864.04 1112.15 1871.3 1112.15 Z" fill="#000000" fill-rule="nonzero" fill-opacity="1" /><polyline clip-path="url(#clip320)" style="stroke:#000000; stroke-linecap:round; stroke-linejoin:round; stroke-width:4; stroke-opacity:1; fill:none" points="279.065,1086.13 279.065,47.2441 "/>
<polyline clip-path="url(#clip320)" style="stroke:#000000; stroke-linecap:round; stroke-linejoin:round; stroke-width:4; stroke-opacity:1; fill:none" points="279.065,949.456 297.963,949.456 "/>
<polyline clip-path="url(#clip320)" style="stroke:#000000; stroke-linecap:round; stroke-linejoin:round; stroke-width:4; stroke-opacity:1; fill:none" points="279.065,578.599 297.963,578.599 "/>
<polyline clip-path="url(#clip320)" style="stroke:#000000; stroke-linecap:round; stroke-linejoin:round; stroke-width:4; stroke-opacity:1; fill:none" points="279.065,207.743 297.963,207.743 "/>
<path clip-path="url(#clip320)" d="M54.8422 974.197 L64.3907 974.197 L64.3907 941.24 L54.003 943.323 L54.003 937.999 L64.3328 935.916 L70.1777 935.916 L70.1777 974.197 L79.7263 974.197 L79.7263 979.116 L54.8422 979.116 L54.8422 974.197 Z" fill="#000000" fill-rule="nonzero" fill-opacity="1" /><path clip-path="url(#clip320)" d="M104.032 939.764 Q99.5178 939.764 97.232 944.22 Q94.975 948.647 94.975 957.559 Q94.975 966.442 97.232 970.898 Q99.5178 975.325 104.032 975.325 Q108.575 975.325 110.831 970.898 Q113.117 966.442 113.117 957.559 Q113.117 948.647 110.831 944.22 Q108.575 939.764 104.032 939.764 M104.032 935.134 Q111.294 935.134 115.114 940.892 Q118.962 946.622 118.962 957.559 Q118.962 968.468 115.114 974.226 Q111.294 979.955 104.032 979.955 Q96.769 979.955 92.9207 974.226 Q89.1012 968.468 89.1012 957.559 Q89.1012 946.622 92.9207 940.892 Q96.769 935.134 104.032 935.134 Z" fill="#000000" fill-rule="nonzero" fill-opacity="1" /><path clip-path="url(#clip320)" d="M124.675 940.856 L141.249 940.856 L141.249 944.853 L118.962 944.853 L118.962 940.856 Q121.666 938.058 126.321 933.356 Q130.999 928.631 132.198 927.267 Q134.479 924.705 135.372 922.942 Q136.289 921.155 136.289 919.439 Q136.289 916.641 134.314 914.878 Q132.363 913.115 129.212 913.115 Q126.979 913.115 124.487 913.89 Q122.018 914.666 119.197 916.241 L119.197 911.445 Q122.065 910.293 124.557 909.706 Q127.05 909.118 129.118 909.118 Q134.573 909.118 137.817 911.845 Q141.061 914.572 141.061 919.133 Q141.061 921.296 140.238 923.247 Q139.439 925.175 137.3 927.808 Q136.712 928.49 133.562 931.758 Q130.411 935.002 124.675 940.856 Z" fill="#000000" fill-rule="nonzero" fill-opacity="1" /><path clip-path="url(#clip320)" d="M151.218 938.881 L156.178 938.881 L156.178 944.853 L151.218 944.853 L151.218 938.881 Z" fill="#000000" fill-rule="nonzero" fill-opacity="1" /><path clip-path="url(#clip320)" d="M176.679 928.184 Q173.293 928.184 171.342 929.994 Q169.414 931.805 169.414 934.979 Q169.414 938.152 171.342 939.963 Q173.293 941.773 176.679 941.773 Q180.064 941.773 182.015 939.963 Q183.967 938.129 183.967 934.979 Q183.967 931.805 182.015 929.994 Q180.087 928.184 176.679 928.184 M171.93 926.162 Q168.873 925.41 167.157 923.318 Q165.464 921.225 165.464 918.216 Q165.464 914.008 168.45 911.563 Q171.459 909.118 176.679 909.118 Q181.921 909.118 184.907 911.563 Q187.893 914.008 187.893 918.216 Q187.893 921.225 186.176 923.318 Q184.484 925.41 181.451 926.162 Q184.883 926.962 186.788 929.289 Q188.716 931.617 188.716 934.979 Q188.716 940.08 185.589 942.807 Q182.485 945.534 176.679 945.534 Q170.872 945.534 167.745 942.807 Q164.642 940.08 164.642 934.979 Q164.642 931.617 166.569 929.289 Q168.497 926.962 171.93 926.162 M170.19 918.663 Q170.19 921.39 171.883 922.918 Q173.599 924.446 176.679 924.446 Q179.735 924.446 181.451 922.918 Q183.191 921.39 183.191 918.663 Q183.191 915.936 181.451 914.408 Q179.735 912.879 176.679 912.879 Q173.599 912.879 171.883 914.408 Q170.19 915.936 170.19 918.663 Z" fill="#000000" fill-rule="nonzero" fill-opacity="1" /><path clip-path="url(#clip320)" d="M201.246 940.856 L217.821 940.856 L217.821 944.853 L195.533 944.853 L195.533 940.856 Q198.237 938.058 202.892 933.356 Q207.57 928.631 208.769 927.267 Q211.05 924.705 211.943 922.942 Q212.86 921.155 212.86 919.439 Q212.86 916.641 210.885 914.878 Q208.934 913.115 205.784 913.115 Q203.55 913.115 201.058 913.89 Q198.59 914.666 195.768 916.241 L195.768 911.445 Q198.637 910.293 201.129 909.706 Q203.621 909.118 205.69 909.118 Q211.144 909.118 214.388 911.845 Q217.632 914.572 217.632 919.133 Q217.632 921.296 216.81 923.247 Q216.01 925.175 213.871 927.808 Q213.283 928.49 210.133 931.758 Q206.983 935.002 201.246 940.856 Z" fill="#000000" fill-rule="nonzero" fill-opacity="1" /><path clip-path="url(#clip320)" d="M227.836 909.753 L246.479 909.753 L246.479 913.749 L232.185 913.749 L232.185 922.354 Q233.219 922.001 234.254 921.837 Q235.288 921.649 236.323 921.649 Q242.2 921.649 245.633 924.869 Q249.065 928.09 249.065 933.591 Q249.065 939.257 245.538 942.408 Q242.012 945.534 235.594 945.534 Q233.384 945.534 231.08 945.158 Q228.8 944.782 226.355 944.03 L226.355 939.257 Q228.47 940.409 230.727 940.974 Q232.984 941.538 235.5 941.538 Q239.567 941.538 241.941 939.398 Q244.316 937.259 244.316 933.591 Q244.316 929.924 241.941 927.785 Q239.567 925.645 235.5 925.645 Q233.596 925.645 231.691 926.068 Q229.81 926.492 227.836 927.385 L227.836 909.753 Z" fill="#000000" fill-rule="nonzero" fill-opacity="1" /><path clip-path="url(#clip320)" d="M53.8312 603.34 L63.3798 603.34 L63.3798 570.383 L52.9921 572.466 L52.9921 567.142 L63.3219 565.059 L69.1668 565.059 L69.1668 603.34 L78.7154 603.34 L78.7154 608.259 L53.8312 608.259 L53.8312 603.34 Z" fill="#000000" fill-rule="nonzero" fill-opacity="1" /><path clip-path="url(#clip320)" d="M103.021 568.907 Q98.5069 568.907 96.2211 573.363 Q93.9641 577.79 93.9641 586.702 Q93.9641 595.585 96.2211 600.041 Q98.5069 604.468 103.021 604.468 Q107.564 604.468 109.821 600.041 Q112.106 595.585 112.106 586.702 Q112.106 577.79 109.821 573.363 Q107.564 568.907 103.021 568.907 M103.021 564.278 Q110.283 564.278 114.103 570.036 Q117.951 575.765 117.951 586.702 Q117.951 597.611 114.103 603.369 Q110.283 609.098 103.021 609.098 Q95.7581 609.098 91.9097 603.369 Q88.0903 597.611 88.0903 586.702 Q88.0903 575.765 91.9097 570.036 Q95.7581 564.278 103.021 564.278 Z" fill="#000000" fill-rule="nonzero" fill-opacity="1" /><path clip-path="url(#clip320)" d="M123.664 569.999 L140.238 569.999 L140.238 573.996 L117.951 573.996 L117.951 569.999 Q120.655 567.202 125.31 562.5 Q129.988 557.774 131.187 556.411 Q133.468 553.848 134.361 552.085 Q135.278 550.298 135.278 548.582 Q135.278 545.784 133.303 544.021 Q131.352 542.258 128.202 542.258 Q125.968 542.258 123.476 543.034 Q121.008 543.809 118.186 545.385 L118.186 540.589 Q121.055 539.437 123.547 538.849 Q126.039 538.261 128.107 538.261 Q133.562 538.261 136.806 540.988 Q140.05 543.715 140.05 548.276 Q140.05 550.439 139.228 552.39 Q138.428 554.318 136.289 556.951 Q135.701 557.633 132.551 560.901 Q129.4 564.145 123.664 569.999 Z" fill="#000000" fill-rule="nonzero" fill-opacity="1" /><path clip-path="url(#clip320)" d="M150.207 568.024 L155.167 568.024 L155.167 573.996 L150.207 573.996 L150.207 568.024 Z" fill="#000000" fill-rule="nonzero" fill-opacity="1" /><path clip-path="url(#clip320)" d="M175.668 557.327 Q172.282 557.327 170.331 559.138 Q168.403 560.948 168.403 564.122 Q168.403 567.296 170.331 569.106 Q172.282 570.916 175.668 570.916 Q179.053 570.916 181.004 569.106 Q182.956 567.272 182.956 564.122 Q182.956 560.948 181.004 559.138 Q179.077 557.327 175.668 557.327 M170.919 555.306 Q167.862 554.553 166.146 552.461 Q164.453 550.369 164.453 547.359 Q164.453 543.151 167.439 540.706 Q170.448 538.261 175.668 538.261 Q180.91 538.261 183.896 540.706 Q186.882 543.151 186.882 547.359 Q186.882 550.369 185.166 552.461 Q183.473 554.553 180.44 555.306 Q183.873 556.105 185.777 558.432 Q187.705 560.76 187.705 564.122 Q187.705 569.223 184.578 571.951 Q181.475 574.678 175.668 574.678 Q169.861 574.678 166.734 571.951 Q163.631 569.223 163.631 564.122 Q163.631 560.76 165.558 558.432 Q167.486 556.105 170.919 555.306 M169.179 547.806 Q169.179 550.533 170.872 552.061 Q172.588 553.589 175.668 553.589 Q178.724 553.589 180.44 552.061 Q182.18 550.533 182.18 547.806 Q182.18 545.079 180.44 543.551 Q178.724 542.023 175.668 542.023 Q172.588 542.023 170.872 543.551 Q169.179 545.079 169.179 547.806 Z" fill="#000000" fill-rule="nonzero" fill-opacity="1" /><path clip-path="url(#clip320)" d="M196.192 538.896 L214.835 538.896 L214.835 542.893 L200.541 542.893 L200.541 551.497 Q201.575 551.144 202.61 550.98 Q203.644 550.792 204.679 550.792 Q210.556 550.792 213.988 554.013 Q217.421 557.233 217.421 562.735 Q217.421 568.401 213.894 571.551 Q210.368 574.678 203.95 574.678 Q201.74 574.678 199.436 574.301 Q197.155 573.925 194.71 573.173 L194.71 568.401 Q196.826 569.553 199.083 570.117 Q201.34 570.681 203.856 570.681 Q207.923 570.681 210.297 568.542 Q212.672 566.402 212.672 562.735 Q212.672 559.067 210.297 556.928 Q207.923 554.788 203.856 554.788 Q201.951 554.788 200.047 555.212 Q198.166 555.635 196.192 556.528 L196.192 538.896 Z" fill="#000000" fill-rule="nonzero" fill-opacity="1" /><path clip-path="url(#clip320)" d="M236.934 542.023 Q233.266 542.023 231.409 545.643 Q229.575 549.24 229.575 556.481 Q229.575 563.699 231.409 567.319 Q233.266 570.916 236.934 570.916 Q240.625 570.916 242.459 567.319 Q244.316 563.699 244.316 556.481 Q244.316 549.24 242.459 545.643 Q240.625 542.023 236.934 542.023 M236.934 538.261 Q242.835 538.261 245.938 542.94 Q249.065 547.594 249.065 556.481 Q249.065 565.344 245.938 570.023 Q242.835 574.678 236.934 574.678 Q231.033 574.678 227.906 570.023 Q224.803 565.344 224.803 556.481 Q224.803 547.594 227.906 542.94 Q231.033 538.261 236.934 538.261 Z" fill="#000000" fill-rule="nonzero" fill-opacity="1" /><path clip-path="url(#clip320)" d="M54.8422 232.483 L64.3907 232.483 L64.3907 199.526 L54.003 201.609 L54.003 196.285 L64.3328 194.202 L70.1777 194.202 L70.1777 232.483 L79.7263 232.483 L79.7263 237.402 L54.8422 237.402 L54.8422 232.483 Z" fill="#000000" fill-rule="nonzero" fill-opacity="1" /><path clip-path="url(#clip320)" d="M104.032 198.05 Q99.5178 198.05 97.232 202.506 Q94.975 206.934 94.975 215.846 Q94.975 224.729 97.232 229.185 Q99.5178 233.612 104.032 233.612 Q108.575 233.612 110.831 229.185 Q113.117 224.729 113.117 215.846 Q113.117 206.934 110.831 202.506 Q108.575 198.05 104.032 198.05 M104.032 193.421 Q111.294 193.421 115.114 199.179 Q118.962 204.908 118.962 215.846 Q118.962 226.754 115.114 232.512 Q111.294 238.241 104.032 238.241 Q96.769 238.241 92.9207 232.512 Q89.1012 226.754 89.1012 215.846 Q89.1012 204.908 92.9207 199.179 Q96.769 193.421 104.032 193.421 Z" fill="#000000" fill-rule="nonzero" fill-opacity="1" /><path clip-path="url(#clip320)" d="M124.675 199.142 L141.249 199.142 L141.249 203.139 L118.962 203.139 L118.962 199.142 Q121.666 196.345 126.321 191.643 Q130.999 186.917 132.198 185.554 Q134.479 182.991 135.372 181.228 Q136.289 179.441 136.289 177.725 Q136.289 174.927 134.314 173.164 Q132.363 171.401 129.212 171.401 Q126.979 171.401 124.487 172.177 Q122.018 172.953 119.197 174.528 L119.197 169.732 Q122.065 168.58 124.557 167.992 Q127.05 167.404 129.118 167.404 Q134.573 167.404 137.817 170.131 Q141.061 172.859 141.061 177.419 Q141.061 179.582 140.238 181.534 Q139.439 183.461 137.3 186.095 Q136.712 186.776 133.562 190.044 Q130.411 193.289 124.675 199.142 Z" fill="#000000" fill-rule="nonzero" fill-opacity="1" /><path clip-path="url(#clip320)" d="M151.218 197.168 L156.178 197.168 L156.178 203.139 L151.218 203.139 L151.218 197.168 Z" fill="#000000" fill-rule="nonzero" fill-opacity="1" /><path clip-path="url(#clip320)" d="M176.679 186.471 Q173.293 186.471 171.342 188.281 Q169.414 190.091 169.414 193.265 Q169.414 196.439 171.342 198.249 Q173.293 200.059 176.679 200.059 Q180.064 200.059 182.015 198.249 Q183.967 196.415 183.967 193.265 Q183.967 190.091 182.015 188.281 Q180.087 186.471 176.679 186.471 M171.93 184.449 Q168.873 183.697 167.157 181.604 Q165.464 179.512 165.464 176.503 Q165.464 172.294 168.45 169.849 Q171.459 167.404 176.679 167.404 Q181.921 167.404 184.907 169.849 Q187.893 172.294 187.893 176.503 Q187.893 179.512 186.176 181.604 Q184.484 183.697 181.451 184.449 Q184.883 185.248 186.788 187.576 Q188.716 189.903 188.716 193.265 Q188.716 198.367 185.589 201.094 Q182.485 203.821 176.679 203.821 Q170.872 203.821 167.745 201.094 Q164.642 198.367 164.642 193.265 Q164.642 189.903 166.569 187.576 Q168.497 185.248 171.93 184.449 M170.19 176.949 Q170.19 179.676 171.883 181.205 Q173.599 182.733 176.679 182.733 Q179.735 182.733 181.451 181.205 Q183.191 179.676 183.191 176.949 Q183.191 174.222 181.451 172.694 Q179.735 171.166 176.679 171.166 Q173.599 171.166 171.883 172.694 Q170.19 174.222 170.19 176.949 Z" fill="#000000" fill-rule="nonzero" fill-opacity="1" /><path clip-path="url(#clip320)" d="M195.956 168.039 L218.526 168.039 L218.526 170.061 L205.784 203.139 L200.823 203.139 L212.813 172.036 L195.956 172.036 L195.956 168.039 Z" fill="#000000" fill-rule="nonzero" fill-opacity="1" /><path clip-path="url(#clip320)" d="M227.836 168.039 L246.479 168.039 L246.479 172.036 L232.185 172.036 L232.185 180.64 Q233.219 180.288 234.254 180.123 Q235.288 179.935 236.323 179.935 Q242.2 179.935 245.633 183.156 Q249.065 186.377 249.065 191.878 Q249.065 197.544 245.538 200.694 Q242.012 203.821 235.594 203.821 Q233.384 203.821 231.08 203.445 Q228.8 203.069 226.355 202.316 L226.355 197.544 Q228.47 198.696 230.727 199.26 Q232.984 199.824 235.5 199.824 Q239.567 199.824 241.941 197.685 Q244.316 195.545 244.316 191.878 Q244.316 188.21 241.941 186.071 Q239.567 183.932 235.5 183.932 Q233.596 183.932 231.691 184.355 Q229.81 184.778 227.836 185.671 L227.836 168.039 Z" fill="#000000" fill-rule="nonzero" fill-opacity="1" /><circle clip-path="url(#clip322)" cx="326.434" cy="76.6465" r="14.4" fill="#009af9" fill-rule="evenodd" fill-opacity="1" stroke="#000000" stroke-opacity="1" stroke-width="2.4"/>
<circle clip-path="url(#clip322)" cx="379.065" cy="395.574" r="14.4" fill="#009af9" fill-rule="evenodd" fill-opacity="1" stroke="#000000" stroke-opacity="1" stroke-width="2.4"/>
<circle clip-path="url(#clip322)" cx="431.697" cy="469.144" r="14.4" fill="#009af9" fill-rule="evenodd" fill-opacity="1" stroke="#000000" stroke-opacity="1" stroke-width="2.4"/>
<circle clip-path="url(#clip322)" cx="484.329" cy="692.428" r="14.4" fill="#009af9" fill-rule="evenodd" fill-opacity="1" stroke="#000000" stroke-opacity="1" stroke-width="2.4"/>
<circle clip-path="url(#clip322)" cx="536.961" cy="746.672" r="14.4" fill="#009af9" fill-rule="evenodd" fill-opacity="1" stroke="#000000" stroke-opacity="1" stroke-width="2.4"/>
<circle clip-path="url(#clip322)" cx="589.593" cy="673.045" r="14.4" fill="#009af9" fill-rule="evenodd" fill-opacity="1" stroke="#000000" stroke-opacity="1" stroke-width="2.4"/>
<circle clip-path="url(#clip322)" cx="642.224" cy="839.133" r="14.4" fill="#009af9" fill-rule="evenodd" fill-opacity="1" stroke="#000000" stroke-opacity="1" stroke-width="2.4"/>
<circle clip-path="url(#clip322)" cx="694.856" cy="591.097" r="14.4" fill="#009af9" fill-rule="evenodd" fill-opacity="1" stroke="#000000" stroke-opacity="1" stroke-width="2.4"/>
<circle clip-path="url(#clip322)" cx="747.488" cy="699.569" r="14.4" fill="#009af9" fill-rule="evenodd" fill-opacity="1" stroke="#000000" stroke-opacity="1" stroke-width="2.4"/>
<circle clip-path="url(#clip322)" cx="800.12" cy="873.777" r="14.4" fill="#009af9" fill-rule="evenodd" fill-opacity="1" stroke="#000000" stroke-opacity="1" stroke-width="2.4"/>
<circle clip-path="url(#clip322)" cx="852.751" cy="460.977" r="14.4" fill="#009af9" fill-rule="evenodd" fill-opacity="1" stroke="#000000" stroke-opacity="1" stroke-width="2.4"/>
<circle clip-path="url(#clip322)" cx="905.383" cy="969.182" r="14.4" fill="#009af9" fill-rule="evenodd" fill-opacity="1" stroke="#000000" stroke-opacity="1" stroke-width="2.4"/>
<circle clip-path="url(#clip322)" cx="958.015" cy="553.768" r="14.4" fill="#009af9" fill-rule="evenodd" fill-opacity="1" stroke="#000000" stroke-opacity="1" stroke-width="2.4"/>
<circle clip-path="url(#clip322)" cx="1010.65" cy="1025.46" r="14.4" fill="#009af9" fill-rule="evenodd" fill-opacity="1" stroke="#000000" stroke-opacity="1" stroke-width="2.4"/>
<circle clip-path="url(#clip322)" cx="1063.28" cy="1056.73" r="14.4" fill="#009af9" fill-rule="evenodd" fill-opacity="1" stroke="#000000" stroke-opacity="1" stroke-width="2.4"/>
<circle clip-path="url(#clip322)" cx="1115.91" cy="668.457" r="14.4" fill="#009af9" fill-rule="evenodd" fill-opacity="1" stroke="#000000" stroke-opacity="1" stroke-width="2.4"/>
<circle clip-path="url(#clip322)" cx="1168.54" cy="646.319" r="14.4" fill="#009af9" fill-rule="evenodd" fill-opacity="1" stroke="#000000" stroke-opacity="1" stroke-width="2.4"/>
<circle clip-path="url(#clip322)" cx="1221.17" cy="783.968" r="14.4" fill="#009af9" fill-rule="evenodd" fill-opacity="1" stroke="#000000" stroke-opacity="1" stroke-width="2.4"/>
<circle clip-path="url(#clip322)" cx="1273.81" cy="726.157" r="14.4" fill="#009af9" fill-rule="evenodd" fill-opacity="1" stroke="#000000" stroke-opacity="1" stroke-width="2.4"/>
<circle clip-path="url(#clip322)" cx="1326.44" cy="658.803" r="14.4" fill="#009af9" fill-rule="evenodd" fill-opacity="1" stroke="#000000" stroke-opacity="1" stroke-width="2.4"/>
<circle clip-path="url(#clip322)" cx="1379.07" cy="609.664" r="14.4" fill="#009af9" fill-rule="evenodd" fill-opacity="1" stroke="#000000" stroke-opacity="1" stroke-width="2.4"/>
<circle clip-path="url(#clip322)" cx="1431.7" cy="758.2" r="14.4" fill="#009af9" fill-rule="evenodd" fill-opacity="1" stroke="#000000" stroke-opacity="1" stroke-width="2.4"/>
<circle clip-path="url(#clip322)" cx="1484.33" cy="799.728" r="14.4" fill="#009af9" fill-rule="evenodd" fill-opacity="1" stroke="#000000" stroke-opacity="1" stroke-width="2.4"/>
<circle clip-path="url(#clip322)" cx="1536.96" cy="868.988" r="14.4" fill="#009af9" fill-rule="evenodd" fill-opacity="1" stroke="#000000" stroke-opacity="1" stroke-width="2.4"/>
<circle clip-path="url(#clip322)" cx="1589.6" cy="633.732" r="14.4" fill="#009af9" fill-rule="evenodd" fill-opacity="1" stroke="#000000" stroke-opacity="1" stroke-width="2.4"/>
<circle clip-path="url(#clip322)" cx="1642.23" cy="907.808" r="14.4" fill="#009af9" fill-rule="evenodd" fill-opacity="1" stroke="#000000" stroke-opacity="1" stroke-width="2.4"/>
<circle clip-path="url(#clip322)" cx="1694.86" cy="548.052" r="14.4" fill="#009af9" fill-rule="evenodd" fill-opacity="1" stroke="#000000" stroke-opacity="1" stroke-width="2.4"/>
<circle clip-path="url(#clip322)" cx="1747.49" cy="842.761" r="14.4" fill="#009af9" fill-rule="evenodd" fill-opacity="1" stroke="#000000" stroke-opacity="1" stroke-width="2.4"/>
<circle clip-path="url(#clip322)" cx="1800.12" cy="823.792" r="14.4" fill="#009af9" fill-rule="evenodd" fill-opacity="1" stroke="#000000" stroke-opacity="1" stroke-width="2.4"/>
<circle clip-path="url(#clip322)" cx="1852.76" cy="877.22" r="14.4" fill="#009af9" fill-rule="evenodd" fill-opacity="1" stroke="#000000" stroke-opacity="1" stroke-width="2.4"/>
<circle clip-path="url(#clip322)" cx="1905.39" cy="853.966" r="14.4" fill="#009af9" fill-rule="evenodd" fill-opacity="1" stroke="#000000" stroke-opacity="1" stroke-width="2.4"/>
<path clip-path="url(#clip320)" d="M1522.34 211.474 L1896.97 211.474 L1896.97 81.8736 L1522.34 81.8736  Z" fill="#ffffff" fill-rule="evenodd" fill-opacity="1"/>
<polyline clip-path="url(#clip320)" style="stroke:#000000; stroke-linecap:round; stroke-linejoin:round; stroke-width:4; stroke-opacity:1; fill:none" points="1522.34,211.474 1896.97,211.474 1896.97,81.8736 1522.34,81.8736 1522.34,211.474 "/>
<circle clip-path="url(#clip320)" cx="1596.72" cy="146.674" r="25.6" fill="#009af9" fill-rule="evenodd" fill-opacity="1" stroke="#000000" stroke-opacity="1" stroke-width="4.26667"/>
<path clip-path="url(#clip320)" d="M1671.11 149.668 L1686.7 149.668 L1686.7 154.414 L1671.11 154.414 L1671.11 149.668 Z" fill="#000000" fill-rule="nonzero" fill-opacity="1" /><path clip-path="url(#clip320)" d="M1695.18 123.251 L1700.51 123.251 L1700.51 168.274 L1695.18 168.274 L1695.18 123.251 Z" fill="#000000" fill-rule="nonzero" fill-opacity="1" /><path clip-path="url(#clip320)" d="M1724.2 139.599 Q1719.92 139.599 1717.43 142.955 Q1714.94 146.283 1714.94 152.099 Q1714.94 157.915 1717.4 161.271 Q1719.89 164.599 1724.2 164.599 Q1728.46 164.599 1730.95 161.242 Q1733.43 157.886 1733.43 152.099 Q1733.43 146.341 1730.95 142.984 Q1728.46 139.599 1724.2 139.599 M1724.2 135.085 Q1731.15 135.085 1735.11 139.599 Q1739.08 144.113 1739.08 152.099 Q1739.08 160.056 1735.11 164.599 Q1731.15 169.113 1724.2 169.113 Q1717.23 169.113 1713.27 164.599 Q1709.33 160.056 1709.33 152.099 Q1709.33 144.113 1713.27 139.599 Q1717.23 135.085 1724.2 135.085 Z" fill="#000000" fill-rule="nonzero" fill-opacity="1" /><path clip-path="url(#clip320)" d="M1769.23 151.694 Q1769.23 145.907 1766.83 142.724 Q1764.45 139.541 1760.14 139.541 Q1755.86 139.541 1753.46 142.724 Q1751.08 145.907 1751.08 151.694 Q1751.08 157.452 1753.46 160.635 Q1755.86 163.818 1760.14 163.818 Q1764.45 163.818 1766.83 160.635 Q1769.23 157.452 1769.23 151.694 M1774.55 164.252 Q1774.55 172.527 1770.88 176.549 Q1767.2 180.6 1759.62 180.6 Q1756.81 180.6 1754.33 180.166 Q1751.84 179.761 1749.49 178.893 L1749.49 173.713 Q1751.84 174.986 1754.12 175.594 Q1756.41 176.202 1758.78 176.202 Q1764.02 176.202 1766.62 173.453 Q1769.23 170.733 1769.23 165.206 L1769.23 162.573 Q1767.58 165.438 1765 166.856 Q1762.43 168.274 1758.84 168.274 Q1752.88 168.274 1749.23 163.731 Q1745.59 159.188 1745.59 151.694 Q1745.59 144.171 1749.23 139.628 Q1752.88 135.085 1758.84 135.085 Q1762.43 135.085 1765 136.503 Q1767.58 137.921 1769.23 140.785 L1769.23 135.866 L1774.55 135.866 L1774.55 164.252 Z" fill="#000000" fill-rule="nonzero" fill-opacity="1" /><path clip-path="url(#clip320)" d="M1785.52 123.251 L1790.84 123.251 L1790.84 168.274 L1785.52 168.274 L1785.52 123.251 Z" fill="#000000" fill-rule="nonzero" fill-opacity="1" /><path clip-path="url(#clip320)" d="M1801.98 135.866 L1807.31 135.866 L1807.31 168.274 L1801.98 168.274 L1801.98 135.866 M1801.98 123.251 L1807.31 123.251 L1807.31 129.993 L1801.98 129.993 L1801.98 123.251 Z" fill="#000000" fill-rule="nonzero" fill-opacity="1" /><path clip-path="url(#clip320)" d="M1818.24 123.251 L1823.6 123.251 L1823.6 149.842 L1839.48 135.866 L1846.28 135.866 L1829.09 151.028 L1847 168.274 L1840.06 168.274 L1823.6 152.446 L1823.6 168.274 L1818.24 168.274 L1818.24 123.251 Z" fill="#000000" fill-rule="nonzero" fill-opacity="1" /><path clip-path="url(#clip320)" d="M1878.37 150.739 L1878.37 153.343 L1853.89 153.343 Q1854.24 158.841 1857.19 161.734 Q1860.17 164.599 1865.46 164.599 Q1868.53 164.599 1871.4 163.846 Q1874.29 163.094 1877.13 161.59 L1877.13 166.624 Q1874.26 167.84 1871.25 168.476 Q1868.24 169.113 1865.15 169.113 Q1857.39 169.113 1852.85 164.599 Q1848.34 160.085 1848.34 152.388 Q1848.34 144.431 1852.62 139.773 Q1856.93 135.085 1864.22 135.085 Q1870.76 135.085 1874.55 139.31 Q1878.37 143.505 1878.37 150.739 M1873.05 149.176 Q1872.99 144.807 1870.59 142.203 Q1868.21 139.599 1864.28 139.599 Q1859.82 139.599 1857.13 142.116 Q1854.47 144.634 1854.06 149.205 L1873.05 149.176 Z" fill="#000000" fill-rule="nonzero" fill-opacity="1" /></svg>
