<?xml version="1.0" encoding="utf-8"?>
<svg xmlns="http://www.w3.org/2000/svg" xmlns:xlink="http://www.w3.org/1999/xlink" width="500" height="300" viewBox="0 0 2000 1200">
<defs>
  <clipPath id="clip690">
    <rect x="0" y="0" width="2000" height="1200"/>
  </clipPath>
</defs>
<path clip-path="url(#clip690)" d="M0 1200 L2000 1200 L2000 0 L0 0  Z" fill="#ffffff" fill-rule="evenodd" fill-opacity="1"/>
<defs>
  <clipPath id="clip691">
    <rect x="400" y="0" width="1401" height="1200"/>
  </clipPath>
</defs>
<path clip-path="url(#clip690)" d="M187.824 1086.13 L1952.76 1086.13 L1952.76 47.2441 L187.824 47.2441  Z" fill="#ffffff" fill-rule="evenodd" fill-opacity="1"/>
<defs>
  <clipPath id="clip692">
    <rect x="187" y="47" width="1766" height="1040"/>
  </clipPath>
</defs>
<polyline clip-path="url(#clip690)" style="stroke:#000000; stroke-linecap:round; stroke-linejoin:round; stroke-width:4; stroke-opacity:1; fill:none" points="187.824,1086.13 1952.76,1086.13 "/>
<polyline clip-path="url(#clip690)" style="stroke:#000000; stroke-linecap:round; stroke-linejoin:round; stroke-width:4; stroke-opacity:1; fill:none" points="209.554,1086.13 209.554,1067.23 "/>
<polyline clip-path="url(#clip690)" style="stroke:#000000; stroke-linecap:round; stroke-linejoin:round; stroke-width:4; stroke-opacity:1; fill:none" points="632.867,1086.13 632.867,1067.23 "/>
<polyline clip-path="url(#clip690)" style="stroke:#000000; stroke-linecap:round; stroke-linejoin:round; stroke-width:4; stroke-opacity:1; fill:none" points="1056.18,1086.13 1056.18,1067.23 "/>
<polyline clip-path="url(#clip690)" style="stroke:#000000; stroke-linecap:round; stroke-linejoin:round; stroke-width:4; stroke-opacity:1; fill:none" points="1479.49,1086.13 1479.49,1067.23 "/>
<polyline clip-path="url(#clip690)" style="stroke:#000000; stroke-linecap:round; stroke-linejoin:round; stroke-width:4; stroke-opacity:1; fill:none" points="1902.8,1086.13 1902.8,1067.23 "/>
<path clip-path="url(#clip690)" d="M209.554 1116.78 Q205.04 1116.78 202.754 1121.23 Q200.497 1125.66 200.497 1134.57 Q200.497 1143.45 202.754 1147.91 Q205.04 1152.34 209.554 1152.34 Q214.097 1152.34 216.354 1147.91 Q218.639 1143.45 218.639 1134.57 Q218.639 1125.66 216.354 1121.23 Q214.097 1116.78 209.554 1116.78 M209.554 1112.15 Q216.816 1112.15 220.636 1117.9 Q224.484 1123.63 224.484 1134.57 Q224.484 1145.48 220.636 1151.24 Q216.816 1156.97 209.554 1156.97 Q202.291 1156.97 198.443 1151.24 Q194.623 1145.48 194.623 1134.57 Q194.623 1123.63 198.443 1117.9 Q202.291 1112.15 209.554 1112.15 Z" fill="#000000" fill-rule="nonzero" fill-opacity="1" /><path clip-path="url(#clip690)" d="M620.714 1112.93 L643.659 1112.93 L643.659 1117.85 L626.067 1117.85 L626.067 1128.44 Q627.34 1128 628.613 1127.8 Q629.886 1127.57 631.159 1127.57 Q638.393 1127.57 642.618 1131.53 Q646.842 1135.5 646.842 1142.27 Q646.842 1149.24 642.502 1153.12 Q638.162 1156.97 630.262 1156.97 Q627.543 1156.97 624.707 1156.5 Q621.9 1156.04 618.891 1155.12 L618.891 1149.24 Q621.495 1150.66 624.273 1151.35 Q627.051 1152.05 630.147 1152.05 Q635.152 1152.05 638.075 1149.41 Q640.997 1146.78 640.997 1142.27 Q640.997 1137.75 638.075 1135.12 Q635.152 1132.49 630.147 1132.49 Q627.803 1132.49 625.459 1133.01 Q623.144 1133.53 620.714 1134.63 L620.714 1112.93 Z" fill="#000000" fill-rule="nonzero" fill-opacity="1" /><path clip-path="url(#clip690)" d="M1024.54 1151.21 L1034.09 1151.21 L1034.09 1118.25 L1023.7 1120.34 L1023.7 1115.01 L1034.03 1112.93 L1039.87 1112.93 L1039.87 1151.21 L1049.42 1151.21 L1049.42 1156.13 L1024.54 1156.13 L1024.54 1151.21 Z" fill="#000000" fill-rule="nonzero" fill-opacity="1" /><path clip-path="url(#clip690)" d="M1073.73 1116.78 Q1069.21 1116.78 1066.93 1121.23 Q1064.67 1125.66 1064.67 1134.57 Q1064.67 1143.45 1066.93 1147.91 Q1069.21 1152.34 1073.73 1152.34 Q1078.27 1152.34 1080.53 1147.91 Q1082.81 1143.45 1082.81 1134.57 Q1082.81 1125.66 1080.53 1121.23 Q1078.27 1116.78 1073.73 1116.78 M1073.73 1112.15 Q1080.99 1112.15 1084.81 1117.9 Q1088.66 1123.63 1088.66 1134.57 Q1088.66 1145.48 1084.81 1151.24 Q1080.99 1156.97 1073.73 1156.97 Q1066.47 1156.97 1062.62 1151.24 Q1058.8 1145.48 1058.8 1134.57 Q1058.8 1123.63 1062.62 1117.9 Q1066.47 1112.15 1073.73 1112.15 Z" fill="#000000" fill-rule="nonzero" fill-opacity="1" /><path clip-path="url(#clip690)" d="M1448.47 1151.21 L1458.02 1151.21 L1458.02 1118.25 L1447.63 1120.34 L1447.63 1115.01 L1457.96 1112.93 L1463.81 1112.93 L1463.81 1151.21 L1473.36 1151.21 L1473.36 1156.13 L1448.47 1156.13 L1448.47 1151.21 Z" fill="#000000" fill-rule="nonzero" fill-opacity="1" /><path clip-path="url(#clip690)" d="M1485.22 1112.93 L1508.17 1112.93 L1508.17 1117.85 L1490.57 1117.85 L1490.57 1128.44 Q1491.85 1128 1493.12 1127.8 Q1494.39 1127.57 1495.67 1127.57 Q1502.9 1127.57 1507.13 1131.53 Q1511.35 1135.5 1511.35 1142.27 Q1511.35 1149.24 1507.01 1153.12 Q1502.67 1156.97 1494.77 1156.97 Q1492.05 1156.97 1489.21 1156.5 Q1486.41 1156.04 1483.4 1155.12 L1483.4 1149.24 Q1486 1150.66 1488.78 1151.35 Q1491.56 1152.05 1494.65 1152.05 Q1499.66 1152.05 1502.58 1149.41 Q1505.5 1146.78 1505.5 1142.27 Q1505.5 1137.75 1502.58 1135.12 Q1499.66 1132.49 1494.65 1132.49 Q1492.31 1132.49 1489.97 1133.01 Q1487.65 1133.53 1485.22 1134.63 L1485.22 1112.93 Z" fill="#000000" fill-rule="nonzero" fill-opacity="1" /><path clip-path="url(#clip690)" d="M1876.27 1151.21 L1896.67 1151.21 L1896.67 1156.13 L1869.24 1156.13 L1869.24 1151.21 Q1872.57 1147.77 1878.3 1141.98 Q1884.06 1136.16 1885.53 1134.48 Q1888.34 1131.33 1889.44 1129.16 Q1890.57 1126.96 1890.57 1124.85 Q1890.57 1121.41 1888.13 1119.24 Q1885.73 1117.07 1881.86 1117.07 Q1879.11 1117.07 1876.04 1118.02 Q1873 1118.98 1869.53 1120.91 L1869.53 1115.01 Q1873.06 1113.59 1876.13 1112.87 Q1879.19 1112.15 1881.74 1112.15 Q1888.45 1112.15 1892.45 1115.5 Q1896.44 1118.86 1896.44 1124.47 Q1896.44 1127.13 1895.43 1129.54 Q1894.44 1131.91 1891.81 1135.15 Q1891.09 1135.99 1887.21 1140.01 Q1883.33 1144 1876.27 1151.21 Z" fill="#000000" fill-rule="nonzero" fill-opacity="1" /><path clip-path="url(#clip690)" d="M1921.44 1116.78 Q1916.93 1116.78 1914.64 1121.23 Q1912.38 1125.66 1912.38 1134.57 Q1912.38 1143.45 1914.64 1147.91 Q1916.93 1152.34 1921.44 1152.34 Q1925.98 1152.34 1928.24 1147.91 Q1930.52 1143.45 1930.52 1134.57 Q1930.52 1125.66 1928.24 1121.23 Q1925.98 1116.78 1921.44 1116.78 M1921.44 1112.15 Q1928.7 1112.15 1932.52 1117.9 Q1936.37 1123.63 1936.37 1134.57 Q1936.37 1145.48 1932.52 1151.24 Q1928.7 1156.97 1921.44 1156.97 Q1914.18 1156.97 1910.33 1151.24 Q1906.51 1145.48 1906.51 1134.57 Q1906.51 1123.63 1910.33 1117.9 Q1914.18 1112.15 1921.44 1112.15 Z" fill="#000000" fill-rule="nonzero" fill-opacity="1" /><polyline clip-path="url(#clip690)" style="stroke:#000000; stroke-linecap:round; stroke-linejoin:round; stroke-width:4; stroke-opacity:1; fill:none" points="187.824,1086.13 187.824,47.2441 "/>
<polyline clip-path="url(#clip690)" style="stroke:#000000; stroke-linecap:round; stroke-linejoin:round; stroke-width:4; stroke-opacity:1; fill:none" points="187.824,1071.36 206.721,1071.36 "/>
<polyline clip-path="url(#clip690)" style="stroke:#000000; stroke-linecap:round; stroke-linejoin:round; stroke-width:4; stroke-opacity:1; fill:none" points="187.824,785.467 206.721,785.467 "/>
<polyline clip-path="url(#clip690)" style="stroke:#000000; stroke-linecap:round; stroke-linejoin:round; stroke-width:4; stroke-opacity:1; fill:none" points="187.824,499.576 206.721,499.576 "/>
<polyline clip-path="url(#clip690)" style="stroke:#000000; stroke-linecap:round; stroke-linejoin:round; stroke-width:4; stroke-opacity:1; fill:none" points="187.824,213.685 206.721,213.685 "/>
<path clip-path="url(#clip690)" d="M142.893 1053.61 Q138.379 1053.61 136.094 1058.06 Q133.837 1062.49 133.837 1071.4 Q133.837 1080.28 136.094 1084.74 Q138.379 1089.17 142.893 1089.17 Q147.436 1089.17 149.693 1084.74 Q151.979 1080.28 151.979 1071.4 Q151.979 1062.49 149.693 1058.06 Q147.436 1053.61 142.893 1053.61 M142.893 1048.98 Q150.156 1048.98 153.975 1054.74 Q157.824 1060.46 157.824 1071.4 Q157.824 1082.31 153.975 1088.07 Q150.156 1093.8 142.893 1093.8 Q135.631 1093.8 131.782 1088.07 Q127.963 1082.31 127.963 1071.4 Q127.963 1060.46 131.782 1054.74 Q135.631 1048.98 142.893 1048.98 Z" fill="#000000" fill-rule="nonzero" fill-opacity="1" /><path clip-path="url(#clip690)" d="M56.0014 802.148 L65.5499 802.148 L65.5499 769.191 L55.1623 771.275 L55.1623 765.951 L65.4921 763.867 L71.3369 763.867 L71.3369 802.148 L80.8855 802.148 L80.8855 807.067 L56.0014 807.067 L56.0014 802.148 Z" fill="#000000" fill-rule="nonzero" fill-opacity="1" /><path clip-path="url(#clip690)" d="M105.191 767.716 Q100.677 767.716 98.3912 772.172 Q96.1343 776.599 96.1343 785.511 Q96.1343 794.394 98.3912 798.85 Q100.677 803.277 105.191 803.277 Q109.734 803.277 111.991 798.85 Q114.277 794.394 114.277 785.511 Q114.277 776.599 111.991 772.172 Q109.734 767.716 105.191 767.716 M105.191 763.086 Q112.454 763.086 116.273 768.844 Q120.121 774.573 120.121 785.511 Q120.121 796.419 116.273 802.177 Q112.454 807.907 105.191 807.907 Q97.9282 807.907 94.0799 802.177 Q90.2604 796.419 90.2604 785.511 Q90.2604 774.573 94.0799 768.844 Q97.9282 763.086 105.191 763.086 Z" fill="#000000" fill-rule="nonzero" fill-opacity="1" /><path clip-path="url(#clip690)" d="M142.893 767.716 Q138.379 767.716 136.094 772.172 Q133.837 776.599 133.837 785.511 Q133.837 794.394 136.094 798.85 Q138.379 803.277 142.893 803.277 Q147.436 803.277 149.693 798.85 Q151.979 794.394 151.979 785.511 Q151.979 776.599 149.693 772.172 Q147.436 767.716 142.893 767.716 M142.893 763.086 Q150.156 763.086 153.975 768.844 Q157.824 774.573 157.824 785.511 Q157.824 796.419 153.975 802.177 Q150.156 807.907 142.893 807.907 Q135.631 807.907 131.782 802.177 Q127.963 796.419 127.963 785.511 Q127.963 774.573 131.782 768.844 Q135.631 763.086 142.893 763.086 Z" fill="#000000" fill-rule="nonzero" fill-opacity="1" /><path clip-path="url(#clip690)" d="M60.0233 516.257 L80.4225 516.257 L80.4225 521.176 L52.9921 521.176 L52.9921 516.257 Q56.3197 512.814 62.0488 507.027 Q67.8069 501.211 69.2825 499.533 Q72.0892 496.379 73.1888 494.209 Q74.3172 492.01 74.3172 489.898 Q74.3172 486.454 71.8867 484.284 Q69.4851 482.114 65.6078 482.114 Q62.859 482.114 59.7919 483.069 Q56.7537 484.024 53.2815 485.962 L53.2815 480.06 Q56.8115 478.642 59.8787 477.918 Q62.9458 477.195 65.4921 477.195 Q72.205 477.195 76.198 480.552 Q80.1911 483.908 80.1911 489.521 Q80.1911 492.183 79.1783 494.585 Q78.1945 496.958 75.5614 500.198 Q74.8381 501.038 70.9608 505.059 Q67.0835 509.053 60.0233 516.257 Z" fill="#000000" fill-rule="nonzero" fill-opacity="1" /><path clip-path="url(#clip690)" d="M105.191 481.825 Q100.677 481.825 98.3912 486.281 Q96.1343 490.708 96.1343 499.62 Q96.1343 508.503 98.3912 512.959 Q100.677 517.386 105.191 517.386 Q109.734 517.386 111.991 512.959 Q114.277 508.503 114.277 499.62 Q114.277 490.708 111.991 486.281 Q109.734 481.825 105.191 481.825 M105.191 477.195 Q112.454 477.195 116.273 482.953 Q120.121 488.682 120.121 499.62 Q120.121 510.528 116.273 516.286 Q112.454 522.015 105.191 522.015 Q97.9282 522.015 94.0799 516.286 Q90.2604 510.528 90.2604 499.62 Q90.2604 488.682 94.0799 482.953 Q97.9282 477.195 105.191 477.195 Z" fill="#000000" fill-rule="nonzero" fill-opacity="1" /><path clip-path="url(#clip690)" d="M142.893 481.825 Q138.379 481.825 136.094 486.281 Q133.837 490.708 133.837 499.62 Q133.837 508.503 136.094 512.959 Q138.379 517.386 142.893 517.386 Q147.436 517.386 149.693 512.959 Q151.979 508.503 151.979 499.62 Q151.979 490.708 149.693 486.281 Q147.436 481.825 142.893 481.825 M142.893 477.195 Q150.156 477.195 153.975 482.953 Q157.824 488.682 157.824 499.62 Q157.824 510.528 153.975 516.286 Q150.156 522.015 142.893 522.015 Q135.631 522.015 131.782 516.286 Q127.963 510.528 127.963 499.62 Q127.963 488.682 131.782 482.953 Q135.631 477.195 142.893 477.195 Z" fill="#000000" fill-rule="nonzero" fill-opacity="1" /><path clip-path="url(#clip690)" d="M72.6969 211.993 Q76.8925 212.89 79.2362 215.725 Q81.6089 218.561 81.6089 222.727 Q81.6089 229.122 77.2107 232.623 Q72.8126 236.124 64.7108 236.124 Q61.9909 236.124 59.0974 235.575 Q56.2328 235.054 53.1657 233.983 L53.1657 228.341 Q55.5963 229.759 58.4898 230.482 Q61.3833 231.205 64.5372 231.205 Q70.0349 231.205 72.8994 229.035 Q75.7929 226.865 75.7929 222.727 Q75.7929 218.908 73.102 216.767 Q70.4399 214.597 65.6657 214.597 L60.631 214.597 L60.631 209.793 L65.8971 209.793 Q70.2085 209.793 72.4943 208.086 Q74.7802 206.35 74.7802 203.109 Q74.7802 199.782 72.4075 198.017 Q70.0638 196.223 65.6657 196.223 Q63.2641 196.223 60.5152 196.744 Q57.7664 197.265 54.4678 198.364 L54.4678 193.156 Q57.7953 192.23 60.6888 191.767 Q63.6113 191.304 66.1865 191.304 Q72.8416 191.304 76.7189 194.342 Q80.5961 197.351 80.5961 202.502 Q80.5961 206.09 78.5418 208.578 Q76.4874 211.038 72.6969 211.993 Z" fill="#000000" fill-rule="nonzero" fill-opacity="1" /><path clip-path="url(#clip690)" d="M105.191 195.934 Q100.677 195.934 98.3912 200.39 Q96.1343 204.817 96.1343 213.729 Q96.1343 222.612 98.3912 227.068 Q100.677 231.495 105.191 231.495 Q109.734 231.495 111.991 227.068 Q114.277 222.612 114.277 213.729 Q114.277 204.817 111.991 200.39 Q109.734 195.934 105.191 195.934 M105.191 191.304 Q112.454 191.304 116.273 197.062 Q120.121 202.791 120.121 213.729 Q120.121 224.637 116.273 230.395 Q112.454 236.124 105.191 236.124 Q97.9282 236.124 94.0799 230.395 Q90.2604 224.637 90.2604 213.729 Q90.2604 202.791 94.0799 197.062 Q97.9282 191.304 105.191 191.304 Z" fill="#000000" fill-rule="nonzero" fill-opacity="1" /><path clip-path="url(#clip690)" d="M142.893 195.934 Q138.379 195.934 136.094 200.39 Q133.837 204.817 133.837 213.729 Q133.837 222.612 136.094 227.068 Q138.379 231.495 142.893 231.495 Q147.436 231.495 149.693 227.068 Q151.979 222.612 151.979 213.729 Q151.979 204.817 149.693 200.39 Q147.436 195.934 142.893 195.934 M142.893 191.304 Q150.156 191.304 153.975 197.062 Q157.824 202.791 157.824 213.729 Q157.824 224.637 153.975 230.395 Q150.156 236.124 142.893 236.124 Q135.631 236.124 131.782 230.395 Q127.963 224.637 127.963 213.729 Q127.963 202.791 131.782 197.062 Q135.631 191.304 142.893 191.304 Z" fill="#000000" fill-rule="nonzero" fill-opacity="1" /><polyline clip-path="url(#clip692)" style="stroke:#009af9; stroke-linecap:round; stroke-linejoin:round; stroke-width:10; stroke-opacity:1; fill:none" points="237.775,522.74 265.996,523.188 294.216,524.533 322.437,526.765 350.658,529.876 378.879,533.849 407.1,538.666 435.321,544.302 463.541,550.732 491.762,557.924 519.983,565.845 548.204,574.458 576.425,583.723 604.646,593.597 632.867,604.037 661.087,614.996 689.308,626.427 717.529,638.281 745.75,650.509 773.971,663.06 802.192,675.884 830.413,688.932 858.633,702.155 886.854,715.503 915.075,728.929 943.296,742.388 971.517,755.834 999.738,769.226 1027.96,782.522 1056.18,795.685 1084.4,808.678 1112.62,821.468 1140.84,834.024 1169.06,846.318 1197.28,858.324 1225.5,870.019 1253.73,881.383 1281.95,892.399 1310.17,903.052 1338.39,913.33 1366.61,923.223 1394.83,932.723 1423.05,941.826 1451.27,950.53 1479.49,958.833 1507.71,966.736 1535.93,974.244 1564.15,981.36 1592.38,988.092 1620.6,994.445 1648.82,1000.43 1677.04,1006.06 1705.26,1011.34 1733.48,1016.28 1761.7,1020.89 1789.92,1025.2 1818.14,1029.21 1846.36,1032.93 1874.58,1036.38 1902.8,1039.58 "/>
<polyline clip-path="url(#clip692)" style="stroke:#e26f46; stroke-linecap:round; stroke-linejoin:round; stroke-width:8; stroke-opacity:0.5; fill:none" points="237.775,768.776 265.996,769.039 294.216,769.827 322.437,771.136 350.658,772.959 378.879,775.287 407.1,778.108 435.321,781.406 463.541,785.166 491.762,789.369 519.983,793.993 548.204,799.015 576.425,804.412 604.646,810.156 632.867,816.222 661.087,822.579 689.308,829.201 717.529,836.056 745.75,843.114 773.971,850.346 802.192,857.72 830.413,865.208 858.633,872.779 886.854,880.405 915.075,888.057 943.296,895.708 971.517,903.333 999.738,910.906 1027.96,918.404 1056.18,925.806 1084.4,933.09 1112.62,940.238 1140.84,947.233 1169.06,954.058 1197.28,960.702 1225.5,967.15 1253.73,973.394 1281.95,979.423 1310.17,985.231 1338.39,990.813 1366.61,996.164 1394.83,1001.28 1423.05,1006.16 1451.27,1010.81 1479.49,1015.23 1507.71,1019.41 1535.93,1023.36 1564.15,1027.1 1592.38,1030.61 1620.6,1033.91 1648.82,1037 1677.04,1039.89 1705.26,1042.59 1733.48,1045.1 1761.7,1047.43 1789.92,1049.6 1818.14,1051.6 1846.36,1053.45 1874.58,1055.16 1902.8,1056.73 "/>
<polyline clip-path="url(#clip692)" style="stroke:#3da44d; stroke-linecap:round; stroke-linejoin:round; stroke-width:8; stroke-opacity:0.5; fill:none" points="237.775,755.707 265.996,755.975 294.216,756.78 322.437,758.116 350.658,759.977 378.879,762.354 407.1,765.235 435.321,768.604 463.541,772.446 491.762,776.741 519.983,781.469 548.204,786.606 576.425,792.127 604.646,798.008 632.867,804.22 661.087,810.735 689.308,817.524 717.529,824.556 745.75,831.802 773.971,839.231 802.192,846.812 830.413,854.515 858.633,862.31 886.854,870.168 915.075,878.059 943.296,885.957 971.517,893.835 999.738,901.668 1027.96,909.431 1056.18,917.101 1084.4,924.659 1112.62,932.083 1140.84,939.357 1169.06,946.463 1197.28,953.388 1225.5,960.119 1253.73,966.644 1281.95,972.954 1310.17,979.041 1338.39,984.899 1366.61,990.523 1394.83,995.91 1423.05,1001.06 1451.27,1005.97 1479.49,1010.63 1507.71,1015.07 1535.93,1019.26 1564.15,1023.23 1592.38,1026.97 1620.6,1030.49 1648.82,1033.79 1677.04,1036.89 1705.26,1039.78 1733.48,1042.48 1761.7,1044.99 1789.92,1047.33 1818.14,1049.5 1846.36,1051.5 1874.58,1053.36 1902.8,1055.06 "/>
<polyline clip-path="url(#clip692)" style="stroke:#c271d2; stroke-linecap:round; stroke-linejoin:round; stroke-width:8; stroke-opacity:0.5; fill:none" points="237.775,365.903 265.996,366.406 294.216,367.91 322.437,370.411 350.658,373.898 378.879,378.355 407.1,383.763 435.321,390.101 463.541,397.341 491.762,405.454 519.983,414.406 548.204,424.16 576.425,434.676 604.646,445.914 632.867,457.828 661.087,470.371 689.308,483.497 717.529,497.154 745.75,511.292 773.971,525.86 802.192,540.806 830.413,556.076 858.633,571.62 886.854,587.384 915.075,603.319 943.296,619.373 971.517,635.498 999.738,651.646 1027.96,667.771 1056.18,683.83 1084.4,699.778 1112.62,715.578 1140.84,731.191 1169.06,746.582 1197.28,761.718 1225.5,776.568 1253.73,791.106 1281.95,805.307 1310.17,819.147 1338.39,832.608 1366.61,845.672 1394.83,858.325 1423.05,870.555 1451.27,882.352 1479.49,893.709 1507.71,904.622 1535.93,915.087 1564.15,925.104 1592.38,934.673 1620.6,943.798 1648.82,952.484 1677.04,960.736 1705.26,968.561 1733.48,975.969 1761.7,982.97 1789.92,989.573 1818.14,995.79 1846.36,1001.63 1874.58,1007.12 1902.8,1012.25 "/>
<polyline clip-path="url(#clip692)" style="stroke:#ac8d18; stroke-linecap:round; stroke-linejoin:round; stroke-width:8; stroke-opacity:0.5; fill:none" points="237.775,76.6465 265.996,77.4116 294.216,79.7035 322.437,83.5116 350.658,88.8184 378.879,95.5996 407.1,103.824 435.321,113.455 463.541,124.448 491.762,136.754 519.983,150.32 548.204,165.084 576.425,180.983 604.646,197.948 632.867,215.907 661.087,234.786 689.308,254.506 717.529,274.988 745.75,296.15 773.971,317.91 802.192,340.186 830.413,362.895 858.633,385.953 886.854,409.281 915.075,432.799 943.296,456.428 971.517,480.093 999.738,503.723 1027.96,527.245 1056.18,550.595 1084.4,573.71 1112.62,596.53 1140.84,619 1169.06,641.07 1197.28,662.692 1225.5,683.825 1253.73,704.43 1281.95,724.473 1310.17,743.926 1338.39,762.764 1366.61,780.965 1394.83,798.513 1423.05,815.394 1451.27,831.601 1479.49,847.126 1507.71,861.969 1535.93,876.13 1564.15,889.613 1592.38,902.426 1620.6,914.576 1648.82,926.076 1677.04,936.94 1705.26,947.183 1733.48,956.821 1761.7,965.874 1789.92,974.361 1818.14,982.302 1846.36,989.719 1874.58,996.633 1902.8,1003.07 "/>
<polyline clip-path="url(#clip692)" style="stroke:#00a9ad; stroke-linecap:round; stroke-linejoin:round; stroke-width:8; stroke-opacity:0.5; fill:none" points="237.775,117.831 265.996,118.581 294.216,120.826 322.437,124.557 350.658,129.755 378.879,136.397 407.1,144.45 435.321,153.879 463.541,164.639 491.762,176.682 519.983,189.952 548.204,204.39 576.425,219.932 604.646,236.509 632.867,254.05 661.087,272.481 689.308,291.723 717.529,311.697 745.75,332.323 773.971,353.519 802.192,375.203 830.413,397.293 858.633,419.708 886.854,442.368 915.075,465.194 943.296,488.11 971.517,511.042 999.738,533.918 1027.96,556.67 1056.18,579.234 1084.4,601.548 1112.62,623.556 1140.84,645.203 1169.06,666.441 1197.28,687.226 1225.5,707.516 1253.73,727.277 1281.95,746.475 1310.17,765.085 1338.39,783.082 1366.61,800.448 1394.83,817.169 1423.05,833.232 1451.27,848.631 1479.49,863.361 1507.71,877.422 1535.93,890.817 1564.15,903.551 1592.38,915.632 1620.6,927.071 1648.82,937.879 1677.04,948.072 1705.26,957.665 1733.48,966.677 1761.7,975.126 1789.92,983.032 1818.14,990.416 1846.36,997.299 1874.58,1003.7 1902.8,1009.65 "/>
<polyline clip-path="url(#clip692)" style="stroke:#ed5d92; stroke-linecap:round; stroke-linejoin:round; stroke-width:8; stroke-opacity:0.5; fill:none" points="237.775,644.708 265.996,645.109 294.216,646.31 322.437,648.303 350.658,651.077 378.879,654.618 407.1,658.905 435.321,663.915 463.541,669.62 491.762,675.989 519.983,682.988 548.204,690.58 576.425,698.724 604.646,707.38 632.867,716.502 661.087,726.045 689.308,735.963 717.529,746.208 745.75,756.732 773.971,767.487 802.192,778.426 830.413,789.501 858.633,800.667 886.854,811.879 915.075,823.094 943.296,834.27 971.517,845.369 999.738,856.352 1027.96,867.186 1056.18,877.838 1084.4,888.279 1112.62,898.482 1140.84,908.423 1169.06,918.081 1197.28,927.437 1225.5,936.476 1253.73,945.185 1281.95,953.553 1310.17,961.573 1338.39,969.239 1366.61,976.548 1394.83,983.499 1423.05,990.094 1451.27,996.334 1479.49,1002.23 1507.71,1007.77 1535.93,1012.99 1564.15,1017.87 1592.38,1022.44 1620.6,1026.71 1648.82,1030.67 1677.04,1034.36 1705.26,1037.77 1733.48,1040.93 1761.7,1043.84 1789.92,1046.52 1818.14,1048.98 1846.36,1051.24 1874.58,1053.3 1902.8,1055.18 "/>
<path clip-path="url(#clip690)" d="M1342.55 211.474 L1893.92 211.474 L1893.92 81.8736 L1342.55 81.8736  Z" fill="#ffffff" fill-rule="evenodd" fill-opacity="1"/>
<polyline clip-path="url(#clip690)" style="stroke:#000000; stroke-linecap:round; stroke-linejoin:round; stroke-width:4; stroke-opacity:1; fill:none" points="1342.55,211.474 1893.92,211.474 1893.92,81.8736 1342.55,81.8736 1342.55,211.474 "/>
<polyline clip-path="url(#clip690)" style="stroke:#009af9; stroke-linecap:round; stroke-linejoin:round; stroke-width:12.5; stroke-opacity:1; fill:none" points="1362.16,146.674 1479.82,146.674 "/>
<path clip-path="url(#clip690)" d="M1499.43 123.251 L1504.79 123.251 L1504.79 149.842 L1520.67 135.866 L1527.47 135.866 L1510.28 151.028 L1528.19 168.274 L1521.25 168.274 L1504.79 152.446 L1504.79 168.274 L1499.43 168.274 L1499.43 123.251 Z" fill="#000000" fill-rule="nonzero" fill-opacity="1" /><path clip-path="url(#clip690)" d="M1559.56 150.739 L1559.56 153.343 L1535.08 153.343 Q1535.43 158.841 1538.38 161.734 Q1541.36 164.599 1546.65 164.599 Q1549.72 164.599 1552.59 163.846 Q1555.48 163.094 1558.32 161.59 L1558.32 166.624 Q1555.45 167.84 1552.44 168.476 Q1549.43 169.113 1546.34 169.113 Q1538.58 169.113 1534.04 164.599 Q1529.52 160.085 1529.52 152.388 Q1529.52 144.431 1533.81 139.773 Q1538.12 135.085 1545.41 135.085 Q1551.95 135.085 1555.74 139.31 Q1559.56 143.505 1559.56 150.739 M1554.24 149.176 Q1554.18 144.807 1551.78 142.203 Q1549.4 139.599 1545.47 139.599 Q1541.01 139.599 1538.32 142.116 Q1535.66 144.634 1535.25 149.205 L1554.24 149.176 Z" fill="#000000" fill-rule="nonzero" fill-opacity="1" /><path clip-path="url(#clip690)" d="M1587.08 140.843 Q1586.18 140.322 1585.11 140.091 Q1584.07 139.83 1582.79 139.83 Q1578.28 139.83 1575.85 142.782 Q1573.45 145.704 1573.45 151.202 L1573.45 168.274 L1568.1 168.274 L1568.1 135.866 L1573.45 135.866 L1573.45 140.901 Q1575.13 137.95 1577.82 136.532 Q1580.51 135.085 1584.36 135.085 Q1584.91 135.085 1585.57 135.172 Q1586.24 135.23 1587.05 135.374 L1587.08 140.843 Z" fill="#000000" fill-rule="nonzero" fill-opacity="1" /><path clip-path="url(#clip690)" d="M1618.56 148.713 L1618.56 168.274 L1613.23 168.274 L1613.23 148.887 Q1613.23 144.286 1611.44 142.001 Q1609.65 139.715 1606.06 139.715 Q1601.75 139.715 1599.26 142.464 Q1596.77 145.212 1596.77 149.958 L1596.77 168.274 L1591.42 168.274 L1591.42 135.866 L1596.77 135.866 L1596.77 140.901 Q1598.68 137.979 1601.25 136.532 Q1603.86 135.085 1607.24 135.085 Q1612.83 135.085 1615.69 138.557 Q1618.56 142.001 1618.56 148.713 Z" fill="#000000" fill-rule="nonzero" fill-opacity="1" /><path clip-path="url(#clip690)" d="M1656.9 150.739 L1656.9 153.343 L1632.42 153.343 Q1632.76 158.841 1635.72 161.734 Q1638.7 164.599 1643.99 164.599 Q1647.06 164.599 1649.92 163.846 Q1652.82 163.094 1655.65 161.59 L1655.65 166.624 Q1652.79 167.84 1649.78 168.476 Q1646.77 169.113 1643.67 169.113 Q1635.92 169.113 1631.38 164.599 Q1626.86 160.085 1626.86 152.388 Q1626.86 144.431 1631.14 139.773 Q1635.46 135.085 1642.75 135.085 Q1649.29 135.085 1653.08 139.31 Q1656.9 143.505 1656.9 150.739 M1651.57 149.176 Q1651.51 144.807 1649.11 142.203 Q1646.74 139.599 1642.81 139.599 Q1638.35 139.599 1635.66 142.116 Q1633 144.634 1632.59 149.205 L1651.57 149.176 Z" fill="#000000" fill-rule="nonzero" fill-opacity="1" /><path clip-path="url(#clip690)" d="M1665.64 123.251 L1670.96 123.251 L1670.96 168.274 L1665.64 168.274 L1665.64 123.251 Z" fill="#000000" fill-rule="nonzero" fill-opacity="1" /><path clip-path="url(#clip690)" d="M1726.17 142.087 Q1728.16 138.499 1730.94 136.792 Q1733.72 135.085 1737.48 135.085 Q1742.54 135.085 1745.29 138.644 Q1748.04 142.174 1748.04 148.713 L1748.04 168.274 L1742.69 168.274 L1742.69 148.887 Q1742.69 144.229 1741.04 141.972 Q1739.39 139.715 1736.01 139.715 Q1731.87 139.715 1729.47 142.464 Q1727.06 145.212 1727.06 149.958 L1727.06 168.274 L1721.71 168.274 L1721.71 148.887 Q1721.71 144.2 1720.06 141.972 Q1718.41 139.715 1714.97 139.715 Q1710.89 139.715 1708.49 142.492 Q1706.09 145.241 1706.09 149.958 L1706.09 168.274 L1700.73 168.274 L1700.73 135.866 L1706.09 135.866 L1706.09 140.901 Q1707.91 137.921 1710.46 136.503 Q1713 135.085 1716.5 135.085 Q1720.03 135.085 1722.49 136.879 Q1724.98 138.673 1726.17 142.087 Z" fill="#000000" fill-rule="nonzero" fill-opacity="1" /><path clip-path="url(#clip690)" d="M1771.22 139.599 Q1766.94 139.599 1764.45 142.955 Q1761.96 146.283 1761.96 152.099 Q1761.96 157.915 1764.42 161.271 Q1766.91 164.599 1771.22 164.599 Q1775.47 164.599 1777.96 161.242 Q1780.45 157.886 1780.45 152.099 Q1780.45 146.341 1777.96 142.984 Q1775.47 139.599 1771.22 139.599 M1771.22 135.085 Q1778.16 135.085 1782.13 139.599 Q1786.09 144.113 1786.09 152.099 Q1786.09 160.056 1782.13 164.599 Q1778.16 169.113 1771.22 169.113 Q1764.25 169.113 1760.28 164.599 Q1756.35 160.056 1756.35 152.099 Q1756.35 144.113 1760.28 139.599 Q1764.25 135.085 1771.22 135.085 Z" fill="#000000" fill-rule="nonzero" fill-opacity="1" /><path clip-path="url(#clip690)" d="M1816.24 140.785 L1816.24 123.251 L1821.57 123.251 L1821.57 168.274 L1816.24 168.274 L1816.24 163.412 Q1814.56 166.306 1811.99 167.724 Q1809.44 169.113 1805.85 169.113 Q1799.98 169.113 1796.28 164.425 Q1792.6 159.738 1792.6 152.099 Q1792.6 144.46 1796.28 139.773 Q1799.98 135.085 1805.85 135.085 Q1809.44 135.085 1811.99 136.503 Q1814.56 137.892 1816.24 140.785 M1798.1 152.099 Q1798.1 157.973 1800.5 161.329 Q1802.93 164.657 1807.16 164.657 Q1811.38 164.657 1813.81 161.329 Q1816.24 157.973 1816.24 152.099 Q1816.24 146.225 1813.81 142.898 Q1811.38 139.541 1807.16 139.541 Q1802.93 139.541 1800.5 142.898 Q1798.1 146.225 1798.1 152.099 Z" fill="#000000" fill-rule="nonzero" fill-opacity="1" /><path clip-path="url(#clip690)" d="M1860.25 150.739 L1860.25 153.343 L1835.77 153.343 Q1836.12 158.841 1839.07 161.734 Q1842.05 164.599 1847.35 164.599 Q1850.41 164.599 1853.28 163.846 Q1856.17 163.094 1859.01 161.59 L1859.01 166.624 Q1856.14 167.84 1853.13 168.476 Q1850.12 169.113 1847.03 169.113 Q1839.27 169.113 1834.73 164.599 Q1830.22 160.085 1830.22 152.388 Q1830.22 144.431 1834.5 139.773 Q1838.81 135.085 1846.1 135.085 Q1852.64 135.085 1856.43 139.31 Q1860.25 143.505 1860.25 150.739 M1854.93 149.176 Q1854.87 144.807 1852.47 142.203 Q1850.1 139.599 1846.16 139.599 Q1841.7 139.599 1839.01 142.116 Q1836.35 144.634 1835.95 149.205 L1854.93 149.176 Z" fill="#000000" fill-rule="nonzero" fill-opacity="1" /><path clip-path="url(#clip690)" d="M1868.99 123.251 L1874.31 123.251 L1874.31 168.274 L1868.99 168.274 L1868.99 123.251 Z" fill="#000000" fill-rule="nonzero" fill-opacity="1" /></svg>
