<?xml version="1.0" encoding="utf-8"?>
<svg xmlns="http://www.w3.org/2000/svg" xmlns:xlink="http://www.w3.org/1999/xlink" width="500" height="300" viewBox="0 0 2000 1200">
<defs>
  <clipPath id="clip020">
    <rect x="0" y="0" width="2000" height="1200"/>
  </clipPath>
</defs>
<path clip-path="url(#clip020)" d="M0 1200 L2000 1200 L2000 0 L0 0  Z" fill="#ffffff" fill-rule="evenodd" fill-opacity="1"/>
<defs>
  <clipPath id="clip021">
    <rect x="400" y="0" width="1401" height="1200"/>
  </clipPath>
</defs>
<path clip-path="url(#clip020)" d="M197.835 1086.13 L1952.76 1086.13 L1952.76 47.2441 L197.835 47.2441  Z" fill="#ffffff" fill-rule="evenodd" fill-opacity="1"/>
<defs>
  <clipPath id="clip022">
    <rect x="197" y="47" width="1756" height="1040"/>
  </clipPath>
</defs>
<polyline clip-path="url(#clip020)" style="stroke:#000000; stroke-linecap:round; stroke-linejoin:round; stroke-width:4; stroke-opacity:1; fill:none" points="197.835,1086.13 1952.76,1086.13 "/>
<polyline clip-path="url(#clip020)" style="stroke:#000000; stroke-linecap:round; stroke-linejoin:round; stroke-width:4; stroke-opacity:1; fill:none" points="523.434,1086.13 523.434,1067.23 "/>
<polyline clip-path="url(#clip020)" style="stroke:#000000; stroke-linecap:round; stroke-linejoin:round; stroke-width:4; stroke-opacity:1; fill:none" points="868.347,1086.13 868.347,1067.23 "/>
<polyline clip-path="url(#clip020)" style="stroke:#000000; stroke-linecap:round; stroke-linejoin:round; stroke-width:4; stroke-opacity:1; fill:none" points="1213.26,1086.13 1213.26,1067.23 "/>
<polyline clip-path="url(#clip020)" style="stroke:#000000; stroke-linecap:round; stroke-linejoin:round; stroke-width:4; stroke-opacity:1; fill:none" points="1558.17,1086.13 1558.17,1067.23 "/>
<polyline clip-path="url(#clip020)" style="stroke:#000000; stroke-linecap:round; stroke-linejoin:round; stroke-width:4; stroke-opacity:1; fill:none" points="1903.09,1086.13 1903.09,1067.23 "/>
<path clip-path="url(#clip020)" d="M495.786 1116.78 Q491.272 1116.78 488.987 1121.23 Q486.73 1125.66 486.73 1134.57 Q486.73 1143.45 488.987 1147.91 Q491.272 1152.34 495.786 1152.34 Q500.329 1152.34 502.586 1147.91 Q504.872 1143.45 504.872 1134.57 Q504.872 1125.66 502.586 1121.23 Q500.329 1116.78 495.786 1116.78 M495.786 1112.15 Q503.049 1112.15 506.868 1117.9 Q510.717 1123.63 510.717 1134.57 Q510.717 1145.48 506.868 1151.24 Q503.049 1156.97 495.786 1156.97 Q488.524 1156.97 484.675 1151.24 Q480.856 1145.48 480.856 1134.57 Q480.856 1123.63 484.675 1117.9 Q488.524 1112.15 495.786 1112.15 Z" fill="#000000" fill-rule="nonzero" fill-opacity="1" /><path clip-path="url(#clip020)" d="M520.989 1148.78 L527.094 1148.78 L527.094 1156.13 L520.989 1156.13 L520.989 1148.78 Z" fill="#000000" fill-rule="nonzero" fill-opacity="1" /><path clip-path="url(#clip020)" d="M539.883 1112.93 L562.829 1112.93 L562.829 1117.85 L545.236 1117.85 L545.236 1128.44 Q546.509 1128 547.783 1127.8 Q549.056 1127.57 550.329 1127.57 Q557.563 1127.57 561.787 1131.53 Q566.012 1135.5 566.012 1142.27 Q566.012 1149.24 561.671 1153.12 Q557.331 1156.97 549.432 1156.97 Q546.712 1156.97 543.876 1156.5 Q541.07 1156.04 538.06 1155.12 L538.06 1149.24 Q540.665 1150.66 543.442 1151.35 Q546.22 1152.05 549.316 1152.05 Q554.322 1152.05 557.244 1149.41 Q560.167 1146.78 560.167 1142.27 Q560.167 1137.75 557.244 1135.12 Q554.322 1132.49 549.316 1132.49 Q546.972 1132.49 544.629 1133.01 Q542.314 1133.53 539.883 1134.63 L539.883 1112.93 Z" fill="#000000" fill-rule="nonzero" fill-opacity="1" /><path clip-path="url(#clip020)" d="M827.289 1151.21 L836.837 1151.21 L836.837 1118.25 L826.449 1120.34 L826.449 1115.01 L836.779 1112.93 L842.624 1112.93 L842.624 1151.21 L852.173 1151.21 L852.173 1156.13 L827.289 1156.13 L827.289 1151.21 Z" fill="#000000" fill-rule="nonzero" fill-opacity="1" /><path clip-path="url(#clip020)" d="M863.978 1148.78 L870.083 1148.78 L870.083 1156.13 L863.978 1156.13 L863.978 1148.78 Z" fill="#000000" fill-rule="nonzero" fill-opacity="1" /><path clip-path="url(#clip020)" d="M895.315 1116.78 Q890.801 1116.78 888.515 1121.23 Q886.258 1125.66 886.258 1134.57 Q886.258 1143.45 888.515 1147.91 Q890.801 1152.34 895.315 1152.34 Q899.858 1152.34 902.115 1147.91 Q904.4 1143.45 904.4 1134.57 Q904.4 1125.66 902.115 1121.23 Q899.858 1116.78 895.315 1116.78 M895.315 1112.15 Q902.578 1112.15 906.397 1117.9 Q910.245 1123.63 910.245 1134.57 Q910.245 1145.48 906.397 1151.24 Q902.578 1156.97 895.315 1156.97 Q888.052 1156.97 884.204 1151.24 Q880.384 1145.48 880.384 1134.57 Q880.384 1123.63 884.204 1117.9 Q888.052 1112.15 895.315 1112.15 Z" fill="#000000" fill-rule="nonzero" fill-opacity="1" /><path clip-path="url(#clip020)" d="M1172.82 1151.21 L1182.37 1151.21 L1182.37 1118.25 L1171.99 1120.34 L1171.99 1115.01 L1182.32 1112.93 L1188.16 1112.93 L1188.16 1151.21 L1197.71 1151.21 L1197.71 1156.13 L1172.82 1156.13 L1172.82 1151.21 Z" fill="#000000" fill-rule="nonzero" fill-opacity="1" /><path clip-path="url(#clip020)" d="M1209.51 1148.78 L1215.62 1148.78 L1215.62 1156.13 L1209.51 1156.13 L1209.51 1148.78 Z" fill="#000000" fill-rule="nonzero" fill-opacity="1" /><path clip-path="url(#clip020)" d="M1228.41 1112.93 L1251.35 1112.93 L1251.35 1117.85 L1233.76 1117.85 L1233.76 1128.44 Q1235.03 1128 1236.31 1127.8 Q1237.58 1127.57 1238.85 1127.57 Q1246.09 1127.57 1250.31 1131.53 Q1254.54 1135.5 1254.54 1142.27 Q1254.54 1149.24 1250.2 1153.12 Q1245.86 1156.97 1237.96 1156.97 Q1235.24 1156.97 1232.4 1156.5 Q1229.59 1156.04 1226.59 1155.12 L1226.59 1149.24 Q1229.19 1150.66 1231.97 1151.35 Q1234.75 1152.05 1237.84 1152.05 Q1242.85 1152.05 1245.77 1149.41 Q1248.69 1146.78 1248.69 1142.27 Q1248.69 1137.75 1245.77 1135.12 Q1242.85 1132.49 1237.84 1132.49 Q1235.5 1132.49 1233.15 1133.01 Q1230.84 1133.53 1228.41 1134.63 L1228.41 1112.93 Z" fill="#000000" fill-rule="nonzero" fill-opacity="1" /><path clip-path="url(#clip020)" d="M1522.22 1151.21 L1542.62 1151.21 L1542.62 1156.13 L1515.19 1156.13 L1515.19 1151.21 Q1518.52 1147.77 1524.25 1141.98 Q1530.01 1136.16 1531.48 1134.48 Q1534.29 1131.33 1535.39 1129.16 Q1536.52 1126.96 1536.52 1124.85 Q1536.52 1121.41 1534.09 1119.24 Q1531.68 1117.07 1527.81 1117.07 Q1525.06 1117.07 1521.99 1118.02 Q1518.95 1118.98 1515.48 1120.91 L1515.48 1115.01 Q1519.01 1113.59 1522.08 1112.87 Q1525.15 1112.15 1527.69 1112.15 Q1534.4 1112.15 1538.4 1115.5 Q1542.39 1118.86 1542.39 1124.47 Q1542.39 1127.13 1541.38 1129.54 Q1540.39 1131.91 1537.76 1135.15 Q1537.04 1135.99 1533.16 1140.01 Q1529.28 1144 1522.22 1151.21 Z" fill="#000000" fill-rule="nonzero" fill-opacity="1" /><path clip-path="url(#clip020)" d="M1554.89 1148.78 L1561 1148.78 L1561 1156.13 L1554.89 1156.13 L1554.89 1148.78 Z" fill="#000000" fill-rule="nonzero" fill-opacity="1" /><path clip-path="url(#clip020)" d="M1586.23 1116.78 Q1581.71 1116.78 1579.43 1121.23 Q1577.17 1125.66 1577.17 1134.57 Q1577.17 1143.45 1579.43 1147.91 Q1581.71 1152.34 1586.23 1152.34 Q1590.77 1152.34 1593.03 1147.91 Q1595.31 1143.45 1595.31 1134.57 Q1595.31 1125.66 1593.03 1121.23 Q1590.77 1116.78 1586.23 1116.78 M1586.23 1112.15 Q1593.49 1112.15 1597.31 1117.9 Q1601.16 1123.63 1601.16 1134.57 Q1601.16 1145.48 1597.31 1151.24 Q1593.49 1156.97 1586.23 1156.97 Q1578.96 1156.97 1575.12 1151.24 Q1571.3 1145.48 1571.3 1134.57 Q1571.3 1123.63 1575.12 1117.9 Q1578.96 1112.15 1586.23 1112.15 Z" fill="#000000" fill-rule="nonzero" fill-opacity="1" /><path clip-path="url(#clip020)" d="M1867.76 1151.21 L1888.16 1151.21 L1888.16 1156.13 L1860.73 1156.13 L1860.73 1151.21 Q1864.05 1147.77 1869.78 1141.98 Q1875.54 1136.16 1877.02 1134.48 Q1879.82 1131.33 1880.92 1129.16 Q1882.05 1126.96 1882.05 1124.85 Q1882.05 1121.41 1879.62 1119.24 Q1877.22 1117.07 1873.34 1117.07 Q1870.59 1117.07 1867.53 1118.02 Q1864.49 1118.98 1861.02 1120.91 L1861.02 1115.01 Q1864.55 1113.59 1867.61 1112.87 Q1870.68 1112.15 1873.23 1112.15 Q1879.94 1112.15 1883.93 1115.5 Q1887.93 1118.86 1887.93 1124.47 Q1887.93 1127.13 1886.91 1129.54 Q1885.93 1131.91 1883.3 1135.15 Q1882.57 1135.99 1878.7 1140.01 Q1874.82 1144 1867.76 1151.21 Z" fill="#000000" fill-rule="nonzero" fill-opacity="1" /><path clip-path="url(#clip020)" d="M1900.43 1148.78 L1906.53 1148.78 L1906.53 1156.13 L1900.43 1156.13 L1900.43 1148.78 Z" fill="#000000" fill-rule="nonzero" fill-opacity="1" /><path clip-path="url(#clip020)" d="M1919.32 1112.93 L1942.27 1112.93 L1942.27 1117.85 L1924.67 1117.85 L1924.67 1128.44 Q1925.95 1128 1927.22 1127.8 Q1928.49 1127.57 1929.77 1127.57 Q1937 1127.57 1941.22 1131.53 Q1945.45 1135.5 1945.45 1142.27 Q1945.45 1149.24 1941.11 1153.12 Q1936.77 1156.97 1928.87 1156.97 Q1926.15 1156.97 1923.31 1156.5 Q1920.51 1156.04 1917.5 1155.12 L1917.5 1149.24 Q1920.1 1150.66 1922.88 1151.35 Q1925.66 1152.05 1928.75 1152.05 Q1933.76 1152.05 1936.68 1149.41 Q1939.6 1146.78 1939.6 1142.27 Q1939.6 1137.75 1936.68 1135.12 Q1933.76 1132.49 1928.75 1132.49 Q1926.41 1132.49 1924.07 1133.01 Q1921.75 1133.53 1919.32 1134.63 L1919.32 1112.93 Z" fill="#000000" fill-rule="nonzero" fill-opacity="1" /><polyline clip-path="url(#clip020)" style="stroke:#000000; stroke-linecap:round; stroke-linejoin:round; stroke-width:4; stroke-opacity:1; fill:none" points="197.835,1086.13 197.835,47.2441 "/>
<polyline clip-path="url(#clip020)" style="stroke:#000000; stroke-linecap:round; stroke-linejoin:round; stroke-width:4; stroke-opacity:1; fill:none" points="197.835,948.551 216.733,948.551 "/>
<polyline clip-path="url(#clip020)" style="stroke:#000000; stroke-linecap:round; stroke-linejoin:round; stroke-width:4; stroke-opacity:1; fill:none" points="197.835,706.355 216.733,706.355 "/>
<polyline clip-path="url(#clip020)" style="stroke:#000000; stroke-linecap:round; stroke-linejoin:round; stroke-width:4; stroke-opacity:1; fill:none" points="197.835,464.159 216.733,464.159 "/>
<polyline clip-path="url(#clip020)" style="stroke:#000000; stroke-linecap:round; stroke-linejoin:round; stroke-width:4; stroke-opacity:1; fill:none" points="197.835,221.964 216.733,221.964 "/>
<path clip-path="url(#clip020)" d="M52.9921 949.115 L90.0868 949.115 L90.0868 954.034 L52.9921 954.034 L52.9921 949.115 Z" fill="#000000" fill-rule="nonzero" fill-opacity="1" /><path clip-path="url(#clip020)" d="M107.737 965.232 L128.136 965.232 L128.136 970.151 L100.706 970.151 L100.706 965.232 Q104.034 961.788 109.763 956.001 Q115.521 950.186 116.996 948.507 Q119.803 945.353 120.903 943.183 Q122.031 940.984 122.031 938.872 Q122.031 935.429 119.601 933.259 Q117.199 931.088 113.322 931.088 Q110.573 931.088 107.506 932.043 Q104.468 932.998 100.995 934.937 L100.995 929.034 Q104.525 927.616 107.593 926.893 Q110.66 926.169 113.206 926.169 Q119.919 926.169 123.912 929.526 Q127.905 932.882 127.905 938.496 Q127.905 941.158 126.892 943.559 Q125.908 945.932 123.275 949.173 Q122.552 950.012 118.675 954.034 Q114.797 958.027 107.737 965.232 Z" fill="#000000" fill-rule="nonzero" fill-opacity="1" /><path clip-path="url(#clip020)" d="M152.905 930.799 Q148.391 930.799 146.105 935.255 Q143.848 939.682 143.848 948.594 Q143.848 957.477 146.105 961.933 Q148.391 966.36 152.905 966.36 Q157.448 966.36 159.705 961.933 Q161.99 957.477 161.99 948.594 Q161.99 939.682 159.705 935.255 Q157.448 930.799 152.905 930.799 M152.905 926.169 Q160.167 926.169 163.987 931.928 Q167.835 937.657 167.835 948.594 Q167.835 959.503 163.987 965.261 Q160.167 970.99 152.905 970.99 Q145.642 970.99 141.794 965.261 Q137.974 959.503 137.974 948.594 Q137.974 937.657 141.794 931.928 Q145.642 926.169 152.905 926.169 Z" fill="#000000" fill-rule="nonzero" fill-opacity="1" /><path clip-path="url(#clip020)" d="M152.905 688.603 Q148.391 688.603 146.105 693.059 Q143.848 697.486 143.848 706.398 Q143.848 715.282 146.105 719.738 Q148.391 724.165 152.905 724.165 Q157.448 724.165 159.705 719.738 Q161.99 715.282 161.99 706.398 Q161.99 697.486 159.705 693.059 Q157.448 688.603 152.905 688.603 M152.905 683.974 Q160.167 683.974 163.987 689.732 Q167.835 695.461 167.835 706.398 Q167.835 717.307 163.987 723.065 Q160.167 728.794 152.905 728.794 Q145.642 728.794 141.794 723.065 Q137.974 717.307 137.974 706.398 Q137.974 695.461 141.794 689.732 Q145.642 683.974 152.905 683.974 Z" fill="#000000" fill-rule="nonzero" fill-opacity="1" /><path clip-path="url(#clip020)" d="M107.737 480.84 L128.136 480.84 L128.136 485.759 L100.706 485.759 L100.706 480.84 Q104.034 477.397 109.763 471.61 Q115.521 465.794 116.996 464.116 Q119.803 460.962 120.903 458.792 Q122.031 456.593 122.031 454.481 Q122.031 451.037 119.601 448.867 Q117.199 446.697 113.322 446.697 Q110.573 446.697 107.506 447.652 Q104.468 448.607 100.995 450.546 L100.995 444.643 Q104.525 443.225 107.593 442.502 Q110.66 441.778 113.206 441.778 Q119.919 441.778 123.912 445.135 Q127.905 448.491 127.905 454.105 Q127.905 456.767 126.892 459.168 Q125.908 461.541 123.275 464.782 Q122.552 465.621 118.675 469.643 Q114.797 473.636 107.737 480.84 Z" fill="#000000" fill-rule="nonzero" fill-opacity="1" /><path clip-path="url(#clip020)" d="M152.905 446.408 Q148.391 446.408 146.105 450.864 Q143.848 455.291 143.848 464.203 Q143.848 473.086 146.105 477.542 Q148.391 481.969 152.905 481.969 Q157.448 481.969 159.705 477.542 Q161.99 473.086 161.99 464.203 Q161.99 455.291 159.705 450.864 Q157.448 446.408 152.905 446.408 M152.905 441.778 Q160.167 441.778 163.987 447.536 Q167.835 453.265 167.835 464.203 Q167.835 475.111 163.987 480.869 Q160.167 486.599 152.905 486.599 Q145.642 486.599 141.794 480.869 Q137.974 475.111 137.974 464.203 Q137.974 453.265 141.794 447.536 Q145.642 441.778 152.905 441.778 Z" fill="#000000" fill-rule="nonzero" fill-opacity="1" /><path clip-path="url(#clip020)" d="M118.761 205.456 L104.005 228.518 L118.761 228.518 L118.761 205.456 M117.228 200.364 L124.577 200.364 L124.577 228.518 L130.741 228.518 L130.741 233.379 L124.577 233.379 L124.577 243.564 L118.761 243.564 L118.761 233.379 L99.2592 233.379 L99.2592 227.736 L117.228 200.364 Z" fill="#000000" fill-rule="nonzero" fill-opacity="1" /><path clip-path="url(#clip020)" d="M152.905 204.212 Q148.391 204.212 146.105 208.668 Q143.848 213.095 143.848 222.007 Q143.848 230.89 146.105 235.346 Q148.391 239.773 152.905 239.773 Q157.448 239.773 159.705 235.346 Q161.99 230.89 161.99 222.007 Q161.99 213.095 159.705 208.668 Q157.448 204.212 152.905 204.212 M152.905 199.583 Q160.167 199.583 163.987 205.341 Q167.835 211.07 167.835 222.007 Q167.835 232.916 163.987 238.674 Q160.167 244.403 152.905 244.403 Q145.642 244.403 141.794 238.674 Q137.974 232.916 137.974 222.007 Q137.974 211.07 141.794 205.341 Q145.642 199.583 152.905 199.583 Z" fill="#000000" fill-rule="nonzero" fill-opacity="1" /><polyline clip-path="url(#clip022)" style="stroke:#0000ff; stroke-linecap:round; stroke-linejoin:round; stroke-width:4; stroke-opacity:1; fill:none" points="247.503,801.296 316.486,833.75 385.468,842.953 454.451,831.812 523.434,803.233 592.416,760.122 661.399,705.386 730.382,641.931 730.382,641.931 799.365,572.663 868.347,500.489 937.33,428.314 1006.31,359.047 1006.31,359.047 1075.3,295.591 1144.28,240.855 1144.28,240.855 1213.26,197.744 1282.24,169.165 1351.23,158.024 1420.21,167.228 1489.19,199.682 1558.17,258.293 1627.16,345.968 1696.14,465.613 1765.12,620.133 1834.11,812.437 1903.09,1045.43 "/>
<circle clip-path="url(#clip022)" cx="247.503" cy="664.891" r="10.8" fill="#ffa500" fill-rule="evenodd" fill-opacity="1" stroke="none"/>
<circle clip-path="url(#clip022)" cx="316.486" cy="660.435" r="10.8" fill="#ffa500" fill-rule="evenodd" fill-opacity="1" stroke="none"/>
<circle clip-path="url(#clip022)" cx="316.486" cy="660.435" r="10.8" fill="#ffa500" fill-rule="evenodd" fill-opacity="1" stroke="none"/>
<circle clip-path="url(#clip022)" cx="385.468" cy="667.022" r="10.8" fill="#ffa500" fill-rule="evenodd" fill-opacity="1" stroke="none"/>
<circle clip-path="url(#clip022)" cx="385.468" cy="667.022" r="10.8" fill="#ffa500" fill-rule="evenodd" fill-opacity="1" stroke="none"/>
<circle clip-path="url(#clip022)" cx="454.451" cy="682.911" r="10.8" fill="#ffa500" fill-rule="evenodd" fill-opacity="1" stroke="none"/>
<circle clip-path="url(#clip022)" cx="454.451" cy="682.911" r="10.8" fill="#ffa500" fill-rule="evenodd" fill-opacity="1" stroke="none"/>
<circle clip-path="url(#clip022)" cx="523.434" cy="706.355" r="10.8" fill="#ffa500" fill-rule="evenodd" fill-opacity="1" stroke="none"/>
<circle clip-path="url(#clip022)" cx="523.434" cy="706.355" r="10.8" fill="#ffa500" fill-rule="evenodd" fill-opacity="1" stroke="none"/>
<circle clip-path="url(#clip022)" cx="592.416" cy="735.612" r="10.8" fill="#ffa500" fill-rule="evenodd" fill-opacity="1" stroke="none"/>
<circle clip-path="url(#clip022)" cx="592.416" cy="735.612" r="10.8" fill="#ffa500" fill-rule="evenodd" fill-opacity="1" stroke="none"/>
<circle clip-path="url(#clip022)" cx="661.399" cy="768.938" r="10.8" fill="#ffa500" fill-rule="evenodd" fill-opacity="1" stroke="none"/>
<circle clip-path="url(#clip022)" cx="661.399" cy="768.938" r="10.8" fill="#ffa500" fill-rule="evenodd" fill-opacity="1" stroke="none"/>
<circle clip-path="url(#clip022)" cx="730.382" cy="804.59" r="10.8" fill="#ffa500" fill-rule="evenodd" fill-opacity="1" stroke="none"/>
<circle clip-path="url(#clip022)" cx="730.382" cy="804.59" r="10.8" fill="#ffa500" fill-rule="evenodd" fill-opacity="1" stroke="none"/>
<circle clip-path="url(#clip022)" cx="799.365" cy="840.822" r="10.8" fill="#ffa500" fill-rule="evenodd" fill-opacity="1" stroke="none"/>
<circle clip-path="url(#clip022)" cx="799.365" cy="840.822" r="10.8" fill="#ffa500" fill-rule="evenodd" fill-opacity="1" stroke="none"/>
<circle clip-path="url(#clip022)" cx="868.347" cy="875.892" r="10.8" fill="#ffa500" fill-rule="evenodd" fill-opacity="1" stroke="none"/>
<circle clip-path="url(#clip022)" cx="868.347" cy="875.892" r="10.8" fill="#ffa500" fill-rule="evenodd" fill-opacity="1" stroke="none"/>
<circle clip-path="url(#clip022)" cx="937.33" cy="908.056" r="10.8" fill="#ffa500" fill-rule="evenodd" fill-opacity="1" stroke="none"/>
<circle clip-path="url(#clip022)" cx="937.33" cy="908.056" r="10.8" fill="#ffa500" fill-rule="evenodd" fill-opacity="1" stroke="none"/>
<circle clip-path="url(#clip022)" cx="1006.31" cy="935.569" r="10.8" fill="#ffa500" fill-rule="evenodd" fill-opacity="1" stroke="none"/>
<circle clip-path="url(#clip022)" cx="1006.31" cy="935.569" r="10.8" fill="#ffa500" fill-rule="evenodd" fill-opacity="1" stroke="none"/>
<circle clip-path="url(#clip022)" cx="1075.3" cy="956.688" r="10.8" fill="#ffa500" fill-rule="evenodd" fill-opacity="1" stroke="none"/>
<circle clip-path="url(#clip022)" cx="1075.3" cy="956.688" r="10.8" fill="#ffa500" fill-rule="evenodd" fill-opacity="1" stroke="none"/>
<circle clip-path="url(#clip022)" cx="1144.28" cy="969.67" r="10.8" fill="#ffa500" fill-rule="evenodd" fill-opacity="1" stroke="none"/>
<circle clip-path="url(#clip022)" cx="1144.28" cy="969.67" r="10.8" fill="#ffa500" fill-rule="evenodd" fill-opacity="1" stroke="none"/>
<circle clip-path="url(#clip022)" cx="1213.26" cy="972.77" r="10.8" fill="#ffa500" fill-rule="evenodd" fill-opacity="1" stroke="none"/>
<circle clip-path="url(#clip022)" cx="1213.26" cy="972.77" r="10.8" fill="#ffa500" fill-rule="evenodd" fill-opacity="1" stroke="none"/>
<circle clip-path="url(#clip022)" cx="1282.24" cy="964.245" r="10.8" fill="#ffa500" fill-rule="evenodd" fill-opacity="1" stroke="none"/>
<circle clip-path="url(#clip022)" cx="1282.24" cy="964.245" r="10.8" fill="#ffa500" fill-rule="evenodd" fill-opacity="1" stroke="none"/>
<circle clip-path="url(#clip022)" cx="1351.23" cy="942.35" r="10.8" fill="#ffa500" fill-rule="evenodd" fill-opacity="1" stroke="none"/>
<circle clip-path="url(#clip022)" cx="1420.21" cy="905.343" r="10.8" fill="#ffa500" fill-rule="evenodd" fill-opacity="1" stroke="none"/>
<circle clip-path="url(#clip022)" cx="1489.19" cy="851.479" r="10.8" fill="#ffa500" fill-rule="evenodd" fill-opacity="1" stroke="none"/>
<circle clip-path="url(#clip022)" cx="1558.17" cy="779.014" r="10.8" fill="#ffa500" fill-rule="evenodd" fill-opacity="1" stroke="none"/>
<circle clip-path="url(#clip022)" cx="1627.16" cy="686.204" r="10.8" fill="#ffa500" fill-rule="evenodd" fill-opacity="1" stroke="none"/>
<circle clip-path="url(#clip022)" cx="1696.14" cy="571.307" r="10.8" fill="#ffa500" fill-rule="evenodd" fill-opacity="1" stroke="none"/>
<circle clip-path="url(#clip022)" cx="1765.12" cy="432.577" r="10.8" fill="#ffa500" fill-rule="evenodd" fill-opacity="1" stroke="none"/>
<circle clip-path="url(#clip022)" cx="1834.11" cy="268.272" r="10.8" fill="#ffa500" fill-rule="evenodd" fill-opacity="1" stroke="none"/>
<circle clip-path="url(#clip022)" cx="1903.09" cy="76.6465" r="10.8" fill="#ffa500" fill-rule="evenodd" fill-opacity="1" stroke="none"/>
<circle clip-path="url(#clip022)" cx="247.503" cy="857.489" r="10.8" fill="#000000" fill-rule="evenodd" fill-opacity="1" stroke="none"/>
<circle clip-path="url(#clip022)" cx="316.486" cy="810.901" r="10.8" fill="#000000" fill-rule="evenodd" fill-opacity="1" stroke="none"/>
<circle clip-path="url(#clip022)" cx="385.468" cy="613.96" r="10.8" fill="#000000" fill-rule="evenodd" fill-opacity="1" stroke="none"/>
<circle clip-path="url(#clip022)" cx="454.451" cy="895.807" r="10.8" fill="#000000" fill-rule="evenodd" fill-opacity="1" stroke="none"/>
<circle clip-path="url(#clip022)" cx="523.434" cy="922.346" r="10.8" fill="#000000" fill-rule="evenodd" fill-opacity="1" stroke="none"/>
<circle clip-path="url(#clip022)" cx="592.416" cy="762.88" r="10.8" fill="#000000" fill-rule="evenodd" fill-opacity="1" stroke="none"/>
<circle clip-path="url(#clip022)" cx="661.399" cy="782.305" r="10.8" fill="#000000" fill-rule="evenodd" fill-opacity="1" stroke="none"/>
<circle clip-path="url(#clip022)" cx="730.382" cy="617.01" r="10.8" fill="#000000" fill-rule="evenodd" fill-opacity="1" stroke="none"/>
<circle clip-path="url(#clip022)" cx="799.365" cy="603.774" r="10.8" fill="#000000" fill-rule="evenodd" fill-opacity="1" stroke="none"/>
<circle clip-path="url(#clip022)" cx="868.347" cy="381.372" r="10.8" fill="#000000" fill-rule="evenodd" fill-opacity="1" stroke="none"/>
<circle clip-path="url(#clip022)" cx="937.33" cy="468.999" r="10.8" fill="#000000" fill-rule="evenodd" fill-opacity="1" stroke="none"/>
<circle clip-path="url(#clip022)" cx="1006.31" cy="468.707" r="10.8" fill="#000000" fill-rule="evenodd" fill-opacity="1" stroke="none"/>
<circle clip-path="url(#clip022)" cx="1075.3" cy="292.6" r="10.8" fill="#000000" fill-rule="evenodd" fill-opacity="1" stroke="none"/>
<circle clip-path="url(#clip022)" cx="1144.28" cy="199.355" r="10.8" fill="#000000" fill-rule="evenodd" fill-opacity="1" stroke="none"/>
<circle clip-path="url(#clip022)" cx="1213.26" cy="195.962" r="10.8" fill="#000000" fill-rule="evenodd" fill-opacity="1" stroke="none"/>
<circle clip-path="url(#clip022)" cx="1282.24" cy="156.287" r="10.8" fill="#000000" fill-rule="evenodd" fill-opacity="1" stroke="none"/>
<circle clip-path="url(#clip022)" cx="1351.23" cy="191.239" r="10.8" fill="#000000" fill-rule="evenodd" fill-opacity="1" stroke="none"/>
<circle clip-path="url(#clip022)" cx="1420.21" cy="157.349" r="10.8" fill="#000000" fill-rule="evenodd" fill-opacity="1" stroke="none"/>
<circle clip-path="url(#clip022)" cx="1489.19" cy="273.697" r="10.8" fill="#000000" fill-rule="evenodd" fill-opacity="1" stroke="none"/>
<circle clip-path="url(#clip022)" cx="1558.17" cy="321.528" r="10.8" fill="#000000" fill-rule="evenodd" fill-opacity="1" stroke="none"/>
<circle clip-path="url(#clip022)" cx="1627.16" cy="380.731" r="10.8" fill="#000000" fill-rule="evenodd" fill-opacity="1" stroke="none"/>
<circle clip-path="url(#clip022)" cx="1696.14" cy="428.163" r="10.8" fill="#000000" fill-rule="evenodd" fill-opacity="1" stroke="none"/>
<circle clip-path="url(#clip022)" cx="1765.12" cy="597.511" r="10.8" fill="#000000" fill-rule="evenodd" fill-opacity="1" stroke="none"/>
<circle clip-path="url(#clip022)" cx="1834.11" cy="774.898" r="10.8" fill="#000000" fill-rule="evenodd" fill-opacity="1" stroke="none"/>
<circle clip-path="url(#clip022)" cx="1903.09" cy="1056.73" r="10.8" fill="#000000" fill-rule="evenodd" fill-opacity="1" stroke="none"/>
<circle clip-path="url(#clip022)" cx="316.486" cy="833.758" r="10.8" fill="#000000" fill-rule="evenodd" fill-opacity="1" stroke="none"/>
<circle clip-path="url(#clip022)" cx="385.468" cy="890.35" r="10.8" fill="#000000" fill-rule="evenodd" fill-opacity="1" stroke="none"/>
<circle clip-path="url(#clip022)" cx="454.451" cy="853.328" r="10.8" fill="#000000" fill-rule="evenodd" fill-opacity="1" stroke="none"/>
<circle clip-path="url(#clip022)" cx="523.434" cy="823.437" r="10.8" fill="#000000" fill-rule="evenodd" fill-opacity="1" stroke="none"/>
<circle clip-path="url(#clip022)" cx="592.416" cy="729.563" r="10.8" fill="#000000" fill-rule="evenodd" fill-opacity="1" stroke="none"/>
<circle clip-path="url(#clip022)" cx="661.399" cy="735.284" r="10.8" fill="#000000" fill-rule="evenodd" fill-opacity="1" stroke="none"/>
<circle clip-path="url(#clip022)" cx="730.382" cy="666.172" r="10.8" fill="#000000" fill-rule="evenodd" fill-opacity="1" stroke="none"/>
<circle clip-path="url(#clip022)" cx="799.365" cy="656.138" r="10.8" fill="#000000" fill-rule="evenodd" fill-opacity="1" stroke="none"/>
<circle clip-path="url(#clip022)" cx="868.347" cy="515.006" r="10.8" fill="#000000" fill-rule="evenodd" fill-opacity="1" stroke="none"/>
<circle clip-path="url(#clip022)" cx="937.33" cy="470.621" r="10.8" fill="#000000" fill-rule="evenodd" fill-opacity="1" stroke="none"/>
<circle clip-path="url(#clip022)" cx="1006.31" cy="372.997" r="10.8" fill="#000000" fill-rule="evenodd" fill-opacity="1" stroke="none"/>
<circle clip-path="url(#clip022)" cx="1075.3" cy="372.364" r="10.8" fill="#000000" fill-rule="evenodd" fill-opacity="1" stroke="none"/>
<circle clip-path="url(#clip022)" cx="1144.28" cy="346.006" r="10.8" fill="#000000" fill-rule="evenodd" fill-opacity="1" stroke="none"/>
<circle clip-path="url(#clip022)" cx="1213.26" cy="219.768" r="10.8" fill="#000000" fill-rule="evenodd" fill-opacity="1" stroke="none"/>
<circle clip-path="url(#clip022)" cx="1282.24" cy="163.058" r="10.8" fill="#000000" fill-rule="evenodd" fill-opacity="1" stroke="none"/>
<path clip-path="url(#clip020)" d="M256.333 341.074 L571.147 341.074 L571.147 81.8736 L256.333 81.8736  Z" fill="#ffffff" fill-rule="evenodd" fill-opacity="1"/>
<polyline clip-path="url(#clip020)" style="stroke:#000000; stroke-linecap:round; stroke-linejoin:round; stroke-width:4; stroke-opacity:1; fill:none" points="256.333,341.074 571.147,341.074 571.147,81.8736 256.333,81.8736 256.333,341.074 "/>
<polyline clip-path="url(#clip020)" style="stroke:#0000ff; stroke-linecap:round; stroke-linejoin:round; stroke-width:5; stroke-opacity:1; fill:none" points="275.832,146.674 392.826,146.674 "/>
<path clip-path="url(#clip020)" d="M421.585 126.665 L421.585 135.866 L432.551 135.866 L432.551 140.004 L421.585 140.004 L421.585 157.597 Q421.585 161.561 422.655 162.689 Q423.755 163.818 427.082 163.818 L432.551 163.818 L432.551 168.274 L427.082 168.274 Q420.919 168.274 418.576 165.988 Q416.232 163.673 416.232 157.597 L416.232 140.004 L412.326 140.004 L412.326 135.866 L416.232 135.866 L416.232 126.665 L421.585 126.665 Z" fill="#000000" fill-rule="nonzero" fill-opacity="1" /><path clip-path="url(#clip020)" d="M458.332 140.843 Q457.435 140.322 456.365 140.091 Q455.323 139.83 454.05 139.83 Q449.536 139.83 447.105 142.782 Q444.704 145.704 444.704 151.202 L444.704 168.274 L439.351 168.274 L439.351 135.866 L444.704 135.866 L444.704 140.901 Q446.382 137.95 449.073 136.532 Q451.764 135.085 455.612 135.085 Q456.162 135.085 456.828 135.172 Q457.493 135.23 458.303 135.374 L458.332 140.843 Z" fill="#000000" fill-rule="nonzero" fill-opacity="1" /><path clip-path="url(#clip020)" d="M463.367 155.484 L463.367 135.866 L468.691 135.866 L468.691 155.282 Q468.691 159.882 470.485 162.197 Q472.279 164.483 475.867 164.483 Q480.178 164.483 482.667 161.734 Q485.184 158.985 485.184 154.24 L485.184 135.866 L490.508 135.866 L490.508 168.274 L485.184 168.274 L485.184 163.297 Q483.245 166.248 480.67 167.695 Q478.124 169.113 474.738 169.113 Q469.154 169.113 466.26 165.64 Q463.367 162.168 463.367 155.484 M476.764 135.085 L476.764 135.085 Z" fill="#000000" fill-rule="nonzero" fill-opacity="1" /><path clip-path="url(#clip020)" d="M506.741 126.665 L506.741 135.866 L517.707 135.866 L517.707 140.004 L506.741 140.004 L506.741 157.597 Q506.741 161.561 507.811 162.689 Q508.911 163.818 512.238 163.818 L517.707 163.818 L517.707 168.274 L512.238 168.274 Q506.075 168.274 503.731 165.988 Q501.388 163.673 501.388 157.597 L501.388 140.004 L497.481 140.004 L497.481 135.866 L501.388 135.866 L501.388 126.665 L506.741 126.665 Z" fill="#000000" fill-rule="nonzero" fill-opacity="1" /><path clip-path="url(#clip020)" d="M551.648 148.713 L551.648 168.274 L546.324 168.274 L546.324 148.887 Q546.324 144.286 544.53 142.001 Q542.736 139.715 539.148 139.715 Q534.836 139.715 532.348 142.464 Q529.86 145.212 529.86 149.958 L529.86 168.274 L524.507 168.274 L524.507 123.251 L529.86 123.251 L529.86 140.901 Q531.769 137.979 534.345 136.532 Q536.949 135.085 540.334 135.085 Q545.919 135.085 548.783 138.557 Q551.648 142.001 551.648 148.713 Z" fill="#000000" fill-rule="nonzero" fill-opacity="1" /><circle clip-path="url(#clip020)" cx="334.329" cy="211.474" r="28.8" fill="#ffa500" fill-rule="evenodd" fill-opacity="1" stroke="none"/>
<path clip-path="url(#clip020)" d="M412.326 200.666 L417.65 200.666 L417.65 233.074 L412.326 233.074 L412.326 200.666 M412.326 188.051 L417.65 188.051 L417.65 194.793 L412.326 194.793 L412.326 188.051 Z" fill="#000000" fill-rule="nonzero" fill-opacity="1" /><path clip-path="url(#clip020)" d="M455.728 213.513 L455.728 233.074 L450.404 233.074 L450.404 213.687 Q450.404 209.086 448.61 206.801 Q446.816 204.515 443.228 204.515 Q438.917 204.515 436.428 207.264 Q433.94 210.012 433.94 214.758 L433.94 233.074 L428.587 233.074 L428.587 200.666 L433.94 200.666 L433.94 205.701 Q435.85 202.779 438.425 201.332 Q441.029 199.885 444.415 199.885 Q449.999 199.885 452.864 203.357 Q455.728 206.801 455.728 213.513 Z" fill="#000000" fill-rule="nonzero" fill-opacity="1" /><path clip-path="url(#clip020)" d="M466.347 200.666 L471.671 200.666 L471.671 233.074 L466.347 233.074 L466.347 200.666 M466.347 188.051 L471.671 188.051 L471.671 194.793 L466.347 194.793 L466.347 188.051 Z" fill="#000000" fill-rule="nonzero" fill-opacity="1" /><path clip-path="url(#clip020)" d="M488.077 191.465 L488.077 200.666 L499.044 200.666 L499.044 204.804 L488.077 204.804 L488.077 222.397 Q488.077 226.361 489.148 227.489 Q490.248 228.618 493.575 228.618 L499.044 228.618 L499.044 233.074 L493.575 233.074 Q487.412 233.074 485.068 230.788 Q482.724 228.473 482.724 222.397 L482.724 204.804 L478.818 204.804 L478.818 200.666 L482.724 200.666 L482.724 191.465 L488.077 191.465 Z" fill="#000000" fill-rule="nonzero" fill-opacity="1" /><circle clip-path="url(#clip020)" cx="334.329" cy="276.274" r="28.8" fill="#000000" fill-rule="evenodd" fill-opacity="1" stroke="none"/>
<path clip-path="url(#clip020)" d="M435.965 270.385 L435.965 252.851 L441.29 252.851 L441.29 297.874 L435.965 297.874 L435.965 293.012 Q434.287 295.906 431.712 297.324 Q429.166 298.713 425.578 298.713 Q419.704 298.713 416 294.025 Q412.326 289.338 412.326 281.699 Q412.326 274.06 416 269.373 Q419.704 264.685 425.578 264.685 Q429.166 264.685 431.712 266.103 Q434.287 267.492 435.965 270.385 M417.823 281.699 Q417.823 287.573 420.225 290.929 Q422.655 294.257 426.88 294.257 Q431.104 294.257 433.535 290.929 Q435.965 287.573 435.965 281.699 Q435.965 275.825 433.535 272.498 Q431.104 269.141 426.88 269.141 Q422.655 269.141 420.225 272.498 Q417.823 275.825 417.823 281.699 Z" fill="#000000" fill-rule="nonzero" fill-opacity="1" /><path clip-path="url(#clip020)" d="M466.984 281.583 Q460.531 281.583 458.043 283.059 Q455.554 284.535 455.554 288.094 Q455.554 290.929 457.406 292.607 Q459.287 294.257 462.499 294.257 Q466.926 294.257 469.588 291.132 Q472.279 287.978 472.279 282.769 L472.279 281.583 L466.984 281.583 M477.603 279.384 L477.603 297.874 L472.279 297.874 L472.279 292.955 Q470.456 295.906 467.736 297.324 Q465.016 298.713 461.081 298.713 Q456.104 298.713 453.153 295.935 Q450.23 293.128 450.23 288.441 Q450.23 282.972 453.876 280.194 Q457.551 277.416 464.814 277.416 L472.279 277.416 L472.279 276.896 Q472.279 273.221 469.848 271.224 Q467.447 269.199 463.078 269.199 Q460.3 269.199 457.667 269.864 Q455.034 270.53 452.603 271.861 L452.603 266.942 Q455.526 265.814 458.274 265.264 Q461.023 264.685 463.627 264.685 Q470.659 264.685 474.131 268.331 Q477.603 271.977 477.603 279.384 Z" fill="#000000" fill-rule="nonzero" fill-opacity="1" /><path clip-path="url(#clip020)" d="M493.836 256.265 L493.836 265.466 L504.802 265.466 L504.802 269.604 L493.836 269.604 L493.836 287.197 Q493.836 291.161 494.906 292.289 Q496.006 293.418 499.333 293.418 L504.802 293.418 L504.802 297.874 L499.333 297.874 Q493.17 297.874 490.826 295.588 Q488.483 293.273 488.483 287.197 L488.483 269.604 L484.576 269.604 L484.576 265.466 L488.483 265.466 L488.483 256.265 L493.836 256.265 Z" fill="#000000" fill-rule="nonzero" fill-opacity="1" /><path clip-path="url(#clip020)" d="M526.532 281.583 Q520.08 281.583 517.591 283.059 Q515.103 284.535 515.103 288.094 Q515.103 290.929 516.955 292.607 Q518.835 294.257 522.047 294.257 Q526.474 294.257 529.136 291.132 Q531.827 287.978 531.827 282.769 L531.827 281.583 L526.532 281.583 M537.151 279.384 L537.151 297.874 L531.827 297.874 L531.827 292.955 Q530.004 295.906 527.284 297.324 Q524.565 298.713 520.629 298.713 Q515.653 298.713 512.701 295.935 Q509.779 293.128 509.779 288.441 Q509.779 282.972 513.425 280.194 Q517.099 277.416 524.362 277.416 L531.827 277.416 L531.827 276.896 Q531.827 273.221 529.397 271.224 Q526.995 269.199 522.626 269.199 Q519.848 269.199 517.215 269.864 Q514.582 270.53 512.151 271.861 L512.151 266.942 Q515.074 265.814 517.823 265.264 Q520.572 264.685 523.176 264.685 Q530.207 264.685 533.679 268.331 Q537.151 271.977 537.151 279.384 Z" fill="#000000" fill-rule="nonzero" fill-opacity="1" /></svg>
